<svg id="svg" version="1.1" xmlns="http://www.w3.org/2000/svg" xmlns:xlink="http://www.w3.org/1999/xlink" width="400" height="396.34703196347033" viewBox="0, 0, 400,396.34703196347033"><g id="svgg"><path id="path0" d="M267.988 29.931 C 267.988 59.333,267.974 59.875,267.195 60.654 C 266.409 61.441,265.874 61.447,199.434 61.447 C 126.437 61.447,131.252 61.298,131.198 63.557 C 131.187 64.032,131.143 77.800,131.099 94.153 C 131.038 117.530,130.912 124.076,130.511 124.777 L 130.002 125.669 65.628 125.669 C 30.222 125.669,0.972 125.777,0.627 125.910 C 0.058 126.128,-0.000 135.319,0.000 226.039 L 0.000 325.927 1.114 325.005 C 1.726 324.498,2.812 323.370,3.526 322.498 C 4.240 321.625,6.029 319.574,7.500 317.939 C 12.269 312.640,18.800 305.255,20.020 303.784 C 20.674 302.995,22.385 301.085,23.821 299.539 C 25.258 297.994,27.472 295.481,28.741 293.954 C 31.196 291.002,34.028 287.807,38.858 282.538 C 40.498 280.750,42.460 278.486,43.219 277.507 C 43.978 276.528,45.656 274.605,46.948 273.234 C 48.240 271.862,49.562 270.344,49.885 269.860 C 50.209 269.375,51.916 267.455,53.681 265.592 C 55.445 263.729,57.841 261.053,59.006 259.645 C 60.171 258.238,62.580 255.549,64.358 253.670 C 67.648 250.195,72.263 244.895,74.227 242.338 C 74.825 241.561,76.658 239.509,78.301 237.777 C 79.944 236.046,82.205 233.527,83.325 232.181 C 84.446 230.834,86.651 228.305,88.227 226.561 C 89.803 224.817,92.462 221.873,94.138 220.020 C 95.813 218.167,97.522 216.000,97.935 215.205 C 99.075 213.010,101.064 212.488,108.283 212.488 L 114.145 212.488 115.547 211.256 C 116.554 210.372,117.127 209.394,117.580 207.787 C 117.926 206.557,118.536 204.569,118.934 203.370 C 119.333 202.170,120.139 199.584,120.726 197.621 C 121.312 195.659,122.107 193.251,122.491 192.270 C 122.875 191.288,123.314 189.956,123.467 189.308 C 124.172 186.327,128.103 180.773,129.508 180.773 C 130.414 180.773,149.401 199.687,150.090 201.276 C 150.419 202.033,150.644 203.903,150.644 205.875 C 150.644 211.923,151.173 212.488,156.836 212.488 C 161.829 212.488,162.991 213.065,166.898 217.488 C 172.423 223.742,196.231 247.374,197.007 247.374 C 198.436 247.374,199.034 246.868,201.864 243.266 C 203.430 241.274,206.237 237.870,208.104 235.703 C 211.480 231.781,212.873 230.028,216.650 224.941 C 217.740 223.474,219.544 221.275,220.658 220.056 C 221.772 218.837,223.351 216.947,224.166 215.857 C 224.981 214.767,227.727 211.665,230.267 208.964 C 234.435 204.532,236.058 202.463,240.399 196.036 C 241.136 194.945,242.822 192.805,244.146 191.278 C 245.471 189.752,247.465 187.224,248.577 185.661 C 252.132 180.667,252.244 180.764,255.316 191.477 C 256.726 196.394,257.698 199.495,258.484 201.586 C 258.894 202.676,259.349 204.103,259.496 204.757 C 260.153 207.688,262.147 211.755,263.107 212.120 C 263.640 212.322,267.632 212.488,271.978 212.488 C 280.978 212.488,280.823 212.412,278.196 215.518 C 276.033 218.075,272.928 221.940,271.160 224.277 C 270.396 225.285,268.612 227.372,267.195 228.913 C 265.778 230.454,263.548 233.125,262.240 234.847 C 260.932 236.569,259.141 238.799,258.261 239.802 C 257.382 240.805,255.865 242.689,254.892 243.989 C 253.918 245.289,251.338 248.527,249.158 251.184 C 246.977 253.841,243.766 257.833,242.022 260.055 C 236.536 267.042,231.390 273.411,228.741 276.492 C 227.760 277.634,225.976 279.870,224.777 281.463 C 223.578 283.055,221.883 285.192,221.011 286.213 C 220.139 287.233,217.972 289.927,216.197 292.200 C 214.421 294.473,212.417 296.957,211.743 297.721 C 211.069 298.484,210.515 299.249,210.512 299.422 C 210.508 299.595,209.741 300.576,208.807 301.603 C 207.872 302.629,206.327 304.504,205.373 305.768 C 203.626 308.085,202.727 308.821,201.644 308.821 C 200.947 308.821,197.335 305.405,174.436 283.090 C 134.592 244.261,134.111 243.806,132.954 243.806 C 132.421 243.806,131.350 244.599,130.167 245.870 C 124.531 251.926,123.358 253.224,122.539 254.311 C 122.046 254.965,120.445 256.749,118.980 258.276 C 116.179 261.194,114.083 263.535,109.083 269.327 C 107.413 271.262,104.696 274.295,103.045 276.066 C 97.701 281.803,89.429 290.964,88.106 292.612 C 87.396 293.495,85.077 296.144,82.952 298.499 C 80.827 300.853,77.490 304.585,75.536 306.791 C 73.582 308.998,71.849 310.803,71.683 310.803 C 71.518 310.803,70.629 311.829,69.709 313.082 C 68.788 314.336,65.883 317.682,63.254 320.518 C 57.501 326.723,53.297 331.424,51.487 333.678 C 50.751 334.594,47.805 337.895,44.940 341.012 C 42.076 344.129,38.151 348.484,36.219 350.688 C 31.157 356.464,18.616 370.363,13.270 376.124 C 11.302 378.245,8.811 381.051,7.734 382.359 C 6.658 383.667,4.700 385.920,3.384 387.365 C -0.094 391.183,0.000 391.004,0.000 393.839 L 0.000 396.432 65.583 396.432 L 131.166 396.432 131.292 321.567 C 131.424 242.620,131.359 245.391,133.077 245.391 C 133.392 245.391,134.486 246.239,135.509 247.275 C 136.533 248.310,138.211 249.835,139.240 250.663 C 140.268 251.490,144.638 255.645,148.949 259.896 C 158.414 269.226,171.313 281.827,182.504 292.675 C 187.053 297.085,192.835 302.716,195.351 305.187 C 202.574 312.281,202.883 312.178,211.613 299.773 C 212.330 298.753,213.290 297.604,213.746 297.219 C 214.201 296.834,215.219 295.641,216.008 294.568 C 217.267 292.857,218.409 291.392,221.585 287.413 C 222.020 286.868,223.059 285.619,223.894 284.638 C 224.729 283.657,226.146 281.873,227.043 280.674 C 228.810 278.311,229.364 277.633,233.194 273.142 C 234.588 271.506,236.720 268.831,237.932 267.195 C 239.143 265.560,241.385 262.778,242.914 261.014 C 244.443 259.249,245.900 257.419,246.153 256.946 C 246.407 256.473,247.989 254.438,249.670 252.423 C 251.350 250.409,253.082 248.282,253.518 247.695 C 256.442 243.765,258.880 240.720,259.647 240.040 C 260.138 239.604,261.510 237.872,262.694 236.191 C 264.820 233.175,266.608 231.387,267.275 231.609 C 267.466 231.673,267.609 268.187,267.598 314.078 L 267.579 396.432 333.789 396.432 L 400.000 396.432 400.000 230.057 L 400.000 63.683 398.513 65.411 C 397.696 66.362,395.097 69.560,392.739 72.519 C 390.381 75.478,387.853 78.612,387.122 79.485 C 385.571 81.335,381.126 86.866,379.987 88.363 C 379.555 88.931,377.057 92.052,374.437 95.299 C 371.817 98.547,368.959 102.110,368.087 103.219 C 364.571 107.688,355.018 119.672,353.193 121.903 C 352.122 123.211,348.912 127.225,346.060 130.823 C 343.208 134.420,339.134 139.504,337.008 142.121 C 334.882 144.737,332.412 147.877,331.519 149.097 C 329.271 152.171,328.135 152.626,322.722 152.626 C 314.853 152.626,315.390 151.921,311.566 167.294 C 308.890 178.050,305.321 183.956,304.325 179.278 C 303.779 176.714,300.874 164.669,299.235 158.176 C 297.936 153.026,297.166 152.610,289.039 152.666 C 279.912 152.728,280.155 152.502,277.906 163.021 C 277.500 164.923,277.035 166.692,276.874 166.953 C 276.712 167.214,276.261 168.869,275.870 170.632 C 273.965 179.226,273.563 180.890,272.950 182.737 C 272.034 185.494,271.681 185.517,270.972 182.868 C 270.635 181.607,270.016 179.415,269.597 177.998 C 265.401 163.797,265.204 164.727,274.894 153.023 C 279.380 147.605,288.479 136.445,292.369 131.591 C 293.895 129.686,295.909 127.173,296.845 126.006 C 299.814 122.303,304.200 116.966,306.046 114.812 C 308.313 112.165,309.877 110.240,312.268 107.155 C 313.951 104.983,317.149 101.027,328.246 87.390 C 329.881 85.381,333.040 81.531,335.266 78.835 C 341.025 71.860,344.303 67.799,353.922 55.722 C 354.954 54.426,356.400 52.731,357.137 51.956 C 357.873 51.180,358.882 49.921,359.378 49.158 C 359.874 48.394,361.337 46.592,362.629 45.152 C 363.921 43.712,365.397 41.928,365.910 41.188 C 366.423 40.447,367.568 39.025,368.456 38.027 C 370.257 36.003,374.335 30.942,378.119 26.036 C 379.494 24.253,381.476 21.903,382.524 20.813 C 383.572 19.722,385.001 17.978,385.700 16.936 C 386.399 15.895,388.044 13.843,389.356 12.377 C 390.668 10.912,392.291 8.910,392.963 7.929 C 393.635 6.947,394.939 5.325,395.861 4.324 C 396.782 3.323,397.828 1.940,398.184 1.252 L 398.831 0.000 333.410 0.000 L 267.988 0.000 267.988 29.931 M267.494 111.757 L 267.595 160.282 266.404 162.138 C 264.865 164.536,264.772 163.731,268.024 176.168 C 272.157 191.977,271.939 192.040,276.148 173.835 C 276.702 171.437,277.504 168.315,277.930 166.898 C 278.355 165.481,278.702 164.054,278.700 163.726 C 278.695 162.737,281.064 154.853,281.497 154.419 C 281.938 153.977,294.069 153.609,295.592 153.992 C 297.210 154.398,297.296 154.668,302.558 176.016 C 303.728 180.762,305.702 185.935,306.338 185.920 C 306.504 185.916,307.069 184.533,307.594 182.847 C 308.118 181.161,309.035 178.533,309.630 177.007 C 310.655 174.377,311.589 171.157,313.826 162.537 C 316.141 153.618,315.665 154.092,322.656 153.751 C 325.621 153.606,328.940 153.364,330.030 153.214 C 334.509 152.597,334.340 155.885,329.205 169.185 C 328.678 170.552,328.247 171.979,328.248 172.357 C 328.249 172.734,327.820 174.291,327.295 175.818 C 324.854 182.909,322.695 189.782,322.683 190.494 C 322.677 190.926,322.232 192.170,321.696 193.261 C 321.160 194.351,320.719 195.600,320.717 196.036 C 320.715 196.472,320.358 197.899,319.924 199.207 C 319.490 200.515,318.495 203.591,317.712 206.042 C 315.712 212.308,316.100 212.091,306.873 212.091 C 301.222 212.091,299.299 211.962,298.701 211.543 C 297.574 210.752,294.153 199.778,294.152 196.952 C 294.152 195.249,293.100 190.105,292.367 188.224 C 292.053 187.417,291.604 185.557,291.370 184.092 C 290.834 180.737,289.519 177.600,288.653 177.607 C 287.973 177.612,287.821 178.126,284.644 191.080 C 281.162 205.284,279.857 209.913,279.129 210.641 C 278.307 211.462,264.700 211.688,263.236 210.904 C 262.338 210.424,258.620 199.675,255.487 188.503 C 252.806 178.944,252.124 178.572,247.974 184.407 C 246.682 186.224,244.439 189.049,242.991 190.684 C 241.543 192.319,240.108 194.135,239.803 194.718 C 237.988 198.183,233.385 204.162,229.329 208.325 C 226.779 210.942,223.885 214.142,222.896 215.438 C 221.908 216.734,220.455 218.489,219.668 219.338 C 218.880 220.187,218.057 221.186,217.839 221.558 C 217.006 222.980,214.035 226.759,213.750 226.759 C 213.586 226.759,213.135 227.296,212.747 227.951 C 212.120 229.014,208.345 233.617,205.430 236.874 C 204.842 237.532,203.026 239.807,201.395 241.931 C 199.764 244.055,198.099 245.897,197.696 246.025 C 196.905 246.276,173.956 223.772,167.808 216.717 C 163.747 212.056,162.730 211.551,157.252 211.468 C 151.661 211.384,151.704 211.427,151.548 205.849 C 151.482 203.504,151.347 201.222,151.248 200.777 C 151.148 200.332,146.808 195.693,141.603 190.469 C 130.927 179.754,131.223 180.229,131.532 174.349 C 131.631 172.456,131.584 169.882,131.428 168.628 L 131.143 166.347 130.348 168.506 C 129.912 169.693,128.851 172.805,127.991 175.421 C 127.131 178.038,126.184 180.714,125.885 181.368 C 125.586 182.022,124.806 183.717,124.152 185.134 C 122.925 187.792,122.722 188.377,118.528 201.388 C 115.056 212.160,115.800 211.458,107.830 211.481 C 104.886 211.490,101.373 211.655,100.024 211.848 C 97.070 212.271,95.483 211.157,94.995 208.318 C 94.650 206.309,92.914 200.541,91.955 198.216 C 91.550 197.235,90.736 194.827,90.145 192.864 C 89.555 190.902,88.463 187.512,87.719 185.332 C 86.975 183.152,86.184 180.476,85.962 179.386 C 85.741 178.295,85.403 177.215,85.213 176.984 C 85.022 176.754,84.607 175.570,84.290 174.353 C 83.973 173.137,83.447 171.624,83.120 170.993 C 82.793 170.361,82.393 169.136,82.231 168.272 C 82.070 167.407,81.674 166.075,81.351 165.312 C 81.029 164.549,80.535 163.033,80.252 161.943 C 79.568 159.300,78.574 156.310,77.817 154.609 C 77.477 153.845,76.881 152.061,76.493 150.644 C 76.106 149.227,75.322 146.729,74.751 145.094 C 72.918 139.840,73.655 139.380,83.552 139.600 C 92.275 139.794,91.367 138.897,95.124 151.041 C 95.833 153.330,96.751 156.039,97.166 157.061 C 97.580 158.082,97.919 159.263,97.919 159.684 C 97.919 160.105,98.260 161.320,98.677 162.385 C 100.021 165.816,103.539 177.034,105.034 182.656 C 105.657 184.999,106.828 184.999,107.456 182.656 C 107.705 181.729,108.247 180.019,108.661 178.855 C 109.076 177.691,109.415 176.472,109.415 176.147 C 109.415 175.822,109.833 174.456,110.344 173.110 C 110.855 171.765,111.668 169.326,112.150 167.691 C 113.415 163.407,116.909 152.374,117.738 150.050 C 118.126 148.959,118.955 146.484,119.579 144.548 C 121.116 139.782,121.207 139.734,129.165 139.590 L 131.669 139.544 131.596 133.300 C 131.552 129.532,131.700 126.506,131.971 125.669 C 132.288 124.685,132.414 115.454,132.404 93.954 C 132.396 77.275,132.394 63.493,132.399 63.329 C 132.404 63.165,162.780 63.076,199.901 63.131 L 267.393 63.231 267.494 111.757 M62.698 140.711 C 63.842 142.123,63.663 153.258,62.476 154.568 C 61.730 155.391,61.497 155.401,44.353 155.401 C 24.090 155.401,26.300 154.672,26.228 161.381 C 26.156 168.072,24.428 167.431,42.263 167.328 C 60.791 167.222,59.613 166.900,60.092 172.193 C 61.007 182.290,61.578 181.962,43.089 181.962 C 24.495 181.962,26.393 181.160,26.269 189.071 C 26.137 197.515,23.923 196.630,45.193 196.630 C 65.435 196.630,63.955 196.312,64.432 200.765 C 64.920 205.325,64.505 210.904,63.630 211.543 C 62.341 212.486,10.706 212.343,9.533 211.393 L 8.671 210.695 8.708 176.261 C 8.732 154.298,8.888 141.560,9.139 141.090 C 9.883 139.700,11.742 139.606,37.002 139.675 L 61.914 139.742 62.698 140.711 M371.655 151.627 C 378.992 152.951,382.927 154.619,386.165 157.780 C 390.597 162.107,393.044 169.097,390.882 171.259 C 388.517 173.624,374.236 171.979,374.230 169.340 C 374.220 164.836,362.886 162.387,359.183 166.089 C 356.981 168.292,360.124 172.767,363.925 172.838 C 364.252 172.844,365.055 173.129,365.709 173.471 C 366.363 173.813,368.154 174.234,369.689 174.406 C 371.224 174.579,373.044 175.012,373.733 175.368 C 374.422 175.724,375.523 176.016,376.181 176.016 C 378.986 176.016,385.962 179.198,388.853 181.797 C 393.194 185.700,394.965 193.854,392.591 199.009 C 392.139 199.990,391.634 201.239,391.468 201.784 C 390.607 204.620,385.865 209.050,381.764 210.850 C 375.477 213.610,362.467 214.599,357.235 212.716 C 356.281 212.372,355.121 212.090,354.658 212.088 C 349.310 212.066,340.893 203.740,339.503 197.096 C 338.252 191.115,338.297 191.080,347.267 191.080 C 354.958 191.080,355.435 191.228,356.190 193.855 C 358.142 200.644,368.825 203.094,373.982 197.937 C 378.331 193.588,374.063 190.488,359.366 187.321 C 344.183 184.049,338.440 177.772,340.497 166.700 C 341.757 159.918,347.941 153.882,354.952 152.592 C 356.071 152.386,358.147 151.970,359.564 151.668 C 362.979 150.939,367.753 150.923,371.655 151.627 M289.718 181.269 C 289.969 181.759,290.363 183.387,290.593 184.887 C 290.824 186.386,291.260 188.204,291.562 188.927 C 294.028 194.830,293.332 197.324,287.365 203.955 C 286.575 204.832,285.280 206.571,284.486 207.818 C 282.002 211.722,280.264 211.381,281.462 207.224 C 281.727 206.304,282.290 204.212,282.714 202.577 C 283.137 200.942,283.812 198.444,284.215 197.027 C 284.617 195.610,285.616 191.685,286.434 188.305 C 288.097 181.444,288.432 180.377,288.922 180.377 C 289.109 180.377,289.467 180.778,289.718 181.269 " stroke="none" fill="#9bcacf" fill-rule="evenodd"></path><path id="path1" d="M152.754 134.716 C 151.912 135.558,152.019 145.218,152.877 145.931 C 153.820 146.713,165.289 146.778,166.345 146.007 C 167.489 145.171,167.707 136.573,166.617 135.228 C 165.714 134.113,153.797 133.673,152.754 134.716 M11.001 141.558 C 10.349 141.938,10.307 143.992,10.307 175.815 L 10.307 209.668 11.188 210.285 C 12.329 211.084,59.893 211.232,61.627 210.442 C 62.633 209.983,62.636 209.963,62.636 204.866 C 62.636 197.401,64.900 198.216,44.170 198.216 L 26.525 198.216 25.552 197.243 C 24.200 195.891,24.025 183.131,25.336 181.511 L 26.094 180.575 42.001 180.377 C 60.481 180.146,58.657 180.756,58.666 174.803 C 58.675 168.615,60.435 169.210,41.914 169.139 C 22.817 169.065,24.824 169.946,24.650 161.561 C 24.471 152.920,22.331 153.816,43.167 153.816 C 58.784 153.816,60.237 153.759,60.989 153.122 C 62.020 152.248,62.423 142.901,61.478 141.762 C 60.844 140.998,12.299 140.802,11.001 141.558 M75.713 141.731 C 75.304 142.224,75.438 142.895,76.458 145.477 C 77.141 147.207,77.707 148.854,77.715 149.138 C 77.723 149.421,78.439 151.705,79.307 154.212 C 81.026 159.179,82.539 163.920,83.461 167.228 C 83.785 168.390,84.244 169.703,84.481 170.145 C 84.717 170.587,85.231 172.044,85.623 173.383 C 86.015 174.722,86.525 176.353,86.756 177.007 C 86.986 177.661,88.244 181.586,89.551 185.728 C 90.857 189.871,92.305 194.420,92.767 195.837 C 93.230 197.255,93.854 199.217,94.155 200.198 C 94.455 201.179,95.058 203.053,95.494 204.361 C 95.929 205.669,96.393 207.245,96.524 207.864 C 96.954 209.897,98.508 211.037,100.425 210.725 C 101.336 210.576,104.541 210.469,107.547 210.486 C 115.174 210.530,114.014 211.944,119.074 196.432 C 120.924 190.763,122.796 185.233,123.235 184.143 C 124.541 180.898,125.486 178.155,127.673 171.259 C 128.813 167.661,130.154 163.647,130.652 162.339 C 131.483 160.159,132.064 158.362,133.728 152.825 C 134.055 151.734,134.997 148.939,135.820 146.613 C 137.834 140.924,138.053 141.130,130.000 141.130 C 122.345 141.130,121.987 141.256,121.166 144.249 C 120.558 146.466,118.299 153.569,117.115 156.987 C 116.775 157.968,115.819 161.001,114.990 163.726 C 114.161 166.452,112.637 171.269,111.604 174.430 C 110.570 177.592,109.376 181.427,108.948 182.953 C 107.336 188.715,105.098 188.874,103.732 183.323 C 103.414 182.029,102.962 180.436,102.727 179.782 C 102.491 179.128,101.038 174.579,99.498 169.673 C 97.957 164.767,96.366 159.772,95.962 158.573 C 95.558 157.374,94.657 154.519,93.959 152.230 C 93.262 149.941,92.506 147.621,92.280 147.076 C 92.054 146.531,91.666 145.197,91.418 144.111 C 90.777 141.309,90.285 141.143,82.606 141.136 C 77.372 141.131,76.122 141.239,75.713 141.731 M204.559 153.843 C 191.466 157.261,183.862 167.711,183.807 182.359 C 183.740 200.265,193.742 211.368,210.505 211.997 C 222.686 212.454,229.553 208.996,235.466 199.429 C 239.142 193.482,239.125 193.459,231.049 193.459 L 225.492 193.459 223.347 195.781 C 214.987 204.826,199.009 200.533,199.009 189.241 C 199.009 185.757,197.990 185.927,218.945 185.927 C 240.889 185.927,239.605 186.240,239.226 180.971 C 237.771 160.741,222.852 149.066,204.559 153.843 M358.026 153.674 C 347.583 155.284,342.432 160.324,341.830 169.523 C 341.216 178.900,346.129 182.934,362.339 186.361 C 375.669 189.179,380.561 194.433,374.603 199.534 C 368.762 204.533,357.554 202.102,355.162 195.317 C 354.329 192.955,354.135 192.893,347.410 192.857 C 340.107 192.819,340.158 192.792,340.892 196.363 C 342.958 206.425,351.732 211.822,366.105 211.872 C 383.069 211.931,391.675 205.580,391.675 193.000 C 391.675 184.730,385.985 178.985,376.214 177.388 C 360.808 174.871,354.083 170.845,357.299 166.065 C 360.621 161.126,371.462 161.770,374.905 167.112 C 377.196 170.665,376.699 170.466,383.271 170.466 C 390.728 170.466,391.253 169.971,389.170 164.907 C 385.226 155.322,373.880 151.229,358.026 153.674 M246.620 155.328 C 246.171 156.167,246.587 158.346,247.767 161.340 C 248.205 162.451,248.565 163.665,248.568 164.038 C 248.575 164.895,252.505 176.937,253.901 180.377 C 254.475 181.794,255.463 184.648,256.095 186.720 C 256.727 188.791,258.251 193.697,259.482 197.621 C 260.713 201.546,261.980 205.738,262.298 206.938 C 263.221 210.416,263.439 210.505,271.005 210.505 C 278.166 210.505,278.770 210.312,279.307 207.840 C 279.439 207.234,280.092 204.599,280.758 201.982 C 281.425 199.366,282.292 195.887,282.686 194.252 C 283.080 192.616,283.968 189.138,284.660 186.521 C 285.351 183.905,286.166 180.431,286.470 178.802 C 287.674 172.352,290.205 174.030,292.135 182.558 C 292.580 184.520,293.483 188.150,294.142 190.626 C 294.802 193.102,295.341 195.510,295.340 195.978 C 295.339 196.446,295.764 198.256,296.284 200.000 C 296.804 201.744,297.615 204.599,298.086 206.343 C 299.344 211.004,299.295 210.980,307.072 210.828 C 314.545 210.683,314.783 210.578,315.811 206.967 C 316.157 205.752,316.678 204.222,316.970 203.568 C 317.261 202.914,317.761 201.397,318.081 200.198 C 318.401 198.999,318.855 197.483,319.090 196.829 C 319.325 196.174,319.973 194.034,320.530 192.071 C 321.088 190.109,321.980 187.166,322.514 185.530 C 324.232 180.270,326.559 172.681,326.830 171.457 C 326.975 170.803,327.433 169.376,327.848 168.285 C 330.186 162.140,331.928 155.819,331.445 155.236 C 330.979 154.675,320.912 154.661,318.106 155.219 C 317.007 155.437,316.559 156.528,314.779 163.321 C 312.368 172.521,311.682 174.929,311.017 176.515 C 310.674 177.335,310.140 179.119,309.830 180.479 C 308.181 187.734,307.514 189.495,306.413 189.495 C 304.975 189.495,304.013 186.497,298.906 166.105 C 297.569 160.763,296.192 156.080,295.847 155.699 C 295.165 154.945,283.454 154.637,282.340 155.343 C 281.866 155.644,279.503 164.311,277.299 173.835 C 276.794 176.016,276.026 179.227,275.593 180.971 C 275.160 182.716,274.681 185.032,274.530 186.120 C 274.149 188.852,273.343 190.287,272.189 190.287 C 270.502 190.287,270.600 190.560,266.364 174.078 C 265.501 170.723,264.720 167.855,264.628 167.706 C 264.536 167.557,264.284 166.343,264.070 165.010 C 263.424 161.003,261.970 156.123,261.189 155.342 C 260.083 154.236,247.211 154.223,246.620 155.328 M152.834 155.940 C 151.700 156.770,152.037 209.159,153.183 210.057 C 154.004 210.701,165.516 210.932,166.351 210.321 C 167.422 209.539,167.737 157.055,166.676 156.175 C 165.801 155.449,153.785 155.245,152.834 155.940 M216.153 164.912 C 219.790 166.273,223.573 171.263,223.584 174.714 C 223.590 176.724,223.090 176.809,211.188 176.809 C 198.762 176.809,198.629 176.775,199.194 173.764 C 200.493 166.842,209.184 162.305,216.153 164.912 " stroke="none" fill="#113a5b" fill-rule="evenodd"></path><path id="path2" d="M132.399 63.329 C 132.394 63.493,132.394 77.275,132.399 93.954 C 132.406 117.705,132.296 124.711,131.889 126.264 C 131.533 127.622,131.422 130.006,131.536 133.841 L 131.702 139.436 134.481 139.669 C 137.709 139.940,138.935 140.724,138.610 142.310 C 138.141 144.596,137.047 148.079,136.560 148.838 C 136.272 149.286,135.773 150.634,135.452 151.833 C 134.400 155.752,132.845 160.838,132.089 162.827 C 131.323 164.843,131.149 176.540,131.838 179.704 C 132.046 180.662,134.426 183.289,141.577 190.456 L 151.041 199.941 151.041 178.121 C 151.041 156.647,151.054 156.285,151.862 155.257 L 152.684 154.212 159.703 154.212 C 165.414 154.212,166.886 154.327,167.603 154.829 L 168.484 155.446 168.484 182.796 L 168.484 210.145 167.511 211.118 C 166.755 211.874,166.113 212.095,164.636 212.107 C 162.786 212.123,162.762 212.138,163.752 212.676 C 164.311 212.980,166.139 214.801,167.814 216.723 C 173.958 223.774,196.906 246.276,197.696 246.025 C 198.099 245.897,199.764 244.055,201.395 241.931 C 203.026 239.807,204.842 237.532,205.430 236.874 C 208.345 233.617,212.120 229.014,212.747 227.951 C 213.135 227.296,213.586 226.759,213.750 226.759 C 214.035 226.759,217.006 222.980,217.839 221.558 C 218.057 221.186,218.880 220.187,219.668 219.338 C 220.455 218.489,221.907 216.734,222.893 215.438 C 223.880 214.142,225.081 212.727,225.562 212.294 C 227.516 210.531,227.345 209.999,225.178 211.098 C 216.398 215.547,200.952 213.944,193.732 207.835 C 192.382 206.693,191.162 205.757,191.019 205.754 C 189.690 205.726,184.750 196.958,183.397 192.228 C 173.671 158.226,217.132 135.315,235.961 164.519 C 237.264 166.542,238.391 169.496,240.119 175.421 C 241.077 178.706,241.087 184.583,240.137 186.032 L 239.441 187.094 220.400 187.204 C 199.369 187.326,200.604 187.158,200.609 189.891 C 200.628 199.601,214.851 202.628,222.772 194.608 L 225.081 192.270 231.607 192.270 C 238.902 192.270,239.849 192.590,239.278 194.864 C 239.108 195.540,239.161 195.815,239.429 195.649 C 239.656 195.509,239.841 195.145,239.841 194.840 C 239.841 194.535,241.224 192.698,242.914 190.758 C 244.604 188.818,247.020 185.779,248.283 184.005 C 249.748 181.948,250.931 180.691,251.546 180.537 C 252.289 180.350,252.433 180.144,252.170 179.642 C 251.504 178.365,246.977 164.442,246.977 163.669 C 246.977 163.236,246.766 162.492,246.507 162.016 C 245.818 160.748,244.299 154.693,244.568 154.284 C 245.252 153.241,246.870 153.023,253.908 153.023 C 263.187 153.023,262.919 152.811,264.848 161.679 L 265.308 163.793 266.449 162.075 L 267.590 160.357 267.492 111.794 L 267.393 63.231 199.901 63.131 C 162.780 63.076,132.404 63.165,132.399 63.329 M167.516 133.367 C 168.454 134.051,168.923 144.722,168.084 146.289 C 167.206 147.931,161.485 148.550,153.122 147.907 C 151.047 147.748,149.863 136.248,151.658 133.686 C 152.437 132.573,166.053 132.299,167.516 133.367 M207.466 166.416 C 203.573 167.811,199.668 172.470,200.835 174.327 C 201.324 175.103,219.809 175.787,221.354 175.086 C 223.145 174.272,220.128 168.321,217.149 166.792 C 214.949 165.663,210.093 165.475,207.466 166.416 M265.891 232.315 C 265.317 232.766,263.879 234.510,262.694 236.191 C 261.510 237.872,260.138 239.604,259.647 240.040 C 258.880 240.720,256.442 243.765,253.518 247.695 C 253.082 248.282,251.350 250.409,249.670 252.423 C 247.989 254.438,246.407 256.473,246.153 256.946 C 245.900 257.419,244.443 259.249,242.914 261.014 C 241.385 262.778,239.143 265.560,237.932 267.195 C 236.720 268.831,234.588 271.506,233.194 273.142 C 229.364 277.633,228.810 278.311,227.043 280.674 C 226.146 281.873,224.729 283.657,223.894 284.638 C 223.059 285.619,222.020 286.868,221.585 287.413 C 218.409 291.392,217.267 292.857,216.008 294.568 C 215.219 295.641,214.201 296.834,213.746 297.219 C 213.290 297.604,212.330 298.753,211.613 299.773 C 202.883 312.178,202.574 312.281,195.351 305.187 C 192.835 302.716,187.053 297.085,182.504 292.675 C 171.313 281.827,158.414 269.226,148.949 259.896 C 144.638 255.645,140.268 251.490,139.240 250.663 C 138.211 249.835,136.533 248.310,135.509 247.275 C 134.486 246.239,133.392 245.391,133.077 245.391 C 131.359 245.391,131.424 242.620,131.292 321.567 L 131.166 396.432 199.379 396.432 L 267.592 396.432 267.669 315.362 C 267.711 270.773,267.756 233.726,267.768 233.036 C 267.795 231.472,267.235 231.257,265.891 232.315 " stroke="none" fill="#64cbe2" fill-rule="evenodd"></path><path id="path3" d="M0.000 63.075 C 0.000 120.429,0.057 126.128,0.627 125.910 C 0.972 125.777,30.222 125.669,65.628 125.669 L 130.002 125.669 130.511 124.777 C 130.912 124.076,131.038 117.530,131.099 94.153 C 131.143 77.800,131.187 64.032,131.198 63.557 C 131.252 61.298,126.437 61.447,199.434 61.447 C 265.874 61.447,266.409 61.441,267.195 60.654 C 267.974 59.875,267.988 59.333,267.988 29.931 L 267.988 0.000 133.994 0.000 L 0.000 0.000 0.000 63.075 M398.184 1.252 C 397.828 1.940,396.782 3.323,395.861 4.324 C 394.939 5.325,393.635 6.947,392.963 7.929 C 392.291 8.910,390.668 10.912,389.356 12.377 C 388.044 13.843,386.399 15.895,385.700 16.936 C 385.001 17.978,383.572 19.722,382.524 20.813 C 381.476 21.903,379.494 24.253,378.119 26.036 C 374.335 30.942,370.257 36.003,368.456 38.027 C 367.568 39.025,366.423 40.447,365.910 41.188 C 365.397 41.928,363.921 43.712,362.629 45.152 C 361.337 46.592,359.874 48.394,359.378 49.158 C 358.882 49.921,357.873 51.180,357.137 51.956 C 356.400 52.731,354.954 54.426,353.922 55.722 C 344.303 67.799,341.025 71.860,335.266 78.835 C 333.040 81.531,329.881 85.381,328.246 87.390 C 317.149 101.027,313.951 104.983,312.268 107.155 C 309.877 110.240,308.313 112.165,306.046 114.812 C 304.200 116.966,299.814 122.303,296.845 126.006 C 295.909 127.173,293.895 129.686,292.369 131.591 C 288.479 136.445,279.380 147.605,274.894 153.023 C 265.204 164.727,265.401 163.797,269.597 177.998 C 270.016 179.415,270.635 181.607,270.972 182.868 C 271.681 185.517,272.034 185.494,272.950 182.737 C 273.563 180.890,273.965 179.226,275.870 170.632 C 276.261 168.869,276.712 167.214,276.874 166.953 C 277.035 166.692,277.500 164.923,277.906 163.021 C 280.155 152.502,279.912 152.728,289.039 152.666 C 297.166 152.610,297.936 153.026,299.235 158.176 C 300.874 164.669,303.779 176.714,304.325 179.278 C 305.321 183.956,308.890 178.050,311.566 167.294 C 315.390 151.921,314.853 152.626,322.722 152.626 C 328.135 152.626,329.271 152.171,331.519 149.097 C 332.412 147.877,334.882 144.737,337.008 142.121 C 339.134 139.504,343.208 134.420,346.060 130.823 C 348.912 127.225,352.122 123.211,353.193 121.903 C 355.018 119.672,364.571 107.688,368.087 103.219 C 368.959 102.110,371.817 98.547,374.437 95.299 C 377.057 92.052,379.555 88.931,379.987 88.363 C 381.109 86.889,385.553 81.357,387.120 79.485 C 387.850 78.612,390.363 75.491,392.704 72.547 C 395.045 69.604,397.645 66.412,398.481 65.455 L 400.000 63.714 400.000 31.857 C 400.000 -2.138,399.993 -2.248,398.184 1.252 M288.253 181.269 C 288.072 181.759,287.253 184.926,286.434 188.305 C 285.616 191.685,284.617 195.610,284.215 197.027 C 283.812 198.444,283.137 200.942,282.714 202.577 C 282.290 204.212,281.727 206.304,281.462 207.224 C 280.264 211.381,282.002 211.722,284.486 207.818 C 285.280 206.571,286.575 204.832,287.365 203.955 C 293.332 197.324,294.028 194.830,291.562 188.927 C 291.260 188.204,290.824 186.386,290.593 184.887 C 290.165 182.099,289.527 180.377,288.922 180.377 C 288.736 180.377,288.435 180.778,288.253 181.269 M127.658 182.018 C 126.246 183.495,123.860 187.645,123.467 189.308 C 123.314 189.956,122.875 191.288,122.491 192.270 C 122.107 193.251,121.312 195.659,120.726 197.621 C 120.139 199.584,119.333 202.170,118.934 203.370 C 118.536 204.569,117.926 206.557,117.580 207.787 C 117.127 209.394,116.554 210.372,115.547 211.256 L 114.145 212.488 108.283 212.488 C 101.064 212.488,99.075 213.010,97.935 215.205 C 97.522 216.000,95.813 218.167,94.138 220.020 C 92.462 221.873,89.803 224.817,88.227 226.561 C 86.651 228.305,84.446 230.834,83.325 232.181 C 82.205 233.527,79.944 236.046,78.301 237.777 C 76.658 239.509,74.825 241.561,74.227 242.338 C 72.263 244.895,67.648 250.195,64.358 253.670 C 62.580 255.549,60.171 258.238,59.006 259.645 C 57.841 261.053,55.445 263.729,53.681 265.592 C 51.916 267.455,50.209 269.375,49.885 269.860 C 49.562 270.344,48.240 271.862,46.948 273.234 C 45.656 274.605,43.978 276.528,43.219 277.507 C 42.460 278.486,40.498 280.750,38.858 282.538 C 34.028 287.807,31.196 291.002,28.741 293.954 C 27.472 295.481,25.258 297.994,23.821 299.539 C 22.385 301.085,20.674 302.995,20.020 303.784 C 18.533 305.578,10.773 314.357,8.560 316.749 C 7.652 317.730,5.845 319.777,4.545 321.296 C 3.244 322.816,1.690 324.482,1.090 324.998 L 0.000 325.938 0.000 358.410 C 0.000 379.794,0.135 390.882,0.396 390.882 C 0.614 390.882,0.793 390.686,0.793 390.447 C 0.793 390.208,1.914 388.825,3.285 387.375 C 4.656 385.924,6.658 383.667,7.734 382.359 C 8.811 381.051,11.302 378.245,13.270 376.124 C 18.616 370.363,31.157 356.464,36.219 350.688 C 38.151 348.484,42.076 344.129,44.940 341.012 C 47.805 337.895,50.751 334.594,51.487 333.678 C 53.297 331.424,57.501 326.723,63.254 320.518 C 65.883 317.682,68.788 314.336,69.709 313.082 C 70.629 311.829,71.518 310.803,71.683 310.803 C 71.849 310.803,73.582 308.998,75.536 306.791 C 77.490 304.585,80.827 300.853,82.952 298.499 C 85.077 296.144,87.396 293.495,88.106 292.612 C 89.429 290.964,97.701 281.803,103.045 276.066 C 104.696 274.295,107.413 271.262,109.083 269.327 C 114.083 263.535,116.179 261.194,118.980 258.276 C 120.445 256.749,122.046 254.965,122.539 254.311 C 123.358 253.224,124.531 251.926,130.167 245.870 C 131.350 244.599,132.421 243.806,132.954 243.806 C 134.111 243.806,134.592 244.261,174.436 283.090 C 197.335 305.405,200.947 308.821,201.644 308.821 C 202.727 308.821,203.626 308.085,205.373 305.768 C 206.327 304.504,207.872 302.629,208.807 301.603 C 209.741 300.576,210.508 299.595,210.512 299.422 C 210.515 299.249,211.069 298.484,211.743 297.721 C 212.417 296.957,214.421 294.473,216.197 292.200 C 217.972 289.927,220.139 287.233,221.011 286.213 C 221.883 285.192,223.578 283.055,224.777 281.463 C 225.976 279.870,227.760 277.634,228.741 276.492 C 231.390 273.411,236.536 267.042,242.022 260.055 C 243.766 257.833,246.977 253.841,249.158 251.184 C 251.338 248.527,253.918 245.289,254.892 243.989 C 255.865 242.689,257.382 240.805,258.261 239.802 C 259.141 238.799,260.932 236.569,262.240 234.847 C 263.548 233.125,265.778 230.454,267.195 228.913 C 268.612 227.372,270.396 225.285,271.160 224.277 C 272.928 221.940,276.033 218.075,278.196 215.518 C 280.823 212.412,280.978 212.488,271.978 212.488 C 267.632 212.488,263.640 212.322,263.107 212.120 C 262.147 211.755,260.153 207.688,259.496 204.757 C 259.349 204.103,258.894 202.676,258.484 201.586 C 257.698 199.495,256.726 196.394,255.316 191.477 C 252.244 180.764,252.132 180.667,248.577 185.661 C 247.465 187.224,245.471 189.752,244.146 191.278 C 242.822 192.805,241.136 194.945,240.399 196.036 C 236.058 202.463,234.435 204.532,230.267 208.964 C 227.727 211.665,224.981 214.767,224.166 215.857 C 223.351 216.947,221.772 218.837,220.658 220.056 C 219.544 221.275,217.740 223.474,216.650 224.941 C 212.873 230.028,211.480 231.781,208.104 235.703 C 206.237 237.870,203.430 241.274,201.864 243.266 C 199.034 246.868,198.436 247.374,197.007 247.374 C 196.231 247.374,172.423 223.742,166.898 217.488 C 162.991 213.065,161.829 212.488,156.836 212.488 C 151.173 212.488,150.644 211.923,150.644 205.875 C 150.644 201.131,150.572 201.028,139.853 190.387 C 129.539 180.147,129.482 180.109,127.658 182.018 " stroke="none" fill="#fafbfb" fill-rule="evenodd"></path><path id="path4" d="M151.658 133.686 C 149.863 136.248,151.047 147.748,153.122 147.907 C 161.485 148.550,167.206 147.931,168.084 146.289 C 168.923 144.722,168.454 134.051,167.516 133.367 C 166.053 132.299,152.437 132.573,151.658 133.686 M166.617 135.228 C 167.707 136.573,167.489 145.171,166.345 146.007 C 165.289 146.778,153.820 146.713,152.877 145.931 C 152.019 145.218,151.912 135.558,152.754 134.716 C 153.797 133.673,165.714 134.113,166.617 135.228 M10.812 139.981 C 8.689 140.602,8.748 139.583,8.708 176.261 L 8.671 210.695 9.533 211.393 C 10.706 212.343,62.341 212.486,63.630 211.543 C 64.505 210.904,64.920 205.325,64.432 200.765 C 63.955 196.312,65.435 196.630,45.193 196.630 C 23.923 196.630,26.137 197.515,26.269 189.071 C 26.393 181.160,24.495 181.962,43.089 181.962 C 61.578 181.962,61.007 182.290,60.092 172.193 C 59.613 166.900,60.791 167.222,42.263 167.328 C 24.428 167.431,26.156 168.072,26.228 161.381 C 26.300 154.672,24.090 155.401,44.353 155.401 C 61.497 155.401,61.730 155.391,62.476 154.568 C 63.663 153.258,63.842 142.123,62.698 140.711 L 61.914 139.742 37.002 139.675 C 22.336 139.635,11.565 139.761,10.812 139.981 M75.222 139.985 C 73.671 140.580,73.568 141.703,74.751 145.094 C 75.322 146.729,76.106 149.227,76.493 150.644 C 76.881 152.061,77.477 153.845,77.817 154.609 C 78.574 156.310,79.568 159.300,80.252 161.943 C 80.535 163.033,81.029 164.549,81.351 165.312 C 81.674 166.075,82.070 167.407,82.231 168.272 C 82.393 169.136,82.793 170.361,83.120 170.993 C 83.447 171.624,83.973 173.137,84.290 174.353 C 84.607 175.570,85.022 176.754,85.213 176.984 C 85.403 177.215,85.741 178.295,85.962 179.386 C 86.184 180.476,86.975 183.152,87.719 185.332 C 88.463 187.512,89.555 190.902,90.145 192.864 C 90.736 194.827,91.550 197.235,91.955 198.216 C 92.914 200.541,94.650 206.309,94.995 208.318 C 95.483 211.157,97.070 212.271,100.024 211.848 C 101.373 211.655,104.886 211.490,107.830 211.481 C 115.800 211.458,115.056 212.160,118.528 201.388 C 122.722 188.377,122.925 187.792,124.152 185.134 C 124.806 183.717,125.583 182.022,125.877 181.368 C 126.355 180.307,129.195 172.025,130.703 167.294 C 131.016 166.313,131.871 163.637,132.603 161.348 C 134.477 155.493,135.580 151.768,135.580 151.297 C 135.580 151.076,135.940 150.151,136.380 149.241 C 136.820 148.332,137.457 146.626,137.794 145.449 C 139.429 139.754,139.412 139.742,129.871 139.742 C 120.965 139.742,121.157 139.653,119.579 144.548 C 118.955 146.484,118.126 148.959,117.738 150.050 C 116.909 152.374,113.415 163.407,112.150 167.691 C 111.668 169.326,110.855 171.765,110.344 173.110 C 109.833 174.456,109.415 175.822,109.415 176.147 C 109.415 176.472,109.076 177.691,108.661 178.855 C 108.247 180.019,107.705 181.729,107.456 182.656 C 107.124 183.897,106.804 184.341,106.243 184.341 C 105.682 184.341,105.364 183.898,105.034 182.656 C 103.539 177.034,100.021 165.816,98.677 162.385 C 98.260 161.320,97.919 160.105,97.919 159.684 C 97.919 159.263,97.580 158.082,97.166 157.061 C 96.751 156.039,95.833 153.330,95.124 151.041 C 91.346 138.828,92.342 139.773,83.123 139.655 C 79.078 139.603,75.870 139.737,75.222 139.985 M61.478 141.762 C 62.423 142.901,62.020 152.248,60.989 153.122 C 60.237 153.759,58.784 153.816,43.167 153.816 C 22.331 153.816,24.471 152.920,24.650 161.561 C 24.824 169.946,22.817 169.065,41.914 169.139 C 60.435 169.210,58.675 168.615,58.666 174.803 C 58.657 180.756,60.481 180.146,42.001 180.377 L 26.094 180.575 25.336 181.511 C 24.025 183.131,24.200 195.891,25.552 197.243 L 26.525 198.216 44.170 198.216 C 64.900 198.216,62.636 197.401,62.636 204.866 C 62.636 209.963,62.633 209.983,61.627 210.442 C 59.893 211.232,12.329 211.084,11.188 210.285 L 10.307 209.668 10.307 175.815 C 10.307 143.992,10.349 141.938,11.001 141.558 C 12.299 140.802,60.844 140.998,61.478 141.762 M89.983 141.639 C 90.703 142.003,91.087 142.666,91.418 144.111 C 91.666 145.197,92.054 146.531,92.280 147.076 C 92.506 147.621,93.262 149.941,93.959 152.230 C 94.657 154.519,95.558 157.374,95.962 158.573 C 96.366 159.772,97.957 164.767,99.498 169.673 C 101.038 174.579,102.491 179.128,102.727 179.782 C 102.962 180.436,103.414 182.029,103.732 183.323 C 105.098 188.874,107.336 188.715,108.948 182.953 C 109.376 181.427,110.570 177.592,111.604 174.430 C 112.637 171.269,114.161 166.452,114.990 163.726 C 115.819 161.001,116.775 157.968,117.115 156.987 C 118.299 153.569,120.558 146.466,121.166 144.249 C 121.987 141.256,122.345 141.130,130.000 141.130 C 138.053 141.130,137.834 140.924,135.820 146.613 C 134.997 148.939,134.055 151.734,133.728 152.825 C 132.064 158.362,131.483 160.159,130.652 162.339 C 130.154 163.647,128.813 167.661,127.673 171.259 C 125.486 178.155,124.541 180.898,123.235 184.143 C 122.796 185.233,120.924 190.763,119.074 196.432 C 114.014 211.944,115.174 210.530,107.547 210.486 C 104.541 210.469,101.336 210.576,100.425 210.725 C 98.508 211.037,96.954 209.897,96.524 207.864 C 96.393 207.245,95.929 205.669,95.494 204.361 C 95.058 203.053,94.455 201.179,94.155 200.198 C 93.854 199.217,93.230 197.255,92.767 195.837 C 92.305 194.420,90.857 189.871,89.551 185.728 C 88.244 181.586,86.986 177.661,86.756 177.007 C 86.525 176.353,86.015 174.722,85.623 173.383 C 85.231 172.044,84.717 170.587,84.481 170.145 C 84.244 169.703,83.785 168.390,83.461 167.228 C 82.539 163.920,81.026 159.179,79.307 154.212 C 78.439 151.705,77.723 149.421,77.715 149.138 C 77.707 148.854,77.141 147.207,76.458 145.477 C 74.714 141.063,74.622 141.128,82.606 141.136 C 86.938 141.140,89.316 141.302,89.983 141.639 M359.564 151.668 C 358.147 151.970,356.071 152.386,354.952 152.592 C 347.941 153.882,341.757 159.918,340.497 166.700 C 338.440 177.772,344.183 184.049,359.366 187.321 C 374.063 190.488,378.331 193.588,373.982 197.937 C 368.825 203.094,358.142 200.644,356.190 193.855 C 355.435 191.228,354.958 191.080,347.267 191.080 C 338.297 191.080,338.252 191.115,339.503 197.096 C 340.893 203.740,349.310 212.066,354.658 212.088 C 355.121 212.090,356.281 212.372,357.235 212.716 C 362.467 214.599,375.477 213.610,381.764 210.850 C 385.865 209.050,390.607 204.620,391.468 201.784 C 391.634 201.239,392.139 199.990,392.591 199.009 C 394.965 193.854,393.194 185.700,388.853 181.797 C 385.962 179.198,378.986 176.016,376.181 176.016 C 375.523 176.016,374.422 175.724,373.733 175.368 C 373.044 175.012,371.224 174.579,369.689 174.406 C 368.154 174.234,366.363 173.813,365.709 173.471 C 365.055 173.129,364.252 172.844,363.925 172.838 C 360.124 172.767,356.981 168.292,359.183 166.089 C 362.886 162.387,374.220 164.836,374.230 169.340 C 374.236 171.979,388.517 173.624,390.882 171.259 C 393.982 168.159,388.628 158.269,381.928 154.720 C 376.145 151.657,366.066 150.281,359.564 151.668 M203.143 152.790 C 182.595 159.396,175.319 184.872,188.780 203.072 C 189.868 204.544,190.876 205.751,191.019 205.754 C 191.162 205.757,192.382 206.693,193.732 207.835 C 201.116 214.083,216.369 215.547,225.589 210.892 C 228.729 209.307,233.142 204.811,236.477 199.800 C 241.160 192.764,240.840 192.270,231.607 192.270 L 225.081 192.270 222.772 194.608 C 214.851 202.628,200.628 199.601,200.609 189.891 C 200.604 187.158,199.369 187.326,220.400 187.204 L 239.441 187.094 240.137 186.032 C 241.087 184.583,241.077 178.706,240.119 175.421 C 237.405 166.114,236.308 164.084,231.297 159.096 C 224.067 151.900,213.365 149.503,203.143 152.790 M218.498 153.584 C 230.377 155.876,238.161 166.160,239.226 180.971 C 239.605 186.240,240.889 185.927,218.945 185.927 C 197.990 185.927,199.009 185.757,199.009 189.241 C 199.009 200.533,214.987 204.826,223.347 195.781 L 225.492 193.459 231.049 193.459 C 239.125 193.459,239.142 193.482,235.466 199.429 C 229.553 208.996,222.686 212.454,210.505 211.997 C 193.742 211.368,183.740 200.265,183.807 182.359 C 183.881 162.450,199.086 149.838,218.498 153.584 M245.590 153.497 C 245.154 153.744,244.694 154.101,244.568 154.290 C 244.299 154.692,245.820 160.751,246.507 162.016 C 246.766 162.492,246.977 163.236,246.977 163.669 C 246.977 164.744,251.619 178.560,252.724 180.773 C 253.630 182.588,253.977 183.614,256.885 193.062 C 260.522 204.886,262.261 209.932,262.928 210.599 C 263.586 211.257,272.336 211.701,277.304 211.329 C 279.658 211.152,279.859 210.598,284.644 191.080 C 287.821 178.126,287.973 177.612,288.653 177.607 C 289.519 177.600,290.834 180.737,291.370 184.092 C 291.604 185.557,292.053 187.417,292.367 188.224 C 293.100 190.105,294.152 195.249,294.152 196.952 C 294.153 199.778,297.574 210.752,298.701 211.543 C 299.299 211.962,301.222 212.091,306.873 212.091 C 316.100 212.091,315.712 212.308,317.712 206.042 C 318.495 203.591,319.490 200.515,319.924 199.207 C 320.358 197.899,320.715 196.472,320.717 196.036 C 320.719 195.600,321.160 194.351,321.696 193.261 C 322.232 192.170,322.677 190.926,322.683 190.494 C 322.695 189.782,324.854 182.909,327.295 175.818 C 327.820 174.291,328.249 172.734,328.248 172.357 C 328.247 171.979,328.678 170.552,329.205 169.185 C 334.340 155.885,334.509 152.597,330.030 153.214 C 328.940 153.364,325.621 153.606,322.656 153.751 C 315.665 154.092,316.141 153.618,313.826 162.537 C 311.589 171.157,310.655 174.377,309.630 177.007 C 309.035 178.533,308.118 181.161,307.594 182.847 C 307.069 184.533,306.504 185.916,306.338 185.920 C 305.702 185.935,303.728 180.762,302.558 176.016 C 297.296 154.668,297.210 154.398,295.592 153.992 C 294.069 153.609,281.938 153.977,281.497 154.419 C 281.064 154.853,278.695 162.737,278.700 163.726 C 278.702 164.054,278.355 165.481,277.930 166.898 C 277.504 168.315,276.702 171.437,276.148 173.835 C 272.864 188.038,272.612 188.763,271.393 187.498 C 270.799 186.881,265.213 166.071,265.213 164.473 C 265.213 161.630,263.382 155.284,262.192 153.999 C 261.166 152.893,247.390 152.475,245.590 153.497 M373.043 153.581 C 381.323 154.776,386.496 158.408,389.170 164.907 C 391.253 169.971,390.728 170.466,383.271 170.466 C 376.699 170.466,377.196 170.665,374.905 167.112 C 372.730 163.738,368.049 162.053,363.330 162.947 C 355.782 164.376,354.128 169.424,360.065 172.909 C 362.265 174.200,370.243 176.413,376.214 177.388 C 385.985 178.985,391.675 184.730,391.675 193.000 C 391.675 205.580,383.069 211.931,366.105 211.872 C 351.732 211.822,342.958 206.425,340.892 196.363 C 340.158 192.792,340.107 192.819,347.410 192.857 C 354.135 192.893,354.329 192.955,355.162 195.317 C 357.554 202.102,368.762 204.533,374.603 199.534 C 380.561 194.433,375.669 189.179,362.339 186.361 C 346.129 182.934,341.216 178.900,341.830 169.523 C 342.657 156.888,354.396 150.892,373.043 153.581 M151.833 155.294 L 150.982 156.376 151.149 180.368 C 151.385 214.467,150.845 211.430,156.686 211.510 C 158.705 211.537,161.723 211.704,163.393 211.880 C 166.331 212.190,166.462 212.167,167.456 211.173 L 168.484 210.145 168.484 182.796 L 168.484 155.446 167.603 154.829 C 166.886 154.327,165.414 154.212,159.703 154.212 L 152.684 154.212 151.833 155.294 M261.189 155.342 C 261.970 156.123,263.424 161.003,264.070 165.010 C 264.284 166.343,264.536 167.557,264.628 167.706 C 264.720 167.855,265.501 170.723,266.364 174.078 C 270.600 190.560,270.502 190.287,272.189 190.287 C 273.343 190.287,274.149 188.852,274.530 186.120 C 274.681 185.032,275.160 182.716,275.593 180.971 C 276.026 179.227,276.794 176.016,277.299 173.835 C 279.503 164.311,281.866 155.644,282.340 155.343 C 283.454 154.637,295.165 154.945,295.847 155.699 C 296.192 156.080,297.569 160.763,298.906 166.105 C 305.950 194.229,306.531 194.994,309.830 180.479 C 310.140 179.119,310.674 177.335,311.017 176.515 C 311.682 174.929,312.368 172.521,314.779 163.321 C 316.559 156.528,317.007 155.437,318.106 155.219 C 320.912 154.661,330.979 154.675,331.445 155.236 C 331.928 155.819,330.186 162.140,327.848 168.285 C 327.433 169.376,326.975 170.803,326.830 171.457 C 326.559 172.681,324.232 180.270,322.514 185.530 C 321.980 187.166,321.088 190.109,320.530 192.071 C 319.973 194.034,319.325 196.174,319.090 196.829 C 318.855 197.483,318.401 198.999,318.081 200.198 C 317.761 201.397,317.261 202.914,316.970 203.568 C 316.678 204.222,316.157 205.752,315.811 206.967 C 314.783 210.578,314.545 210.683,307.072 210.828 C 299.295 210.980,299.344 211.004,298.086 206.343 C 297.615 204.599,296.804 201.744,296.284 200.000 C 295.764 198.256,295.339 196.446,295.340 195.978 C 295.341 195.510,294.802 193.102,294.142 190.626 C 293.483 188.150,292.580 184.520,292.135 182.558 C 290.205 174.030,287.674 172.352,286.470 178.802 C 286.166 180.431,285.351 183.905,284.660 186.521 C 283.968 189.138,283.080 192.616,282.686 194.252 C 282.292 195.887,281.425 199.366,280.758 201.982 C 280.092 204.599,279.439 207.234,279.307 207.840 C 278.770 210.312,278.166 210.505,271.005 210.505 C 263.439 210.505,263.221 210.416,262.298 206.938 C 261.980 205.738,260.713 201.546,259.482 197.621 C 258.251 193.697,256.727 188.791,256.095 186.720 C 255.463 184.648,254.475 181.794,253.901 180.377 C 252.505 176.937,248.575 164.895,248.568 164.038 C 248.565 163.665,248.205 162.451,247.767 161.340 C 246.587 158.346,246.171 156.167,246.620 155.328 C 247.211 154.223,260.083 154.236,261.189 155.342 M166.676 156.175 C 167.737 157.055,167.422 209.539,166.351 210.321 C 165.516 210.932,154.004 210.701,153.183 210.057 C 152.037 209.159,151.700 156.770,152.834 155.940 C 153.785 155.245,165.801 155.449,166.676 156.175 M206.745 165.141 C 201.750 167.215,197.507 173.699,199.618 176.032 C 200.427 176.926,221.221 177.255,222.821 176.398 C 224.553 175.471,222.946 170.497,219.911 167.390 C 216.705 164.107,211.413 163.204,206.745 165.141 M217.149 166.792 C 220.128 168.321,223.145 174.272,221.354 175.086 C 219.809 175.787,201.324 175.103,200.835 174.327 C 200.234 173.371,202.221 169.589,204.060 168.185 C 207.369 165.662,213.645 164.994,217.149 166.792 " stroke="none" fill="#618899" fill-rule="evenodd"></path></g></svg>