<svg id="svg" version="1.1" xmlns="http://www.w3.org/2000/svg" xmlns:xlink="http://www.w3.org/1999/xlink" width="400" height="400.5856515373353" viewBox="0, 0, 400,400.5856515373353"><g id="svgg"><path id="path0" d="M106.618 224.500 C 106.148 225.997,106.152 230.839,106.624 231.512 C 107.166 232.286,114.364 232.564,115.510 231.856 C 116.306 231.364,116.178 224.554,115.367 224.243 C 114.103 223.758,106.783 223.973,106.618 224.500 M15.646 228.945 C 15.318 229.339,15.222 235.512,15.297 251.245 L 15.400 273.000 32.200 273.000 L 49.000 273.000 49.102 269.600 C 49.249 264.721,50.236 265.096,37.460 265.174 C 23.732 265.258,24.800 265.723,24.800 259.666 C 24.800 253.503,23.849 254.000,35.631 254.000 C 47.171 254.000,46.487 254.273,46.318 249.738 L 46.200 246.600 36.033 246.493 C 29.350 246.423,25.683 246.234,25.333 245.944 C 24.880 245.568,24.483 237.468,24.900 237.115 C 24.955 237.069,30.220 236.934,36.600 236.815 L 48.200 236.600 48.453 233.000 C 48.609 230.790,48.551 229.207,48.304 228.900 C 47.689 228.135,16.282 228.178,15.646 228.945 M57.342 229.006 C 57.214 229.340,58.328 233.345,59.818 237.906 C 61.307 242.468,63.379 248.810,64.422 252.000 C 65.464 255.190,66.708 259.150,67.185 260.800 C 67.662 262.450,68.302 264.430,68.607 265.200 C 68.912 265.970,69.462 267.590,69.829 268.800 C 71.187 273.274,70.742 272.985,76.456 273.112 C 82.618 273.248,81.850 274.041,85.229 264.056 C 86.692 259.735,89.913 250.216,92.388 242.903 C 94.863 235.590,96.784 229.335,96.657 229.003 C 96.353 228.212,88.522 228.124,87.484 228.900 C 86.893 229.342,84.823 235.202,82.009 244.400 C 81.504 246.050,80.486 249.255,79.745 251.523 C 79.005 253.791,78.400 255.878,78.400 256.161 C 78.400 257.166,76.883 258.166,76.208 257.606 C 75.873 257.329,75.600 256.860,75.600 256.565 C 75.600 256.270,75.350 255.257,75.045 254.314 C 74.740 253.371,73.639 249.900,72.598 246.600 C 71.558 243.300,70.007 238.450,69.153 235.822 C 68.299 233.193,67.600 230.808,67.600 230.522 C 67.600 228.544,58.060 227.135,57.342 229.006 M139.359 236.756 C 122.159 241.680,122.039 269.314,139.200 273.514 C 148.558 275.804,155.977 272.913,160.257 265.309 C 162.051 262.121,161.942 262.000,157.258 262.000 L 153.362 262.000 151.824 263.575 C 146.588 268.938,137.835 266.922,136.547 260.057 C 136.020 257.247,136.425 257.162,149.916 257.223 C 163.006 257.282,162.383 257.417,162.394 254.525 C 162.440 241.903,151.326 233.330,139.359 236.756 M238.200 236.555 C 231.336 237.704,227.779 241.574,227.860 247.805 C 227.928 252.973,231.603 255.759,240.800 257.613 C 250.393 259.547,253.624 264.030,247.447 266.835 C 243.111 268.804,238.732 267.227,236.311 262.825 L 235.621 261.572 231.511 261.686 L 227.400 261.800 227.465 263.706 C 227.892 276.183,255.887 278.235,259.536 266.057 C 262.030 257.731,258.492 253.636,246.484 250.953 C 240.001 249.505,237.600 248.166,237.600 246.000 C 237.600 241.992,246.611 241.365,249.084 245.200 C 250.647 247.625,250.589 247.600,254.536 247.600 C 259.552 247.600,259.988 247.108,258.257 243.392 C 255.474 237.416,248.091 234.899,238.200 236.555 M166.696 237.694 C 166.587 237.978,166.845 239.379,167.270 240.806 C 169.237 247.416,170.220 250.423,171.324 253.200 C 171.980 254.850,172.741 257.010,173.015 258.000 C 174.570 263.610,177.619 272.566,178.072 272.853 C 178.761 273.290,186.441 273.288,187.130 272.852 C 187.588 272.561,191.188 259.282,192.565 252.802 C 193.521 248.302,194.848 249.997,196.788 258.200 C 197.516 261.280,198.672 265.870,199.356 268.400 L 200.600 273.000 204.800 273.117 C 211.069 273.291,210.566 273.643,212.389 267.800 C 212.869 266.260,214.244 261.850,215.444 258.000 C 216.644 254.150,218.534 248.149,219.643 244.665 C 222.148 236.793,222.294 237.199,217.007 237.339 C 211.859 237.474,211.993 237.360,210.611 242.800 C 210.024 245.110,209.119 248.260,208.599 249.800 C 208.080 251.340,207.350 253.860,206.978 255.400 C 205.342 262.160,204.639 261.028,200.765 245.400 C 199.837 241.660,198.815 238.293,198.494 237.918 C 197.839 237.155,190.335 237.071,189.656 237.819 C 189.319 238.191,185.117 255.098,184.611 258.121 C 184.331 259.791,183.445 260.418,182.586 259.555 C 182.283 259.250,181.113 255.220,179.986 250.600 C 178.859 245.980,177.626 241.120,177.246 239.800 L 176.556 237.400 171.725 237.288 C 168.060 237.203,166.847 237.301,166.696 237.694 M106.568 238.051 C 106.052 238.887,106.392 272.148,106.922 272.672 C 107.528 273.270,115.014 273.546,115.569 272.991 C 116.235 272.325,116.199 238.372,115.532 237.950 C 114.711 237.429,106.898 237.518,106.568 238.051 M148.696 244.655 C 150.756 246.182,152.379 249.235,151.856 250.599 C 151.546 251.407,137.547 251.501,136.885 250.700 C 136.336 250.035,137.222 247.461,138.466 246.109 C 140.812 243.560,146.186 242.796,148.696 244.655 " stroke="none" fill="#123b5b" fill-rule="evenodd"></path><path id="path1" d="M0.000 266.800 L 0.000 400.400 137.200 400.400 L 274.400 400.400 274.400 266.800 L 274.400 133.200 137.200 133.200 L 0.000 133.200 0.000 266.800 M268.800 266.000 L 268.800 398.000 136.800 398.000 L 4.800 398.000 4.800 266.000 L 4.800 134.000 136.800 134.000 L 268.800 134.000 268.800 266.000 M7.624 137.556 C 6.894 138.919,7.262 217.942,8.000 218.408 C 8.955 219.012,91.715 218.925,92.320 218.320 C 92.680 217.960,92.800 212.942,92.800 198.200 C 92.800 183.458,92.920 178.440,93.280 178.080 C 93.647 177.713,103.816 177.599,136.580 177.594 C 160.131 177.591,179.640 177.436,179.933 177.250 C 180.493 176.895,180.753 138.095,180.202 137.203 C 179.663 136.331,8.091 136.682,7.624 137.556 M264.289 138.757 C 263.906 139.406,262.109 141.707,260.296 143.871 C 258.483 146.035,256.550 148.372,256.000 149.066 C 255.450 149.759,253.476 152.188,251.613 154.463 C 244.496 163.156,240.163 168.501,239.200 169.777 C 238.650 170.506,237.352 172.069,236.315 173.251 C 235.278 174.433,231.948 178.493,228.915 182.274 C 225.882 186.054,220.430 192.770,216.800 197.198 C 213.170 201.625,209.750 205.842,209.200 206.569 C 208.650 207.296,206.670 209.738,204.800 211.997 C 201.413 216.088,200.553 217.143,197.271 221.241 C 193.330 226.161,191.216 228.741,187.833 232.761 C 178.924 243.349,179.065 242.996,180.994 249.800 C 181.368 251.120,181.949 253.232,182.285 254.494 C 183.224 258.022,183.175 258.132,186.401 245.200 C 188.839 235.425,188.185 236.231,193.803 236.066 C 199.929 235.886,199.730 235.672,201.960 244.808 C 204.060 253.409,204.359 254.400,204.856 254.400 C 205.581 254.400,207.500 249.458,209.025 243.669 C 210.995 236.187,211.147 236.000,215.249 236.000 C 218.729 236.000,220.276 235.460,221.309 233.882 C 221.655 233.355,223.588 230.871,225.606 228.362 C 227.623 225.853,229.781 223.170,230.400 222.400 C 236.771 214.478,241.852 208.122,244.000 205.383 C 245.430 203.561,250.560 197.171,255.400 191.185 C 260.240 185.199,264.650 179.649,265.200 178.851 L 266.200 177.400 266.200 157.606 C 266.200 136.409,266.123 135.652,264.289 138.757 M193.826 253.958 C 193.526 254.444,191.219 263.237,190.405 267.000 C 190.215 267.880,189.866 269.107,189.630 269.726 C 188.362 273.048,189.389 274.043,191.252 271.300 C 191.962 270.255,193.411 268.440,194.472 267.268 C 195.532 266.095,196.426 264.745,196.458 264.268 C 196.572 262.567,196.316 260.663,195.762 259.093 C 195.453 258.217,195.192 257.117,195.182 256.650 C 195.152 255.227,194.204 253.346,193.826 253.958 M90.517 254.900 C 88.994 256.565,88.126 258.691,85.222 267.870 C 83.165 274.372,83.425 274.152,77.494 274.400 C 73.014 274.587,72.665 274.661,72.054 275.551 C 71.694 276.074,70.494 277.514,69.387 278.751 C 68.281 279.988,66.301 282.252,64.987 283.783 C 63.674 285.314,61.340 287.951,59.800 289.645 C 58.260 291.338,55.830 294.116,54.400 295.819 C 52.970 297.521,51.332 299.383,50.761 299.957 C 50.190 300.531,48.682 302.170,47.410 303.600 C 46.138 305.030,44.049 307.370,42.768 308.800 C 41.486 310.230,38.334 313.830,35.763 316.800 C 33.192 319.770,30.348 323.019,29.444 324.020 C 28.540 325.021,25.190 328.785,22.000 332.385 C 18.810 335.984,14.537 340.794,12.504 343.072 C 10.472 345.351,8.492 347.699,8.104 348.290 C 7.276 349.554,6.994 388.350,7.808 389.166 C 8.085 389.445,9.172 388.467,11.208 386.107 C 12.853 384.199,15.370 381.362,16.800 379.803 C 22.138 373.982,26.129 369.544,34.430 360.200 C 39.120 354.920,46.208 347.006,50.179 342.613 C 54.151 338.219,57.940 334.007,58.600 333.251 C 59.260 332.495,60.970 330.574,62.400 328.983 C 63.830 327.391,66.170 324.774,67.600 323.168 C 69.030 321.561,71.640 318.680,73.400 316.765 C 75.160 314.850,77.903 311.780,79.495 309.942 C 81.087 308.104,83.427 305.474,84.695 304.098 C 85.963 302.722,88.440 299.983,90.200 298.012 C 91.960 296.040,93.685 294.421,94.033 294.414 C 94.731 294.399,108.441 307.450,130.444 329.077 C 134.318 332.885,137.748 336.000,138.067 336.000 C 138.981 336.000,141.054 333.833,143.800 330.006 C 144.240 329.393,146.220 326.871,148.200 324.403 C 150.180 321.934,153.045 318.359,154.566 316.457 C 156.087 314.556,157.887 312.366,158.566 311.591 C 159.245 310.816,160.340 309.488,161.000 308.639 C 162.024 307.321,167.414 300.557,174.709 291.435 C 175.749 290.134,177.500 288.011,178.600 286.717 C 179.700 285.423,181.230 283.589,182.000 282.640 C 182.770 281.692,184.539 279.524,185.932 277.823 C 188.987 274.090,189.149 274.293,183.183 274.375 C 176.580 274.466,176.967 274.816,174.256 266.310 C 173.045 262.509,171.866 258.674,171.635 257.788 C 170.852 254.772,170.310 254.447,168.963 256.187 C 168.323 257.013,166.885 258.794,165.766 260.144 C 164.648 261.495,162.655 264.130,161.337 266.000 C 160.019 267.870,157.766 270.660,156.331 272.200 C 153.359 275.388,150.604 278.647,146.588 283.724 C 145.054 285.662,143.170 288.017,142.400 288.958 C 141.630 289.898,140.035 291.872,138.856 293.343 C 136.935 295.741,135.753 296.800,134.997 296.800 C 134.670 296.800,118.183 280.288,115.726 277.500 C 113.301 274.749,112.678 274.431,109.674 274.414 C 105.991 274.394,105.608 274.084,105.560 271.086 C 105.499 267.298,105.439 267.206,98.600 260.385 C 91.728 253.532,91.753 253.548,90.517 254.900 " stroke="none" fill="#fafbfb" fill-rule="evenodd"></path><path id="path2" d="M4.800 266.000 L 4.800 398.000 136.800 398.000 C 209.400 398.000,268.800 397.865,268.800 397.700 C 268.800 397.535,209.535 397.400,137.100 397.400 L 5.400 397.400 5.400 266.000 L 5.400 134.600 137.100 134.600 C 209.535 134.600,268.800 134.465,268.800 134.300 C 268.800 134.135,209.400 134.000,136.800 134.000 L 4.800 134.000 4.800 266.000 M7.045 136.875 C 6.439 137.800,6.403 141.211,6.601 178.641 C 6.817 219.539,6.878 331.633,6.706 369.800 C 6.618 389.189,6.806 393.961,7.704 395.100 C 8.423 396.012,265.859 395.813,266.342 394.900 C 266.889 393.864,267.124 137.364,266.578 136.818 C 266.285 136.525,226.719 136.315,136.931 136.132 L 7.705 135.867 7.045 136.875 M180.202 137.203 C 180.753 138.095,180.493 176.895,179.933 177.250 C 179.640 177.436,160.131 177.591,136.580 177.594 C 103.816 177.599,93.647 177.713,93.280 178.080 C 92.920 178.440,92.800 183.458,92.800 198.200 C 92.800 212.942,92.680 217.960,92.320 218.320 C 91.715 218.925,8.955 219.012,8.000 218.408 C 7.262 217.942,6.894 138.919,7.624 137.556 C 8.091 136.682,179.663 136.331,180.202 137.203 M266.200 157.606 L 266.200 177.400 265.200 178.851 C 264.650 179.649,260.240 185.199,255.400 191.185 C 250.560 197.171,245.430 203.561,244.000 205.383 C 241.852 208.122,236.771 214.478,230.400 222.400 C 229.781 223.170,227.623 225.853,225.606 228.362 C 223.588 230.871,221.655 233.355,221.309 233.882 C 220.276 235.460,218.729 236.000,215.249 236.000 C 211.147 236.000,210.995 236.187,209.025 243.669 C 207.500 249.458,205.581 254.400,204.856 254.400 C 204.359 254.400,204.060 253.409,201.960 244.808 C 199.730 235.672,199.929 235.886,193.803 236.066 C 188.185 236.231,188.839 235.425,186.401 245.200 C 183.175 258.132,183.224 258.022,182.285 254.494 C 181.949 253.232,181.368 251.120,180.994 249.800 C 179.065 242.996,178.924 243.349,187.833 232.761 C 191.216 228.741,193.330 226.161,197.271 221.241 C 200.553 217.143,201.413 216.088,204.800 211.997 C 206.670 209.738,208.650 207.296,209.200 206.569 C 209.750 205.842,213.170 201.625,216.800 197.198 C 220.430 192.770,225.882 186.054,228.915 182.274 C 231.948 178.493,235.278 174.433,236.315 173.251 C 237.352 172.069,238.650 170.506,239.200 169.777 C 240.163 168.501,244.496 163.156,251.613 154.463 C 253.476 152.188,255.450 149.759,256.000 149.066 C 256.550 148.372,258.483 146.035,260.296 143.871 C 262.109 141.707,263.906 139.406,264.289 138.757 C 266.123 135.652,266.200 136.409,266.200 157.606 M180.302 209.735 L 180.405 240.870 179.559 242.058 L 178.713 243.245 179.555 246.523 C 183.167 260.590,183.147 260.568,185.070 252.600 C 185.813 249.520,186.686 246.124,187.010 245.054 C 187.335 243.984,187.600 242.830,187.600 242.489 C 187.600 241.473,188.946 237.423,189.389 237.106 C 190.170 236.547,198.662 236.752,199.151 237.341 C 199.398 237.639,200.572 241.757,201.760 246.493 C 202.947 251.229,204.243 255.599,204.640 256.204 L 205.360 257.304 206.718 253.352 C 207.465 251.178,208.769 246.819,209.617 243.665 C 211.530 236.551,211.169 236.951,215.905 236.700 C 218.047 236.587,220.085 236.375,220.434 236.230 C 220.803 236.076,221.472 236.292,222.034 236.748 L 223.000 237.531 221.096 243.265 C 219.067 249.375,216.233 258.345,215.810 260.000 C 215.669 260.550,215.311 261.630,215.014 262.400 C 214.718 263.170,214.169 264.880,213.795 266.200 C 211.503 274.292,211.765 274.052,205.347 273.912 L 200.206 273.800 199.539 272.400 C 198.764 270.774,197.815 266.988,197.184 263.000 C 196.941 261.460,196.484 259.521,196.171 258.692 C 195.857 257.862,195.600 256.741,195.600 256.200 C 195.600 254.821,194.386 251.938,193.877 252.108 C 193.645 252.185,192.784 254.937,191.964 258.224 C 187.650 275.505,188.811 273.600,182.600 273.600 C 176.419 273.600,177.696 275.401,172.818 259.800 C 170.490 252.355,170.504 252.362,167.201 257.200 C 166.375 258.410,165.049 260.030,164.254 260.800 C 163.459 261.570,162.807 262.314,162.804 262.454 C 162.792 263.211,159.054 268.220,156.425 271.004 C 154.761 272.767,152.368 275.467,151.108 277.004 C 147.643 281.230,141.022 289.440,138.469 292.677 C 137.221 294.260,135.934 295.665,135.608 295.800 C 135.201 295.969,131.685 292.667,124.347 285.227 C 112.918 273.640,112.865 273.600,108.982 273.600 C 106.037 273.600,106.136 273.745,105.898 269.085 L 105.760 266.369 99.480 260.080 L 93.200 253.791 93.188 249.195 C 93.174 243.890,93.037 243.954,90.986 250.215 C 90.222 252.549,89.156 255.390,88.618 256.529 C 88.080 257.668,86.812 261.210,85.801 264.400 C 83.516 271.612,82.630 273.600,81.705 273.599 C 81.317 273.598,78.697 273.677,75.882 273.775 L 70.765 273.954 70.214 272.677 C 69.911 271.975,68.858 268.880,67.876 265.800 C 61.971 247.297,59.027 238.206,58.481 236.783 C 55.069 227.899,55.171 227.600,61.605 227.600 C 67.130 227.600,67.528 227.805,68.605 231.200 C 68.989 232.410,69.535 234.030,69.818 234.800 C 70.100 235.570,70.910 238.090,71.617 240.400 C 72.324 242.710,73.578 246.670,74.403 249.200 C 75.229 251.730,76.032 254.395,76.188 255.121 C 76.581 256.945,77.210 256.552,78.017 253.978 C 86.996 225.334,85.946 227.600,90.249 227.600 L 93.240 227.600 93.281 223.900 C 93.303 221.865,93.387 211.020,93.466 199.800 C 93.546 188.580,93.693 179.174,93.794 178.898 C 93.939 178.499,102.806 178.417,137.088 178.498 L 180.200 178.600 180.302 209.735 M49.015 228.272 C 50.025 229.282,49.709 236.639,48.621 237.434 C 48.031 237.866,45.629 237.973,37.171 237.946 C 24.660 237.905,25.600 237.610,25.600 241.575 C 25.600 245.950,24.999 245.731,36.413 245.514 C 47.941 245.295,47.226 245.011,47.325 249.852 C 47.434 255.147,48.203 254.800,36.365 254.800 C 24.783 254.800,25.600 254.440,25.600 259.541 C 25.600 264.456,24.373 264.000,37.594 264.000 C 46.959 264.000,49.188 264.104,49.566 264.559 C 50.171 265.288,50.351 273.004,49.776 273.582 C 49.485 273.874,43.880 273.976,31.976 273.904 L 14.600 273.800 14.496 251.200 C 14.399 230.309,14.443 228.562,15.072 228.100 C 16.256 227.231,48.135 227.392,49.015 228.272 M247.917 235.427 C 254.921 236.853,260.000 241.342,260.000 246.107 C 260.000 248.198,259.523 248.401,254.620 248.394 C 249.625 248.387,249.519 248.350,248.676 246.327 C 247.871 244.392,246.278 243.600,243.194 243.600 C 235.479 243.600,237.833 248.620,246.200 250.014 C 256.278 251.692,261.167 255.492,261.191 261.664 C 261.257 278.716,228.947 280.277,226.214 263.355 C 225.794 260.754,226.422 260.395,231.317 260.435 C 236.065 260.473,236.518 260.653,237.526 262.905 C 239.420 267.139,246.688 268.184,249.061 264.563 C 250.679 262.094,248.627 260.518,241.556 258.800 C 231.897 256.453,229.666 255.251,227.765 251.364 C 223.058 241.744,234.499 232.697,247.917 235.427 M195.182 256.650 C 195.192 257.117,195.453 258.217,195.762 259.093 C 196.316 260.663,196.572 262.567,196.458 264.268 C 196.426 264.745,195.532 266.095,194.472 267.268 C 193.411 268.440,191.962 270.255,191.252 271.300 C 189.389 274.043,188.362 273.048,189.630 269.726 C 189.866 269.107,190.215 267.880,190.405 267.000 C 191.219 263.237,193.526 254.444,193.826 253.958 C 194.204 253.346,195.152 255.227,195.182 256.650 M98.600 260.385 C 105.439 267.206,105.499 267.298,105.560 271.086 C 105.608 274.084,105.991 274.394,109.674 274.414 C 112.678 274.431,113.301 274.749,115.726 277.500 C 118.183 280.288,134.670 296.800,134.997 296.800 C 135.753 296.800,136.935 295.741,138.856 293.343 C 140.035 291.872,141.630 289.898,142.400 288.958 C 143.170 288.017,145.054 285.662,146.588 283.724 C 150.604 278.647,153.359 275.388,156.331 272.200 C 157.766 270.660,160.019 267.870,161.337 266.000 C 162.655 264.130,164.648 261.495,165.766 260.144 C 166.885 258.794,168.323 257.013,168.963 256.187 C 170.310 254.447,170.852 254.772,171.635 257.788 C 171.866 258.674,173.045 262.509,174.256 266.310 C 176.967 274.816,176.580 274.466,183.183 274.375 C 189.149 274.293,188.987 274.090,185.932 277.823 C 184.539 279.524,182.770 281.692,182.000 282.640 C 181.230 283.589,179.700 285.423,178.600 286.717 C 177.500 288.011,175.749 290.134,174.709 291.435 C 167.414 300.557,162.024 307.321,161.000 308.639 C 160.340 309.488,159.245 310.816,158.566 311.591 C 157.887 312.366,156.087 314.556,154.566 316.457 C 153.045 318.359,150.180 321.934,148.200 324.403 C 146.220 326.871,144.240 329.393,143.800 330.006 C 141.054 333.833,138.981 336.000,138.067 336.000 C 137.748 336.000,134.318 332.885,130.444 329.077 C 108.441 307.450,94.731 294.399,94.033 294.414 C 93.685 294.421,91.960 296.040,90.200 298.012 C 88.440 299.983,85.963 302.722,84.695 304.098 C 83.427 305.474,81.087 308.104,79.495 309.942 C 77.903 311.780,75.160 314.850,73.400 316.765 C 71.640 318.680,69.030 321.561,67.600 323.168 C 66.170 324.774,63.830 327.391,62.400 328.983 C 60.970 330.574,59.260 332.495,58.600 333.251 C 57.940 334.007,54.151 338.219,50.179 342.613 C 46.208 347.006,39.120 354.920,34.430 360.200 C 26.129 369.544,22.138 373.982,16.800 379.803 C 15.370 381.362,12.853 384.199,11.208 386.107 C 9.172 388.467,8.085 389.445,7.808 389.166 C 6.994 388.350,7.276 349.554,8.104 348.290 C 8.492 347.699,10.472 345.351,12.504 343.072 C 14.537 340.794,18.810 335.984,22.000 332.385 C 25.190 328.785,28.540 325.021,29.444 324.020 C 30.348 323.019,33.192 319.770,35.763 316.800 C 38.334 313.830,41.486 310.230,42.768 308.800 C 44.049 307.370,46.138 305.030,47.410 303.600 C 48.682 302.170,50.190 300.531,50.761 299.957 C 51.332 299.383,52.970 297.521,54.400 295.819 C 55.830 294.116,58.260 291.338,59.800 289.645 C 61.340 287.951,63.674 285.314,64.987 283.783 C 66.301 282.252,68.281 279.988,69.387 278.751 C 70.494 277.514,71.694 276.074,72.054 275.551 C 72.665 274.661,73.014 274.587,77.494 274.400 C 83.425 274.152,83.165 274.372,85.222 267.870 C 88.549 257.353,90.134 253.997,91.770 254.001 C 92.006 254.001,95.080 256.874,98.600 260.385 M180.409 340.541 C 180.404 370.205,180.300 394.639,180.177 394.838 C 180.045 395.050,162.042 395.200,136.576 395.200 L 93.200 395.200 93.200 345.400 C 93.200 298.238,93.237 295.600,93.900 295.601 C 94.748 295.602,96.791 297.383,103.766 304.200 C 106.692 307.060,114.009 314.170,120.025 320.000 C 126.042 325.830,132.394 331.995,134.141 333.700 C 138.417 337.874,138.618 337.860,142.213 333.143 C 143.746 331.131,145.450 328.995,146.000 328.396 C 146.550 327.798,147.720 326.369,148.600 325.222 C 150.165 323.183,151.353 321.717,152.601 320.289 C 152.943 319.898,153.864 318.728,154.648 317.689 C 155.433 316.650,157.042 314.630,158.225 313.200 C 161.779 308.903,165.308 304.468,166.920 302.271 C 167.756 301.132,169.036 299.570,169.764 298.800 C 170.493 298.030,171.836 296.410,172.749 295.200 C 173.662 293.990,175.215 292.010,176.200 290.800 C 177.184 289.590,178.372 288.097,178.840 287.482 C 179.308 286.867,179.854 286.418,180.054 286.485 C 180.269 286.556,180.414 308.589,180.409 340.541 " stroke="none" fill="#9bc8cd" fill-rule="evenodd"></path><path id="path3" d="M93.868 178.665 C 93.721 178.813,93.582 187.858,93.560 198.767 C 93.538 209.675,93.403 219.008,93.260 219.506 C 93.117 220.004,93.057 222.008,93.127 223.958 L 93.254 227.504 95.246 227.768 C 97.725 228.097,97.898 228.524,96.833 231.689 C 93.230 242.397,93.084 243.070,93.167 248.600 L 93.245 253.800 99.422 259.998 L 105.600 266.197 105.600 252.472 C 105.600 243.776,105.752 238.464,106.014 237.974 C 106.516 237.037,115.423 236.783,116.320 237.680 C 116.679 238.039,116.800 242.536,116.800 255.451 C 116.800 274.446,116.858 274.000,114.399 274.000 C 113.375 274.000,114.404 275.165,124.139 285.021 C 131.587 292.563,135.209 295.966,135.612 295.799 C 135.935 295.664,137.221 294.260,138.469 292.677 C 142.169 287.986,148.626 280.016,151.304 276.834 C 154.485 273.054,154.792 272.562,153.558 273.222 C 145.377 277.601,132.297 273.661,128.185 265.580 C 117.115 243.821,144.772 223.444,159.285 242.667 C 161.999 246.261,163.919 254.056,162.810 256.974 L 162.420 258.000 150.290 258.000 C 135.883 258.000,135.957 257.973,138.174 262.349 C 140.442 266.825,146.939 267.270,151.302 263.248 L 153.052 261.634 157.129 261.570 C 161.363 261.504,162.576 261.875,162.108 263.095 C 161.946 263.517,162.022 263.634,162.332 263.442 C 162.589 263.283,162.802 262.938,162.804 262.676 C 162.807 262.414,163.459 261.570,164.254 260.800 C 165.049 260.030,166.399 258.372,167.254 257.115 C 168.109 255.859,169.222 254.519,169.728 254.138 L 170.646 253.445 169.112 249.022 C 168.268 246.590,167.415 243.970,167.217 243.200 C 167.018 242.430,166.580 240.820,166.244 239.622 C 165.366 236.499,165.523 236.400,171.387 236.400 C 177.074 236.400,177.183 236.460,178.137 240.139 C 178.883 243.013,178.934 243.066,179.748 241.823 C 180.345 240.912,180.396 237.991,180.302 209.710 L 180.200 178.600 137.168 178.498 C 113.501 178.442,94.016 178.517,93.868 178.665 M115.911 223.823 C 117.863 225.190,116.997 232.704,114.871 232.844 C 110.849 233.110,106.554 232.750,106.072 232.106 C 105.304 231.080,105.573 224.114,106.400 223.591 C 107.447 222.930,114.895 223.111,115.911 223.823 M140.732 245.189 C 139.062 246.096,137.654 247.870,137.503 249.258 L 137.400 250.200 143.800 250.408 C 150.994 250.642,151.200 250.617,151.200 249.537 C 151.200 245.499,144.946 242.902,140.732 245.189 M178.840 287.482 C 178.372 288.097,177.184 289.590,176.200 290.800 C 175.215 292.010,173.662 293.990,172.749 295.200 C 171.836 296.410,170.493 298.030,169.764 298.800 C 169.036 299.570,167.756 301.132,166.920 302.271 C 165.308 304.468,161.779 308.903,158.225 313.200 C 157.042 314.630,155.433 316.650,154.648 317.689 C 153.864 318.728,152.943 319.898,152.601 320.289 C 151.353 321.717,150.165 323.183,148.600 325.222 C 147.720 326.369,146.550 327.798,146.000 328.396 C 145.450 328.995,143.746 331.131,142.213 333.143 C 138.618 337.860,138.417 337.874,134.141 333.700 C 132.394 331.995,126.042 325.830,120.025 320.000 C 114.009 314.170,106.692 307.060,103.766 304.200 C 96.791 297.383,94.748 295.602,93.900 295.601 C 93.237 295.600,93.200 298.238,93.200 345.400 L 93.200 395.200 136.576 395.200 C 162.042 395.200,180.045 395.050,180.177 394.838 C 180.565 394.209,180.444 286.615,180.054 286.485 C 179.854 286.418,179.308 286.867,178.840 287.482 " stroke="none" fill="#64cbe2" fill-rule="evenodd"></path><path id="path4" d="M396.444 1.278 C 395.826 2.268,395.890 3.183,396.598 3.454 C 396.926 3.581,397.114 3.815,397.015 3.975 C 396.800 4.323,397.849 4.420,399.100 4.167 C 400.149 3.955,400.400 1.630,399.459 0.849 C 398.680 0.202,396.963 0.447,396.444 1.278 M5.385 134.899 C 5.281 135.175,5.241 194.350,5.298 266.400 L 5.400 397.400 137.000 397.400 L 268.600 397.400 268.600 266.000 L 268.600 134.600 137.088 134.499 C 32.087 134.419,5.537 134.500,5.385 134.899 M266.578 136.818 C 267.124 137.364,266.889 393.864,266.342 394.900 C 265.859 395.813,8.423 396.012,7.704 395.100 C 6.806 393.961,6.618 389.189,6.706 369.800 C 6.878 331.633,6.817 219.539,6.601 178.641 C 6.403 141.211,6.439 137.800,7.045 136.875 L 7.705 135.867 136.931 136.132 C 226.719 136.315,266.285 136.525,266.578 136.818 M106.400 223.591 C 105.573 224.114,105.304 231.080,106.072 232.106 C 106.554 232.750,110.849 233.110,114.871 232.844 C 116.997 232.704,117.863 225.190,115.911 223.823 C 114.895 223.111,107.447 222.930,106.400 223.591 M115.367 224.243 C 116.178 224.554,116.306 231.364,115.510 231.856 C 114.364 232.564,107.166 232.286,106.624 231.512 C 106.152 230.839,106.148 225.997,106.618 224.500 C 106.783 223.973,114.103 223.758,115.367 224.243 M15.072 228.100 C 14.443 228.562,14.399 230.309,14.496 251.200 L 14.600 273.800 31.976 273.904 C 43.880 273.976,49.485 273.874,49.776 273.582 C 50.351 273.004,50.171 265.288,49.566 264.559 C 49.188 264.104,46.959 264.000,37.594 264.000 C 24.373 264.000,25.600 264.456,25.600 259.541 C 25.600 254.440,24.783 254.800,36.365 254.800 C 48.203 254.800,47.434 255.147,47.325 249.852 C 47.226 245.011,47.941 245.295,36.413 245.514 C 24.999 245.731,25.600 245.950,25.600 241.575 C 25.600 237.610,24.660 237.905,37.171 237.946 C 45.629 237.973,48.031 237.866,48.621 237.434 C 49.709 236.639,50.025 229.282,49.015 228.272 C 48.135 227.392,16.256 227.231,15.072 228.100 M56.384 228.219 C 55.898 228.805,56.742 232.255,58.481 236.783 C 59.027 238.206,61.971 247.297,67.876 265.800 C 68.858 268.880,69.911 271.975,70.214 272.677 L 70.765 273.954 75.882 273.775 C 78.697 273.677,81.317 273.598,81.705 273.599 C 82.630 273.600,83.516 271.612,85.801 264.400 C 86.812 261.210,88.065 257.700,88.584 256.600 C 89.615 254.417,91.828 247.831,94.162 240.000 C 94.981 237.250,95.903 234.370,96.209 233.600 C 98.419 228.050,98.275 227.845,92.049 227.660 C 86.209 227.486,86.642 227.093,84.092 234.881 C 82.346 240.215,81.371 243.279,78.017 253.978 C 77.210 256.552,76.581 256.945,76.188 255.121 C 76.032 254.395,75.229 251.730,74.403 249.200 C 73.578 246.670,72.324 242.710,71.617 240.400 C 70.910 238.090,70.100 235.570,69.818 234.800 C 69.535 234.030,68.989 232.410,68.605 231.200 C 67.528 227.805,67.130 227.600,61.605 227.600 C 57.845 227.600,56.795 227.725,56.384 228.219 M48.304 228.900 C 48.551 229.207,48.609 230.790,48.453 233.000 L 48.200 236.600 36.600 236.815 C 30.220 236.934,24.955 237.069,24.900 237.115 C 24.483 237.468,24.880 245.568,25.333 245.944 C 25.683 246.234,29.350 246.423,36.033 246.493 L 46.200 246.600 46.318 249.738 C 46.487 254.273,47.171 254.000,35.631 254.000 C 23.849 254.000,24.800 253.503,24.800 259.666 C 24.800 265.723,23.732 265.258,37.460 265.174 C 50.236 265.096,49.249 264.721,49.102 269.600 L 49.000 273.000 32.200 273.000 L 15.400 273.000 15.297 251.245 C 15.222 235.512,15.318 229.339,15.646 228.945 C 16.282 228.178,47.689 228.135,48.304 228.900 M66.800 229.200 C 67.240 229.640,67.600 230.235,67.600 230.522 C 67.600 230.808,68.299 233.193,69.153 235.822 C 70.007 238.450,71.558 243.300,72.598 246.600 C 73.639 249.900,74.740 253.371,75.045 254.314 C 75.350 255.257,75.600 256.270,75.600 256.565 C 75.600 256.860,75.873 257.329,76.208 257.606 C 76.883 258.166,78.400 257.166,78.400 256.161 C 78.400 255.878,79.005 253.791,79.745 251.523 C 80.486 249.255,81.504 246.050,82.009 244.400 C 84.823 235.202,86.893 229.342,87.484 228.900 C 88.522 228.124,96.353 228.212,96.657 229.003 C 96.784 229.335,94.863 235.590,92.388 242.903 C 89.913 250.216,86.692 259.735,85.229 264.056 C 81.850 274.041,82.618 273.248,76.456 273.112 C 70.742 272.985,71.187 273.274,69.829 268.800 C 69.462 267.590,68.912 265.970,68.607 265.200 C 68.302 264.430,67.662 262.450,67.185 260.800 C 66.708 259.150,65.464 255.190,64.422 252.000 C 55.709 225.345,56.050 228.400,61.787 228.400 C 65.467 228.400,66.101 228.501,66.800 229.200 M238.200 235.561 C 230.866 237.163,227.500 240.463,226.926 246.611 C 226.318 253.121,229.668 255.912,241.556 258.800 C 248.627 260.518,250.679 262.094,249.061 264.563 C 246.688 268.184,239.420 267.139,237.526 262.905 C 236.518 260.653,236.065 260.473,231.317 260.435 C 225.646 260.389,224.942 261.456,227.204 266.670 C 232.280 278.372,255.814 278.004,260.349 266.151 C 263.533 257.833,258.469 252.057,246.200 250.014 C 237.833 248.620,235.479 243.600,243.194 243.600 C 246.278 243.600,247.871 244.392,248.676 246.327 C 249.519 248.350,249.625 248.387,254.620 248.394 C 260.419 248.402,261.292 247.316,259.041 242.887 C 255.805 236.517,247.378 233.554,238.200 235.561 M139.800 235.956 C 121.079 241.409,120.786 269.300,139.398 274.257 C 148.451 276.668,157.190 272.895,161.302 264.801 C 162.845 261.763,162.491 261.486,157.164 261.570 L 153.052 261.634 151.302 263.248 C 146.939 267.270,140.442 266.825,138.174 262.349 C 135.957 257.973,135.883 258.000,150.290 258.000 L 162.420 258.000 162.810 256.974 C 163.466 255.248,163.242 252.779,162.061 248.724 C 159.088 238.512,149.637 233.091,139.800 235.956 M149.400 236.562 C 157.123 238.694,162.425 246.025,162.394 254.525 C 162.383 257.417,163.006 257.282,149.916 257.223 C 136.425 257.162,136.020 257.247,136.547 260.057 C 137.835 266.922,146.588 268.938,151.824 263.575 L 153.362 262.000 157.258 262.000 C 161.942 262.000,162.051 262.121,160.257 265.309 C 152.081 279.836,130.625 276.386,126.813 259.932 C 123.499 245.627,135.871 232.826,149.400 236.562 M219.400 236.400 C 218.740 236.568,216.827 236.727,215.149 236.753 C 211.341 236.812,211.521 236.588,209.617 243.665 C 208.769 246.819,207.465 251.178,206.718 253.352 L 205.360 257.304 204.640 256.204 C 204.243 255.599,202.947 251.229,201.760 246.493 C 200.572 241.757,199.398 237.639,199.151 237.341 C 198.662 236.752,190.170 236.547,189.389 237.106 C 188.946 237.423,187.600 241.473,187.600 242.489 C 187.600 242.830,187.335 243.984,187.010 245.054 C 186.686 246.124,185.813 249.520,185.070 252.600 C 183.606 258.669,183.027 259.431,182.183 256.400 C 181.125 252.600,178.865 243.666,178.223 240.740 C 177.289 236.490,177.146 236.400,171.317 236.400 C 165.530 236.400,165.367 236.504,166.244 239.622 C 166.580 240.820,167.018 242.430,167.215 243.200 C 167.413 243.970,168.408 246.940,169.426 249.800 C 170.444 252.660,172.416 258.638,173.809 263.084 C 175.202 267.530,176.581 271.670,176.875 272.284 L 177.409 273.400 182.348 273.513 C 187.967 273.641,188.159 273.562,188.773 270.874 C 190.406 263.729,193.540 252.220,193.884 252.105 C 194.388 251.937,195.600 254.830,195.600 256.200 C 195.600 256.741,195.857 257.862,196.171 258.692 C 196.484 259.521,196.941 261.460,197.184 263.000 C 197.815 266.988,198.764 270.774,199.539 272.400 L 200.206 273.800 205.347 273.912 C 211.765 274.052,211.503 274.292,213.795 266.200 C 214.169 264.880,214.718 263.170,215.014 262.400 C 215.311 261.630,215.669 260.550,215.810 260.000 C 216.233 258.345,219.067 249.375,221.096 243.265 L 223.000 237.531 222.056 236.765 C 221.536 236.344,220.996 236.021,220.856 236.047 C 220.715 236.073,220.060 236.232,219.400 236.400 M248.530 236.574 C 253.618 237.548,256.464 239.542,258.257 243.392 C 259.988 247.108,259.552 247.600,254.536 247.600 C 250.589 247.600,250.647 247.625,249.084 245.200 C 246.611 241.365,237.600 241.992,237.600 246.000 C 237.600 248.166,240.001 249.505,246.484 250.953 C 258.492 253.636,262.030 257.731,259.536 266.057 C 255.887 278.235,227.892 276.183,227.465 263.706 L 227.400 261.800 231.511 261.686 L 235.621 261.572 236.311 262.825 C 238.732 267.227,243.111 268.804,247.447 266.835 C 253.624 264.030,250.393 259.547,240.800 257.613 C 229.827 255.401,226.242 251.453,228.364 243.917 C 230.080 237.824,238.685 234.690,248.530 236.574 M106.014 237.974 C 105.265 239.374,105.628 272.618,106.400 273.313 C 107.088 273.933,115.544 273.999,116.153 273.390 C 116.994 272.549,117.153 238.513,116.320 237.680 C 115.423 236.783,106.516 237.037,106.014 237.974 M177.246 239.800 C 177.626 241.120,178.859 245.980,179.986 250.600 C 181.113 255.220,182.283 259.250,182.586 259.555 C 183.445 260.418,184.331 259.791,184.611 258.121 C 185.117 255.098,189.319 238.191,189.656 237.819 C 190.335 237.071,197.839 237.155,198.494 237.918 C 198.815 238.293,199.837 241.660,200.765 245.400 C 204.639 261.028,205.342 262.160,206.978 255.400 C 207.350 253.860,208.080 251.340,208.599 249.800 C 209.119 248.260,210.024 245.110,210.611 242.800 C 211.993 237.360,211.859 237.474,217.007 237.339 C 222.294 237.199,222.148 236.793,219.643 244.665 C 218.534 248.149,216.644 254.150,215.444 258.000 C 214.244 261.850,212.869 266.260,212.389 267.800 C 210.566 273.643,211.069 273.291,204.800 273.117 L 200.600 273.000 199.356 268.400 C 198.672 265.870,197.516 261.280,196.788 258.200 C 194.848 249.997,193.521 248.302,192.565 252.802 C 191.188 259.282,187.588 272.561,187.130 272.852 C 186.441 273.288,178.761 273.290,178.072 272.853 C 177.619 272.566,174.570 263.610,173.015 258.000 C 172.741 257.010,171.980 254.850,171.324 253.200 C 170.220 250.423,169.237 247.416,167.270 240.806 C 166.166 237.096,166.087 237.157,171.725 237.288 L 176.556 237.400 177.246 239.800 M115.532 237.950 C 116.199 238.372,116.235 272.325,115.569 272.991 C 115.014 273.546,107.528 273.270,106.922 272.672 C 106.392 272.148,106.052 238.887,106.568 238.051 C 106.898 237.518,114.711 237.429,115.532 237.950 M141.000 244.334 C 138.227 245.652,135.807 249.395,136.885 250.700 C 137.547 251.501,151.546 251.407,151.856 250.599 C 152.379 249.235,150.756 246.182,148.696 244.655 C 147.114 243.484,143.139 243.318,141.000 244.334 M149.013 245.606 C 150.909 247.378,151.860 250.116,150.700 250.465 C 150.425 250.548,147.320 250.522,143.800 250.408 L 137.400 250.200 137.503 249.258 C 137.952 245.142,145.838 242.640,149.013 245.606 " stroke="none" fill="#818d95" fill-rule="evenodd"></path></g></svg>