<svg id="svg" version="1.1" xmlns="http://www.w3.org/2000/svg" xmlns:xlink="http://www.w3.org/1999/xlink" width="400" height="444.2396313364055" viewBox="0, 0, 400,444.2396313364055"><g id="svgg"><path id="path0" d="M190.000 64.027 C 189.010 64.213,184.757 64.627,180.548 64.947 C 175.653 65.320,172.482 65.742,171.748 66.118 C 171.117 66.442,168.710 66.893,166.400 67.120 C 161.868 67.567,155.203 69.406,149.255 71.850 C 147.355 72.631,145.080 73.526,144.200 73.840 C 143.320 74.154,142.150 74.661,141.600 74.966 C 141.050 75.271,139.790 75.732,138.800 75.990 C 136.570 76.572,130.811 79.361,128.400 81.027 C 126.643 82.241,123.645 83.951,119.200 86.274 C 116.458 87.706,111.398 91.446,108.817 93.946 C 107.743 94.986,105.905 96.352,104.732 96.980 C 103.560 97.609,101.816 98.950,100.857 99.962 C 99.899 100.973,98.468 102.488,97.678 103.328 C 96.888 104.168,95.537 105.428,94.676 106.128 C 91.979 108.319,89.591 110.862,88.789 112.400 C 88.502 112.950,86.812 114.957,85.034 116.861 C 81.636 120.497,80.464 121.949,79.596 123.600 C 79.151 124.445,76.844 127.986,74.123 132.000 C 73.750 132.550,72.886 133.720,72.203 134.600 C 70.971 136.188,68.800 140.649,68.800 141.592 C 68.800 141.863,67.986 143.532,66.991 145.302 C 63.685 151.179,63.598 154.857,66.850 151.200 C 70.410 147.196,72.318 145.480,74.699 144.139 C 76.074 143.365,77.334 142.504,77.499 142.226 C 77.913 141.530,83.959 136.776,85.635 135.829 C 86.386 135.404,87.810 134.630,88.800 134.107 C 91.938 132.451,92.965 131.831,96.027 129.744 C 99.811 127.165,102.207 125.953,106.113 124.642 C 107.821 124.068,110.410 123.059,111.865 122.400 C 113.320 121.740,114.671 121.200,114.867 121.200 C 115.063 121.200,116.613 120.539,118.311 119.730 C 123.650 117.190,129.150 115.409,136.400 113.874 C 138.050 113.525,141.290 112.769,143.600 112.194 C 145.910 111.620,149.420 110.817,151.400 110.410 C 153.380 110.003,155.720 109.474,156.600 109.234 C 157.480 108.995,160.089 108.612,162.397 108.382 C 164.705 108.153,167.765 107.707,169.197 107.391 C 177.558 105.547,217.127 105.561,223.802 107.411 C 224.903 107.716,227.706 108.145,230.031 108.366 C 232.357 108.586,234.786 108.970,235.430 109.219 C 236.073 109.468,238.580 110.003,241.000 110.409 C 245.239 111.120,248.890 111.980,254.400 113.564 C 255.830 113.975,258.620 114.620,260.600 114.997 C 262.580 115.374,265.230 116.114,266.488 116.641 C 267.746 117.169,269.006 117.602,269.288 117.604 C 269.570 117.606,270.700 118.050,271.800 118.591 C 272.900 119.132,274.091 119.581,274.446 119.587 C 274.801 119.594,275.550 119.960,276.109 120.400 C 276.669 120.840,277.328 121.200,277.575 121.200 C 278.039 121.200,281.426 122.566,285.112 124.241 C 286.273 124.768,287.448 125.200,287.723 125.200 C 288.471 125.200,294.025 127.929,295.400 128.971 C 296.060 129.472,297.230 130.203,298.000 130.597 C 298.770 130.990,299.490 131.422,299.600 131.556 C 299.710 131.690,300.430 132.127,301.200 132.527 C 306.986 135.534,312.030 138.854,314.590 141.340 C 315.916 142.627,317.919 144.205,319.042 144.846 C 321.239 146.099,323.910 148.534,325.736 150.946 C 329.698 156.181,330.677 152.193,326.998 145.807 C 325.855 143.823,324.687 141.480,324.402 140.600 C 323.615 138.168,322.017 134.800,321.651 134.800 C 321.472 134.800,320.551 133.495,319.604 131.900 C 318.657 130.305,317.265 128.190,316.511 127.200 C 315.758 126.210,314.178 123.895,313.001 122.055 C 311.823 120.215,309.531 117.335,307.905 115.655 C 306.280 113.975,304.567 111.970,304.099 111.200 C 303.167 109.669,300.497 107.022,297.443 104.603 C 296.367 103.751,295.159 102.499,294.760 101.821 C 294.360 101.144,293.080 99.872,291.916 98.995 C 290.752 98.118,289.451 97.085,289.025 96.700 C 288.598 96.315,288.048 96.000,287.803 96.000 C 287.558 96.000,286.781 95.406,286.078 94.680 C 285.374 93.954,283.429 92.379,281.756 91.180 C 280.082 89.981,278.192 88.578,277.554 88.062 C 276.916 87.546,275.091 86.447,273.497 85.618 C 269.249 83.410,267.801 82.562,264.952 80.611 C 263.543 79.646,260.457 78.115,258.095 77.209 C 255.733 76.303,253.170 75.234,252.400 74.833 C 251.630 74.431,250.460 73.977,249.800 73.824 C 249.140 73.670,247.880 73.216,247.000 72.815 C 241.206 70.172,231.671 67.343,227.400 67.000 C 225.640 66.858,222.760 66.407,221.000 65.997 C 219.240 65.586,215.370 65.051,212.400 64.806 C 209.430 64.562,205.830 64.194,204.400 63.989 C 201.253 63.537,192.489 63.560,190.000 64.027 M327.800 263.213 C 327.140 263.592,325.092 265.377,323.248 267.179 C 321.404 268.981,319.244 270.877,318.448 271.391 C 317.652 271.906,315.830 273.243,314.400 274.363 C 309.275 278.376,303.348 282.274,300.409 283.565 C 298.763 284.288,296.513 285.468,295.409 286.188 C 290.491 289.396,283.437 292.719,280.645 293.144 C 278.864 293.416,277.582 293.853,277.019 294.382 C 276.540 294.832,275.940 295.200,275.685 295.200 C 275.430 295.200,274.452 295.541,273.511 295.959 C 267.030 298.832,258.286 301.729,253.516 302.583 C 251.912 302.870,248.890 303.410,246.800 303.782 C 244.710 304.154,242.460 304.617,241.800 304.810 C 241.140 305.003,239.430 305.354,238.000 305.590 C 236.570 305.826,233.780 306.294,231.800 306.630 C 224.813 307.813,223.350 308.003,218.200 308.389 C 215.340 308.603,210.750 308.981,208.000 309.228 C 202.182 309.752,183.993 309.513,179.800 308.858 C 178.260 308.618,174.283 308.240,170.963 308.018 C 167.643 307.797,163.863 307.347,162.563 307.019 C 161.263 306.690,158.940 306.258,157.400 306.058 C 155.860 305.858,153.430 305.421,152.000 305.087 C 149.642 304.537,142.653 303.234,138.600 302.590 C 136.829 302.309,132.877 301.158,129.800 300.028 C 123.193 297.600,116.639 294.991,115.200 294.215 C 114.650 293.918,113.133 293.479,111.829 293.238 C 110.525 292.998,108.635 292.386,107.629 291.879 C 100.487 288.277,98.928 287.414,97.000 285.996 C 95.900 285.187,94.328 284.304,93.506 284.034 C 92.684 283.763,91.916 283.388,91.800 283.200 C 91.684 283.012,90.928 282.640,90.120 282.374 C 88.598 281.871,85.822 279.961,79.263 274.900 C 78.052 273.965,76.957 273.200,76.830 273.200 C 76.704 273.199,76.077 272.749,75.438 272.200 C 74.799 271.650,74.153 271.200,74.003 271.200 C 73.854 271.200,71.869 269.405,69.592 267.212 C 65.327 263.102,64.036 262.560,64.664 265.146 C 65.014 266.588,67.152 271.263,67.798 272.000 C 68.088 272.330,68.881 274.040,69.561 275.800 C 70.297 277.705,71.648 280.105,72.899 281.730 C 75.148 284.653,76.390 286.509,78.428 289.992 C 80.258 293.120,82.375 295.900,85.701 299.545 C 87.295 301.293,89.860 304.190,91.400 305.984 C 92.940 307.777,94.830 309.710,95.600 310.278 C 96.370 310.847,98.170 312.523,99.600 314.004 C 102.471 316.978,105.357 319.394,109.000 321.873 C 111.235 323.394,114.974 326.222,117.810 328.535 C 118.476 329.078,120.549 330.248,122.418 331.136 C 124.286 332.024,126.494 333.211,127.325 333.775 C 128.156 334.339,128.904 334.800,128.987 334.800 C 129.070 334.800,131.267 335.994,133.869 337.454 C 136.471 338.914,139.500 340.341,140.600 340.626 C 141.700 340.912,144.130 341.711,146.000 342.402 C 147.870 343.094,150.480 343.986,151.800 344.384 C 153.120 344.783,154.650 345.298,155.200 345.528 C 155.750 345.759,157.820 346.413,159.800 346.981 C 161.780 347.549,164.339 348.288,165.488 348.623 C 178.594 352.451,215.098 352.429,228.554 348.586 C 239.088 345.578,242.630 344.442,245.400 343.185 C 246.280 342.785,248.710 341.968,250.800 341.368 C 254.621 340.271,262.831 336.340,265.836 334.167 C 266.724 333.525,268.430 332.574,269.626 332.054 C 273.375 330.424,274.500 329.803,276.242 328.400 C 276.926 327.850,277.997 327.040,278.623 326.600 C 279.250 326.160,280.311 325.338,280.981 324.773 C 281.652 324.208,283.370 322.955,284.800 321.987 C 288.150 319.721,290.699 317.590,294.297 314.051 C 295.891 312.483,297.359 311.200,297.560 311.200 C 297.761 311.200,299.400 309.535,301.202 307.500 C 303.004 305.465,305.046 303.170,305.739 302.400 C 306.433 301.630,307.721 300.100,308.600 299.000 C 309.480 297.900,310.397 296.820,310.639 296.600 C 310.880 296.380,311.454 295.567,311.914 294.793 C 312.374 294.019,313.211 292.953,313.775 292.423 C 314.339 291.894,314.800 291.310,314.800 291.127 C 314.800 290.774,318.179 285.638,320.747 282.088 C 321.587 280.927,322.687 279.037,323.191 277.888 C 323.695 276.740,325.265 273.426,326.679 270.523 C 328.612 266.558,329.220 264.908,329.126 263.886 L 329.000 262.524 327.800 263.213 " stroke="none" fill="#ec732a" fill-rule="evenodd"></path><path id="path1" d="M0.000 222.000 L 0.000 444.000 200.000 444.000 L 400.000 444.000 400.000 222.000 L 400.000 0.000 200.000 0.000 L 0.000 0.000 0.000 222.000 M297.645 33.596 C 305.142 34.974,311.654 40.308,314.486 47.390 C 316.061 51.326,315.109 61.050,312.976 62.820 C 312.659 63.083,312.400 63.539,312.400 63.834 C 312.400 64.511,310.126 66.767,306.568 69.619 C 293.990 79.700,274.789 69.889,274.798 53.386 C 274.801 48.253,275.846 45.495,279.686 40.486 C 280.846 38.974,281.535 38.391,284.000 36.841 C 288.255 34.165,293.698 32.870,297.645 33.596 M213.531 63.348 C 214.923 63.672,217.443 64.050,219.131 64.187 C 220.819 64.323,223.370 64.689,224.800 65.000 C 226.230 65.310,229.200 65.824,231.400 66.142 C 233.600 66.459,236.300 67.019,237.400 67.385 C 242.061 68.937,246.632 70.718,249.800 72.215 C 250.900 72.735,252.475 73.363,253.300 73.611 C 254.125 73.859,254.800 74.208,254.800 74.387 C 254.800 74.565,255.443 74.832,256.228 74.979 C 258.090 75.328,263.621 77.529,264.431 78.244 C 264.779 78.550,265.194 78.800,265.354 78.800 C 265.515 78.800,266.805 79.610,268.221 80.600 C 269.638 81.590,270.949 82.400,271.136 82.400 C 271.323 82.400,271.793 82.750,272.179 83.177 C 272.566 83.605,273.409 84.070,274.051 84.211 C 274.694 84.352,275.711 84.858,276.313 85.334 C 276.914 85.810,277.710 86.380,278.082 86.600 C 280.380 87.962,284.498 90.989,285.893 92.342 C 286.792 93.215,288.532 94.572,289.759 95.356 C 290.986 96.141,293.759 98.542,295.921 100.692 C 298.083 102.841,300.965 105.590,302.325 106.800 C 303.685 108.010,304.798 109.225,304.799 109.500 C 304.799 109.775,304.941 110.000,305.114 110.000 C 305.286 110.000,305.760 110.563,306.167 111.252 C 306.574 111.941,308.143 113.780,309.653 115.339 C 311.164 116.898,312.400 118.362,312.400 118.591 C 312.400 118.820,312.760 119.232,313.200 119.507 C 313.640 119.782,314.000 120.275,314.000 120.603 C 314.000 120.932,314.160 121.200,314.356 121.200 C 314.552 121.200,315.093 122.010,315.558 123.000 C 316.023 123.990,316.538 124.801,316.702 124.803 C 316.866 124.804,317.360 125.384,317.800 126.092 C 318.240 126.799,318.999 128.013,319.488 128.789 C 319.976 129.565,320.743 130.951,321.192 131.868 C 321.642 132.786,322.145 133.596,322.311 133.668 C 322.998 133.969,325.200 137.421,325.200 138.199 C 325.200 138.661,325.351 139.211,325.536 139.420 C 325.721 139.629,326.120 140.430,326.424 141.200 C 326.727 141.970,327.642 143.699,328.457 145.041 C 329.271 146.384,330.149 148.274,330.408 149.241 C 330.667 150.209,331.023 151.180,331.201 151.400 C 333.097 153.753,334.184 157.801,333.037 158.241 C 332.405 158.484,329.200 156.608,329.200 155.995 C 329.200 155.778,328.942 155.600,328.627 155.600 C 328.043 155.600,325.541 153.193,321.604 148.846 C 320.369 147.483,318.948 146.320,318.357 146.191 C 317.779 146.064,315.976 144.754,314.350 143.280 C 311.576 140.766,309.072 138.800,308.644 138.800 C 308.541 138.800,307.319 138.041,305.928 137.114 C 303.152 135.264,300.795 133.908,299.100 133.189 C 298.495 132.932,298.000 132.579,298.000 132.404 C 298.000 132.230,297.295 131.805,296.434 131.460 C 295.573 131.116,294.755 130.651,294.617 130.427 C 294.327 129.958,288.648 127.200,287.973 127.200 C 287.726 127.200,287.046 126.949,286.462 126.643 C 285.878 126.336,284.050 125.506,282.400 124.797 C 277.208 122.568,275.841 121.952,274.346 121.165 C 273.546 120.744,272.606 120.400,272.257 120.400 C 271.909 120.400,270.640 119.950,269.437 119.400 C 268.235 118.850,266.975 118.400,266.636 118.400 C 266.298 118.400,265.252 118.057,264.311 117.638 C 263.370 117.218,261.160 116.670,259.400 116.418 C 257.640 116.167,255.750 115.803,255.200 115.609 C 252.123 114.528,238.689 111.200,237.399 111.200 C 236.820 111.200,234.423 110.762,232.073 110.227 C 219.005 107.252,189.395 106.310,174.400 108.393 C 172.750 108.622,169.690 108.976,167.600 109.180 C 165.510 109.384,162.900 109.756,161.800 110.006 C 160.700 110.257,158.450 110.699,156.800 110.988 C 153.585 111.550,148.278 112.792,140.657 114.764 C 138.049 115.439,134.719 116.195,133.257 116.444 C 130.528 116.908,124.917 118.621,124.195 119.210 C 123.972 119.392,122.892 119.761,121.795 120.031 C 120.698 120.301,119.322 120.854,118.738 121.261 C 118.154 121.667,117.554 122.000,117.405 122.000 C 117.137 122.000,112.526 123.927,110.200 125.011 C 107.852 126.105,105.091 127.200,104.649 127.213 C 103.932 127.233,100.099 129.291,96.200 131.749 C 94.220 132.997,91.970 134.336,91.200 134.724 C 89.907 135.374,87.386 136.931,83.400 139.540 C 82.520 140.116,80.642 141.631,79.228 142.907 C 77.813 144.183,75.923 145.568,75.028 145.986 C 73.150 146.863,71.937 147.955,68.600 151.774 C 62.584 158.658,57.973 159.643,60.961 153.406 C 61.489 152.303,62.569 150.050,63.360 148.400 C 64.151 146.750,65.357 144.505,66.040 143.411 C 66.722 142.318,67.618 140.330,68.031 138.995 C 68.461 137.602,69.382 135.864,70.190 134.920 C 70.966 134.014,71.600 133.141,71.600 132.981 C 71.600 132.820,72.635 131.163,73.900 129.297 C 75.165 127.432,76.889 124.802,77.731 123.453 C 78.573 122.104,79.608 120.628,80.031 120.174 C 80.454 119.720,80.803 119.180,80.806 118.974 C 80.809 118.768,82.183 117.160,83.859 115.400 C 85.534 113.640,87.306 111.569,87.796 110.797 C 88.286 110.026,89.821 108.316,91.207 106.997 C 92.593 105.679,95.093 103.285,96.763 101.678 C 98.434 100.071,100.430 98.153,101.200 97.415 C 101.970 96.677,103.181 95.784,103.892 95.431 C 104.602 95.077,106.312 93.747,107.692 92.474 C 109.071 91.202,111.190 89.498,112.400 88.687 C 113.610 87.877,115.320 86.709,116.200 86.092 C 117.080 85.474,118.430 84.716,119.200 84.407 C 119.970 84.098,120.690 83.735,120.800 83.600 C 120.910 83.465,122.207 82.698,123.683 81.894 C 125.159 81.091,126.718 80.082,127.149 79.651 C 128.089 78.711,133.346 76.159,136.400 75.160 C 140.607 73.784,142.859 72.901,143.308 72.452 C 143.557 72.203,143.919 72.000,144.114 72.000 C 144.309 72.000,145.578 71.473,146.934 70.830 C 150.764 69.012,159.368 66.465,163.951 65.793 C 166.235 65.458,168.218 65.113,168.359 65.025 C 168.500 64.938,170.502 64.660,172.808 64.407 C 175.113 64.154,178.530 63.691,180.400 63.379 C 185.773 62.481,185.955 62.473,198.800 62.620 C 207.710 62.721,211.683 62.918,213.531 63.348 M81.221 65.805 C 92.364 68.149,94.142 85.750,83.938 92.692 C 74.644 99.014,60.570 91.356,60.615 80.000 C 60.657 69.152,69.190 63.274,81.221 65.805 M254.577 171.689 C 255.057 172.373,255.200 173.679,255.200 177.358 C 255.200 183.672,255.136 183.600,260.800 183.600 C 266.074 183.600,267.233 184.610,267.063 189.058 C 266.951 192.013,266.228 192.400,260.818 192.400 C 254.630 192.400,255.200 190.899,255.200 207.202 L 255.200 221.045 256.216 222.422 C 257.522 224.192,257.943 224.338,261.851 224.372 C 265.869 224.407,266.137 224.663,266.339 228.666 C 266.625 234.315,266.320 234.516,257.755 234.330 L 251.800 234.200 249.908 232.877 C 244.616 229.177,244.404 228.246,244.387 208.627 C 244.373 191.406,244.598 192.400,240.700 192.400 C 237.000 192.400,236.329 191.783,236.256 188.313 C 236.178 184.601,237.102 183.600,240.608 183.600 C 244.059 183.600,244.296 183.253,244.465 177.941 C 244.621 173.013,244.983 172.340,247.969 171.420 C 250.942 170.504,253.830 170.622,254.577 171.689 M165.600 183.172 C 169.050 184.264,169.823 184.560,170.273 184.957 C 170.549 185.201,171.628 186.120,172.669 187.000 C 176.341 190.101,179.200 194.123,179.200 196.187 C 179.200 196.522,179.600 197.923,180.089 199.298 C 181.262 202.599,181.439 214.185,180.348 216.200 C 179.990 216.860,179.495 218.356,179.248 219.524 C 178.684 222.187,177.345 225.170,176.581 225.463 C 176.261 225.585,176.000 225.873,176.000 226.102 C 176.000 227.110,170.401 231.707,167.285 233.259 C 162.214 235.785,150.904 234.777,147.295 231.478 C 145.595 229.925,145.409 230.803,145.298 240.919 C 145.156 253.783,145.414 253.200,139.860 253.200 C 133.415 253.200,134.011 256.848,133.995 217.313 C 133.980 179.823,133.455 183.600,138.680 183.600 C 142.620 183.600,143.710 184.300,144.189 187.136 C 144.533 189.170,144.487 189.169,146.312 187.175 C 147.131 186.282,148.362 185.201,149.048 184.775 C 152.037 182.917,161.809 181.971,165.600 183.172 M302.074 183.242 C 302.444 183.439,303.184 183.600,303.718 183.600 C 305.972 183.600,311.805 189.064,314.606 193.800 C 315.735 195.709,317.011 204.271,316.618 207.305 C 316.042 211.750,316.651 211.600,299.164 211.600 C 282.515 211.600,283.380 211.402,284.220 215.017 C 284.490 216.176,284.985 217.637,285.320 218.262 C 285.655 218.888,286.144 219.977,286.406 220.683 C 286.756 221.623,287.272 222.093,288.341 222.443 C 289.144 222.706,290.160 223.152,290.600 223.434 C 293.167 225.077,298.913 225.424,305.600 224.338 C 307.821 223.977,308.674 223.728,310.459 222.920 C 310.914 222.715,313.168 225.065,313.596 226.191 C 315.922 232.308,312.143 234.200,297.600 234.200 L 288.200 234.200 285.241 232.400 C 279.013 228.611,274.408 223.027,274.120 218.914 C 274.015 217.421,273.669 215.619,273.351 214.910 C 272.158 212.251,272.308 204.641,273.587 203.000 C 273.758 202.780,273.986 201.308,274.094 199.730 C 274.288 196.878,275.353 194.320,277.141 192.416 C 277.503 192.030,278.415 190.922,279.167 189.953 C 280.435 188.318,281.616 187.294,285.058 184.846 C 287.871 182.846,299.299 181.768,302.074 183.242 M350.495 182.820 C 352.490 183.374,352.800 184.111,352.800 188.298 C 352.800 192.648,352.200 193.600,349.457 193.600 C 347.447 193.600,343.600 194.661,343.600 195.215 C 343.600 195.427,343.345 195.600,343.034 195.600 C 342.152 195.600,340.066 198.504,339.103 201.073 C 338.284 203.261,338.219 204.271,338.016 217.936 L 337.800 232.472 336.839 233.250 C 336.011 233.920,335.350 234.012,332.081 233.914 C 326.076 233.734,326.600 236.180,326.600 208.336 L 326.600 185.130 327.544 184.365 C 328.294 183.758,329.119 183.603,331.544 183.613 C 335.325 183.628,335.947 184.038,336.265 186.721 C 336.432 188.133,336.638 188.628,336.952 188.376 C 337.198 188.179,338.287 187.276,339.371 186.369 C 341.558 184.538,344.589 183.030,346.800 182.671 C 348.582 182.382,348.977 182.398,350.495 182.820 M63.256 184.364 L 64.200 185.129 64.310 208.046 C 64.399 226.734,64.313 231.520,63.841 233.982 C 63.522 235.642,63.149 237.810,63.011 238.800 C 62.742 240.726,61.086 244.465,60.161 245.232 C 59.853 245.488,59.600 245.913,59.600 246.176 C 59.600 246.812,57.102 249.600,56.533 249.600 C 56.287 249.600,55.992 249.844,55.878 250.141 C 55.038 252.331,44.675 255.123,42.551 253.731 C 39.410 251.673,39.822 244.421,43.082 244.394 C 45.498 244.375,51.200 241.120,51.200 239.760 C 51.200 239.694,51.509 238.595,51.886 237.320 C 52.490 235.276,52.597 232.035,52.786 210.064 L 53.000 185.129 53.944 184.364 C 55.326 183.246,61.874 183.246,63.256 184.364 M88.177 184.489 C 88.712 185.252,88.800 187.340,88.803 199.189 C 88.807 218.674,89.133 220.699,92.656 223.133 C 94.361 224.311,102.063 224.781,102.715 223.747 C 102.872 223.498,103.711 222.958,104.579 222.547 C 107.892 220.979,108.138 219.589,108.387 201.064 L 108.600 185.128 109.544 184.364 C 111.149 183.066,117.531 183.250,118.830 184.632 L 119.800 185.664 119.909 208.996 L 120.019 232.327 118.955 233.164 C 116.062 235.440,110.000 233.692,110.000 230.581 C 110.000 229.685,108.701 229.891,107.178 231.029 C 102.130 234.799,92.109 235.869,87.232 233.159 C 84.762 231.786,80.973 227.944,80.592 226.425 C 80.457 225.889,80.083 225.256,79.760 225.020 C 78.057 223.775,77.631 219.264,77.582 201.967 L 77.535 185.520 78.437 184.560 C 79.770 183.142,87.196 183.088,88.177 184.489 M196.610 184.507 C 197.433 185.215,197.733 185.943,197.973 187.807 C 198.161 189.269,198.849 191.324,199.741 193.089 C 200.543 194.678,201.200 196.196,201.200 196.463 C 201.200 196.729,201.542 197.679,201.960 198.574 C 202.378 199.468,202.941 200.920,203.211 201.800 C 203.480 202.680,203.924 203.670,204.197 204.000 C 204.469 204.330,204.820 205.134,204.976 205.786 C 205.131 206.438,205.615 207.755,206.051 208.712 C 206.487 209.669,206.953 211.386,207.087 212.526 C 207.430 215.448,209.600 218.694,209.600 216.285 C 209.600 215.781,209.973 214.656,210.430 213.785 C 210.886 212.913,211.525 211.210,211.850 210.000 C 212.175 208.790,212.612 207.629,212.821 207.420 C 213.029 207.211,213.200 206.758,213.200 206.414 C 213.200 206.070,213.540 205.153,213.956 204.377 C 214.372 203.601,214.921 201.624,215.175 199.984 C 215.430 198.343,215.886 196.622,216.190 196.159 C 216.493 195.696,216.865 194.659,217.016 193.855 C 217.167 193.051,217.607 191.990,217.994 191.497 C 218.381 191.003,218.828 189.790,218.987 188.800 C 219.289 186.924,219.917 185.683,221.227 184.373 C 222.084 183.516,229.182 183.221,230.400 183.992 C 231.350 184.593,231.141 188.142,230.071 189.590 C 229.592 190.238,229.199 191.180,229.199 191.684 C 229.198 192.188,228.863 193.149,228.454 193.819 C 228.045 194.489,227.496 196.289,227.234 197.819 C 226.800 200.348,226.052 202.455,224.614 205.200 C 224.038 206.300,222.217 210.903,221.824 212.252 C 221.688 212.721,221.222 213.514,220.788 214.014 C 220.355 214.513,220.000 215.246,220.000 215.642 C 220.000 216.556,219.171 218.400,218.760 218.400 C 218.589 218.400,218.333 219.255,218.192 220.300 C 217.865 222.716,217.230 224.800,216.820 224.800 C 216.645 224.800,216.390 225.505,216.252 226.366 C 216.031 227.747,214.844 230.619,213.508 233.000 C 213.262 233.440,212.432 234.970,211.665 236.400 C 210.897 237.830,209.938 239.429,209.535 239.954 C 209.131 240.479,208.800 241.126,208.800 241.392 C 208.800 241.658,208.440 242.202,208.000 242.600 C 207.560 242.998,207.200 243.563,207.200 243.856 C 207.200 244.399,200.799 251.200,200.288 251.200 C 200.134 251.200,199.203 251.814,198.220 252.564 C 196.305 254.026,193.695 254.793,191.655 254.493 C 187.905 253.943,186.235 246.340,189.526 244.807 C 190.117 244.532,190.960 244.114,191.400 243.878 C 191.840 243.642,192.830 243.140,193.600 242.763 C 195.195 241.982,197.954 239.318,199.341 237.220 C 203.666 230.679,203.697 230.190,200.194 223.815 C 199.427 222.420,198.794 220.946,198.787 220.540 C 198.781 220.133,198.332 218.900,197.791 217.800 C 197.250 216.700,196.806 215.525,196.804 215.189 C 196.802 214.853,196.520 214.178,196.178 213.690 C 195.836 213.201,195.384 211.732,195.173 210.425 C 194.963 209.118,194.163 206.866,193.396 205.420 C 192.630 203.975,191.839 202.479,191.639 202.096 C 191.439 201.713,190.793 200.230,190.204 198.800 C 188.943 195.738,187.792 193.185,186.725 191.081 C 185.819 189.296,185.619 185.142,186.392 184.209 C 187.299 183.117,195.264 183.349,196.610 184.507 M291.929 192.028 C 288.320 192.881,284.800 197.079,284.330 201.089 L 284.200 202.200 293.800 202.313 C 306.553 202.462,306.199 202.628,304.391 197.373 C 302.752 192.611,298.032 190.586,291.929 192.028 M155.075 192.268 C 154.456 192.373,153.306 192.895,152.519 193.429 C 151.732 193.963,150.917 194.400,150.707 194.400 C 146.083 194.400,142.919 215.377,146.938 219.395 C 147.233 219.690,147.705 220.487,147.986 221.166 C 148.267 221.845,148.721 222.400,148.995 222.400 C 149.268 222.400,149.921 222.731,150.446 223.136 C 154.055 225.923,163.084 225.024,165.881 221.600 C 166.782 220.497,169.200 215.484,169.200 214.718 C 169.200 214.302,169.560 213.216,170.000 212.306 C 170.962 210.314,171.059 206.862,170.200 205.200 C 169.870 204.562,169.406 203.176,169.168 202.120 C 168.593 199.562,166.135 195.649,164.400 194.527 C 163.630 194.029,162.729 193.363,162.399 193.045 C 161.763 192.435,157.051 191.935,155.075 192.268 M333.536 258.364 C 333.610 258.889,333.493 259.698,333.275 260.160 C 331.742 263.407,330.453 266.339,330.213 267.127 C 330.057 267.636,329.227 269.293,328.368 270.808 C 327.510 272.323,326.348 274.786,325.786 276.282 C 324.875 278.705,323.110 281.821,322.309 282.419 C 321.822 282.782,319.200 286.574,319.200 286.915 C 319.200 287.090,318.864 287.720,318.454 288.316 C 318.044 288.912,317.069 290.390,316.289 291.600 C 315.509 292.810,313.730 295.184,312.335 296.877 C 310.941 298.569,309.478 300.369,309.085 300.877 C 306.550 304.153,301.536 309.694,299.211 311.789 C 298.228 312.675,296.326 314.408,294.985 315.641 C 293.645 316.873,292.129 318.223,291.617 318.641 C 291.105 319.058,290.319 319.805,289.871 320.300 C 289.423 320.795,288.914 321.200,288.741 321.200 C 288.568 321.200,286.496 322.653,284.137 324.429 C 281.778 326.205,279.383 327.899,278.814 328.193 C 278.246 328.486,276.982 329.458,276.005 330.350 C 275.028 331.243,273.682 332.093,273.014 332.239 C 272.346 332.385,271.371 332.841,270.846 333.252 C 270.321 333.663,269.731 334.000,269.533 334.000 C 269.336 334.000,267.965 334.790,266.487 335.754 C 265.009 336.719,262.720 337.991,261.400 338.579 C 260.080 339.168,258.640 339.850,258.200 340.096 C 254.942 341.913,252.642 342.803,250.151 343.208 C 248.922 343.408,247.706 343.746,247.449 343.960 C 246.163 345.026,230.997 349.971,227.000 350.627 C 226.120 350.771,224.500 351.184,223.400 351.545 C 220.738 352.417,174.083 352.546,171.400 351.689 C 170.520 351.407,168.291 350.907,166.447 350.577 C 162.078 349.796,149.196 345.625,145.669 343.850 C 145.081 343.555,143.919 343.208,143.088 343.080 C 142.256 342.951,141.013 342.566,140.326 342.223 C 139.639 341.880,138.780 341.600,138.416 341.600 C 138.053 341.600,137.145 341.150,136.400 340.600 C 135.655 340.050,134.837 339.600,134.583 339.600 C 133.951 339.600,128.882 336.893,127.381 335.754 C 125.731 334.501,120.796 332.000,119.975 332.000 C 119.611 332.000,118.522 331.308,117.556 330.462 C 116.590 329.616,115.350 328.687,114.800 328.399 C 112.824 327.361,104.881 321.151,99.800 316.672 C 92.827 310.525,81.889 298.579,79.000 293.953 C 78.780 293.600,78.253 292.792,77.829 292.156 C 77.405 291.520,76.293 289.830,75.358 288.400 C 74.422 286.970,72.934 284.810,72.051 283.600 C 69.779 280.487,68.659 278.474,68.045 276.400 C 67.752 275.410,66.792 273.364,65.912 271.854 C 64.105 268.755,61.181 262.583,60.415 260.252 C 59.515 257.512,61.436 257.158,63.952 259.600 C 64.859 260.480,65.736 261.199,65.900 261.197 C 66.065 261.196,67.280 262.345,68.600 263.752 C 69.920 265.159,72.710 267.667,74.800 269.326 C 76.890 270.985,79.011 272.716,79.514 273.171 C 80.017 273.627,80.527 274.000,80.649 274.000 C 81.003 274.000,86.810 278.046,89.116 279.899 C 90.279 280.835,91.508 281.600,91.846 281.600 C 92.574 281.600,99.601 285.269,101.369 286.572 C 102.046 287.071,103.410 287.791,104.400 288.173 C 105.390 288.554,106.740 289.195,107.400 289.596 C 109.305 290.754,113.639 292.400,114.784 292.400 C 115.360 292.400,116.544 292.768,117.415 293.218 C 123.221 296.215,136.244 300.484,141.800 301.212 C 143.780 301.471,146.480 302.016,147.800 302.423 C 149.120 302.830,151.575 303.347,153.256 303.571 C 154.937 303.796,157.097 304.235,158.056 304.546 C 159.015 304.858,161.067 305.220,162.615 305.351 C 164.163 305.482,167.133 305.970,169.215 306.436 C 176.680 308.104,219.680 307.946,224.600 306.232 C 225.480 305.925,227.910 305.550,230.000 305.397 C 232.090 305.245,234.610 304.852,235.600 304.523 C 236.590 304.194,238.480 303.771,239.800 303.581 C 241.120 303.392,243.550 302.883,245.200 302.450 C 246.850 302.016,250.717 301.181,253.793 300.593 C 256.868 300.006,259.838 299.296,260.393 299.016 C 260.947 298.736,262.120 298.380,263.000 298.224 C 263.880 298.068,264.988 297.691,265.463 297.386 C 265.937 297.080,267.197 296.614,268.263 296.349 C 269.328 296.085,270.560 295.643,271.000 295.367 C 271.440 295.091,272.604 294.653,273.586 294.394 C 274.568 294.135,275.807 293.580,276.340 293.161 C 276.872 292.743,277.647 292.400,278.061 292.400 C 278.948 292.400,284.300 290.576,284.951 290.052 C 285.198 289.853,287.560 288.567,290.200 287.193 C 292.840 285.820,295.429 284.359,295.954 283.948 C 296.479 283.537,297.222 283.200,297.605 283.200 C 297.988 283.200,298.525 282.931,298.798 282.603 C 299.070 282.274,300.037 281.806,300.947 281.563 C 301.856 281.319,303.500 280.368,304.600 279.450 C 306.913 277.519,309.799 275.600,310.391 275.600 C 310.616 275.600,310.800 275.450,310.800 275.268 C 310.800 275.085,311.278 274.680,311.861 274.368 C 312.445 274.055,313.750 273.037,314.761 272.104 C 315.773 271.172,316.712 270.407,316.849 270.404 C 317.411 270.395,322.157 266.314,323.333 264.829 C 324.030 263.949,325.410 262.640,326.400 261.920 C 327.390 261.199,328.544 260.182,328.965 259.660 C 330.821 257.354,333.293 256.653,333.536 258.364 M106.172 347.287 C 107.287 347.753,108.470 348.353,108.800 348.621 C 109.130 348.889,110.716 349.792,112.325 350.628 C 115.128 352.085,118.400 355.290,118.400 356.579 C 118.400 356.839,119.135 358.481,120.033 360.226 C 125.398 370.655,118.695 388.708,108.600 391.018 C 107.940 391.169,106.320 391.640,105.000 392.065 C 94.243 395.529,79.747 388.770,77.177 379.092 C 76.930 378.162,76.365 376.320,75.921 375.000 C 74.917 372.016,75.035 365.415,76.131 363.219 C 76.499 362.481,76.805 361.680,76.812 361.439 C 76.874 359.192,81.892 351.600,83.315 351.600 C 83.710 351.600,84.543 351.104,88.000 348.812 C 92.251 345.993,101.264 345.236,106.172 347.287 " stroke="none" fill="#fbfbfb" fill-rule="evenodd"></path><path id="path2" d="M293.000 37.200 C 292.560 37.389,291.028 37.556,289.596 37.572 C 287.444 37.595,286.906 37.739,286.493 38.400 C 286.218 38.840,285.770 39.201,285.497 39.202 C 284.840 39.204,282.400 41.507,282.400 42.124 C 282.400 42.390,282.040 42.832,281.600 43.107 C 281.160 43.382,280.800 43.847,280.800 44.141 C 280.800 44.435,280.461 44.983,280.046 45.358 C 278.246 46.987,277.705 57.833,279.286 60.600 C 279.663 61.260,280.250 62.385,280.591 63.100 C 280.932 63.815,281.484 64.400,281.818 64.400 C 282.152 64.400,282.529 64.670,282.655 65.000 C 282.782 65.330,283.085 65.600,283.329 65.600 C 283.572 65.600,284.138 65.947,284.586 66.372 C 287.925 69.537,287.468 69.340,292.400 69.743 C 297.472 70.157,301.290 69.853,302.178 68.965 C 302.986 68.157,306.362 65.600,306.620 65.600 C 307.613 65.600,310.800 61.971,310.800 60.841 C 310.800 60.218,311.205 59.193,311.700 58.564 C 312.890 57.051,313.057 49.791,311.931 48.542 C 311.563 48.134,311.135 47.290,310.979 46.666 C 310.824 46.043,310.315 45.124,309.848 44.624 C 309.382 44.124,308.640 43.232,308.200 42.642 C 306.834 40.810,305.848 39.927,304.540 39.364 C 303.847 39.066,303.037 38.587,302.740 38.298 C 301.775 37.360,294.528 36.543,293.000 37.200 M73.800 67.400 C 73.580 67.475,72.522 67.656,71.448 67.801 C 65.262 68.637,60.572 79.789,64.139 85.179 C 64.722 86.061,65.204 86.922,65.208 87.091 C 65.213 87.261,65.850 87.940,66.623 88.600 C 67.397 89.260,68.490 90.197,69.054 90.682 C 73.511 94.520,83.628 92.298,86.724 86.800 C 89.933 81.101,87.956 71.643,82.934 68.676 C 81.233 67.671,75.392 66.855,73.800 67.400 M248.348 173.475 C 246.388 174.281,246.000 175.352,246.000 179.957 C 246.000 184.737,245.788 185.009,241.824 185.309 C 238.646 185.551,238.000 186.080,238.000 188.444 C 238.000 191.060,238.170 191.200,241.354 191.200 C 243.302 191.200,244.507 191.400,245.111 191.823 L 246.000 192.445 246.000 207.011 C 246.000 226.735,246.556 229.056,251.901 231.652 C 253.936 232.641,260.022 232.977,263.300 232.282 L 264.800 231.964 264.800 229.382 L 264.800 226.800 261.984 226.800 C 254.267 226.800,253.600 225.128,253.600 205.794 C 253.600 189.954,252.936 191.479,259.959 191.200 L 265.000 191.000 265.126 189.232 C 265.380 185.688,265.447 185.736,259.934 185.509 C 253.535 185.246,253.600 185.316,253.600 178.700 C 253.600 172.627,252.667 171.699,248.348 173.475 M154.600 185.060 C 150.253 185.969,148.596 187.054,145.332 191.126 C 143.814 193.021,142.018 191.322,142.005 187.980 C 141.997 185.815,138.622 184.584,136.457 185.956 C 136.006 186.242,135.925 191.687,135.977 217.994 C 136.048 254.213,135.782 251.600,139.402 251.600 C 143.268 251.600,143.159 251.948,143.288 239.119 C 143.420 226.049,143.727 225.259,147.230 228.973 C 152.088 234.124,164.467 234.096,170.690 228.920 C 173.771 226.357,176.800 222.508,176.800 221.154 C 176.800 220.793,177.079 219.830,177.420 219.014 C 181.129 210.136,179.389 197.020,173.593 190.161 C 169.922 185.819,161.627 183.591,154.600 185.060 M289.600 185.170 C 286.393 185.903,284.063 187.432,280.723 190.997 C 279.691 192.099,278.507 193.360,278.093 193.800 C 274.679 197.430,273.671 213.705,276.417 220.856 C 277.956 224.863,285.042 230.973,289.400 232.050 C 296.443 233.792,312.713 231.714,312.057 229.157 C 311.979 228.850,311.820 227.928,311.705 227.106 C 311.356 224.611,309.232 224.322,305.487 226.259 C 303.673 227.196,294.540 227.246,293.136 226.326 C 292.587 225.966,291.182 225.388,290.013 225.041 C 287.845 224.397,285.200 222.694,285.200 221.941 C 285.200 221.712,284.872 221.046,284.470 220.462 C 283.438 218.960,281.596 213.636,281.598 212.162 C 281.602 209.576,281.449 209.600,298.055 209.600 C 315.337 209.600,314.449 209.785,314.713 206.137 C 314.948 202.885,313.392 194.698,312.362 193.765 C 311.943 193.386,311.600 192.823,311.600 192.514 C 311.600 191.604,306.586 186.978,304.510 185.972 C 302.450 184.973,292.746 184.452,289.600 185.170 M343.793 185.743 C 342.447 186.369,341.063 187.522,339.595 189.239 C 336.591 192.751,336.478 192.821,335.429 191.771 C 335.016 191.359,334.800 190.418,334.800 189.033 C 334.800 186.367,334.062 185.600,331.497 185.600 C 328.155 185.600,328.359 184.026,328.487 208.822 C 328.615 233.592,328.314 231.680,332.118 231.922 C 335.965 232.167,335.763 232.928,336.022 217.239 C 336.288 201.074,336.600 199.400,340.074 195.519 C 341.608 193.806,346.094 191.603,348.065 191.595 C 350.976 191.583,351.200 191.368,351.200 188.582 C 351.200 184.590,348.495 183.553,343.793 185.743 M57.530 185.490 C 55.017 185.755,55.114 184.842,55.173 207.690 C 55.218 224.792,55.117 229.219,54.621 232.000 C 54.288 233.870,54.011 235.956,54.007 236.636 C 53.984 240.539,50.422 244.378,45.724 245.563 C 42.577 246.358,42.105 247.042,42.570 250.137 L 42.849 252.000 45.614 252.000 C 47.463 252.000,48.945 251.748,50.089 251.240 C 51.030 250.822,52.250 250.283,52.800 250.043 C 55.093 249.039,56.548 247.970,57.315 246.723 C 62.047 239.036,62.116 238.537,62.295 210.812 C 62.376 198.169,62.344 187.432,62.224 186.952 C 62.034 186.196,60.008 185.052,59.240 185.267 C 59.108 185.304,58.339 185.404,57.530 185.490 M112.800 185.475 C 110.366 185.770,110.400 185.542,110.400 201.514 L 110.400 216.074 109.341 219.056 C 108.133 222.459,106.578 224.062,103.600 224.975 C 102.610 225.278,101.093 225.829,100.228 226.198 C 97.782 227.245,92.758 225.858,89.907 223.350 C 87.716 221.422,87.560 220.168,87.319 202.481 C 87.072 184.270,87.413 185.600,82.986 185.600 C 78.995 185.600,79.196 184.870,79.223 199.274 C 79.256 216.219,79.612 221.931,80.731 223.503 C 81.209 224.174,81.600 224.925,81.600 225.171 C 81.600 225.952,86.554 230.657,88.413 231.641 C 91.661 233.361,99.251 233.057,103.300 231.045 C 105.005 230.198,106.400 229.382,106.400 229.231 C 106.400 229.081,107.150 228.200,108.067 227.274 C 110.149 225.172,111.034 225.525,111.870 228.793 C 112.605 231.664,112.954 232.000,115.200 232.000 C 118.108 232.000,117.955 233.263,117.986 208.970 C 118.018 183.361,118.337 184.803,112.800 185.475 M188.891 185.595 C 187.121 186.347,187.416 188.029,190.418 194.307 C 191.288 196.127,192.000 197.803,192.000 198.032 C 192.000 198.534,193.658 202.285,195.018 204.859 C 195.558 205.881,196.000 207.056,196.000 207.470 C 196.000 207.884,196.248 208.577,196.552 209.011 C 196.855 209.445,197.324 210.880,197.593 212.200 C 197.863 213.520,198.321 214.870,198.613 215.200 C 198.904 215.530,199.442 216.684,199.809 217.765 C 200.176 218.846,201.449 221.769,202.638 224.262 C 205.196 229.625,205.446 231.678,203.800 233.836 C 203.250 234.557,202.800 235.256,202.800 235.390 C 202.800 235.624,201.218 237.993,200.790 238.400 C 200.674 238.510,199.605 239.733,198.414 241.117 C 196.723 243.085,195.614 243.937,193.340 245.016 C 189.828 246.682,189.443 247.257,190.056 249.915 C 190.720 252.790,194.507 253.465,197.026 251.157 C 197.480 250.741,198.054 250.400,198.302 250.400 C 198.995 250.400,205.903 243.341,206.219 242.310 C 206.372 241.810,206.701 241.154,206.949 240.854 C 207.595 240.073,210.919 233.925,212.603 230.400 C 213.391 228.750,214.281 226.950,214.581 226.400 C 214.881 225.850,215.261 224.682,215.426 223.804 C 215.590 222.926,216.053 221.486,216.454 220.604 C 216.855 219.722,217.189 218.640,217.197 218.200 C 217.205 217.760,217.991 215.855,218.943 213.966 C 219.895 212.078,220.791 209.943,220.935 209.223 C 221.079 208.503,221.849 206.538,222.645 204.857 C 224.225 201.519,225.973 196.620,225.990 195.481 C 225.995 195.085,226.375 194.005,226.834 193.081 C 230.130 186.443,228.954 184.226,222.991 185.828 C 222.110 186.065,220.001 189.715,219.999 191.006 C 219.998 191.443,219.624 192.412,219.168 193.161 C 218.711 193.909,217.998 196.069,217.582 197.961 C 216.589 202.480,215.725 205.416,214.775 207.496 C 214.349 208.428,214.000 209.464,214.000 209.798 C 214.000 210.131,213.301 212.085,212.446 214.139 C 211.591 216.193,210.769 218.430,210.620 219.109 C 209.721 223.200,207.204 221.217,206.233 215.652 C 205.915 213.836,205.477 212.133,205.258 211.869 C 205.038 211.605,204.642 210.492,204.376 209.395 C 204.110 208.298,203.580 206.860,203.197 206.200 C 202.815 205.540,201.657 202.840,200.624 200.200 C 199.591 197.560,198.426 194.770,198.035 194.000 C 197.644 193.230,196.990 191.290,196.582 189.690 C 196.174 188.089,195.561 186.528,195.220 186.220 C 194.435 185.512,190.095 185.083,188.891 185.595 M300.745 190.804 C 304.209 192.564,305.699 194.408,306.576 198.017 C 308.218 204.769,308.164 204.800,295.004 204.800 C 284.349 204.800,283.067 204.624,282.356 203.064 C 281.527 201.244,284.448 194.617,286.888 192.782 C 291.606 189.232,296.326 188.558,300.745 190.804 M160.965 190.974 C 166.221 192.343,167.716 193.883,170.864 201.168 C 172.240 204.353,172.234 212.856,170.854 216.053 C 168.490 221.528,166.288 224.800,164.965 224.800 C 164.667 224.800,163.440 225.250,162.237 225.800 C 159.695 226.963,154.402 227.227,152.989 226.261 C 152.555 225.964,151.347 225.401,150.305 225.009 C 141.547 221.712,140.607 197.442,149.073 193.199 C 149.693 192.889,150.470 192.417,150.800 192.151 C 152.593 190.708,157.682 190.119,160.965 190.974 " stroke="none" fill="#515152" fill-rule="evenodd"></path><path id="path3" d="M291.200 35.043 C 290.650 35.143,289.390 35.564,288.400 35.977 C 287.410 36.391,285.972 36.965,285.205 37.253 C 277.862 40.007,273.146 55.236,277.541 62.000 C 277.898 62.550,278.374 63.353,278.599 63.784 C 280.007 66.486,287.118 71.225,291.025 72.066 L 294.874 72.895 298.877 72.061 C 312.440 69.236,318.622 53.388,310.446 42.400 C 308.872 40.284,305.948 37.672,304.600 37.178 C 303.940 36.936,302.590 36.367,301.600 35.913 C 299.820 35.098,293.704 34.586,291.200 35.043 M298.779 37.287 C 300.661 37.554,302.443 38.010,302.740 38.298 C 303.037 38.587,303.847 39.066,304.540 39.364 C 305.848 39.927,306.834 40.810,308.200 42.642 C 308.640 43.232,309.382 44.124,309.848 44.624 C 310.315 45.124,310.824 46.043,310.979 46.666 C 311.135 47.290,311.563 48.134,311.931 48.542 C 313.057 49.791,312.890 57.051,311.700 58.564 C 311.205 59.193,310.800 60.218,310.800 60.841 C 310.800 61.971,307.613 65.600,306.620 65.600 C 306.362 65.600,302.986 68.157,302.178 68.965 C 301.290 69.853,297.472 70.157,292.400 69.743 C 287.468 69.340,287.925 69.537,284.586 66.372 C 284.138 65.947,283.572 65.600,283.329 65.600 C 283.085 65.600,282.782 65.330,282.655 65.000 C 282.529 64.670,282.152 64.400,281.818 64.400 C 281.484 64.400,280.932 63.815,280.591 63.100 C 280.250 62.385,279.663 61.260,279.286 60.600 C 277.705 57.833,278.246 46.987,280.046 45.358 C 280.461 44.983,280.800 44.435,280.800 44.141 C 280.800 43.847,281.160 43.382,281.600 43.107 C 282.040 42.832,282.400 42.390,282.400 42.124 C 282.400 41.507,284.840 39.204,285.497 39.202 C 285.770 39.201,286.218 38.840,286.493 38.400 C 286.906 37.739,287.444 37.595,289.596 37.572 C 291.028 37.556,292.560 37.389,293.000 37.200 C 294.117 36.720,294.877 36.732,298.779 37.287 M72.306 66.380 C 69.038 66.654,69.202 66.565,65.660 70.000 C 61.081 74.441,60.293 82.291,63.937 87.175 C 70.084 95.415,79.040 96.435,85.969 89.684 C 89.311 86.429,90.720 80.573,89.237 76.102 C 88.817 74.836,88.357 73.280,88.215 72.644 C 87.200 68.104,80.976 65.653,72.306 66.380 M80.174 67.776 C 89.125 70.108,91.479 83.891,83.928 89.760 C 79.521 93.187,72.469 93.623,69.054 90.682 C 68.490 90.197,67.397 89.260,66.623 88.600 C 65.850 87.940,65.213 87.261,65.208 87.091 C 65.204 86.922,64.722 86.061,64.139 85.179 C 60.572 79.789,65.262 68.637,71.448 67.801 C 72.522 67.656,73.580 67.475,73.800 67.400 C 74.808 67.055,78.165 67.253,80.174 67.776 M329.043 153.033 C 328.692 153.947,328.721 154.000,329.563 154.000 C 330.128 154.000,330.271 153.793,330.116 153.200 C 329.865 152.239,329.376 152.163,329.043 153.033 M247.762 172.573 C 245.273 173.705,245.200 173.884,245.200 178.833 C 245.200 183.891,244.820 184.400,241.049 184.400 C 237.927 184.400,237.509 184.804,237.274 188.048 C 237.029 191.432,237.620 192.000,241.382 192.000 C 245.491 192.000,245.200 190.755,245.200 208.303 C 245.200 224.816,245.340 226.243,247.228 229.021 C 249.662 232.602,252.374 233.683,258.911 233.680 C 265.203 233.677,265.600 233.433,265.600 229.564 C 265.600 225.418,265.363 225.142,262.067 225.448 C 258.958 225.737,256.571 224.842,255.306 222.913 C 254.459 221.622,253.977 195.164,254.763 193.097 L 255.180 192.000 259.962 192.000 C 265.888 192.000,266.159 191.827,265.926 188.171 C 265.694 184.536,265.496 184.400,260.427 184.400 C 254.487 184.400,254.649 184.574,254.400 177.933 C 254.290 175.000,254.054 172.375,253.876 172.100 C 253.355 171.294,250.003 171.554,247.762 172.573 M252.900 173.357 C 253.498 173.811,253.600 174.586,253.600 178.700 C 253.600 185.316,253.535 185.246,259.934 185.509 C 265.447 185.736,265.380 185.688,265.126 189.232 L 265.000 191.000 259.959 191.200 C 252.936 191.479,253.600 189.954,253.600 205.794 C 253.600 225.128,254.267 226.800,261.984 226.800 L 264.800 226.800 264.800 229.382 L 264.800 231.964 263.300 232.282 C 260.022 232.977,253.936 232.641,251.901 231.652 C 246.556 229.056,246.000 226.735,246.000 207.011 L 246.000 192.445 245.111 191.823 C 244.507 191.400,243.302 191.200,241.354 191.200 C 238.170 191.200,238.000 191.060,238.000 188.444 C 238.000 186.080,238.646 185.551,241.824 185.309 C 245.788 185.009,246.000 184.737,246.000 179.957 C 246.000 177.801,246.201 175.595,246.448 175.055 C 247.249 173.296,251.385 172.207,252.900 173.357 M154.000 184.171 C 150.533 184.814,148.988 185.666,146.600 188.251 C 144.274 190.770,143.701 190.692,143.157 187.781 C 142.619 184.902,141.975 184.399,138.838 184.406 C 134.589 184.416,134.420 184.772,134.844 192.800 C 135.012 195.990,135.152 210.374,135.153 224.764 C 135.157 254.497,134.834 252.021,138.757 252.396 C 144.321 252.928,144.400 252.745,144.400 239.340 L 144.400 229.200 145.335 229.200 C 145.871 229.200,146.954 229.851,147.874 230.726 C 152.261 234.899,163.100 235.016,169.400 230.958 C 173.795 228.127,176.897 224.310,178.143 220.200 C 180.551 212.254,180.502 212.537,180.304 207.456 C 179.926 197.805,177.598 192.401,171.491 187.000 C 168.020 183.930,161.229 182.832,154.000 184.171 M289.600 184.168 C 282.678 185.443,276.000 192.989,274.641 201.073 C 272.317 214.896,274.656 223.592,282.208 229.200 C 286.624 232.479,288.245 233.128,293.210 233.601 C 297.380 233.998,305.805 233.579,307.609 232.884 C 308.154 232.674,309.320 232.277,310.200 232.002 C 313.273 231.041,313.715 230.053,312.571 226.696 C 311.521 223.614,311.032 223.540,304.458 225.471 C 301.254 226.413,296.770 226.314,293.200 225.223 C 289.961 224.234,286.000 222.421,286.000 221.928 C 286.000 221.761,285.535 220.607,284.967 219.365 C 282.588 214.165,282.221 211.401,283.826 210.790 C 284.425 210.563,290.925 210.400,299.426 210.400 C 316.923 210.400,315.600 210.836,315.600 205.073 C 315.600 189.175,305.690 181.206,289.600 184.168 M344.889 184.166 C 342.113 185.068,340.958 185.960,337.719 189.704 C 336.234 191.421,336.115 191.321,335.657 187.974 C 335.232 184.866,334.670 184.400,331.346 184.400 C 327.319 184.400,327.600 182.582,327.600 208.645 C 327.600 234.921,327.240 232.863,331.882 233.125 C 334.392 233.267,334.772 233.186,335.830 232.276 L 337.000 231.270 337.200 216.735 L 337.400 202.200 338.450 200.000 C 340.607 195.482,344.898 192.400,349.031 192.400 C 351.703 192.400,352.000 191.984,352.000 188.235 C 352.000 183.784,349.852 182.555,344.889 184.166 M54.800 185.200 C 54.020 185.980,54.000 186.536,53.997 207.500 C 53.992 240.099,53.256 243.183,45.093 244.789 C 41.507 245.495,40.754 247.158,42.062 251.481 C 42.656 253.444,47.596 253.751,50.633 252.012 C 51.310 251.624,52.509 251.094,53.297 250.834 C 57.651 249.397,61.575 242.773,62.796 234.800 C 63.514 230.107,63.321 186.351,62.577 185.289 C 61.689 184.021,56.043 183.957,54.800 185.200 M79.725 184.714 C 78.575 185.445,78.400 187.517,78.407 200.326 C 78.417 221.920,78.904 224.474,83.977 229.535 C 90.064 235.607,100.943 235.499,107.638 229.301 C 109.209 227.846,110.055 227.299,110.177 227.660 C 110.278 227.957,110.554 228.955,110.790 229.879 C 111.754 233.646,117.608 234.710,118.658 231.308 C 118.846 230.699,118.910 220.150,118.800 207.867 C 118.569 182.023,119.042 184.400,114.124 184.400 C 109.305 184.400,109.600 183.362,109.600 200.327 C 109.600 215.473,109.511 216.366,107.569 220.656 C 105.132 226.042,93.590 226.900,89.915 221.969 C 88.576 220.172,88.419 218.148,88.410 202.526 C 88.398 183.498,88.651 184.412,83.400 184.412 C 81.640 184.412,79.986 184.548,79.725 184.714 M187.332 184.710 C 185.852 185.651,186.437 188.404,189.443 194.652 C 190.409 196.661,191.200 198.443,191.200 198.613 C 191.200 198.901,191.856 200.375,194.221 205.400 C 194.739 206.500,195.703 209.110,196.363 211.200 C 198.035 216.490,200.934 223.547,203.455 228.462 C 205.245 231.951,198.766 241.383,192.527 244.371 C 188.206 246.441,187.493 248.969,190.192 252.655 C 190.868 253.579,194.454 253.653,196.044 252.776 C 199.600 250.815,205.653 245.588,206.438 243.800 C 206.632 243.360,207.424 241.920,208.199 240.600 C 208.974 239.280,209.873 237.629,210.196 236.932 C 210.520 236.234,211.347 234.830,212.034 233.812 C 212.721 232.793,213.604 231.114,213.995 230.080 C 214.386 229.046,214.995 227.538,215.347 226.728 C 215.699 225.919,216.441 223.669,216.995 221.728 C 218.036 218.083,218.621 216.608,220.500 212.893 C 221.105 211.697,221.600 210.409,221.600 210.030 C 221.600 209.652,222.409 207.679,223.398 205.647 C 225.324 201.691,226.800 197.599,226.800 196.219 C 226.800 195.751,227.140 194.702,227.556 193.886 C 227.972 193.070,228.435 191.906,228.584 191.301 C 228.733 190.695,229.237 189.432,229.702 188.493 C 231.234 185.404,230.562 184.626,226.241 184.484 C 223.295 184.387,222.563 184.488,221.892 185.084 C 220.998 185.877,219.201 189.632,219.199 190.711 C 219.198 191.090,218.853 191.964,218.432 192.654 C 218.012 193.344,217.196 195.864,216.619 198.254 C 216.042 200.644,215.374 203.140,215.135 203.800 C 214.895 204.460,214.008 206.955,213.162 209.344 C 212.316 211.734,211.456 213.894,211.250 214.144 C 211.044 214.395,210.576 215.635,210.209 216.900 C 209.189 220.422,207.716 219.212,206.654 213.980 C 205.953 210.524,204.153 205.284,203.352 204.369 C 203.048 204.021,202.800 203.559,202.800 203.341 C 202.800 202.743,198.884 193.183,198.400 192.599 C 198.167 192.320,197.731 190.796,197.429 189.214 C 196.607 184.902,195.980 184.398,191.430 184.406 C 189.434 184.409,187.589 184.546,187.332 184.710 M166.710 185.605 C 177.391 189.357,182.783 206.177,177.420 219.014 C 177.079 219.830,176.800 220.793,176.800 221.154 C 176.800 222.508,173.771 226.357,170.690 228.920 C 164.467 234.096,152.088 234.124,147.230 228.973 C 143.727 225.259,143.420 226.049,143.288 239.119 C 143.159 251.948,143.268 251.600,139.402 251.600 C 135.782 251.600,136.048 254.213,135.977 217.994 C 135.925 191.687,136.006 186.242,136.457 185.956 C 138.622 184.584,141.997 185.815,142.005 187.980 C 142.018 191.322,143.814 193.021,145.332 191.126 C 148.596 187.054,150.253 185.969,154.600 185.060 C 157.227 184.511,164.531 184.839,166.710 185.605 M304.510 185.972 C 306.586 186.978,311.600 191.604,311.600 192.514 C 311.600 192.823,311.943 193.386,312.362 193.765 C 313.392 194.698,314.948 202.885,314.713 206.137 C 314.449 209.785,315.337 209.600,298.055 209.600 C 281.449 209.600,281.602 209.576,281.598 212.162 C 281.596 213.636,283.438 218.960,284.470 220.462 C 284.872 221.046,285.200 221.712,285.200 221.941 C 285.200 222.694,287.845 224.397,290.013 225.041 C 291.182 225.388,292.587 225.966,293.136 226.326 C 294.540 227.246,303.673 227.196,305.487 226.259 C 309.232 224.322,311.356 224.611,311.705 227.106 C 311.820 227.928,311.979 228.850,312.057 229.157 C 312.713 231.714,296.443 233.792,289.400 232.050 C 285.042 230.973,277.956 224.863,276.417 220.856 C 273.671 213.705,274.679 197.430,278.093 193.800 C 278.507 193.360,279.691 192.099,280.723 190.997 C 285.812 185.565,287.854 184.797,296.800 184.948 C 301.927 185.035,302.822 185.154,304.510 185.972 M350.571 185.429 C 351.010 185.867,351.200 186.820,351.200 188.582 C 351.200 191.368,350.976 191.583,348.065 191.595 C 346.094 191.603,341.608 193.806,340.074 195.519 C 336.600 199.400,336.288 201.074,336.022 217.239 C 335.763 232.928,335.965 232.167,332.118 231.922 C 328.314 231.680,328.615 233.592,328.487 208.822 C 328.359 184.026,328.155 185.600,331.497 185.600 C 334.062 185.600,334.800 186.367,334.800 189.033 C 334.800 190.418,335.016 191.359,335.429 191.771 C 336.478 192.821,336.591 192.751,339.595 189.239 C 342.922 185.348,348.541 183.398,350.571 185.429 M60.743 185.640 C 62.513 186.257,62.458 185.366,62.295 210.812 C 62.116 238.537,62.047 239.036,57.315 246.723 C 56.548 247.970,55.093 249.039,52.800 250.043 C 52.250 250.283,51.030 250.822,50.089 251.240 C 48.945 251.748,47.463 252.000,45.614 252.000 L 42.849 252.000 42.570 250.137 C 42.105 247.042,42.577 246.358,45.724 245.563 C 50.422 244.378,53.984 240.539,54.007 236.636 C 54.011 235.956,54.288 233.870,54.621 232.000 C 55.117 229.219,55.218 224.792,55.173 207.690 C 55.114 184.842,55.017 185.755,57.530 185.490 C 58.339 185.404,59.108 185.304,59.240 185.267 C 59.372 185.230,60.049 185.398,60.743 185.640 M117.507 186.311 C 118.176 187.183,118.199 230.679,117.530 231.484 C 116.964 232.166,113.428 232.156,112.859 231.471 C 112.618 231.180,112.173 229.975,111.870 228.793 C 111.034 225.525,110.149 225.172,108.067 227.274 C 107.150 228.200,106.400 229.081,106.400 229.231 C 106.400 229.382,105.005 230.198,103.300 231.045 C 99.251 233.057,91.661 233.361,88.413 231.641 C 86.554 230.657,81.600 225.952,81.600 225.171 C 81.600 224.925,81.209 224.174,80.731 223.503 C 79.612 221.931,79.256 216.219,79.223 199.274 C 79.196 184.870,78.995 185.600,82.986 185.600 C 87.413 185.600,87.072 184.270,87.319 202.481 C 87.560 220.168,87.716 221.422,89.907 223.350 C 92.758 225.858,97.782 227.245,100.228 226.198 C 101.093 225.829,102.610 225.278,103.600 224.975 C 106.578 224.062,108.133 222.459,109.341 219.056 L 110.400 216.074 110.400 201.514 C 110.400 190.481,110.521 186.794,110.900 186.299 C 111.835 185.076,116.566 185.085,117.507 186.311 M195.220 186.220 C 195.561 186.528,196.174 188.089,196.582 189.690 C 196.990 191.290,197.644 193.230,198.035 194.000 C 198.426 194.770,199.591 197.560,200.624 200.200 C 201.657 202.840,202.815 205.540,203.197 206.200 C 203.580 206.860,204.110 208.298,204.376 209.395 C 204.642 210.492,205.038 211.605,205.258 211.869 C 205.477 212.133,205.915 213.836,206.233 215.652 C 207.204 221.217,209.721 223.200,210.620 219.109 C 210.769 218.430,211.591 216.193,212.446 214.139 C 213.301 212.085,214.000 210.131,214.000 209.798 C 214.000 209.464,214.349 208.428,214.775 207.496 C 215.725 205.416,216.589 202.480,217.582 197.961 C 217.998 196.069,218.711 193.909,219.168 193.161 C 219.624 192.412,219.998 191.443,219.999 191.006 C 220.001 189.715,222.110 186.065,222.991 185.828 C 228.954 184.226,230.130 186.443,226.834 193.081 C 226.375 194.005,225.995 195.085,225.990 195.481 C 225.973 196.620,224.225 201.519,222.645 204.857 C 221.849 206.538,221.079 208.503,220.935 209.223 C 220.791 209.943,219.895 212.078,218.943 213.966 C 217.991 215.855,217.205 217.760,217.197 218.200 C 217.189 218.640,216.855 219.722,216.454 220.604 C 216.053 221.486,215.590 222.926,215.426 223.804 C 215.261 224.682,214.881 225.850,214.581 226.400 C 214.281 226.950,213.391 228.750,212.603 230.400 C 210.919 233.925,207.595 240.073,206.949 240.854 C 206.701 241.154,206.372 241.810,206.219 242.310 C 205.903 243.341,198.995 250.400,198.302 250.400 C 198.054 250.400,197.480 250.741,197.026 251.157 C 194.507 253.465,190.720 252.790,190.056 249.915 C 189.443 247.257,189.828 246.682,193.340 245.016 C 195.614 243.937,196.723 243.085,198.414 241.117 C 199.605 239.733,200.674 238.510,200.790 238.400 C 201.218 237.993,202.800 235.624,202.800 235.390 C 202.800 235.256,203.250 234.557,203.800 233.836 C 205.446 231.678,205.196 229.625,202.638 224.262 C 201.449 221.769,200.176 218.846,199.809 217.765 C 199.442 216.684,198.904 215.530,198.613 215.200 C 198.321 214.870,197.863 213.520,197.593 212.200 C 197.324 210.880,196.855 209.445,196.552 209.011 C 196.248 208.577,196.000 207.884,196.000 207.470 C 196.000 207.056,195.558 205.881,195.018 204.859 C 193.658 202.285,192.000 198.534,192.000 198.032 C 192.000 197.803,191.288 196.127,190.418 194.307 C 187.416 188.029,187.121 186.347,188.891 185.595 C 190.095 185.083,194.435 185.512,195.220 186.220 M290.196 190.724 C 285.823 193.072,284.706 194.396,282.918 199.352 C 281.041 204.555,281.585 204.800,295.004 204.800 C 308.164 204.800,308.218 204.769,306.576 198.017 C 304.874 191.013,296.556 187.310,290.196 190.724 M153.600 191.085 C 152.390 191.406,151.130 191.886,150.800 192.151 C 150.470 192.417,149.693 192.889,149.073 193.199 C 140.607 197.442,141.547 221.712,150.305 225.009 C 151.347 225.401,152.555 225.964,152.989 226.261 C 154.402 227.227,159.695 226.963,162.237 225.800 C 163.440 225.250,164.667 224.800,164.965 224.800 C 166.288 224.800,168.490 221.528,170.854 216.053 C 172.234 212.856,172.240 204.353,170.864 201.168 C 168.252 195.123,167.567 194.125,164.986 192.613 C 161.382 190.501,157.677 190.004,153.600 191.085 M300.093 191.580 C 303.182 192.981,304.587 194.512,305.369 197.327 C 307.128 203.660,307.620 203.371,294.809 203.524 L 284.450 203.649 283.826 202.695 C 282.735 201.030,285.126 194.959,287.511 193.337 C 292.157 190.179,295.861 189.662,300.093 191.580 M159.827 191.627 C 169.882 193.437,174.388 207.654,168.502 219.000 C 168.160 219.660,167.626 220.691,167.315 221.290 C 164.266 227.183,151.186 227.215,147.205 221.339 C 143.690 216.151,143.255 201.672,146.494 197.696 C 146.720 197.418,147.212 196.608,147.587 195.896 C 147.961 195.183,148.835 194.309,149.529 193.953 C 150.223 193.597,151.084 193.062,151.442 192.765 C 151.801 192.467,153.288 192.011,154.747 191.750 C 156.206 191.490,157.412 191.259,157.427 191.238 C 157.441 191.217,158.521 191.392,159.827 191.627 M330.400 261.224 C 330.400 261.677,330.580 261.936,330.800 261.800 C 331.020 261.664,331.200 261.293,331.200 260.976 C 331.200 260.659,331.020 260.400,330.800 260.400 C 330.580 260.400,330.400 260.771,330.400 261.224 M328.349 262.700 C 327.851 263.334,327.866 263.349,328.500 262.851 C 329.124 262.362,329.201 262.405,329.206 263.251 C 329.211 264.010,329.290 264.080,329.600 263.600 C 330.549 262.131,329.428 261.324,328.349 262.700 M94.461 348.022 C 91.661 348.369,88.044 349.935,86.472 351.480 C 86.182 351.765,85.477 352.116,84.906 352.259 C 83.857 352.523,80.008 356.225,79.991 356.987 C 79.985 357.214,79.521 358.480,78.959 359.800 C 76.244 366.174,76.282 374.514,79.050 380.024 C 79.572 381.065,80.000 382.044,80.000 382.199 C 80.000 382.848,85.549 387.927,87.336 388.914 C 90.363 390.587,98.168 391.871,101.364 391.223 C 102.704 390.952,104.662 390.575,105.716 390.386 C 108.381 389.909,111.619 388.240,113.707 386.267 C 115.227 384.831,116.322 383.130,119.035 377.992 C 122.935 370.605,118.400 354.094,111.900 352.017 C 111.075 351.754,110.400 351.372,110.400 351.169 C 110.400 350.966,110.155 350.800,109.856 350.800 C 109.557 350.800,108.693 350.380,107.938 349.868 C 105.157 347.980,100.233 347.306,94.461 348.022 " stroke="none" fill="#94949a" fill-rule="evenodd"></path><path id="path4" d="M290.992 33.981 C 288.476 34.641,285.680 35.784,284.000 36.841 C 281.535 38.391,280.846 38.974,279.686 40.486 C 277.437 43.420,276.417 45.171,275.594 47.512 C 270.454 62.138,285.826 77.554,300.800 72.792 C 304.549 71.599,312.400 65.536,312.400 63.834 C 312.400 63.539,312.659 63.083,312.976 62.820 C 315.109 61.050,316.061 51.326,314.486 47.390 C 310.563 37.579,300.081 31.597,290.992 33.981 M301.600 35.913 C 302.590 36.367,303.940 36.936,304.600 37.178 C 305.948 37.672,308.872 40.284,310.446 42.400 C 318.622 53.388,312.440 69.236,298.877 72.061 L 294.874 72.895 291.025 72.066 C 287.118 71.225,280.007 66.486,278.599 63.784 C 278.374 63.353,277.898 62.550,277.541 62.000 C 273.146 55.236,277.862 40.007,285.205 37.253 C 285.972 36.965,287.410 36.391,288.400 35.977 C 291.867 34.529,298.507 34.496,301.600 35.913 M185.200 62.645 C 184.430 62.736,182.270 63.066,180.400 63.379 C 178.530 63.691,175.113 64.154,172.808 64.407 C 170.502 64.660,168.500 64.938,168.359 65.025 C 168.218 65.113,166.235 65.458,163.951 65.793 C 159.368 66.465,150.764 69.012,146.934 70.830 C 145.578 71.473,144.309 72.000,144.114 72.000 C 143.919 72.000,143.557 72.203,143.308 72.452 C 142.859 72.901,140.607 73.784,136.400 75.160 C 133.346 76.159,128.089 78.711,127.149 79.651 C 126.718 80.082,125.159 81.091,123.683 81.894 C 122.207 82.698,120.910 83.465,120.800 83.600 C 120.690 83.735,119.970 84.098,119.200 84.407 C 118.430 84.716,117.080 85.474,116.200 86.092 C 115.320 86.709,113.610 87.877,112.400 88.687 C 111.190 89.498,109.071 91.202,107.692 92.474 C 106.312 93.747,104.602 95.077,103.892 95.431 C 103.181 95.784,101.970 96.677,101.200 97.415 C 100.430 98.153,98.434 100.071,96.763 101.678 C 95.093 103.285,92.593 105.679,91.207 106.997 C 89.821 108.316,88.286 110.026,87.796 110.797 C 87.306 111.569,85.534 113.640,83.859 115.400 C 82.183 117.160,80.809 118.768,80.806 118.974 C 80.803 119.180,80.454 119.720,80.031 120.174 C 79.608 120.628,78.573 122.104,77.731 123.453 C 76.889 124.802,75.165 127.432,73.900 129.297 C 72.635 131.163,71.600 132.820,71.600 132.981 C 71.600 133.141,70.966 134.014,70.190 134.920 C 69.382 135.864,68.461 137.602,68.031 138.995 C 67.618 140.330,66.722 142.318,66.040 143.411 C 65.357 144.505,64.151 146.750,63.360 148.400 C 62.569 150.050,61.489 152.303,60.961 153.406 C 57.973 159.643,62.584 158.658,68.600 151.774 C 71.937 147.955,73.150 146.863,75.028 145.986 C 75.923 145.568,77.813 144.183,79.228 142.907 C 80.642 141.631,82.520 140.116,83.400 139.540 C 87.386 136.931,89.907 135.374,91.200 134.724 C 91.970 134.336,94.220 132.997,96.200 131.749 C 100.099 129.291,103.932 127.233,104.649 127.213 C 105.091 127.200,107.852 126.105,110.200 125.011 C 112.526 123.927,117.137 122.000,117.405 122.000 C 117.554 122.000,118.154 121.667,118.738 121.261 C 119.322 120.854,120.698 120.301,121.795 120.031 C 122.892 119.761,123.972 119.392,124.195 119.210 C 124.917 118.621,130.528 116.908,133.257 116.444 C 134.719 116.195,138.049 115.439,140.657 114.764 C 148.278 112.792,153.585 111.550,156.800 110.988 C 158.450 110.699,160.700 110.257,161.800 110.006 C 162.900 109.756,165.510 109.384,167.600 109.180 C 169.690 108.976,172.750 108.622,174.400 108.393 C 189.395 106.310,219.005 107.252,232.073 110.227 C 234.423 110.762,236.820 111.200,237.399 111.200 C 238.689 111.200,252.123 114.528,255.200 115.609 C 255.750 115.803,257.640 116.167,259.400 116.418 C 261.160 116.670,263.370 117.218,264.311 117.638 C 265.252 118.057,266.298 118.400,266.636 118.400 C 266.975 118.400,268.235 118.850,269.437 119.400 C 270.640 119.950,271.909 120.400,272.257 120.400 C 272.606 120.400,273.546 120.744,274.346 121.165 C 275.841 121.952,277.208 122.568,282.400 124.797 C 284.050 125.506,285.878 126.336,286.462 126.643 C 287.046 126.949,287.726 127.200,287.973 127.200 C 288.648 127.200,294.327 129.958,294.617 130.427 C 294.755 130.651,295.573 131.116,296.434 131.460 C 297.295 131.805,298.000 132.230,298.000 132.404 C 298.000 132.579,298.495 132.932,299.100 133.189 C 300.795 133.908,303.152 135.264,305.928 137.114 C 307.319 138.041,308.541 138.800,308.644 138.800 C 309.072 138.800,311.576 140.766,314.350 143.280 C 315.976 144.754,317.779 146.064,318.357 146.191 C 318.948 146.320,320.369 147.483,321.604 148.846 C 325.541 153.193,328.043 155.600,328.627 155.600 C 328.942 155.600,329.200 155.778,329.200 155.995 C 329.200 156.608,332.405 158.484,333.037 158.241 C 334.184 157.801,333.097 153.753,331.201 151.400 C 331.023 151.180,330.667 150.209,330.408 149.241 C 330.149 148.274,329.271 146.384,328.457 145.041 C 327.642 143.699,326.727 141.970,326.424 141.200 C 326.120 140.430,325.721 139.629,325.536 139.420 C 325.351 139.211,325.200 138.661,325.200 138.199 C 325.200 137.421,322.998 133.969,322.311 133.668 C 322.145 133.596,321.642 132.786,321.192 131.868 C 320.743 130.951,319.976 129.565,319.488 128.789 C 318.999 128.013,318.240 126.799,317.800 126.092 C 317.360 125.384,316.866 124.804,316.702 124.803 C 316.538 124.801,316.023 123.990,315.558 123.000 C 315.093 122.010,314.552 121.200,314.356 121.200 C 314.160 121.200,314.000 120.932,314.000 120.603 C 314.000 120.275,313.640 119.782,313.200 119.507 C 312.760 119.232,312.400 118.820,312.400 118.591 C 312.400 118.362,311.164 116.898,309.653 115.339 C 308.143 113.780,306.574 111.941,306.167 111.252 C 305.760 110.563,305.286 110.000,305.114 110.000 C 304.941 110.000,304.799 109.775,304.799 109.500 C 304.798 109.225,303.685 108.010,302.325 106.800 C 300.965 105.590,298.083 102.841,295.921 100.692 C 293.759 98.542,290.986 96.141,289.759 95.356 C 288.532 94.572,286.792 93.215,285.893 92.342 C 284.498 90.989,280.380 87.962,278.082 86.600 C 277.710 86.380,276.914 85.810,276.313 85.334 C 275.711 84.858,274.694 84.352,274.051 84.211 C 273.409 84.070,272.566 83.605,272.179 83.177 C 271.793 82.750,271.323 82.400,271.136 82.400 C 270.949 82.400,269.638 81.590,268.221 80.600 C 266.805 79.610,265.515 78.800,265.354 78.800 C 265.194 78.800,264.779 78.550,264.431 78.244 C 263.621 77.529,258.090 75.328,256.228 74.979 C 255.443 74.832,254.800 74.565,254.800 74.387 C 254.800 74.208,254.125 73.859,253.300 73.611 C 252.475 73.363,250.900 72.735,249.800 72.215 C 246.632 70.718,242.061 68.937,237.400 67.385 C 236.300 67.019,233.600 66.459,231.400 66.142 C 229.200 65.824,226.230 65.310,224.800 65.000 C 223.370 64.689,220.819 64.323,219.131 64.187 C 217.443 64.050,214.923 63.672,213.531 63.348 C 211.075 62.776,188.781 62.223,185.200 62.645 M204.400 63.989 C 205.830 64.194,209.430 64.562,212.400 64.806 C 215.370 65.051,219.240 65.586,221.000 65.997 C 222.760 66.407,225.640 66.858,227.400 67.000 C 231.671 67.343,241.206 70.172,247.000 72.815 C 247.880 73.216,249.140 73.670,249.800 73.824 C 250.460 73.977,251.630 74.431,252.400 74.833 C 253.170 75.234,255.733 76.303,258.095 77.209 C 260.457 78.115,263.543 79.646,264.952 80.611 C 267.801 82.562,269.249 83.410,273.497 85.618 C 275.091 86.447,276.916 87.546,277.554 88.062 C 278.192 88.578,280.082 89.981,281.756 91.180 C 283.429 92.379,285.374 93.954,286.078 94.680 C 286.781 95.406,287.558 96.000,287.803 96.000 C 288.048 96.000,288.598 96.315,289.025 96.700 C 289.451 97.085,290.752 98.118,291.916 98.995 C 293.080 99.872,294.360 101.144,294.760 101.821 C 295.159 102.499,296.367 103.751,297.443 104.603 C 300.497 107.022,303.167 109.669,304.099 111.200 C 304.567 111.970,306.280 113.975,307.905 115.655 C 309.531 117.335,311.823 120.215,313.001 122.055 C 314.178 123.895,315.758 126.210,316.511 127.200 C 317.265 128.190,318.657 130.305,319.604 131.900 C 320.551 133.495,321.464 134.800,321.633 134.800 C 322.010 134.800,323.749 138.412,324.426 140.600 C 324.698 141.480,325.847 143.820,326.979 145.800 C 329.523 150.249,330.697 154.000,329.547 154.000 C 329.136 154.000,328.800 153.816,328.800 153.590 C 328.800 153.365,328.366 153.015,327.836 152.814 C 327.306 152.612,326.361 151.772,325.736 150.946 C 323.910 148.534,321.239 146.099,319.042 144.846 C 317.919 144.205,315.916 142.627,314.590 141.340 C 312.030 138.854,306.986 135.534,301.200 132.527 C 300.430 132.127,299.710 131.690,299.600 131.556 C 299.490 131.422,298.770 130.990,298.000 130.597 C 297.230 130.203,296.060 129.472,295.400 128.971 C 294.025 127.929,288.471 125.200,287.723 125.200 C 287.448 125.200,286.273 124.768,285.112 124.241 C 281.426 122.566,278.039 121.200,277.575 121.200 C 277.328 121.200,276.669 120.840,276.109 120.400 C 275.550 119.960,274.801 119.594,274.446 119.587 C 274.091 119.581,272.900 119.132,271.800 118.591 C 270.700 118.050,269.570 117.606,269.288 117.604 C 269.006 117.602,267.746 117.169,266.488 116.641 C 265.230 116.114,262.580 115.374,260.600 114.997 C 258.620 114.620,255.830 113.975,254.400 113.564 C 248.890 111.980,245.239 111.120,241.000 110.409 C 238.580 110.003,236.073 109.468,235.430 109.219 C 234.786 108.970,232.357 108.586,230.031 108.366 C 227.706 108.145,224.903 107.716,223.802 107.411 C 217.127 105.561,177.558 105.547,169.197 107.391 C 167.765 107.707,164.705 108.153,162.397 108.382 C 160.089 108.612,157.480 108.995,156.600 109.234 C 155.720 109.474,153.380 110.003,151.400 110.410 C 149.420 110.817,145.910 111.620,143.600 112.194 C 141.290 112.769,138.050 113.525,136.400 113.874 C 129.150 115.409,123.650 117.190,118.311 119.730 C 116.613 120.539,115.063 121.200,114.867 121.200 C 114.671 121.200,113.320 121.740,111.865 122.400 C 110.410 123.059,107.821 124.068,106.113 124.642 C 102.207 125.953,99.811 127.165,96.027 129.744 C 92.965 131.831,91.938 132.451,88.800 134.107 C 87.810 134.630,86.386 135.404,85.635 135.829 C 83.959 136.776,77.913 141.530,77.499 142.226 C 77.334 142.504,76.074 143.365,74.699 144.139 C 72.318 145.480,70.410 147.196,66.850 151.200 C 63.598 154.857,63.685 151.179,66.991 145.302 C 67.986 143.532,68.800 141.863,68.800 141.592 C 68.800 140.649,70.971 136.188,72.203 134.600 C 72.886 133.720,73.750 132.550,74.123 132.000 C 76.844 127.986,79.151 124.445,79.596 123.600 C 80.464 121.949,81.636 120.497,85.034 116.861 C 86.812 114.957,88.502 112.950,88.789 112.400 C 89.591 110.862,91.979 108.319,94.676 106.128 C 95.537 105.428,96.888 104.168,97.678 103.328 C 98.468 102.488,99.899 100.973,100.857 99.962 C 101.816 98.950,103.560 97.609,104.732 96.980 C 105.905 96.352,107.743 94.986,108.817 93.946 C 111.398 91.446,116.458 87.706,119.200 86.274 C 123.645 83.951,126.643 82.241,128.400 81.027 C 130.811 79.361,136.570 76.572,138.800 75.990 C 139.790 75.732,141.050 75.271,141.600 74.966 C 142.150 74.661,143.320 74.154,144.200 73.840 C 145.080 73.526,147.355 72.631,149.255 71.850 C 155.203 69.406,161.868 67.567,166.400 67.120 C 168.710 66.893,171.117 66.442,171.748 66.118 C 172.482 65.742,175.653 65.320,180.548 64.947 C 184.757 64.627,189.010 64.213,190.000 64.027 C 192.489 63.560,201.253 63.537,204.400 63.989 M70.461 65.684 C 63.153 67.014,57.946 79.417,61.932 86.000 C 70.642 100.387,90.166 96.564,90.525 80.400 C 90.782 68.791,83.348 63.339,70.461 65.684 M82.097 66.854 C 83.957 67.320,87.848 71.003,88.215 72.644 C 88.357 73.280,88.817 74.836,89.237 76.102 C 93.638 89.374,76.597 99.943,66.586 90.151 C 61.196 84.879,60.097 79.743,63.114 73.922 C 65.774 68.790,68.302 66.715,72.306 66.380 C 75.764 66.090,79.837 66.287,82.097 66.854 M247.969 171.420 C 244.983 172.340,244.621 173.013,244.465 177.941 C 244.296 183.253,244.059 183.600,240.608 183.600 C 237.102 183.600,236.178 184.601,236.256 188.313 C 236.329 191.783,237.000 192.400,240.700 192.400 C 244.598 192.400,244.373 191.406,244.387 208.627 C 244.404 228.246,244.616 229.177,249.908 232.877 L 251.800 234.200 257.755 234.330 C 266.320 234.516,266.625 234.315,266.339 228.666 C 266.137 224.663,265.869 224.407,261.851 224.372 C 257.943 224.338,257.522 224.192,256.216 222.422 L 255.200 221.045 255.200 207.202 C 255.200 190.899,254.630 192.400,260.818 192.400 C 266.228 192.400,266.951 192.013,267.063 189.058 C 267.233 184.610,266.074 183.600,260.800 183.600 C 255.136 183.600,255.200 183.672,255.200 177.358 C 255.200 170.586,253.966 169.572,247.969 171.420 M253.876 172.100 C 254.054 172.375,254.290 175.000,254.400 177.933 C 254.649 184.574,254.487 184.400,260.427 184.400 C 265.496 184.400,265.694 184.536,265.926 188.171 C 266.159 191.827,265.888 192.000,259.962 192.000 L 255.180 192.000 254.763 193.097 C 253.977 195.164,254.459 221.622,255.306 222.913 C 256.571 224.842,258.958 225.737,262.067 225.448 C 265.363 225.142,265.600 225.418,265.600 229.564 C 265.600 233.433,265.203 233.677,258.911 233.680 C 252.374 233.683,249.662 232.602,247.228 229.021 C 245.340 226.243,245.200 224.816,245.200 208.303 C 245.200 190.755,245.491 192.000,241.382 192.000 C 237.620 192.000,237.029 191.432,237.274 188.048 C 237.509 184.804,237.927 184.400,241.049 184.400 C 244.820 184.400,245.200 183.891,245.200 178.833 C 245.200 176.651,245.318 174.558,245.462 174.183 C 246.118 172.473,253.013 170.767,253.876 172.100 M157.000 182.792 C 150.854 183.535,148.918 184.329,146.312 187.175 C 144.487 189.169,144.533 189.170,144.189 187.136 C 143.710 184.300,142.620 183.600,138.680 183.600 C 133.455 183.600,133.980 179.823,133.995 217.313 C 134.011 256.848,133.415 253.200,139.860 253.200 C 145.414 253.200,145.156 253.783,145.298 240.919 C 145.409 230.803,145.595 229.925,147.295 231.478 C 150.904 234.777,162.214 235.785,167.285 233.259 C 170.401 231.707,176.000 227.110,176.000 226.102 C 176.000 225.873,176.261 225.585,176.581 225.463 C 177.345 225.170,178.684 222.187,179.248 219.524 C 179.495 218.356,179.990 216.860,180.348 216.200 C 181.439 214.185,181.262 202.599,180.089 199.298 C 179.600 197.923,179.200 196.522,179.200 196.187 C 179.200 194.123,176.341 190.101,172.669 187.000 C 171.628 186.120,170.549 185.201,170.273 184.957 C 169.823 184.560,169.050 184.264,165.600 183.172 C 164.015 182.670,159.618 182.475,157.000 182.792 M292.200 182.817 C 287.996 183.425,286.432 183.869,285.058 184.846 C 281.616 187.294,280.435 188.318,279.167 189.953 C 278.415 190.922,277.503 192.030,277.141 192.416 C 275.353 194.320,274.288 196.878,274.094 199.730 C 273.986 201.308,273.758 202.780,273.587 203.000 C 272.308 204.641,272.158 212.251,273.351 214.910 C 273.669 215.619,274.015 217.421,274.120 218.914 C 274.408 223.027,279.013 228.611,285.241 232.400 L 288.200 234.200 297.600 234.200 C 312.143 234.200,315.922 232.308,313.596 226.191 C 313.168 225.065,310.914 222.715,310.459 222.920 C 308.674 223.728,307.821 223.977,305.600 224.338 C 298.913 225.424,293.167 225.077,290.600 223.434 C 290.160 223.152,289.144 222.706,288.341 222.443 C 287.272 222.093,286.756 221.623,286.406 220.683 C 286.144 219.977,285.655 218.888,285.320 218.262 C 284.985 217.637,284.490 216.176,284.220 215.017 C 283.380 211.402,282.515 211.600,299.164 211.600 C 316.651 211.600,316.042 211.750,316.618 207.305 C 317.011 204.271,315.735 195.709,314.606 193.800 C 311.805 189.064,305.972 183.600,303.718 183.600 C 303.184 183.600,302.444 183.439,302.074 183.242 C 301.041 182.693,294.890 182.429,292.200 182.817 M346.800 182.671 C 344.589 183.030,341.558 184.538,339.371 186.369 C 338.287 187.276,337.198 188.179,336.952 188.376 C 336.638 188.628,336.432 188.133,336.265 186.721 C 335.947 184.038,335.325 183.628,331.544 183.613 C 329.119 183.603,328.294 183.758,327.544 184.365 L 326.600 185.130 326.600 208.336 C 326.600 236.180,326.076 233.734,332.081 233.914 C 335.350 234.012,336.011 233.920,336.839 233.250 L 337.800 232.472 338.016 217.936 C 338.219 204.271,338.284 203.261,339.103 201.073 C 340.066 198.504,342.152 195.600,343.034 195.600 C 343.345 195.600,343.600 195.427,343.600 195.215 C 343.600 194.661,347.447 193.600,349.457 193.600 C 352.200 193.600,352.800 192.648,352.800 188.298 C 352.800 184.111,352.490 183.374,350.495 182.820 C 348.977 182.398,348.582 182.382,346.800 182.671 M53.944 184.364 L 53.000 185.129 52.786 210.064 C 52.597 232.035,52.490 235.276,51.886 237.320 C 51.509 238.595,51.200 239.694,51.200 239.760 C 51.200 241.120,45.498 244.375,43.082 244.394 C 39.822 244.421,39.410 251.673,42.551 253.731 C 44.675 255.123,55.038 252.331,55.878 250.141 C 55.992 249.844,56.287 249.600,56.533 249.600 C 57.102 249.600,59.600 246.812,59.600 246.176 C 59.600 245.913,59.853 245.488,60.161 245.232 C 61.086 244.465,62.742 240.726,63.011 238.800 C 63.149 237.810,63.522 235.642,63.841 233.982 C 64.313 231.520,64.399 226.734,64.310 208.046 L 64.200 185.129 63.256 184.364 C 61.874 183.246,55.326 183.246,53.944 184.364 M78.437 184.560 L 77.535 185.520 77.582 201.967 C 77.631 219.264,78.057 223.775,79.760 225.020 C 80.083 225.256,80.457 225.889,80.592 226.425 C 80.973 227.944,84.762 231.786,87.232 233.159 C 92.109 235.869,102.130 234.799,107.178 231.029 C 108.701 229.891,110.000 229.685,110.000 230.581 C 110.000 233.692,116.062 235.440,118.955 233.164 L 120.019 232.327 119.909 208.996 L 119.800 185.664 118.830 184.632 C 117.531 183.250,111.149 183.066,109.544 184.364 L 108.600 185.128 108.387 201.064 C 108.138 219.589,107.892 220.979,104.579 222.547 C 103.711 222.958,102.872 223.498,102.715 223.747 C 102.063 224.781,94.361 224.311,92.656 223.133 C 89.133 220.699,88.807 218.674,88.803 199.189 C 88.799 182.319,89.240 183.600,83.447 183.600 C 79.628 183.600,79.276 183.668,78.437 184.560 M165.027 184.035 C 168.556 184.682,170.132 185.626,174.187 189.521 C 179.111 194.251,181.914 207.522,179.621 215.256 C 177.754 221.556,177.505 222.255,176.518 223.957 C 170.981 233.508,154.814 237.328,147.874 230.726 C 146.954 229.851,145.871 229.200,145.335 229.200 L 144.400 229.200 144.400 239.340 C 144.400 252.745,144.321 252.928,138.757 252.396 C 134.834 252.021,135.157 254.497,135.153 224.764 C 135.152 210.374,135.012 195.990,134.844 192.800 C 134.420 184.772,134.589 184.416,138.838 184.406 C 141.975 184.399,142.619 184.902,143.157 187.781 C 143.701 190.692,144.274 190.770,146.600 188.251 C 150.342 184.200,157.274 182.614,165.027 184.035 M186.392 184.209 C 185.619 185.142,185.819 189.296,186.725 191.081 C 187.792 193.185,188.943 195.738,190.204 198.800 C 190.793 200.230,191.439 201.713,191.639 202.096 C 191.839 202.479,192.630 203.975,193.396 205.420 C 194.163 206.866,194.963 209.118,195.173 210.425 C 195.384 211.732,195.836 213.201,196.178 213.690 C 196.520 214.178,196.802 214.853,196.804 215.189 C 196.806 215.525,197.250 216.700,197.791 217.800 C 198.332 218.900,198.781 220.133,198.787 220.540 C 198.794 220.946,199.427 222.420,200.194 223.815 C 203.697 230.190,203.666 230.679,199.341 237.220 C 197.954 239.318,195.195 241.982,193.600 242.763 C 192.830 243.140,191.840 243.642,191.400 243.878 C 190.960 244.114,190.117 244.532,189.526 244.807 C 186.235 246.340,187.905 253.943,191.655 254.493 C 193.695 254.793,196.305 254.026,198.220 252.564 C 199.203 251.814,200.134 251.200,200.288 251.200 C 200.799 251.200,207.200 244.399,207.200 243.856 C 207.200 243.563,207.560 242.998,208.000 242.600 C 208.440 242.202,208.800 241.658,208.800 241.392 C 208.800 241.126,209.131 240.479,209.535 239.954 C 209.938 239.429,210.897 237.830,211.665 236.400 C 212.432 234.970,213.262 233.440,213.508 233.000 C 214.844 230.619,216.031 227.747,216.252 226.366 C 216.390 225.505,216.645 224.800,216.820 224.800 C 217.230 224.800,217.865 222.716,218.192 220.300 C 218.333 219.255,218.589 218.400,218.760 218.400 C 219.171 218.400,220.000 216.556,220.000 215.642 C 220.000 215.246,220.355 214.513,220.788 214.014 C 221.222 213.514,221.688 212.721,221.824 212.252 C 222.217 210.903,224.038 206.300,224.614 205.200 C 226.052 202.455,226.800 200.348,227.234 197.819 C 227.496 196.289,228.045 194.489,228.454 193.819 C 228.863 193.149,229.198 192.188,229.199 191.684 C 229.199 191.180,229.592 190.238,230.071 189.590 C 231.141 188.142,231.350 184.593,230.400 183.992 C 229.182 183.221,222.084 183.516,221.227 184.373 C 219.917 185.683,219.289 186.924,218.987 188.800 C 218.828 189.790,218.381 191.003,217.994 191.497 C 217.607 191.990,217.167 193.051,217.016 193.855 C 216.865 194.659,216.493 195.696,216.190 196.159 C 215.886 196.622,215.430 198.343,215.175 199.984 C 214.921 201.624,214.372 203.601,213.956 204.377 C 213.540 205.153,213.200 206.070,213.200 206.414 C 213.200 206.758,213.029 207.211,212.821 207.420 C 212.612 207.629,212.175 208.790,211.850 210.000 C 211.525 211.210,210.886 212.913,210.430 213.785 C 209.973 214.656,209.600 215.781,209.600 216.285 C 209.600 218.694,207.430 215.448,207.087 212.526 C 206.953 211.386,206.487 209.669,206.051 208.712 C 205.615 207.755,205.131 206.438,204.976 205.786 C 204.820 205.134,204.469 204.330,204.197 204.000 C 203.924 203.670,203.480 202.680,203.211 201.800 C 202.941 200.920,202.378 199.468,201.960 198.574 C 201.542 197.679,201.200 196.729,201.200 196.463 C 201.200 196.196,200.543 194.678,199.741 193.089 C 198.849 191.324,198.161 189.269,197.973 187.807 C 197.496 184.100,196.694 183.600,191.227 183.600 C 187.838 183.600,186.788 183.732,186.392 184.209 M301.148 184.020 C 309.932 185.445,315.600 193.702,315.600 205.073 C 315.600 210.836,316.923 210.400,299.426 210.400 C 290.925 210.400,284.425 210.563,283.826 210.790 C 282.221 211.401,282.588 214.165,284.967 219.365 C 285.535 220.607,286.000 221.761,286.000 221.928 C 286.000 222.421,289.961 224.234,293.200 225.223 C 296.770 226.314,301.254 226.413,304.458 225.471 C 311.032 223.540,311.521 223.614,312.571 226.696 C 313.715 230.053,313.273 231.041,310.200 232.002 C 309.320 232.277,308.154 232.674,307.609 232.884 C 304.304 234.157,291.006 233.962,287.713 232.592 C 279.940 229.359,275.337 223.298,274.200 214.800 C 272.410 201.418,276.160 191.541,285.221 185.779 C 288.215 183.874,295.378 183.083,301.148 184.020 M351.376 184.380 C 351.850 184.774,352.000 185.699,352.000 188.235 C 352.000 191.984,351.703 192.400,349.031 192.400 C 344.898 192.400,340.607 195.482,338.450 200.000 L 337.400 202.200 337.200 216.735 L 337.000 231.270 335.830 232.276 C 334.772 233.186,334.392 233.267,331.882 233.125 C 327.240 232.863,327.600 234.921,327.600 208.645 C 327.600 182.582,327.319 184.400,331.346 184.400 C 334.670 184.400,335.232 184.866,335.657 187.974 C 336.115 191.321,336.234 191.421,337.719 189.704 C 340.958 185.960,342.113 185.068,344.889 184.166 C 346.888 183.517,350.479 183.635,351.376 184.380 M62.577 185.289 C 63.321 186.351,63.514 230.107,62.796 234.800 C 61.575 242.773,57.651 249.397,53.297 250.834 C 52.509 251.094,51.310 251.624,50.633 252.012 C 47.596 253.751,42.656 253.444,42.062 251.481 C 40.754 247.158,41.507 245.495,45.093 244.789 C 53.256 243.183,53.992 240.099,53.997 207.500 C 54.001 182.216,53.549 184.400,58.777 184.400 C 61.607 184.400,62.023 184.497,62.577 185.289 M87.075 184.714 C 88.245 185.458,88.400 187.533,88.410 202.526 C 88.419 218.148,88.576 220.172,89.915 221.969 C 93.590 226.900,105.132 226.042,107.569 220.656 C 109.511 216.366,109.600 215.473,109.600 200.327 C 109.600 183.362,109.305 184.400,114.124 184.400 C 119.042 184.400,118.569 182.023,118.800 207.867 C 118.910 220.150,118.846 230.699,118.658 231.308 C 117.608 234.710,111.754 233.646,110.790 229.879 C 110.554 228.955,110.278 227.957,110.177 227.660 C 110.055 227.299,109.209 227.846,107.638 229.301 C 100.943 235.499,90.064 235.607,83.977 229.535 C 78.904 224.474,78.417 221.920,78.407 200.326 C 78.398 183.780,78.200 184.412,83.400 184.412 C 85.160 184.412,86.814 184.548,87.075 184.714 M195.971 185.369 C 196.568 186.004,197.070 187.328,197.429 189.214 C 197.731 190.796,198.167 192.320,198.400 192.599 C 198.884 193.183,202.800 202.743,202.800 203.341 C 202.800 203.559,203.048 204.021,203.352 204.369 C 204.153 205.284,205.953 210.524,206.654 213.980 C 207.716 219.212,209.189 220.422,210.209 216.900 C 210.576 215.635,211.044 214.395,211.250 214.144 C 211.456 213.894,212.316 211.734,213.162 209.344 C 214.008 206.955,214.895 204.460,215.135 203.800 C 215.374 203.140,216.042 200.644,216.619 198.254 C 217.196 195.864,218.012 193.344,218.432 192.654 C 218.853 191.964,219.198 191.090,219.199 190.711 C 219.201 189.632,220.998 185.877,221.892 185.084 C 222.563 184.488,223.295 184.387,226.241 184.484 C 230.562 184.626,231.234 185.404,229.702 188.493 C 229.237 189.432,228.733 190.695,228.584 191.301 C 228.435 191.906,227.972 193.070,227.556 193.886 C 227.140 194.702,226.800 195.751,226.800 196.219 C 226.800 197.599,225.324 201.691,223.398 205.647 C 222.409 207.679,221.600 209.652,221.600 210.030 C 221.600 210.409,221.105 211.697,220.500 212.893 C 218.621 216.608,218.036 218.083,216.995 221.728 C 216.441 223.669,215.699 225.919,215.347 226.728 C 214.995 227.538,214.386 229.046,213.995 230.080 C 213.604 231.114,212.721 232.793,212.034 233.812 C 211.347 234.830,210.520 236.234,210.196 236.932 C 209.873 237.629,208.974 239.280,208.199 240.600 C 207.424 241.920,206.632 243.360,206.438 243.800 C 205.963 244.882,201.017 249.595,198.844 251.036 C 193.151 254.811,190.451 254.470,188.979 249.789 C 188.119 247.055,188.665 246.221,192.527 244.371 C 198.766 241.383,205.245 231.951,203.455 228.462 C 200.934 223.547,198.035 216.490,196.363 211.200 C 195.703 209.110,194.739 206.500,194.221 205.400 C 191.856 200.375,191.200 198.901,191.200 198.613 C 191.200 198.443,190.409 196.661,189.443 194.652 C 185.099 185.623,185.333 184.416,191.430 184.406 C 194.758 184.401,195.136 184.481,195.971 185.369 M290.798 191.534 C 286.512 193.608,285.139 195.215,283.802 199.719 C 283.262 201.535,283.265 201.840,283.826 202.695 L 284.450 203.649 294.809 203.524 C 307.620 203.371,307.128 203.660,305.369 197.327 C 303.790 191.640,296.537 188.757,290.798 191.534 M154.747 191.750 C 153.288 192.011,151.801 192.467,151.442 192.765 C 151.084 193.062,150.223 193.597,149.529 193.953 C 148.835 194.309,147.961 195.183,147.587 195.896 C 147.212 196.608,146.720 197.418,146.494 197.696 C 143.255 201.672,143.690 216.151,147.205 221.339 C 151.186 227.215,164.266 227.183,167.315 221.290 C 167.626 220.691,168.160 219.660,168.502 219.000 C 174.388 207.654,169.882 193.437,159.827 191.627 C 158.521 191.392,157.441 191.217,157.427 191.238 C 157.412 191.259,156.206 191.490,154.747 191.750 M299.236 192.131 C 302.515 193.118,305.200 197.046,305.200 200.855 C 305.200 202.410,304.941 202.444,293.800 202.313 L 284.200 202.200 284.330 201.089 C 285.128 194.274,292.213 190.016,299.236 192.131 M162.399 193.045 C 162.729 193.363,163.630 194.029,164.400 194.527 C 166.135 195.649,168.593 199.562,169.168 202.120 C 169.406 203.176,169.870 204.562,170.200 205.200 C 171.059 206.862,170.962 210.314,170.000 212.306 C 169.560 213.216,169.200 214.302,169.200 214.718 C 169.200 215.484,166.782 220.497,165.881 221.600 C 163.084 225.024,154.055 225.923,150.446 223.136 C 149.921 222.731,149.268 222.400,148.995 222.400 C 148.721 222.400,148.267 221.845,147.986 221.166 C 147.705 220.487,147.233 219.690,146.938 219.395 C 142.919 215.377,146.083 194.400,150.707 194.400 C 150.917 194.400,151.732 193.963,152.519 193.429 C 154.741 191.921,160.976 191.679,162.399 193.045 M330.965 257.951 C 330.285 258.368,329.385 259.137,328.965 259.660 C 328.544 260.182,327.390 261.199,326.400 261.920 C 325.410 262.640,324.030 263.949,323.333 264.829 C 322.157 266.314,317.411 270.395,316.849 270.404 C 316.712 270.407,315.773 271.172,314.761 272.104 C 313.750 273.037,312.445 274.055,311.861 274.368 C 311.278 274.680,310.800 275.085,310.800 275.268 C 310.800 275.450,310.616 275.600,310.391 275.600 C 309.799 275.600,306.913 277.519,304.600 279.450 C 303.500 280.368,301.856 281.319,300.947 281.563 C 300.037 281.806,299.070 282.274,298.798 282.603 C 298.525 282.931,297.988 283.200,297.605 283.200 C 297.222 283.200,296.479 283.537,295.954 283.948 C 295.429 284.359,292.840 285.820,290.200 287.193 C 287.560 288.567,285.198 289.853,284.951 290.052 C 284.300 290.576,278.948 292.400,278.061 292.400 C 277.647 292.400,276.872 292.743,276.340 293.161 C 275.807 293.580,274.568 294.135,273.586 294.394 C 272.604 294.653,271.440 295.091,271.000 295.367 C 270.560 295.643,269.328 296.085,268.263 296.349 C 267.197 296.614,265.937 297.080,265.463 297.386 C 264.988 297.691,263.880 298.068,263.000 298.224 C 262.120 298.380,260.947 298.736,260.393 299.016 C 259.838 299.296,256.868 300.006,253.793 300.593 C 250.717 301.181,246.850 302.016,245.200 302.450 C 243.550 302.883,241.120 303.392,239.800 303.581 C 238.480 303.771,236.590 304.194,235.600 304.523 C 234.610 304.852,232.090 305.245,230.000 305.397 C 227.910 305.550,225.480 305.925,224.600 306.232 C 219.680 307.946,176.680 308.104,169.215 306.436 C 167.133 305.970,164.163 305.482,162.615 305.351 C 161.067 305.220,159.015 304.858,158.056 304.546 C 157.097 304.235,154.937 303.796,153.256 303.571 C 151.575 303.347,149.120 302.830,147.800 302.423 C 146.480 302.016,143.780 301.471,141.800 301.212 C 136.244 300.484,123.221 296.215,117.415 293.218 C 116.544 292.768,115.360 292.400,114.784 292.400 C 113.639 292.400,109.305 290.754,107.400 289.596 C 106.740 289.195,105.390 288.554,104.400 288.173 C 103.410 287.791,102.046 287.071,101.369 286.572 C 99.601 285.269,92.574 281.600,91.846 281.600 C 91.508 281.600,90.279 280.835,89.116 279.899 C 86.810 278.046,81.003 274.000,80.649 274.000 C 80.527 274.000,80.017 273.627,79.514 273.171 C 79.011 272.716,76.890 270.985,74.800 269.326 C 72.710 267.667,69.920 265.159,68.600 263.752 C 67.280 262.345,66.065 261.196,65.900 261.197 C 65.736 261.199,64.859 260.480,63.952 259.600 C 61.436 257.158,59.515 257.512,60.415 260.252 C 61.181 262.583,64.105 268.755,65.912 271.854 C 66.792 273.364,67.752 275.410,68.045 276.400 C 68.659 278.474,69.779 280.487,72.051 283.600 C 72.934 284.810,74.422 286.970,75.358 288.400 C 76.293 289.830,77.405 291.520,77.829 292.156 C 78.253 292.792,78.780 293.600,79.000 293.953 C 81.889 298.579,92.827 310.525,99.800 316.672 C 104.881 321.151,112.824 327.361,114.800 328.399 C 115.350 328.687,116.590 329.616,117.556 330.462 C 118.522 331.308,119.611 332.000,119.975 332.000 C 120.796 332.000,125.731 334.501,127.381 335.754 C 128.882 336.893,133.951 339.600,134.583 339.600 C 134.837 339.600,135.655 340.050,136.400 340.600 C 137.145 341.150,138.053 341.600,138.416 341.600 C 138.780 341.600,139.639 341.880,140.326 342.223 C 141.013 342.566,142.256 342.951,143.088 343.080 C 143.919 343.208,145.081 343.555,145.669 343.850 C 149.196 345.625,162.078 349.796,166.447 350.577 C 168.291 350.907,170.520 351.407,171.400 351.689 C 174.083 352.546,220.738 352.417,223.400 351.545 C 224.500 351.184,226.120 350.771,227.000 350.627 C 230.997 349.971,246.163 345.026,247.449 343.960 C 247.706 343.746,248.922 343.408,250.151 343.208 C 252.642 342.803,254.942 341.913,258.200 340.096 C 258.640 339.850,260.080 339.168,261.400 338.579 C 262.720 337.991,265.009 336.719,266.487 335.754 C 267.965 334.790,269.336 334.000,269.533 334.000 C 269.731 334.000,270.321 333.663,270.846 333.252 C 271.371 332.841,272.346 332.385,273.014 332.239 C 273.682 332.093,275.028 331.243,276.005 330.350 C 276.982 329.458,278.246 328.486,278.814 328.193 C 279.383 327.899,281.778 326.205,284.137 324.429 C 286.496 322.653,288.568 321.200,288.741 321.200 C 288.914 321.200,289.423 320.795,289.871 320.300 C 290.319 319.805,291.105 319.058,291.617 318.641 C 292.129 318.223,293.645 316.873,294.985 315.641 C 296.326 314.408,298.228 312.675,299.211 311.789 C 301.536 309.694,306.550 304.153,309.085 300.877 C 309.478 300.369,310.941 298.569,312.335 296.877 C 313.730 295.184,315.509 292.810,316.289 291.600 C 317.069 290.390,318.044 288.912,318.454 288.316 C 318.864 287.720,319.200 287.090,319.200 286.915 C 319.200 286.574,321.822 282.782,322.309 282.419 C 323.110 281.821,324.875 278.705,325.786 276.282 C 326.348 274.786,327.510 272.323,328.368 270.808 C 329.227 269.293,330.057 267.636,330.213 267.127 C 330.453 266.339,331.742 263.407,333.275 260.160 C 334.342 257.899,333.054 256.667,330.965 257.951 M331.200 260.976 C 331.200 261.293,331.020 261.664,330.800 261.800 C 330.580 261.936,330.400 261.677,330.400 261.224 C 330.400 260.771,330.580 260.400,330.800 260.400 C 331.020 260.400,331.200 260.659,331.200 260.976 M329.994 262.300 C 329.978 263.142,328.519 266.707,326.433 271.000 C 325.151 273.640,323.691 276.740,323.188 277.888 C 322.685 279.037,321.587 280.927,320.747 282.088 C 318.599 285.057,314.800 290.752,314.800 291.002 C 314.800 291.245,312.448 294.272,308.118 299.600 C 307.493 300.370,306.355 301.705,305.590 302.568 C 304.826 303.430,302.788 305.725,301.063 307.668 C 299.337 309.610,297.761 311.200,297.560 311.200 C 297.359 311.200,295.891 312.483,294.297 314.051 C 290.699 317.590,288.150 319.721,284.800 321.987 C 283.370 322.955,281.652 324.208,280.981 324.773 C 280.311 325.338,279.250 326.160,278.623 326.600 C 277.997 327.040,276.926 327.850,276.242 328.400 C 274.600 329.722,273.160 330.517,269.626 332.054 C 268.430 332.574,266.724 333.525,265.836 334.167 C 262.831 336.340,254.621 340.271,250.800 341.368 C 248.710 341.968,246.280 342.785,245.400 343.185 C 242.630 344.442,239.088 345.578,228.554 348.586 C 215.098 352.429,178.594 352.451,165.488 348.623 C 164.339 348.288,161.780 347.549,159.800 346.981 C 157.820 346.413,155.750 345.759,155.200 345.528 C 154.650 345.298,153.120 344.783,151.800 344.384 C 150.480 343.986,147.870 343.094,146.000 342.402 C 144.130 341.711,141.700 340.912,140.600 340.626 C 139.500 340.341,136.471 338.914,133.869 337.454 C 131.267 335.994,129.070 334.800,128.987 334.800 C 128.904 334.800,128.156 334.339,127.325 333.775 C 126.494 333.211,124.286 332.024,122.418 331.136 C 120.549 330.248,118.476 329.078,117.810 328.535 C 114.974 326.222,111.235 323.394,109.000 321.873 C 105.357 319.394,102.471 316.978,99.600 314.004 C 98.170 312.523,96.370 310.847,95.600 310.278 C 94.830 309.710,92.940 307.777,91.400 305.984 C 89.860 304.190,87.295 301.293,85.701 299.545 C 82.375 295.900,80.258 293.120,78.428 289.992 C 76.390 286.509,75.148 284.653,72.899 281.730 C 71.648 280.105,70.297 277.705,69.561 275.800 C 68.881 274.040,68.088 272.330,67.798 272.000 C 67.152 271.263,65.014 266.588,64.664 265.146 C 64.036 262.560,65.327 263.102,69.592 267.212 C 71.869 269.405,73.854 271.200,74.003 271.200 C 74.153 271.200,74.799 271.650,75.438 272.200 C 76.077 272.749,76.704 273.199,76.830 273.200 C 76.957 273.200,78.052 273.965,79.263 274.900 C 85.822 279.961,88.598 281.871,90.120 282.374 C 90.928 282.640,91.684 283.012,91.800 283.200 C 91.916 283.388,92.684 283.763,93.506 284.034 C 94.328 284.304,95.900 285.187,97.000 285.996 C 98.928 287.414,100.487 288.277,107.629 291.879 C 108.635 292.386,110.525 292.998,111.829 293.238 C 113.133 293.479,114.650 293.918,115.200 294.215 C 116.639 294.991,123.193 297.600,129.800 300.028 C 132.877 301.158,136.829 302.309,138.600 302.590 C 142.653 303.234,149.642 304.537,152.000 305.087 C 153.430 305.421,155.860 305.858,157.400 306.058 C 158.940 306.258,161.263 306.690,162.563 307.019 C 163.863 307.347,167.643 307.797,170.963 308.018 C 174.283 308.240,178.260 308.618,179.800 308.858 C 183.993 309.513,202.182 309.752,208.000 309.228 C 210.750 308.981,215.340 308.603,218.200 308.389 C 223.350 308.003,224.813 307.813,231.800 306.630 C 233.780 306.294,236.570 305.826,238.000 305.590 C 239.430 305.354,241.140 305.003,241.800 304.810 C 242.460 304.617,244.710 304.154,246.800 303.782 C 248.890 303.410,251.912 302.870,253.516 302.583 C 258.286 301.729,267.030 298.832,273.511 295.959 C 274.452 295.541,275.430 295.200,275.685 295.200 C 275.940 295.200,276.540 294.832,277.019 294.382 C 277.581 293.854,278.866 293.415,280.645 293.143 C 283.515 292.704,291.839 288.710,296.096 285.728 C 297.139 284.998,298.106 284.400,298.246 284.400 C 299.935 284.400,307.910 279.445,314.400 274.363 C 315.830 273.243,317.652 271.906,318.448 271.391 C 319.244 270.877,321.403 268.993,323.244 267.205 C 328.026 262.562,330.017 261.115,329.994 262.300 M94.800 346.362 C 92.510 346.667,89.716 347.674,88.000 348.812 C 84.543 351.104,83.710 351.600,83.315 351.600 C 81.892 351.600,76.874 359.192,76.812 361.439 C 76.805 361.680,76.499 362.481,76.131 363.219 C 75.035 365.415,74.917 372.016,75.921 375.000 C 76.365 376.320,76.930 378.162,77.177 379.092 C 79.747 388.770,94.243 395.529,105.000 392.065 C 106.320 391.640,107.940 391.169,108.600 391.018 C 118.695 388.708,125.398 370.655,120.033 360.226 C 119.135 358.481,118.400 356.839,118.400 356.579 C 118.400 355.290,115.128 352.085,112.325 350.628 C 110.716 349.792,109.130 348.889,108.800 348.621 C 106.455 346.718,99.971 345.672,94.800 346.362 M105.282 348.489 C 105.987 348.734,107.182 349.355,107.938 349.868 C 108.693 350.380,109.557 350.800,109.856 350.800 C 110.155 350.800,110.400 350.966,110.400 351.169 C 110.400 351.372,111.075 351.754,111.900 352.017 C 118.400 354.094,122.935 370.605,119.035 377.992 C 116.322 383.130,115.227 384.831,113.707 386.267 C 111.619 388.240,108.381 389.909,105.716 390.386 C 104.662 390.575,102.704 390.952,101.364 391.223 C 98.168 391.871,90.363 390.587,87.336 388.914 C 85.549 387.927,80.000 382.848,80.000 382.199 C 80.000 382.044,79.572 381.065,79.050 380.024 C 76.282 374.514,76.244 366.174,78.959 359.800 C 79.521 358.480,79.985 357.214,79.991 356.987 C 80.008 356.225,83.857 352.523,84.906 352.259 C 85.477 352.116,86.182 351.765,86.472 351.480 C 89.806 348.203,99.872 346.602,105.282 348.489 " stroke="none" fill="#d2b9aa" fill-rule="evenodd"></path></g></svg>