<svg id="svg" version="1.1" xmlns="http://www.w3.org/2000/svg" xmlns:xlink="http://www.w3.org/1999/xlink" width="400" height="166.796875" viewBox="0, 0, 400,166.796875"><g id="svgg"><path id="path0" d="M87.847 13.261 C 87.709 13.399,87.549 13.511,87.490 13.511 C 87.257 13.511,86.906 14.006,86.906 14.333 C 86.906 14.523,86.831 14.679,86.739 14.679 C 86.647 14.679,86.572 14.942,86.572 15.263 C 86.572 15.670,86.497 15.847,86.322 15.847 C 86.166 15.847,86.072 16.004,86.072 16.264 C 86.072 16.493,85.997 16.681,85.905 16.681 C 85.813 16.681,85.738 16.943,85.738 17.264 C 85.738 17.585,85.663 17.848,85.571 17.848 C 85.480 17.848,85.402 17.980,85.399 18.140 C 85.396 18.301,85.284 18.578,85.149 18.756 C 85.014 18.934,84.904 19.215,84.904 19.381 C 84.904 19.547,84.829 19.683,84.737 19.683 C 84.646 19.683,84.570 19.866,84.570 20.090 C 84.570 20.314,84.495 20.544,84.404 20.601 C 84.312 20.657,84.237 20.916,84.237 21.176 C 84.237 21.443,84.128 21.691,83.987 21.745 C 83.849 21.798,83.736 22.027,83.736 22.253 C 83.736 22.480,83.661 22.712,83.570 22.769 C 83.478 22.826,83.403 23.055,83.403 23.279 C 83.403 23.503,83.328 23.686,83.236 23.686 C 83.144 23.686,83.069 23.949,83.069 24.270 C 83.069 24.678,82.994 24.854,82.819 24.854 C 82.663 24.854,82.569 25.012,82.569 25.271 C 82.569 25.500,82.494 25.688,82.402 25.688 C 82.310 25.688,82.235 25.913,82.235 26.188 C 82.235 26.464,82.160 26.689,82.068 26.689 C 81.977 26.689,81.902 26.869,81.902 27.088 C 81.902 27.308,81.789 27.530,81.651 27.583 C 81.505 27.639,81.401 27.889,81.401 28.185 C 81.401 28.463,81.326 28.691,81.234 28.691 C 81.143 28.691,81.068 28.878,81.068 29.108 C 81.068 29.337,80.992 29.525,80.901 29.525 C 80.809 29.525,80.734 29.787,80.734 30.108 C 80.734 30.516,80.658 30.692,80.484 30.692 C 80.328 30.692,80.234 30.850,80.234 31.109 C 80.234 31.339,80.158 31.526,80.067 31.526 C 79.975 31.526,79.900 31.789,79.900 32.110 C 79.900 32.431,79.825 32.694,79.733 32.694 C 79.641 32.694,79.566 32.849,79.566 33.039 C 79.566 33.229,79.454 33.498,79.316 33.635 C 79.178 33.773,79.066 34.030,79.066 34.207 C 79.066 34.384,78.991 34.529,78.899 34.529 C 78.807 34.529,78.732 34.754,78.732 35.029 C 78.732 35.304,78.657 35.530,78.565 35.530 C 78.474 35.530,78.399 35.755,78.399 36.030 C 78.399 36.364,78.315 36.530,78.148 36.530 C 77.983 36.530,77.898 36.696,77.898 37.021 C 77.898 37.291,77.823 37.558,77.731 37.615 C 77.640 37.671,77.565 37.901,77.565 38.125 C 77.565 38.349,77.490 38.532,77.398 38.532 C 77.306 38.532,77.231 38.795,77.231 39.116 C 77.231 39.524,77.156 39.700,76.981 39.700 C 76.843 39.700,76.731 39.845,76.731 40.024 C 76.731 40.202,76.656 40.394,76.564 40.450 C 76.472 40.507,76.397 40.768,76.397 41.030 C 76.397 41.292,76.341 41.532,76.272 41.562 C 76.041 41.665,75.563 42.725,75.563 43.133 C 75.563 43.355,75.488 43.536,75.396 43.536 C 75.304 43.536,75.229 43.724,75.229 43.953 C 75.229 44.183,75.158 44.370,75.070 44.370 C 74.983 44.370,74.862 44.633,74.801 44.954 C 74.741 45.275,74.625 45.538,74.544 45.538 C 74.462 45.538,74.395 45.726,74.395 45.955 C 74.395 46.184,74.320 46.372,74.229 46.372 C 74.137 46.372,74.062 46.627,74.062 46.938 C 74.062 47.287,73.966 47.541,73.812 47.600 C 73.674 47.653,73.561 47.844,73.561 48.025 C 73.561 48.206,73.486 48.400,73.394 48.457 C 73.303 48.514,73.228 48.743,73.228 48.967 C 73.228 49.191,73.153 49.374,73.061 49.374 C 72.969 49.374,72.894 49.590,72.894 49.854 C 72.894 50.118,72.781 50.428,72.644 50.542 C 72.506 50.656,72.394 50.891,72.394 51.063 C 72.394 51.235,72.319 51.376,72.227 51.376 C 72.135 51.376,72.060 51.639,72.060 51.960 C 72.060 52.281,71.985 52.544,71.893 52.544 C 71.802 52.544,71.726 52.723,71.726 52.943 C 71.726 53.162,71.614 53.385,71.476 53.438 C 71.330 53.494,71.226 53.744,71.226 54.040 C 71.226 54.318,71.151 54.545,71.059 54.545 C 70.967 54.545,70.892 54.733,70.892 54.962 C 70.892 55.192,70.817 55.379,70.726 55.379 C 70.634 55.379,70.559 55.597,70.559 55.862 C 70.559 56.137,70.451 56.386,70.309 56.441 C 70.171 56.493,70.058 56.685,70.058 56.866 C 70.058 57.047,69.983 57.241,69.892 57.298 C 69.800 57.354,69.725 57.622,69.725 57.891 C 69.725 58.161,69.650 58.382,69.558 58.382 C 69.466 58.382,69.391 58.537,69.391 58.728 C 69.391 58.918,69.279 59.186,69.141 59.323 C 69.003 59.461,68.891 59.756,68.891 59.979 C 68.891 60.201,68.816 60.384,68.724 60.384 C 68.632 60.384,68.557 60.571,68.557 60.801 C 68.557 61.030,68.482 61.218,68.390 61.218 C 68.299 61.218,68.224 61.480,68.224 61.802 C 68.224 62.209,68.148 62.385,67.973 62.385 C 67.836 62.385,67.723 62.499,67.723 62.638 C 67.723 63.043,67.320 64.220,67.182 64.220 C 67.113 64.220,67.056 64.448,67.056 64.726 C 67.056 65.021,66.952 65.271,66.806 65.328 C 66.668 65.380,66.555 65.603,66.555 65.823 C 66.555 66.042,66.480 66.222,66.389 66.222 C 66.297 66.222,66.222 66.485,66.222 66.806 C 66.222 67.127,66.147 67.389,66.055 67.389 C 65.963 67.389,65.888 67.577,65.888 67.807 C 65.888 68.066,65.794 68.224,65.638 68.224 C 65.463 68.224,65.388 68.400,65.388 68.807 C 65.388 69.128,65.313 69.391,65.221 69.391 C 65.129 69.391,65.054 69.579,65.054 69.808 C 65.054 70.038,64.979 70.225,64.887 70.225 C 64.796 70.225,64.721 70.442,64.721 70.708 C 64.721 70.983,64.613 71.232,64.470 71.286 C 64.333 71.339,64.220 71.530,64.220 71.711 C 64.220 71.892,64.145 72.087,64.053 72.143 C 63.962 72.200,63.887 72.467,63.887 72.737 C 63.887 73.007,63.812 73.228,63.720 73.228 C 63.628 73.228,63.553 73.383,63.553 73.573 C 63.553 73.763,63.440 74.031,63.303 74.169 C 63.165 74.307,63.053 74.601,63.053 74.824 C 63.053 75.047,62.977 75.229,62.886 75.229 C 62.794 75.229,62.719 75.413,62.719 75.637 C 62.719 75.860,62.644 76.090,62.552 76.147 C 62.460 76.203,62.385 76.471,62.385 76.740 C 62.385 77.065,62.301 77.231,62.135 77.231 C 61.996 77.231,61.885 77.379,61.885 77.565 C 61.885 77.748,61.810 77.898,61.718 77.898 C 61.626 77.898,61.551 78.086,61.551 78.315 C 61.551 78.545,61.476 78.732,61.384 78.732 C 61.293 78.732,61.218 78.864,61.218 79.026 C 61.218 79.187,60.957 79.544,60.637 79.818 C 60.318 80.092,60.056 80.411,60.054 80.525 C 60.052 80.640,59.969 80.734,59.869 80.734 C 59.770 80.734,59.433 80.997,59.122 81.318 C 58.810 81.639,58.441 81.902,58.302 81.902 C 58.162 81.902,58.048 81.958,58.047 82.027 C 58.045 82.192,57.224 82.569,56.865 82.569 C 56.710 82.569,56.540 82.681,56.487 82.819 C 56.431 82.964,56.182 83.069,55.895 83.069 C 55.622 83.069,55.353 83.144,55.296 83.236 C 55.239 83.328,54.827 83.403,54.379 83.403 C 53.931 83.403,53.518 83.478,53.461 83.570 C 53.404 83.662,52.653 83.736,51.783 83.736 L 50.209 83.736 50.209 86.072 L 50.209 88.407 62.135 88.407 L 74.062 88.407 74.062 86.072 L 74.062 83.736 72.894 83.736 C 72.227 83.736,71.726 83.665,71.726 83.570 C 71.726 83.478,71.431 83.403,71.069 83.403 C 70.708 83.403,70.365 83.328,70.309 83.236 C 70.252 83.144,70.030 83.069,69.816 83.069 C 69.602 83.069,69.384 82.957,69.331 82.819 C 69.278 82.681,69.099 82.569,68.933 82.569 C 68.767 82.569,68.523 82.419,68.390 82.235 C 68.258 82.052,68.054 81.902,67.936 81.902 C 67.819 81.902,67.723 81.789,67.723 81.651 C 67.723 81.514,67.667 81.401,67.598 81.400 C 67.447 81.398,67.056 80.589,67.056 80.278 C 67.056 80.156,66.943 80.013,66.806 79.960 C 66.637 79.896,66.555 79.631,66.555 79.149 C 66.555 78.668,66.637 78.403,66.806 78.338 C 66.963 78.278,67.056 78.023,67.056 77.653 C 67.056 77.329,67.131 77.064,67.223 77.064 C 67.314 77.064,67.389 76.839,67.389 76.564 C 67.389 76.289,67.465 76.063,67.556 76.063 C 67.648 76.063,67.723 75.884,67.723 75.664 C 67.723 75.445,67.836 75.222,67.973 75.169 C 68.120 75.113,68.224 74.863,68.224 74.567 C 68.224 74.289,68.299 74.062,68.390 74.062 C 68.482 74.062,68.557 73.874,68.557 73.645 C 68.557 73.415,68.632 73.228,68.724 73.228 C 68.816 73.228,68.891 72.965,68.891 72.644 C 68.891 72.236,68.966 72.060,69.141 72.060 C 69.297 72.060,69.391 71.903,69.391 71.643 C 69.391 71.414,69.466 71.226,69.558 71.226 C 69.650 71.226,69.725 70.963,69.725 70.642 C 69.725 70.321,69.800 70.058,69.892 70.058 C 69.983 70.058,70.058 69.917,70.058 69.745 C 70.058 69.573,70.171 69.339,70.309 69.224 C 70.446 69.110,70.559 68.838,70.559 68.620 C 70.559 68.402,70.634 68.224,70.726 68.224 C 70.817 68.224,70.892 68.036,70.892 67.807 C 70.892 67.577,70.967 67.389,71.059 67.389 C 71.151 67.389,71.226 67.127,71.226 66.806 C 71.226 66.398,71.301 66.222,71.476 66.222 C 71.614 66.222,71.726 66.087,71.726 65.921 C 71.726 65.756,71.820 65.419,71.935 65.172 L 72.143 64.723 86.781 64.722 C 101.307 64.721,101.418 64.723,101.418 65.054 C 101.418 65.238,101.493 65.388,101.585 65.388 C 101.676 65.388,101.751 65.609,101.751 65.878 C 101.751 66.148,101.827 66.415,101.918 66.472 C 102.010 66.529,102.085 66.723,102.085 66.904 C 102.085 67.085,102.198 67.276,102.335 67.329 C 102.490 67.388,102.585 67.642,102.585 67.991 C 102.585 68.302,102.661 68.557,102.752 68.557 C 102.844 68.557,102.919 68.745,102.919 68.974 C 102.919 69.204,102.994 69.391,103.086 69.391 C 103.178 69.391,103.253 69.573,103.253 69.796 C 103.253 70.019,103.365 70.314,103.503 70.452 C 103.641 70.589,103.753 70.820,103.753 70.964 C 103.753 71.108,103.828 71.226,103.920 71.226 C 104.012 71.226,104.087 71.489,104.087 71.810 C 104.087 72.131,104.162 72.394,104.254 72.394 C 104.345 72.394,104.420 72.572,104.420 72.790 C 104.420 73.008,104.533 73.280,104.671 73.394 C 104.808 73.509,104.921 73.781,104.921 73.999 C 104.921 74.217,104.996 74.395,105.088 74.395 C 105.179 74.395,105.254 74.524,105.254 74.682 C 105.254 75.100,105.776 76.397,105.944 76.397 C 106.024 76.397,106.088 76.586,106.088 76.816 C 106.088 77.047,106.157 77.366,106.241 77.525 C 106.546 78.104,106.922 79.037,106.922 79.216 C 106.922 79.317,106.997 79.399,107.089 79.399 C 107.181 79.399,107.256 79.587,107.256 79.817 C 107.256 80.046,107.331 80.234,107.423 80.234 C 107.515 80.234,107.590 80.574,107.590 80.991 C 107.590 81.877,106.586 83.069,105.841 83.069 C 105.621 83.069,105.394 83.144,105.338 83.236 C 105.281 83.328,104.901 83.403,104.494 83.403 C 104.086 83.403,103.753 83.478,103.753 83.570 C 103.753 83.672,102.931 83.737,101.626 83.739 C 98.886 83.742,99.063 83.571,99.119 86.168 L 99.166 88.324 114.304 88.366 L 129.441 88.409 129.441 86.073 L 129.441 83.736 126.282 83.736 C 124.355 83.736,123.082 83.671,123.019 83.570 C 122.962 83.478,122.545 83.403,122.092 83.403 C 121.639 83.403,121.268 83.328,121.268 83.236 C 121.268 83.144,121.080 83.069,120.851 83.069 C 120.621 83.069,120.434 82.991,120.434 82.895 C 120.434 82.668,119.667 81.902,119.440 81.902 C 119.345 81.902,119.266 81.714,119.266 81.485 C 119.266 81.255,119.191 81.068,119.099 81.068 C 119.008 81.068,118.932 80.922,118.932 80.744 C 118.932 80.566,118.857 80.374,118.766 80.317 C 118.674 80.260,118.599 80.074,118.599 79.902 C 118.599 79.730,118.486 79.478,118.349 79.340 C 118.211 79.202,118.098 78.934,118.098 78.744 C 118.098 78.554,118.023 78.399,117.932 78.399 C 117.840 78.399,117.765 78.178,117.765 77.908 C 117.765 77.638,117.690 77.371,117.598 77.314 C 117.506 77.258,117.431 77.028,117.431 76.804 C 117.431 76.553,117.335 76.397,117.181 76.397 C 117.006 76.397,116.931 76.221,116.931 75.813 C 116.931 75.492,116.856 75.229,116.764 75.229 C 116.672 75.229,116.597 75.042,116.597 74.812 C 116.597 74.583,116.522 74.395,116.430 74.395 C 116.339 74.395,116.264 74.213,116.264 73.990 C 116.264 73.767,116.151 73.473,116.013 73.335 C 115.876 73.197,115.763 72.971,115.763 72.832 C 115.763 72.694,115.688 72.534,115.596 72.477 C 115.505 72.420,115.430 72.153,115.430 71.883 C 115.430 71.614,115.354 71.393,115.263 71.393 C 115.171 71.393,115.096 71.205,115.096 70.976 C 115.096 70.716,115.001 70.559,114.846 70.559 C 114.671 70.559,114.595 70.383,114.595 69.975 C 114.595 69.654,114.520 69.391,114.429 69.391 C 114.337 69.391,114.262 69.204,114.262 68.974 C 114.262 68.745,114.187 68.557,114.095 68.557 C 114.003 68.557,113.928 68.330,113.928 68.051 C 113.928 67.756,113.824 67.506,113.678 67.450 C 113.540 67.397,113.428 67.174,113.428 66.955 C 113.428 66.735,113.353 66.555,113.261 66.555 C 113.169 66.555,113.094 66.335,113.094 66.065 C 113.094 65.795,113.019 65.528,112.927 65.471 C 112.836 65.415,112.761 65.230,112.761 65.062 C 112.761 64.894,112.648 64.713,112.510 64.660 C 112.364 64.604,112.260 64.354,112.260 64.059 C 112.260 63.781,112.185 63.553,112.093 63.553 C 112.002 63.553,111.927 63.370,111.927 63.146 C 111.927 62.922,111.852 62.692,111.760 62.636 C 111.668 62.579,111.593 62.347,111.593 62.120 C 111.593 61.893,111.480 61.664,111.343 61.612 C 111.202 61.558,111.093 61.309,111.093 61.043 C 111.093 60.783,111.018 60.524,110.926 60.467 C 110.834 60.410,110.759 60.181,110.759 59.957 C 110.759 59.733,110.684 59.550,110.592 59.550 C 110.500 59.550,110.425 59.405,110.425 59.228 C 110.425 59.051,110.313 58.794,110.175 58.656 C 110.038 58.518,109.925 58.255,109.925 58.070 C 109.925 57.886,109.850 57.688,109.758 57.631 C 109.666 57.575,109.591 57.349,109.591 57.131 C 109.591 56.912,109.516 56.687,109.425 56.631 C 109.333 56.574,109.258 56.379,109.258 56.198 C 109.258 56.017,109.145 55.826,109.008 55.773 C 108.853 55.714,108.757 55.461,108.757 55.111 C 108.757 54.800,108.682 54.545,108.590 54.545 C 108.499 54.545,108.424 54.358,108.424 54.128 C 108.424 53.899,108.357 53.711,108.275 53.711 C 108.194 53.711,108.078 53.449,108.018 53.128 C 107.957 52.807,107.836 52.544,107.749 52.544 C 107.661 52.544,107.590 52.356,107.590 52.127 C 107.590 51.897,107.515 51.710,107.423 51.710 C 107.331 51.710,107.256 51.482,107.256 51.204 C 107.256 50.909,107.152 50.659,107.006 50.602 C 106.868 50.550,106.756 50.364,106.756 50.191 C 106.756 50.017,106.681 49.875,106.589 49.875 C 106.497 49.875,106.422 49.612,106.422 49.291 C 106.422 48.970,106.347 48.707,106.255 48.707 C 106.163 48.707,106.088 48.520,106.088 48.290 C 106.088 48.031,105.994 47.873,105.838 47.873 C 105.663 47.873,105.588 47.697,105.588 47.289 C 105.588 46.968,105.513 46.706,105.421 46.706 C 105.329 46.706,105.254 46.518,105.254 46.289 C 105.254 46.059,105.179 45.872,105.088 45.872 C 104.996 45.872,104.921 45.644,104.921 45.366 C 104.921 45.070,104.817 44.820,104.671 44.764 C 104.533 44.711,104.420 44.489,104.420 44.269 C 104.420 44.050,104.345 43.870,104.254 43.870 C 104.162 43.870,104.087 43.645,104.087 43.369 C 104.087 43.094,104.012 42.869,103.920 42.869 C 103.828 42.869,103.753 42.691,103.753 42.472 C 103.753 42.254,103.641 41.982,103.503 41.868 C 103.365 41.754,103.253 41.482,103.253 41.264 C 103.253 41.046,103.178 40.867,103.086 40.867 C 102.994 40.867,102.919 40.647,102.919 40.377 C 102.919 40.107,102.844 39.840,102.752 39.783 C 102.661 39.726,102.585 39.497,102.585 39.273 C 102.585 39.022,102.489 38.866,102.335 38.866 C 102.170 38.866,102.085 38.700,102.085 38.375 C 102.085 38.105,102.010 37.838,101.918 37.781 C 101.827 37.725,101.751 37.495,101.751 37.271 C 101.751 37.047,101.676 36.864,101.585 36.864 C 101.493 36.864,101.418 36.686,101.418 36.467 C 101.418 36.249,101.305 35.977,101.168 35.863 C 101.030 35.749,100.917 35.515,100.917 35.342 C 100.917 35.170,100.842 35.029,100.751 35.029 C 100.659 35.029,100.584 34.766,100.584 34.445 C 100.584 34.124,100.509 33.862,100.417 33.862 C 100.325 33.862,100.250 33.674,100.250 33.445 C 100.250 33.185,100.156 33.028,100.000 33.028 C 99.825 33.028,99.750 32.851,99.750 32.444 C 99.750 32.123,99.675 31.860,99.583 31.860 C 99.491 31.860,99.416 31.672,99.416 31.443 C 99.416 31.214,99.341 31.026,99.249 31.026 C 99.158 31.026,99.083 30.844,99.083 30.621 C 99.083 30.398,98.970 30.103,98.832 29.965 C 98.695 29.828,98.582 29.597,98.582 29.453 C 98.582 29.309,98.507 29.191,98.415 29.191 C 98.324 29.191,98.249 28.928,98.249 28.607 C 98.249 28.286,98.173 28.023,98.082 28.023 C 97.990 28.023,97.915 27.836,97.915 27.606 C 97.915 27.347,97.820 27.189,97.665 27.189 C 97.490 27.189,97.415 27.013,97.415 26.606 C 97.415 26.284,97.339 26.022,97.248 26.022 C 97.156 26.022,97.081 25.834,97.081 25.605 C 97.081 25.375,97.006 25.188,96.914 25.188 C 96.822 25.188,96.747 24.960,96.747 24.682 C 96.747 24.386,96.643 24.136,96.497 24.080 C 96.359 24.028,96.247 23.809,96.247 23.595 C 96.247 23.381,96.172 23.159,96.080 23.103 C 95.988 23.046,95.913 22.821,95.913 22.602 C 95.913 22.384,95.838 22.158,95.746 22.102 C 95.655 22.045,95.580 21.858,95.580 21.687 C 95.580 21.515,95.467 21.262,95.329 21.125 C 95.192 20.987,95.079 20.719,95.079 20.529 C 95.079 20.339,95.004 20.183,94.912 20.183 C 94.821 20.183,94.746 19.963,94.746 19.693 C 94.746 19.423,94.671 19.156,94.579 19.099 C 94.487 19.043,94.412 18.848,94.412 18.667 C 94.412 18.486,94.299 18.295,94.162 18.242 C 94.021 18.188,93.912 17.940,93.912 17.673 C 93.912 17.413,93.837 17.154,93.745 17.098 C 93.653 17.041,93.578 16.811,93.578 16.587 C 93.578 16.363,93.511 16.180,93.430 16.180 C 93.348 16.180,93.232 15.917,93.172 15.596 C 93.112 15.275,92.991 15.013,92.903 15.013 C 92.816 15.013,92.744 14.862,92.744 14.679 C 92.744 14.495,92.669 14.345,92.577 14.345 C 92.485 14.345,92.410 14.158,92.410 13.928 C 92.410 13.699,92.330 13.511,92.232 13.511 C 92.133 13.511,91.940 13.399,91.803 13.261 C 91.612 13.071,91.138 13.011,89.825 13.011 C 88.512 13.011,88.037 13.071,87.847 13.261 M13.048 18.140 L 13.094 20.767 17.923 20.812 C 21.326 20.843,22.787 20.912,22.870 21.047 C 22.935 21.152,23.408 21.273,23.921 21.315 C 24.434 21.358,24.854 21.458,24.854 21.539 C 24.854 21.619,25.117 21.685,25.438 21.685 C 25.759 21.685,26.022 21.760,26.022 21.852 C 26.022 21.943,26.132 22.018,26.266 22.018 C 26.587 22.018,27.523 22.939,27.523 23.254 C 27.523 23.389,27.598 23.546,27.690 23.603 C 27.781 23.660,27.857 23.921,27.857 24.185 C 27.857 24.448,27.969 24.776,28.107 24.914 C 28.487 25.294,28.487 108.484,28.107 108.865 C 27.969 109.002,27.857 109.302,27.857 109.531 C 27.857 110.368,26.506 111.927,25.781 111.927 C 25.557 111.927,25.328 112.002,25.271 112.093 C 25.214 112.185,24.915 112.260,24.606 112.260 C 24.297 112.260,23.931 112.373,23.794 112.510 C 23.596 112.708,23.069 112.761,21.280 112.761 C 19.882 112.761,19.016 112.824,19.016 112.927 C 19.016 113.032,17.904 113.094,16.013 113.094 L 13.011 113.094 13.011 115.596 L 13.011 118.098 52.294 118.098 L 91.576 118.098 91.576 117.098 C 91.576 116.542,91.650 116.097,91.743 116.097 C 91.845 116.097,91.910 115.346,91.910 114.178 C 91.910 112.585,91.952 112.260,92.160 112.260 C 92.367 112.260,92.410 111.956,92.410 110.519 C 92.410 109.537,92.483 108.732,92.577 108.674 C 92.672 108.615,92.744 107.787,92.744 106.760 C 92.744 105.470,92.803 104.929,92.950 104.880 C 93.157 104.811,93.325 103.123,93.513 99.208 C 93.560 98.221,93.669 97.415,93.755 97.415 C 93.842 97.415,93.912 96.681,93.912 95.766 C 93.912 94.627,93.989 93.969,94.161 93.639 C 94.329 93.317,94.410 92.662,94.411 91.628 C 94.412 90.785,94.487 90.048,94.579 89.992 C 94.673 89.934,94.746 89.131,94.746 88.157 C 94.746 87.182,94.819 86.380,94.912 86.322 C 95.007 86.263,95.079 85.435,95.079 84.408 C 95.079 83.107,95.138 82.577,95.288 82.527 C 95.431 82.480,95.514 81.928,95.554 80.762 L 95.611 79.066 93.427 79.066 L 91.243 79.066 91.243 79.469 C 91.243 79.691,91.153 79.902,91.043 79.939 C 90.913 79.982,90.820 80.578,90.776 81.662 C 90.738 82.574,90.640 83.391,90.558 83.478 C 90.476 83.565,90.409 84.297,90.409 85.104 C 90.409 85.972,90.340 86.572,90.242 86.572 C 90.147 86.572,90.075 87.068,90.075 87.726 C 90.075 88.406,90.001 88.904,89.894 88.940 C 89.733 88.994,89.609 89.595,89.299 91.827 C 89.249 92.193,89.139 92.565,89.057 92.652 C 88.975 92.739,88.907 93.064,88.907 93.373 C 88.907 93.682,88.795 94.048,88.657 94.186 C 88.520 94.323,88.407 94.651,88.407 94.914 C 88.407 95.178,88.332 95.440,88.240 95.496 C 88.148 95.553,88.073 95.858,88.073 96.173 C 88.073 96.489,87.998 96.747,87.907 96.747 C 87.815 96.747,87.740 96.903,87.740 97.093 C 87.740 97.283,87.627 97.551,87.490 97.689 C 87.352 97.826,87.239 98.084,87.239 98.260 C 87.239 98.437,87.164 98.582,87.073 98.582 C 86.981 98.582,86.906 98.770,86.906 98.999 C 86.906 99.229,86.831 99.416,86.739 99.416 C 86.647 99.416,86.572 99.604,86.572 99.833 C 86.572 100.093,86.478 100.250,86.322 100.250 C 86.183 100.250,86.072 100.398,86.072 100.584 C 86.072 100.767,86.014 100.917,85.944 100.917 C 85.874 100.917,85.687 101.218,85.528 101.585 C 85.369 101.952,85.163 102.252,85.071 102.252 C 84.979 102.252,84.904 102.364,84.904 102.500 C 84.904 102.637,84.773 102.906,84.612 103.098 C 84.452 103.290,84.189 103.603,84.028 103.793 C 83.868 103.982,83.736 104.183,83.736 104.237 C 83.736 104.431,82.944 105.254,82.758 105.254 C 82.654 105.254,82.569 105.333,82.569 105.429 C 82.569 105.655,81.802 106.422,81.576 106.422 C 81.480 106.422,81.401 106.502,81.401 106.601 C 81.401 106.863,81.057 107.161,80.442 107.432 C 80.144 107.564,79.900 107.733,79.900 107.809 C 79.900 108.045,79.437 108.424,79.149 108.424 C 78.840 108.424,78.399 108.809,78.399 109.079 C 78.399 109.177,78.211 109.258,77.982 109.258 C 77.752 109.258,77.565 109.333,77.565 109.425 C 77.565 109.516,77.377 109.591,77.148 109.591 C 76.918 109.591,76.731 109.666,76.731 109.758 C 76.731 109.850,76.580 109.925,76.397 109.925 C 76.212 109.925,76.063 110.036,76.063 110.175 C 76.063 110.331,75.906 110.425,75.646 110.425 C 75.417 110.425,75.229 110.500,75.229 110.592 C 75.229 110.684,74.967 110.759,74.646 110.759 C 74.324 110.759,74.062 110.834,74.062 110.926 C 74.062 111.018,73.834 111.093,73.556 111.093 C 73.260 111.093,73.011 111.197,72.954 111.343 C 72.895 111.497,72.642 111.593,72.292 111.593 C 71.981 111.593,71.726 111.668,71.726 111.760 C 71.726 111.852,71.351 111.927,70.892 111.927 C 70.434 111.927,70.058 112.002,70.058 112.093 C 70.058 112.188,69.584 112.260,68.969 112.260 C 68.154 112.260,67.855 112.323,67.783 112.510 C 67.705 112.714,67.304 112.761,65.620 112.761 C 64.353 112.761,63.553 112.825,63.553 112.927 C 63.553 113.036,60.745 113.094,55.463 113.094 C 50.181 113.094,47.373 113.036,47.373 112.927 C 47.373 112.830,46.823 112.761,46.056 112.761 C 45.040 112.761,44.718 112.704,44.644 112.510 C 44.591 112.373,44.448 112.260,44.325 112.260 C 43.934 112.260,43.205 111.850,43.204 111.629 C 43.203 111.512,43.090 111.373,42.952 111.320 C 42.815 111.267,42.702 111.044,42.702 110.825 C 42.702 110.605,42.627 110.425,42.535 110.425 C 42.425 110.425,42.369 96.056,42.369 67.650 C 42.369 39.312,42.425 24.839,42.535 24.771 C 42.627 24.714,42.702 24.487,42.702 24.267 C 42.702 23.865,43.853 22.519,44.197 22.519 C 44.292 22.519,44.370 22.406,44.370 22.269 C 44.370 22.114,44.527 22.018,44.777 22.018 C 45.001 22.018,45.231 21.943,45.288 21.852 C 45.344 21.760,45.645 21.685,45.955 21.685 C 46.265 21.685,46.565 21.610,46.622 21.518 C 46.679 21.426,47.211 21.351,47.805 21.351 C 48.611 21.351,48.909 21.288,48.981 21.101 C 49.064 20.885,49.923 20.851,55.314 20.851 L 61.551 20.851 61.551 18.182 L 61.551 15.513 60.217 15.513 C 59.438 15.513,58.882 15.582,58.882 15.680 C 58.882 15.790,51.515 15.847,37.114 15.847 C 22.713 15.847,15.346 15.790,15.346 15.680 C 15.346 15.584,14.844 15.513,14.174 15.513 L 13.002 15.513 13.048 18.140 M283.403 18.182 L 283.403 20.851 287.668 20.851 C 291.237 20.851,291.975 20.892,292.184 21.101 C 292.350 21.267,292.766 21.351,293.423 21.351 C 293.971 21.351,294.412 21.425,294.412 21.518 C 294.412 21.610,294.675 21.685,294.996 21.685 C 295.317 21.685,295.580 21.760,295.580 21.852 C 295.580 21.943,295.722 22.018,295.895 22.018 C 296.069 22.018,296.254 22.131,296.307 22.269 C 296.360 22.406,296.539 22.519,296.705 22.519 C 296.871 22.519,297.115 22.669,297.248 22.852 C 297.380 23.036,297.560 23.186,297.647 23.186 C 297.821 23.186,298.976 24.361,299.497 25.071 C 299.680 25.318,299.924 25.521,300.040 25.521 C 300.155 25.521,300.250 25.692,300.250 25.901 C 300.250 26.111,300.400 26.390,300.584 26.522 C 300.767 26.654,300.917 26.886,300.917 27.036 C 300.917 27.186,301.105 27.450,301.334 27.623 C 301.564 27.795,301.751 28.073,301.751 28.242 C 301.751 28.578,302.125 29.024,302.407 29.024 C 302.505 29.024,302.585 29.195,302.585 29.404 C 302.585 29.613,302.736 29.893,302.919 30.025 C 303.103 30.157,303.253 30.401,303.253 30.567 C 303.253 30.734,303.365 30.913,303.503 30.966 C 303.641 31.018,303.753 31.166,303.753 31.294 C 303.753 31.422,303.828 31.526,303.920 31.526 C 304.012 31.526,304.087 31.642,304.087 31.784 C 304.087 31.925,304.274 32.244,304.504 32.491 C 304.733 32.738,304.921 33.035,304.921 33.151 C 304.921 33.267,304.996 33.361,305.088 33.361 C 305.179 33.361,305.254 33.442,305.254 33.540 C 305.254 33.638,305.348 33.823,305.463 33.951 C 305.847 34.379,306.003 34.609,306.255 35.113 C 306.392 35.388,306.599 35.673,306.714 35.746 C 306.828 35.820,306.922 35.989,306.922 36.122 C 306.922 36.255,306.997 36.364,307.089 36.364 C 307.181 36.364,307.256 36.476,307.256 36.614 C 307.256 36.751,307.331 36.864,307.423 36.864 C 307.515 36.864,307.590 36.959,307.590 37.074 C 307.590 37.190,307.777 37.487,308.007 37.734 C 308.236 37.982,308.426 38.281,308.429 38.400 C 308.436 38.698,308.837 39.199,309.068 39.199 C 309.172 39.199,309.258 39.370,309.258 39.580 C 309.258 39.789,309.408 40.068,309.591 40.200 C 309.775 40.332,309.925 40.564,309.925 40.714 C 309.925 40.864,310.113 41.128,310.342 41.301 C 310.571 41.473,310.759 41.751,310.759 41.920 C 310.759 42.256,311.133 42.702,311.414 42.702 C 311.513 42.702,311.593 42.873,311.593 43.082 C 311.593 43.292,311.743 43.571,311.927 43.703 C 312.110 43.835,312.260 44.067,312.260 44.217 C 312.260 44.367,312.448 44.631,312.677 44.804 C 312.907 44.976,313.094 45.259,313.094 45.433 C 313.094 45.607,313.282 45.924,313.511 46.136 C 313.741 46.349,313.928 46.639,313.928 46.781 C 313.928 46.923,313.995 47.039,314.076 47.039 C 314.157 47.039,314.349 47.302,314.501 47.623 C 314.653 47.944,314.849 48.207,314.937 48.207 C 315.024 48.207,315.096 48.319,315.096 48.457 C 315.096 48.595,315.171 48.707,315.263 48.707 C 315.354 48.707,315.430 48.830,315.430 48.980 C 315.430 49.130,315.617 49.427,315.847 49.639 C 316.076 49.852,316.264 50.142,316.264 50.284 C 316.264 50.426,316.339 50.542,316.430 50.542 C 316.522 50.542,316.597 50.655,316.597 50.792 C 316.597 50.930,316.672 51.043,316.764 51.043 C 316.856 51.043,316.931 51.157,316.931 51.298 C 316.931 51.438,317.043 51.597,317.181 51.649 C 317.319 51.702,317.431 51.850,317.431 51.978 C 317.431 52.106,317.506 52.210,317.598 52.210 C 317.690 52.210,317.765 52.326,317.765 52.468 C 317.765 52.609,317.952 52.928,318.182 53.175 C 318.411 53.422,318.599 53.719,318.599 53.835 C 318.599 53.950,318.674 54.045,318.766 54.045 C 318.857 54.045,318.932 54.147,318.932 54.271 C 318.932 54.395,319.111 54.690,319.330 54.926 C 319.549 55.162,319.830 55.585,319.955 55.867 C 320.079 56.150,320.221 56.380,320.270 56.380 C 320.318 56.380,320.499 56.643,320.672 56.964 C 320.845 57.285,321.050 57.548,321.127 57.548 C 321.204 57.548,321.268 57.657,321.268 57.791 C 321.268 57.924,321.455 58.221,321.685 58.450 C 321.914 58.680,322.102 58.975,322.102 59.108 C 322.102 59.240,322.288 59.525,322.516 59.741 C 322.744 59.957,322.931 60.265,322.933 60.425 C 322.934 60.586,323.002 60.717,323.084 60.717 C 323.165 60.717,323.356 60.980,323.508 61.301 C 323.661 61.622,323.857 61.885,323.944 61.885 C 324.032 61.885,324.103 61.997,324.103 62.135 C 324.103 62.273,324.178 62.385,324.270 62.385 C 324.362 62.385,324.437 62.508,324.437 62.658 C 324.437 62.808,324.625 63.105,324.854 63.317 C 325.083 63.530,325.271 63.820,325.271 63.962 C 325.271 64.104,325.346 64.220,325.438 64.220 C 325.530 64.220,325.605 64.333,325.605 64.470 C 325.605 64.608,325.680 64.721,325.771 64.721 C 325.863 64.721,325.938 64.871,325.938 65.054 C 325.938 65.240,326.049 65.388,326.188 65.388 C 326.326 65.388,326.439 65.500,326.439 65.638 C 326.439 65.776,326.514 65.888,326.606 65.888 C 326.697 65.888,326.772 66.011,326.772 66.161 C 326.772 66.311,326.960 66.608,327.189 66.820 C 327.670 67.266,327.706 67.389,327.356 67.389 C 327.219 67.389,327.106 67.502,327.106 67.640 C 327.106 67.777,327.031 67.890,326.939 67.890 C 326.847 67.890,326.772 68.040,326.772 68.224 C 326.772 68.407,326.697 68.557,326.606 68.557 C 326.514 68.557,326.439 68.662,326.439 68.789 C 326.439 68.917,326.326 69.065,326.188 69.118 C 326.051 69.171,325.938 69.329,325.938 69.469 C 325.938 69.610,325.863 69.725,325.771 69.725 C 325.680 69.725,325.605 69.837,325.605 69.975 C 325.605 70.113,325.530 70.225,325.438 70.225 C 325.346 70.225,325.271 70.375,325.271 70.559 C 325.271 70.744,325.160 70.892,325.021 70.892 C 324.883 70.892,324.771 71.005,324.771 71.143 C 324.771 71.280,324.696 71.393,324.604 71.393 C 324.512 71.393,324.437 71.543,324.437 71.726 C 324.437 71.910,324.362 72.060,324.270 72.060 C 324.178 72.060,324.103 72.173,324.103 72.310 C 324.103 72.448,323.991 72.560,323.853 72.560 C 323.714 72.560,323.603 72.709,323.603 72.894 C 323.603 73.078,323.528 73.228,323.436 73.228 C 323.344 73.228,323.269 73.340,323.269 73.478 C 323.269 73.616,323.194 73.728,323.103 73.728 C 323.011 73.728,322.936 73.878,322.936 74.062 C 322.936 74.247,322.825 74.395,322.686 74.395 C 322.548 74.395,322.435 74.508,322.435 74.646 C 322.435 74.783,322.360 74.896,322.269 74.896 C 322.177 74.896,322.102 75.012,322.102 75.154 C 322.102 75.296,321.914 75.586,321.685 75.799 C 321.455 76.011,321.268 76.308,321.268 76.458 C 321.268 76.608,321.193 76.731,321.101 76.731 C 321.009 76.731,320.934 76.835,320.934 76.963 C 320.934 77.091,320.822 77.239,320.684 77.291 C 320.546 77.344,320.434 77.502,320.434 77.643 C 320.434 77.783,320.359 77.898,320.267 77.898 C 320.175 77.898,320.100 78.011,320.100 78.148 C 320.100 78.286,320.025 78.399,319.933 78.399 C 319.842 78.399,319.766 78.503,319.766 78.631 C 319.766 78.759,319.654 78.907,319.516 78.959 C 319.379 79.012,319.266 79.170,319.266 79.311 C 319.266 79.451,319.205 79.566,319.130 79.566 C 319.056 79.566,318.892 79.829,318.766 80.150 C 318.640 80.471,318.465 80.734,318.378 80.734 C 318.172 80.734,317.777 81.254,317.770 81.534 C 317.767 81.653,317.577 81.938,317.348 82.167 C 317.118 82.396,316.931 82.677,316.931 82.790 C 316.931 82.903,316.781 83.104,316.597 83.236 C 316.414 83.368,316.264 83.648,316.264 83.857 C 316.264 84.066,316.178 84.237,316.073 84.237 C 315.830 84.237,315.442 84.745,315.435 85.073 C 315.432 85.212,315.242 85.466,315.013 85.638 C 314.783 85.811,314.595 86.075,314.595 86.225 C 314.595 86.375,314.445 86.607,314.262 86.739 C 314.078 86.871,313.928 87.150,313.928 87.360 C 313.928 87.569,313.848 87.740,313.750 87.740 C 313.468 87.740,313.094 88.186,313.094 88.522 C 313.094 88.691,312.907 88.969,312.677 89.141 C 312.448 89.314,312.260 89.578,312.260 89.728 C 312.260 89.878,312.110 90.110,311.927 90.242 C 311.743 90.374,311.593 90.653,311.593 90.863 C 311.593 91.072,311.513 91.243,311.414 91.243 C 311.163 91.243,310.759 91.675,310.759 91.944 C 310.759 92.068,310.539 92.410,310.271 92.704 C 310.002 92.998,309.734 93.390,309.676 93.575 C 309.617 93.760,309.499 93.912,309.413 93.912 C 309.328 93.912,309.258 93.992,309.258 94.090 C 309.258 94.189,309.164 94.374,309.049 94.502 C 308.554 95.054,308.424 95.242,308.424 95.406 C 308.424 95.501,308.349 95.580,308.257 95.580 C 308.165 95.580,308.090 95.730,308.090 95.913 C 308.090 96.099,307.979 96.247,307.840 96.247 C 307.702 96.247,307.590 96.359,307.590 96.497 C 307.590 96.635,307.515 96.747,307.423 96.747 C 307.331 96.747,307.256 96.897,307.256 97.081 C 307.256 97.264,307.181 97.415,307.089 97.415 C 306.997 97.415,306.922 97.519,306.922 97.647 C 306.922 97.775,306.810 97.922,306.672 97.975 C 306.535 98.028,306.422 98.186,306.422 98.327 C 306.422 98.467,306.347 98.582,306.255 98.582 C 306.163 98.582,306.088 98.663,306.088 98.761 C 306.088 98.859,305.995 99.044,305.880 99.172 C 305.385 99.724,305.254 99.913,305.254 100.076 C 305.254 100.172,305.179 100.250,305.088 100.250 C 304.996 100.250,304.921 100.366,304.921 100.508 C 304.921 100.650,304.733 100.940,304.504 101.153 C 304.274 101.366,304.087 101.662,304.087 101.812 C 304.087 101.962,304.012 102.085,303.920 102.085 C 303.828 102.085,303.753 102.190,303.753 102.317 C 303.753 102.445,303.641 102.593,303.503 102.646 C 303.365 102.699,303.253 102.838,303.252 102.956 C 303.252 103.073,303.027 103.432,302.752 103.753 C 302.477 104.074,302.252 104.390,302.252 104.454 C 302.252 104.519,302.064 104.760,301.835 104.989 C 301.606 105.218,301.418 105.484,301.418 105.580 C 301.418 105.676,301.339 105.755,301.243 105.755 C 301.017 105.755,300.250 106.522,300.250 106.748 C 300.250 106.844,300.194 106.923,300.125 106.923 C 299.912 106.923,299.083 107.701,299.083 107.901 C 299.083 108.005,298.970 108.090,298.832 108.090 C 298.695 108.090,298.582 108.165,298.582 108.257 C 298.582 108.349,298.481 108.424,298.356 108.424 C 298.232 108.424,297.928 108.611,297.680 108.841 C 297.433 109.070,297.122 109.258,296.989 109.258 C 296.856 109.258,296.747 109.333,296.747 109.425 C 296.747 109.516,296.635 109.591,296.497 109.591 C 296.359 109.591,296.247 109.666,296.247 109.758 C 296.247 109.850,296.097 109.925,295.913 109.925 C 295.728 109.925,295.580 110.036,295.580 110.175 C 295.580 110.331,295.422 110.425,295.163 110.425 C 294.933 110.425,294.746 110.500,294.746 110.592 C 294.746 110.684,294.483 110.759,294.162 110.759 C 293.841 110.759,293.578 110.834,293.578 110.926 C 293.578 111.018,293.398 111.093,293.179 111.093 C 292.959 111.093,292.736 111.205,292.684 111.343 C 292.624 111.499,292.369 111.593,292.008 111.593 C 291.690 111.593,291.383 111.668,291.326 111.760 C 291.269 111.852,290.890 111.927,290.482 111.927 C 290.075 111.927,289.741 112.002,289.741 112.093 C 289.741 112.185,289.326 112.260,288.819 112.260 C 288.153 112.260,287.869 112.330,287.800 112.510 C 287.722 112.715,287.311 112.761,285.553 112.761 C 284.231 112.761,283.403 112.825,283.403 112.927 C 283.403 113.020,282.958 113.094,282.402 113.094 L 281.401 113.094 281.401 115.596 L 281.401 118.098 284.737 118.098 L 288.073 118.098 288.073 118.932 C 288.073 119.391,287.998 119.766,287.907 119.766 C 287.814 119.766,287.740 120.205,287.740 120.749 C 287.740 121.469,287.673 121.758,287.490 121.828 C 287.319 121.894,287.239 122.161,287.239 122.670 C 287.239 123.081,287.164 123.463,287.073 123.520 C 286.981 123.576,286.906 123.994,286.906 124.447 C 286.906 124.900,286.831 125.271,286.739 125.271 C 286.647 125.271,286.572 125.525,286.572 125.834 C 286.572 126.144,286.460 126.491,286.322 126.606 C 286.184 126.720,286.072 127.067,286.072 127.377 C 286.072 127.686,285.997 127.940,285.905 127.940 C 285.813 127.940,285.738 128.203,285.738 128.524 C 285.738 128.845,285.663 129.108,285.571 129.108 C 285.480 129.108,285.405 129.338,285.405 129.620 C 285.405 129.902,285.292 130.245,285.154 130.382 C 285.017 130.520,284.904 130.815,284.904 131.038 C 284.904 131.261,284.829 131.443,284.737 131.443 C 284.646 131.443,284.570 131.626,284.570 131.850 C 284.570 132.074,284.495 132.304,284.404 132.360 C 284.312 132.417,284.237 132.684,284.237 132.954 C 284.237 133.279,284.152 133.445,283.987 133.445 C 283.849 133.445,283.736 133.590,283.736 133.768 C 283.736 133.946,283.661 134.138,283.570 134.195 C 283.478 134.252,283.403 134.444,283.403 134.622 C 283.403 134.800,283.328 134.946,283.236 134.946 C 283.144 134.946,283.069 135.085,283.069 135.256 C 283.069 135.427,282.882 135.707,282.652 135.879 C 282.423 136.052,282.235 136.345,282.235 136.530 C 282.235 136.716,282.048 137.009,281.818 137.181 C 281.589 137.354,281.401 137.618,281.401 137.768 C 281.401 137.918,281.251 138.150,281.068 138.282 C 280.884 138.414,280.734 138.618,280.734 138.736 C 280.734 138.853,280.655 138.949,280.560 138.949 C 280.333 138.949,279.566 139.716,279.566 139.942 C 279.566 140.038,279.488 140.117,279.392 140.117 C 279.165 140.117,278.399 140.884,278.399 141.110 C 278.399 141.206,278.286 141.284,278.148 141.284 C 278.011 141.284,277.898 141.359,277.898 141.451 C 277.898 141.543,277.748 141.618,277.565 141.618 C 277.381 141.618,277.231 141.693,277.231 141.785 C 277.231 141.877,277.118 141.952,276.981 141.952 C 276.843 141.952,276.731 142.064,276.731 142.202 C 276.731 142.341,276.582 142.452,276.397 142.452 C 276.214 142.452,276.063 142.527,276.063 142.619 C 276.063 142.711,275.951 142.786,275.813 142.786 C 275.676 142.786,275.563 142.861,275.563 142.952 C 275.563 143.044,275.410 143.119,275.224 143.119 C 275.038 143.119,274.842 143.232,274.789 143.369 C 274.736 143.507,274.551 143.620,274.377 143.620 C 274.204 143.620,274.062 143.695,274.062 143.786 C 274.062 143.878,273.930 143.954,273.770 143.956 C 273.304 143.960,272.161 144.401,272.094 144.603 C 272.060 144.704,271.776 144.787,271.462 144.787 C 271.149 144.787,270.892 144.862,270.892 144.954 C 270.892 145.046,270.597 145.121,270.235 145.121 C 269.873 145.121,269.531 145.196,269.475 145.288 C 269.418 145.379,269.081 145.455,268.726 145.455 C 268.371 145.455,267.968 145.567,267.830 145.705 C 267.663 145.872,267.245 145.955,266.567 145.955 C 266.003 145.955,265.555 146.029,265.555 146.122 C 265.555 146.221,264.915 146.289,263.970 146.289 C 263.025 146.289,262.385 146.356,262.385 146.455 C 262.385 146.565,257.381 146.622,247.706 146.622 C 238.032 146.622,233.028 146.565,233.028 146.455 C 233.028 146.364,232.769 146.289,232.454 146.289 C 232.138 146.289,231.833 146.214,231.776 146.122 C 231.720 146.030,231.528 145.955,231.350 145.955 C 231.172 145.955,231.026 145.875,231.026 145.776 C 231.026 145.545,230.601 145.121,230.371 145.121 C 230.272 145.121,230.192 144.858,230.192 144.537 C 230.192 144.216,230.117 143.953,230.025 143.953 C 229.915 143.953,229.858 136.753,229.858 122.686 L 229.858 101.418 236.697 101.418 C 241.145 101.418,243.536 101.476,243.536 101.585 C 243.536 101.689,244.509 101.751,246.122 101.751 C 247.734 101.751,248.707 101.814,248.707 101.918 C 248.707 102.010,249.112 102.085,249.607 102.085 C 250.253 102.085,250.534 102.156,250.602 102.335 C 250.658 102.480,250.907 102.585,251.194 102.585 C 251.467 102.585,251.736 102.661,251.793 102.752 C 251.850 102.844,252.117 102.919,252.387 102.919 C 252.657 102.919,252.877 102.994,252.877 103.086 C 252.877 103.178,253.065 103.253,253.294 103.253 C 253.554 103.253,253.711 103.347,253.711 103.503 C 253.711 103.641,253.824 103.753,253.962 103.753 C 254.099 103.753,254.212 103.828,254.212 103.920 C 254.212 104.012,254.330 104.087,254.474 104.087 C 254.774 104.087,255.213 104.476,255.213 104.742 C 255.213 104.840,255.293 104.921,255.391 104.921 C 255.642 104.921,255.957 105.263,256.280 105.888 C 256.431 106.182,256.629 106.422,256.718 106.422 C 256.808 106.422,256.881 106.610,256.881 106.839 C 256.881 107.068,256.956 107.256,257.048 107.256 C 257.139 107.256,257.214 107.402,257.214 107.580 C 257.214 107.758,257.289 107.950,257.381 108.007 C 257.473 108.063,257.548 108.333,257.548 108.606 C 257.548 108.892,257.653 109.142,257.798 109.197 C 257.978 109.266,258.048 109.547,258.048 110.193 C 258.048 110.688,258.123 111.093,258.215 111.093 C 258.318 111.093,258.382 111.982,258.382 113.428 C 258.382 114.874,258.446 115.763,258.549 115.763 C 258.648 115.763,258.716 116.403,258.716 117.348 L 258.716 118.932 260.884 118.932 L 263.053 118.932 263.053 98.832 L 263.053 78.732 260.884 78.732 L 258.716 78.732 258.716 80.307 C 258.716 81.177,258.641 81.928,258.549 81.985 C 258.451 82.045,258.382 83.015,258.382 84.330 C 258.382 85.714,258.318 86.572,258.215 86.572 C 258.123 86.572,258.048 87.011,258.048 87.555 C 258.048 88.275,257.981 88.564,257.798 88.634 C 257.652 88.690,257.548 88.940,257.548 89.236 C 257.548 89.514,257.473 89.741,257.381 89.741 C 257.289 89.741,257.214 89.887,257.214 90.065 C 257.214 90.243,257.139 90.435,257.048 90.492 C 256.956 90.549,256.881 90.741,256.881 90.919 C 256.881 91.097,256.811 91.243,256.725 91.243 C 256.640 91.243,256.518 91.407,256.454 91.607 C 256.293 92.116,254.396 93.912,254.021 93.912 C 253.851 93.912,253.711 94.024,253.711 94.162 C 253.711 94.317,253.554 94.412,253.294 94.412 C 253.065 94.412,252.877 94.469,252.877 94.538 C 252.877 94.687,251.686 95.079,251.232 95.079 C 251.059 95.079,250.823 95.192,250.709 95.329 C 250.571 95.495,250.198 95.580,249.604 95.580 C 249.111 95.580,248.707 95.655,248.707 95.746 C 248.707 95.849,247.873 95.913,246.539 95.913 C 245.204 95.913,244.370 95.977,244.370 96.080 C 244.370 96.189,241.840 96.247,237.114 96.247 L 229.858 96.247 229.858 76.897 C 229.858 64.109,229.915 57.548,230.025 57.548 C 230.117 57.548,230.192 57.395,230.192 57.207 C 230.192 56.631,231.086 55.713,231.646 55.713 C 231.861 55.713,232.080 55.601,232.133 55.463 C 232.206 55.274,232.511 55.213,233.379 55.213 C 234.034 55.213,234.529 55.141,234.529 55.046 C 234.529 54.936,238.699 54.879,246.706 54.879 C 254.712 54.879,258.882 54.936,258.882 55.046 C 258.882 55.149,259.804 55.213,261.313 55.213 C 263.251 55.213,263.794 55.263,263.994 55.463 C 264.168 55.637,264.595 55.713,265.400 55.713 C 266.059 55.713,266.555 55.785,266.555 55.880 C 266.555 55.972,266.931 56.047,267.389 56.047 C 267.848 56.047,268.224 56.122,268.224 56.214 C 268.224 56.305,268.561 56.380,268.974 56.380 C 269.530 56.380,269.725 56.445,269.725 56.631 C 269.725 56.805,269.901 56.881,270.309 56.881 C 270.630 56.881,270.892 56.956,270.892 57.048 C 270.892 57.139,271.080 57.214,271.309 57.214 C 271.539 57.214,271.726 57.289,271.726 57.381 C 271.726 57.473,271.989 57.548,272.310 57.548 C 272.718 57.548,272.894 57.623,272.894 57.798 C 272.894 57.937,273.042 58.048,273.228 58.048 C 273.411 58.048,273.561 58.123,273.561 58.215 C 273.561 58.307,273.674 58.382,273.812 58.382 C 273.949 58.382,274.062 58.457,274.062 58.549 C 274.062 58.641,274.208 58.716,274.387 58.716 C 274.566 58.716,274.772 58.810,274.846 58.924 C 274.919 59.039,275.204 59.246,275.480 59.383 C 276.019 59.653,276.397 59.962,276.397 60.133 C 276.397 60.307,276.858 60.717,277.052 60.717 C 277.151 60.717,277.231 60.774,277.231 60.842 C 277.232 61.056,278.010 61.885,278.210 61.885 C 278.314 61.885,278.399 61.981,278.399 62.098 C 278.399 62.216,278.549 62.420,278.732 62.552 C 278.916 62.684,279.066 62.892,279.066 63.014 C 279.066 63.136,279.254 63.409,279.483 63.622 C 279.712 63.834,279.900 64.127,279.900 64.271 C 279.900 64.416,279.975 64.580,280.067 64.637 C 280.158 64.694,280.234 64.886,280.234 65.064 C 280.234 65.242,280.346 65.388,280.484 65.388 C 280.639 65.388,280.734 65.545,280.734 65.805 C 280.734 66.034,280.809 66.222,280.901 66.222 C 280.992 66.222,281.068 66.368,281.068 66.546 C 281.068 66.724,281.143 66.916,281.234 66.972 C 281.326 67.029,281.401 67.216,281.401 67.387 C 281.401 67.559,281.514 67.812,281.651 67.949 C 281.789 68.087,281.902 68.430,281.902 68.712 C 281.902 68.994,281.977 69.224,282.068 69.224 C 282.160 69.224,282.235 69.445,282.235 69.715 C 282.235 69.985,282.310 70.252,282.402 70.309 C 282.494 70.365,282.569 70.672,282.569 70.991 C 282.569 71.352,282.663 71.606,282.819 71.666 C 282.989 71.731,283.069 71.997,283.069 72.495 C 283.069 72.898,283.144 73.228,283.236 73.228 C 283.329 73.228,283.403 73.673,283.403 74.229 C 283.403 74.785,283.477 75.229,283.570 75.229 C 283.661 75.229,283.736 75.628,283.736 76.115 C 283.736 76.635,283.837 77.134,283.981 77.324 C 284.139 77.533,284.228 78.049,284.232 78.774 C 284.235 79.410,284.309 79.900,284.404 79.900 C 284.503 79.900,284.570 80.512,284.570 81.401 C 284.570 82.227,284.641 82.902,284.727 82.902 C 284.813 82.902,284.907 83.184,284.936 83.528 L 284.987 84.153 287.114 84.200 L 289.241 84.247 289.241 82.490 C 289.241 81.431,289.175 80.734,289.074 80.734 C 288.975 80.734,288.907 80.121,288.907 79.227 C 288.907 78.042,288.854 77.700,288.657 77.625 C 288.459 77.549,288.407 77.201,288.407 75.962 C 288.407 75.029,288.340 74.395,288.240 74.395 C 288.141 74.395,288.073 73.784,288.073 72.894 C 288.073 72.004,288.005 71.393,287.907 71.393 C 287.807 71.393,287.740 70.753,287.740 69.808 C 287.740 68.511,287.694 68.224,287.490 68.224 C 287.285 68.224,287.239 67.936,287.239 66.639 C 287.239 65.694,287.172 65.054,287.073 65.054 C 286.973 65.054,286.906 64.415,286.906 63.470 C 286.906 62.524,286.838 61.885,286.739 61.885 C 286.640 61.885,286.572 61.273,286.572 60.384 C 286.572 59.160,286.526 58.882,286.322 58.882 C 286.117 58.882,286.072 58.595,286.072 57.298 C 286.072 56.353,286.004 55.713,285.905 55.713 C 285.805 55.713,285.738 55.074,285.738 54.128 C 285.738 53.183,285.671 52.544,285.571 52.544 C 285.474 52.544,285.405 51.988,285.405 51.209 L 285.405 49.875 250.864 49.875 C 221.825 49.875,216.287 49.838,216.094 49.646 C 215.935 49.486,215.840 48.770,215.779 47.269 C 215.589 42.546,215.428 40.548,215.221 40.342 C 215.076 40.197,215.013 39.486,215.013 38.008 C 215.013 36.771,214.943 35.840,214.846 35.780 C 214.748 35.719,214.679 34.748,214.679 33.429 C 214.679 31.586,214.634 31.165,214.429 31.086 C 214.224 31.007,214.178 30.589,214.178 28.766 C 214.178 27.463,214.109 26.499,214.012 26.439 C 213.914 26.379,213.845 25.439,213.845 24.187 C 213.845 22.934,213.775 21.995,213.678 21.935 C 213.581 21.875,213.511 20.939,213.511 19.694 C 213.511 17.997,213.460 17.513,213.261 17.348 C 213.123 17.234,213.011 17.037,213.011 16.910 C 213.011 16.716,205.966 16.681,166.972 16.681 L 120.934 16.681 120.934 19.002 C 120.934 20.711,120.879 21.342,120.726 21.393 C 120.575 21.443,120.502 22.132,120.461 23.867 C 120.431 25.190,120.337 26.343,120.253 26.430 C 120.169 26.518,120.100 27.583,120.100 28.797 C 120.100 30.090,120.031 31.049,119.933 31.109 C 119.835 31.170,119.764 32.187,119.761 33.579 C 119.757 35.396,119.699 36.022,119.511 36.270 C 119.325 36.516,119.266 37.109,119.266 38.721 C 119.266 39.959,119.196 40.891,119.099 40.951 C 119.001 41.011,118.932 41.998,118.932 43.346 C 118.932 44.693,118.862 45.709,118.761 45.809 C 118.655 45.916,118.607 46.925,118.636 48.470 L 118.682 50.959 120.183 51.010 C 121.009 51.038,121.929 51.015,122.227 50.960 L 122.769 50.861 122.769 49.355 C 122.769 48.239,122.834 47.785,123.019 47.599 C 123.210 47.409,123.269 46.933,123.269 45.609 C 123.269 44.561,123.336 43.870,123.436 43.870 C 123.534 43.870,123.603 43.282,123.603 42.440 C 123.603 41.392,123.670 40.944,123.853 40.760 C 124.024 40.590,124.103 40.168,124.103 39.438 C 124.103 38.834,124.176 38.365,124.270 38.365 C 124.362 38.365,124.437 37.957,124.437 37.458 C 124.437 36.959,124.512 36.504,124.604 36.447 C 124.696 36.390,124.771 36.043,124.771 35.675 C 124.771 35.302,124.882 34.894,125.021 34.755 C 125.158 34.618,125.271 34.252,125.271 33.943 C 125.271 33.634,125.346 33.334,125.438 33.278 C 125.530 33.221,125.605 32.954,125.605 32.684 C 125.605 32.414,125.680 32.193,125.771 32.193 C 125.863 32.193,125.938 31.939,125.938 31.628 C 125.938 31.278,126.034 31.025,126.188 30.966 C 126.326 30.913,126.439 30.717,126.439 30.531 C 126.439 30.344,126.514 30.192,126.606 30.192 C 126.697 30.192,126.772 30.042,126.772 29.858 C 126.772 29.675,126.847 29.525,126.939 29.525 C 127.031 29.525,127.106 29.337,127.106 29.108 C 127.106 28.878,127.191 28.691,127.296 28.691 C 127.523 28.691,127.927 28.191,127.935 27.900 C 127.941 27.650,129.535 26.022,129.773 26.022 C 129.866 26.022,129.942 25.921,129.942 25.798 C 129.942 25.675,130.280 25.399,130.695 25.186 C 131.109 24.973,131.531 24.699,131.632 24.576 C 131.734 24.454,131.921 24.354,132.047 24.354 C 132.173 24.354,132.277 24.297,132.277 24.227 C 132.277 24.089,133.454 23.686,133.859 23.686 C 133.998 23.686,134.112 23.574,134.112 23.436 C 134.112 23.261,134.288 23.186,134.696 23.186 C 135.017 23.186,135.279 23.111,135.279 23.019 C 135.279 22.927,135.655 22.852,136.113 22.852 C 136.572 22.852,136.947 22.777,136.947 22.686 C 136.947 22.593,137.388 22.519,137.936 22.519 C 138.593 22.519,139.009 22.435,139.176 22.269 C 139.368 22.076,139.853 22.018,141.272 22.018 C 142.392 22.018,143.119 21.953,143.119 21.852 C 143.119 21.743,145.396 21.685,149.615 21.685 C 153.765 21.685,156.148 21.745,156.214 21.852 C 156.270 21.943,156.725 22.018,157.224 22.018 C 157.723 22.018,158.132 22.082,158.132 22.160 C 158.132 22.238,158.470 22.441,158.882 22.611 C 159.464 22.851,159.633 23.007,159.633 23.304 C 159.633 23.514,159.708 23.686,159.800 23.686 C 159.892 23.686,159.967 23.945,159.967 24.260 C 159.967 24.576,160.042 24.881,160.133 24.937 C 160.365 25.080,160.365 108.197,160.133 108.340 C 160.042 108.397,159.967 108.702,159.967 109.017 C 159.967 109.333,159.892 109.591,159.800 109.591 C 159.708 109.591,159.633 109.779,159.633 110.008 C 159.633 110.238,159.555 110.425,159.459 110.425 C 159.363 110.425,159.104 110.594,158.883 110.801 C 158.150 111.486,157.982 111.593,157.638 111.593 C 157.451 111.593,157.298 111.668,157.298 111.760 C 157.298 111.852,157.035 111.927,156.714 111.927 C 156.393 111.927,156.130 112.002,156.130 112.093 C 156.130 112.186,155.689 112.260,155.141 112.260 C 154.485 112.260,154.068 112.344,153.902 112.510 C 153.698 112.715,153.086 112.761,150.564 112.761 C 148.685 112.761,147.436 112.826,147.373 112.927 C 147.308 113.032,145.620 113.094,142.859 113.094 L 138.449 113.094 138.449 115.596 L 138.449 118.098 145.361 118.098 C 149.790 118.098,152.311 118.038,152.377 117.932 C 152.519 117.701,181.759 117.701,181.902 117.932 C 181.968 118.038,184.489 118.098,188.917 118.098 L 195.830 118.098 195.830 115.596 L 195.830 113.094 191.586 113.094 C 188.937 113.094,187.304 113.032,187.239 112.927 C 187.176 112.826,185.899 112.761,183.965 112.761 C 181.368 112.761,180.748 112.715,180.543 112.510 C 180.377 112.344,179.961 112.260,179.304 112.260 C 178.756 112.260,178.315 112.186,178.315 112.093 C 178.315 112.002,178.053 111.927,177.731 111.927 C 177.410 111.927,177.148 111.852,177.148 111.760 C 177.148 111.668,176.960 111.593,176.731 111.593 C 176.471 111.593,176.314 111.498,176.314 111.343 C 176.314 111.204,176.165 111.093,175.980 111.093 C 175.796 111.093,175.646 111.018,175.646 110.926 C 175.646 110.834,175.566 110.759,175.468 110.759 C 175.178 110.759,174.812 110.308,174.812 109.951 C 174.812 109.768,174.719 109.588,174.604 109.550 C 174.438 109.494,174.395 100.764,174.395 66.639 C 174.395 32.514,174.438 23.783,174.604 23.728 C 174.719 23.690,174.812 23.552,174.812 23.422 C 174.812 23.292,174.887 23.186,174.979 23.186 C 175.071 23.186,175.146 23.075,175.146 22.939 C 175.146 22.803,175.334 22.645,175.563 22.587 C 175.792 22.530,175.980 22.378,175.980 22.250 C 175.980 22.080,176.225 22.018,176.897 22.018 C 177.402 22.018,177.815 21.943,177.815 21.852 C 177.815 21.622,191.101 21.622,191.243 21.852 C 191.301 21.946,192.138 22.018,193.183 22.018 C 194.593 22.018,195.078 22.076,195.270 22.269 C 195.436 22.435,195.852 22.519,196.509 22.519 C 197.057 22.519,197.498 22.593,197.498 22.686 C 197.498 22.777,197.836 22.852,198.249 22.852 C 198.661 22.852,198.999 22.927,198.999 23.019 C 198.999 23.111,199.254 23.186,199.565 23.186 C 199.914 23.186,200.168 23.282,200.227 23.436 C 200.280 23.574,200.471 23.686,200.652 23.686 C 200.833 23.686,201.028 23.761,201.084 23.853 C 201.141 23.945,201.334 24.020,201.513 24.020 C 201.936 24.020,202.406 24.281,203.240 24.979 C 203.377 25.094,203.567 25.188,203.663 25.188 C 203.758 25.188,203.837 25.263,203.837 25.354 C 203.837 25.446,203.987 25.521,204.170 25.521 C 204.354 25.521,204.504 25.602,204.504 25.700 C 204.504 25.894,204.914 26.355,205.088 26.355 C 205.227 26.355,205.671 26.800,205.671 26.939 C 205.671 26.998,205.765 27.151,205.880 27.279 C 206.328 27.779,206.505 28.013,206.505 28.107 C 206.505 28.160,206.656 28.365,206.839 28.562 C 207.023 28.759,207.173 29.056,207.173 29.222 C 207.173 29.389,207.285 29.525,207.423 29.525 C 207.562 29.525,207.673 29.673,207.673 29.858 C 207.673 30.042,207.748 30.192,207.840 30.192 C 207.932 30.192,208.007 30.413,208.007 30.682 C 208.007 30.952,208.082 31.219,208.173 31.276 C 208.265 31.333,208.340 31.562,208.340 31.786 C 208.340 32.037,208.436 32.193,208.590 32.193 C 208.765 32.193,208.841 32.370,208.841 32.777 C 208.841 33.098,208.916 33.361,209.008 33.361 C 209.099 33.361,209.174 33.694,209.174 34.102 C 209.174 34.509,209.249 34.889,209.341 34.946 C 209.433 35.002,209.508 35.336,209.508 35.686 C 209.508 36.049,209.616 36.412,209.758 36.530 C 209.928 36.671,210.008 37.049,210.008 37.709 C 210.008 38.242,210.083 38.726,210.175 38.782 C 210.267 38.839,210.342 39.402,210.342 40.033 C 210.342 40.665,210.417 41.228,210.509 41.284 C 210.601 41.341,210.676 42.016,210.676 42.784 C 210.676 43.802,210.743 44.247,210.926 44.430 C 211.117 44.621,211.176 45.098,211.176 46.443 C 211.176 47.508,211.242 48.207,211.343 48.207 C 211.435 48.207,211.510 48.582,211.510 49.041 L 211.510 49.875 206.088 49.875 L 200.667 49.875 200.667 52.377 L 200.667 54.879 204.170 54.879 C 206.394 54.879,207.673 54.940,207.673 55.046 C 207.673 55.147,208.398 55.213,209.513 55.213 C 210.995 55.213,211.372 55.261,211.449 55.463 C 211.512 55.625,211.770 55.713,212.185 55.713 C 212.537 55.713,212.871 55.788,212.927 55.880 C 212.984 55.972,213.214 56.047,213.438 56.047 C 213.662 56.047,213.845 56.122,213.845 56.214 C 213.845 56.305,213.957 56.380,214.095 56.380 C 214.233 56.380,214.345 56.455,214.345 56.547 C 214.345 56.638,214.608 56.992,214.929 57.332 C 215.385 57.815,215.513 58.090,215.513 58.584 C 215.513 58.931,215.588 59.216,215.680 59.216 C 215.790 59.216,215.847 73.200,215.847 100.834 C 215.847 128.468,215.790 142.452,215.680 142.452 C 215.588 142.452,215.513 142.790,215.513 143.203 C 215.513 143.759,215.448 143.953,215.263 143.953 C 215.121 143.953,215.013 144.103,215.013 144.299 C 215.013 144.708,214.642 145.121,214.274 145.121 C 214.130 145.121,214.012 145.196,214.012 145.288 C 214.012 145.379,213.908 145.455,213.782 145.455 C 213.656 145.455,213.459 145.567,213.344 145.705 C 213.230 145.842,212.925 145.955,212.667 145.955 C 212.408 145.955,212.150 146.030,212.093 146.122 C 212.037 146.214,211.511 146.289,210.926 146.289 C 210.340 146.289,209.815 146.364,209.758 146.455 C 209.694 146.560,207.977 146.622,205.161 146.622 L 200.667 146.622 200.667 149.374 L 200.667 152.127 243.953 152.127 L 287.239 152.127 287.239 151.561 C 287.239 151.212,287.335 150.958,287.490 150.899 C 287.677 150.827,287.740 150.528,287.740 149.713 C 287.740 149.098,287.812 148.624,287.907 148.624 C 288.002 148.624,288.073 148.127,288.073 147.466 C 288.073 146.829,288.148 146.262,288.240 146.205 C 288.332 146.148,288.407 145.628,288.407 145.048 C 288.407 144.315,288.483 143.931,288.657 143.786 C 288.835 143.639,288.907 143.248,288.907 142.432 C 288.907 141.778,288.979 141.284,289.074 141.284 C 289.169 141.284,289.241 140.787,289.241 140.127 C 289.241 139.490,289.316 138.922,289.408 138.866 C 289.500 138.809,289.575 138.277,289.575 137.683 C 289.575 136.877,289.638 136.579,289.825 136.507 C 290.014 136.435,290.075 136.130,290.075 135.262 C 290.075 134.606,290.147 134.112,290.242 134.112 C 290.337 134.112,290.409 133.611,290.409 132.944 C 290.409 132.277,290.480 131.776,290.575 131.776 C 290.671 131.776,290.742 131.282,290.742 130.627 C 290.742 129.759,290.804 129.453,290.992 129.381 C 291.179 129.309,291.243 129.011,291.243 128.205 C 291.243 127.611,291.318 127.079,291.410 127.023 C 291.501 126.966,291.576 126.440,291.576 125.855 C 291.576 125.269,291.651 124.744,291.743 124.687 C 291.835 124.631,291.910 124.061,291.910 123.421 C 291.910 122.541,291.971 122.235,292.160 122.162 C 292.349 122.090,292.410 121.784,292.410 120.916 C 292.410 120.261,292.482 119.766,292.577 119.766 C 292.669 119.766,292.744 119.391,292.744 118.932 L 292.744 118.098 305.421 118.098 L 318.098 118.098 318.098 115.596 L 318.098 113.094 317.515 113.094 C 317.193 113.094,316.931 113.019,316.931 112.927 C 316.931 112.832,316.430 112.761,315.763 112.761 C 314.836 112.761,314.595 112.709,314.595 112.510 C 314.595 112.336,314.419 112.260,314.012 112.260 C 313.691 112.260,313.428 112.185,313.428 112.093 C 313.428 112.002,313.240 111.927,313.011 111.927 C 312.781 111.927,312.594 111.852,312.594 111.760 C 312.594 111.668,312.444 111.593,312.260 111.593 C 312.075 111.593,311.927 111.482,311.927 111.343 C 311.927 111.205,311.789 111.093,311.620 111.093 C 311.216 111.093,310.046 109.968,309.747 109.292 C 309.616 108.998,309.453 108.757,309.384 108.757 C 309.314 108.757,309.258 108.642,309.258 108.502 C 309.258 108.361,309.145 108.203,309.008 108.150 C 308.529 107.967,308.661 105.209,309.174 104.655 C 309.404 104.407,309.591 104.103,309.591 103.979 C 309.591 103.855,309.666 103.753,309.758 103.753 C 309.850 103.753,309.925 103.614,309.925 103.443 C 309.925 103.272,310.113 102.992,310.342 102.819 C 310.571 102.647,310.759 102.384,310.759 102.235 C 310.759 102.086,310.929 101.785,311.138 101.566 C 311.346 101.347,311.622 100.961,311.750 100.709 C 311.878 100.457,312.045 100.250,312.122 100.250 C 312.198 100.250,312.260 100.170,312.260 100.071 C 312.260 99.973,312.354 99.788,312.469 99.660 C 312.964 99.108,313.094 98.920,313.094 98.756 C 313.094 98.660,313.169 98.582,313.261 98.582 C 313.353 98.582,313.428 98.473,313.428 98.341 C 313.428 98.208,313.616 97.896,313.845 97.649 C 314.074 97.401,314.262 97.097,314.262 96.973 C 314.262 96.849,314.337 96.747,314.429 96.747 C 314.520 96.747,314.595 96.635,314.595 96.497 C 314.595 96.359,314.653 96.247,314.724 96.247 C 314.795 96.247,314.995 95.984,315.168 95.663 C 315.341 95.342,315.545 95.079,315.623 95.079 C 315.700 95.079,315.763 94.963,315.763 94.821 C 315.763 94.679,315.951 94.389,316.180 94.176 C 316.410 93.964,316.597 93.667,316.597 93.517 C 316.597 93.367,316.672 93.244,316.764 93.244 C 316.856 93.244,316.931 93.140,316.931 93.012 C 316.931 92.884,317.043 92.736,317.181 92.684 C 317.319 92.631,317.431 92.473,317.431 92.332 C 317.431 92.192,317.506 92.077,317.598 92.077 C 317.690 92.077,317.765 91.964,317.765 91.827 C 317.765 91.689,317.840 91.576,317.932 91.576 C 318.023 91.576,318.098 91.389,318.098 91.159 C 318.098 90.930,318.179 90.742,318.277 90.742 C 318.547 90.742,318.932 90.301,318.932 89.992 C 318.932 89.682,319.318 89.241,319.588 89.241 C 319.686 89.241,319.766 89.070,319.766 88.861 C 319.766 88.652,319.917 88.372,320.100 88.240 C 320.284 88.108,320.434 87.829,320.434 87.620 C 320.434 87.410,320.514 87.239,320.612 87.239 C 320.883 87.239,321.268 86.798,321.268 86.489 C 321.268 86.179,321.653 85.738,321.923 85.738 C 322.021 85.738,322.102 85.602,322.102 85.436 C 322.102 85.270,322.252 84.973,322.435 84.776 C 322.619 84.579,322.769 84.357,322.769 84.284 C 322.769 84.210,322.957 83.948,323.186 83.700 C 323.415 83.453,323.603 83.204,323.603 83.148 C 323.603 83.092,323.697 82.941,323.812 82.813 C 324.191 82.390,324.351 82.157,324.604 81.660 C 324.741 81.390,325.023 80.985,325.229 80.760 C 325.436 80.535,325.605 80.250,325.605 80.126 C 325.605 80.002,325.680 79.900,325.771 79.900 C 325.863 79.900,325.938 79.819,325.938 79.721 C 325.938 79.623,326.032 79.438,326.147 79.310 C 326.642 78.758,326.772 78.569,326.772 78.406 C 326.772 78.310,326.847 78.232,326.939 78.232 C 327.031 78.232,327.106 78.116,327.106 77.974 C 327.106 77.832,327.294 77.542,327.523 77.329 C 327.752 77.116,327.940 76.820,327.940 76.670 C 327.940 76.520,328.015 76.397,328.107 76.397 C 328.198 76.397,328.274 76.292,328.274 76.165 C 328.274 76.037,328.386 75.889,328.524 75.836 C 328.661 75.783,328.774 75.625,328.774 75.485 C 328.774 75.344,328.849 75.229,328.941 75.229 C 329.033 75.229,329.108 75.117,329.108 74.979 C 329.108 74.842,329.183 74.729,329.274 74.729 C 329.366 74.729,329.441 74.579,329.441 74.395 C 329.441 74.210,329.552 74.062,329.691 74.062 C 329.829 74.062,329.942 73.949,329.942 73.812 C 329.942 73.674,330.017 73.561,330.108 73.561 C 330.200 73.561,330.275 73.411,330.275 73.228 C 330.275 73.044,330.350 72.894,330.442 72.894 C 330.534 72.894,330.609 72.781,330.609 72.644 C 330.609 72.506,330.721 72.394,330.859 72.394 C 330.997 72.394,331.109 72.506,331.109 72.644 C 331.109 72.781,331.184 72.894,331.276 72.894 C 331.368 72.894,331.443 73.017,331.443 73.167 C 331.443 73.317,331.631 73.614,331.860 73.826 C 332.089 74.039,332.277 74.329,332.277 74.471 C 332.277 74.613,332.352 74.729,332.444 74.729 C 332.535 74.729,332.611 74.809,332.611 74.908 C 332.611 75.006,332.704 75.191,332.819 75.319 C 333.314 75.871,333.445 76.060,333.445 76.223 C 333.445 76.319,333.520 76.397,333.611 76.397 C 333.703 76.397,333.778 76.520,333.778 76.670 C 333.778 76.820,333.966 77.116,334.195 77.329 C 334.425 77.542,334.612 77.832,334.612 77.974 C 334.612 78.116,334.687 78.232,334.779 78.232 C 334.871 78.232,334.946 78.312,334.946 78.411 C 334.946 78.509,335.040 78.694,335.154 78.822 C 335.649 79.374,335.780 79.562,335.780 79.726 C 335.780 79.822,335.855 79.900,335.947 79.900 C 336.038 79.900,336.113 80.023,336.113 80.173 C 336.113 80.323,336.301 80.619,336.530 80.832 C 336.760 81.045,336.947 81.320,336.947 81.445 C 336.947 81.570,337.083 81.817,337.248 81.995 C 337.413 82.173,337.692 82.563,337.868 82.861 C 338.043 83.159,338.246 83.403,338.318 83.403 C 338.390 83.403,338.449 83.542,338.449 83.713 C 338.449 83.884,338.636 84.164,338.866 84.336 C 339.095 84.509,339.285 84.763,339.288 84.902 C 339.295 85.230,339.683 85.738,339.927 85.738 C 340.031 85.738,340.117 85.909,340.117 86.118 C 340.117 86.327,340.267 86.607,340.450 86.739 C 340.634 86.871,340.784 87.102,340.784 87.253 C 340.784 87.403,340.972 87.667,341.201 87.839 C 341.430 88.012,341.618 88.290,341.618 88.459 C 341.618 88.795,341.992 89.241,342.273 89.241 C 342.372 89.241,342.452 89.412,342.452 89.621 C 342.452 89.830,342.602 90.110,342.786 90.242 C 342.969 90.374,343.119 90.605,343.119 90.756 C 343.119 90.906,343.307 91.170,343.536 91.342 C 343.766 91.515,343.953 91.793,343.953 91.961 C 343.953 92.298,344.327 92.744,344.609 92.744 C 344.707 92.744,344.787 92.915,344.787 93.124 C 344.787 93.333,344.937 93.613,345.121 93.745 C 345.304 93.877,345.455 94.108,345.455 94.259 C 345.455 94.409,345.642 94.673,345.872 94.845 C 346.101 95.017,346.289 95.310,346.289 95.496 C 346.289 95.682,346.476 95.975,346.706 96.147 C 346.935 96.319,347.123 96.600,347.123 96.771 C 347.123 96.941,347.185 97.081,347.261 97.081 C 347.337 97.081,347.505 97.287,347.633 97.540 C 347.761 97.792,348.037 98.177,348.245 98.396 C 348.453 98.615,348.624 98.900,348.624 99.029 C 348.624 99.158,348.812 99.466,349.041 99.714 C 349.270 99.961,349.458 100.258,349.458 100.374 C 349.458 100.489,349.519 100.584,349.594 100.584 C 349.669 100.584,349.855 100.847,350.008 101.168 C 350.161 101.489,350.344 101.751,350.415 101.751 C 350.486 101.751,350.652 101.995,350.783 102.294 C 350.914 102.592,351.102 102.927,351.199 103.038 C 351.688 103.598,351.793 103.753,351.793 103.913 C 351.793 104.009,351.868 104.087,351.960 104.087 C 352.052 104.087,352.127 104.181,352.127 104.297 C 352.127 104.413,352.314 104.710,352.544 104.957 C 352.773 105.204,352.961 105.522,352.961 105.664 C 352.961 105.806,353.036 105.922,353.128 105.922 C 353.219 105.922,353.294 106.034,353.294 106.172 C 353.294 106.309,353.407 106.422,353.545 106.422 C 353.682 106.422,353.795 106.558,353.795 106.724 C 353.795 106.890,353.945 107.187,354.128 107.384 C 354.312 107.581,354.462 107.896,354.462 108.083 C 354.462 108.275,354.572 108.424,354.712 108.424 C 355.107 108.424,355.009 109.127,354.545 109.627 C 354.316 109.875,354.128 110.123,354.128 110.180 C 354.128 110.375,353.651 110.759,353.407 110.759 C 353.273 110.759,352.986 110.945,352.770 111.173 C 352.554 111.401,352.246 111.589,352.085 111.590 C 351.925 111.592,351.793 111.668,351.793 111.760 C 351.793 111.852,351.530 111.927,351.209 111.927 C 350.888 111.927,350.626 112.002,350.626 112.093 C 350.626 112.185,350.323 112.260,349.953 112.260 C 349.509 112.260,349.248 112.345,349.185 112.510 C 349.109 112.708,348.761 112.761,347.522 112.761 C 346.588 112.761,345.955 112.828,345.955 112.927 C 345.955 113.019,345.767 113.094,345.538 113.094 L 345.121 113.094 345.121 115.596 L 345.121 118.098 350.542 118.098 C 354.045 118.098,355.963 118.039,355.963 117.932 C 355.963 117.823,358.882 117.765,364.387 117.765 C 369.892 117.765,372.811 117.823,372.811 117.932 C 372.811 118.040,375.341 118.098,380.067 118.098 L 387.323 118.098 387.323 115.596 L 387.323 113.094 384.414 113.094 C 382.654 113.094,381.464 113.028,381.401 112.927 C 381.342 112.832,380.488 112.761,379.408 112.761 C 377.881 112.761,377.498 112.712,377.421 112.510 C 377.358 112.345,377.096 112.260,376.652 112.260 C 376.283 112.260,375.980 112.185,375.980 112.093 C 375.980 112.002,375.717 111.927,375.396 111.927 C 375.075 111.927,374.812 111.852,374.812 111.760 C 374.812 111.668,374.625 111.593,374.395 111.593 C 374.136 111.593,373.978 111.498,373.978 111.343 C 373.978 111.205,373.866 111.093,373.728 111.093 C 373.590 111.093,373.478 111.018,373.478 110.926 C 373.478 110.834,373.360 110.759,373.216 110.759 C 372.916 110.759,372.477 110.369,372.477 110.104 C 372.477 110.005,372.421 109.925,372.352 109.925 C 372.182 109.924,371.309 109.165,371.309 109.018 C 371.309 108.953,371.216 108.796,371.101 108.668 C 370.623 108.135,370.475 107.930,370.475 107.800 C 370.475 107.725,370.325 107.555,370.142 107.423 C 369.958 107.291,369.807 107.068,369.805 106.927 C 369.804 106.787,369.616 106.495,369.388 106.279 C 369.161 106.063,368.974 105.744,368.974 105.570 C 368.974 105.397,368.880 105.254,368.765 105.254 C 368.649 105.254,368.448 105.010,368.316 104.712 C 368.185 104.414,367.998 104.079,367.900 103.967 C 367.412 103.408,367.306 103.253,367.306 103.093 C 367.306 102.997,367.231 102.919,367.139 102.919 C 367.048 102.919,366.972 102.769,366.972 102.585 C 366.972 102.402,366.897 102.252,366.806 102.252 C 366.714 102.252,366.639 102.139,366.639 102.002 C 366.639 101.864,366.526 101.751,366.389 101.751 C 366.250 101.751,366.138 101.603,366.138 101.418 C 366.138 101.234,366.063 101.084,365.972 101.084 C 365.880 101.084,365.805 100.972,365.805 100.834 C 365.805 100.696,365.730 100.584,365.638 100.584 C 365.546 100.584,365.471 100.469,365.471 100.328 C 365.471 100.188,365.359 100.030,365.221 99.977 C 365.083 99.924,364.971 99.776,364.971 99.649 C 364.971 99.521,364.896 99.416,364.804 99.416 C 364.712 99.416,364.637 99.266,364.637 99.083 C 364.637 98.899,364.562 98.749,364.470 98.749 C 364.379 98.749,364.304 98.636,364.304 98.499 C 364.304 98.361,364.191 98.249,364.053 98.249 C 363.916 98.249,363.803 98.113,363.803 97.946 C 363.803 97.780,363.653 97.483,363.470 97.286 C 363.286 97.089,363.136 96.823,363.136 96.694 C 363.136 96.566,362.948 96.319,362.719 96.147 C 362.490 95.975,362.300 95.721,362.297 95.582 C 362.290 95.254,361.902 94.746,361.658 94.746 C 361.553 94.746,361.468 94.575,361.468 94.365 C 361.468 94.156,361.318 93.877,361.134 93.745 C 360.951 93.613,360.801 93.381,360.801 93.231 C 360.801 93.081,360.613 92.817,360.384 92.644 C 360.154 92.472,359.967 92.193,359.967 92.025 C 359.967 91.689,359.593 91.243,359.311 91.243 C 359.213 91.243,359.133 91.072,359.133 90.863 C 359.133 90.653,358.982 90.374,358.799 90.242 C 358.616 90.110,358.464 89.887,358.463 89.746 C 358.461 89.606,358.273 89.314,358.045 89.098 C 357.818 88.882,357.631 88.581,357.631 88.429 C 357.631 88.277,357.444 88.012,357.214 87.839 C 356.985 87.667,356.797 87.387,356.797 87.216 C 356.797 87.045,356.736 86.906,356.661 86.906 C 356.587 86.906,356.400 86.643,356.247 86.322 C 356.094 86.001,355.911 85.738,355.840 85.738 C 355.769 85.738,355.604 85.494,355.472 85.196 C 355.341 84.898,355.154 84.563,355.056 84.451 C 354.568 83.892,354.462 83.737,354.462 83.577 C 354.462 83.481,354.387 83.403,354.295 83.403 C 354.204 83.403,354.128 83.288,354.128 83.147 C 354.128 83.007,354.016 82.849,353.878 82.796 C 353.741 82.743,353.628 82.595,353.628 82.468 C 353.628 82.340,353.553 82.235,353.461 82.235 C 353.369 82.235,353.294 82.085,353.294 81.902 C 353.294 81.718,353.219 81.568,353.128 81.568 C 353.036 81.568,352.961 81.455,352.961 81.318 C 352.961 81.180,352.848 81.068,352.711 81.068 C 352.573 81.068,352.460 80.932,352.460 80.765 C 352.460 80.599,352.310 80.302,352.127 80.105 C 351.943 79.908,351.793 79.642,351.793 79.513 C 351.793 79.385,351.606 79.138,351.376 78.966 C 351.147 78.794,350.957 78.540,350.954 78.401 C 350.947 78.073,350.559 77.565,350.315 77.565 C 350.211 77.565,350.125 77.394,350.125 77.184 C 350.125 76.975,349.975 76.696,349.791 76.564 C 349.608 76.432,349.458 76.200,349.458 76.050 C 349.458 75.900,349.270 75.636,349.041 75.463 C 348.812 75.291,348.624 75.013,348.624 74.844 C 348.624 74.508,348.250 74.062,347.969 74.062 C 347.870 74.062,347.790 73.891,347.790 73.682 C 347.790 73.472,347.640 73.193,347.456 73.061 C 347.273 72.929,347.123 72.697,347.123 72.547 C 347.123 72.397,346.935 72.133,346.706 71.960 C 346.476 71.788,346.289 71.510,346.289 71.341 C 346.289 71.005,345.915 70.559,345.633 70.559 C 345.535 70.559,345.455 70.371,345.455 70.142 C 345.455 69.912,345.392 69.725,345.316 69.725 C 345.240 69.725,345.072 69.518,344.944 69.266 C 344.816 69.014,344.541 68.628,344.332 68.409 C 344.124 68.190,343.953 67.906,343.953 67.776 C 343.953 67.647,343.766 67.339,343.536 67.092 C 343.307 66.845,343.119 66.548,343.119 66.432 C 343.119 66.316,343.044 66.222,342.952 66.222 C 342.861 66.222,342.786 66.120,342.786 65.996 C 342.786 65.872,342.598 65.568,342.369 65.320 C 342.139 65.073,341.952 64.761,341.952 64.629 C 341.952 64.496,341.877 64.387,341.785 64.387 C 341.693 64.387,341.618 64.274,341.618 64.137 C 341.618 63.999,341.560 63.887,341.489 63.887 C 341.418 63.887,341.219 63.624,341.046 63.303 C 340.873 62.982,340.668 62.719,340.591 62.719 C 340.514 62.719,340.450 62.574,340.450 62.397 C 340.450 62.221,340.263 61.928,340.033 61.748 C 339.804 61.567,339.616 61.313,339.616 61.183 C 339.616 61.053,339.466 60.786,339.283 60.589 C 339.099 60.392,338.949 60.169,338.949 60.094 C 338.949 60.019,339.099 59.849,339.283 59.716 C 339.466 59.584,339.616 59.305,339.616 59.096 C 339.616 58.887,339.697 58.716,339.795 58.716 C 340.032 58.716,340.312 58.407,340.617 57.807 C 340.755 57.537,341.036 57.132,341.243 56.907 C 341.449 56.682,341.618 56.397,341.618 56.273 C 341.618 56.148,341.677 56.047,341.749 56.047 C 341.821 56.047,342.023 55.803,342.199 55.505 C 342.375 55.206,342.654 54.817,342.819 54.639 C 342.984 54.461,343.119 54.180,343.119 54.014 C 343.119 53.847,343.205 53.711,343.309 53.711 C 343.553 53.711,343.941 53.203,343.948 52.875 C 343.951 52.737,344.141 52.482,344.370 52.310 C 344.600 52.138,344.787 51.874,344.787 51.723 C 344.787 51.573,344.937 51.342,345.121 51.209 C 345.304 51.077,345.455 50.905,345.455 50.828 C 345.455 50.661,346.316 49.483,346.497 49.402 C 346.566 49.372,346.622 49.237,346.622 49.102 C 346.622 48.968,346.810 48.684,347.039 48.472 C 347.269 48.259,347.456 47.962,347.456 47.812 C 347.456 47.662,347.531 47.540,347.623 47.540 C 347.715 47.540,347.790 47.435,347.790 47.307 C 347.790 47.179,347.902 47.032,348.040 46.979 C 348.178 46.926,348.290 46.768,348.290 46.627 C 348.290 46.487,348.365 46.372,348.457 46.372 C 348.549 46.372,348.624 46.259,348.624 46.122 C 348.624 45.984,348.699 45.872,348.791 45.872 C 348.882 45.872,348.957 45.684,348.957 45.455 C 348.957 45.225,349.038 45.038,349.136 45.038 C 349.383 45.038,349.790 44.608,349.797 44.341 C 349.803 44.064,350.196 43.536,350.395 43.536 C 350.477 43.536,350.652 43.292,350.784 42.994 C 350.916 42.696,351.197 42.265,351.408 42.037 C 351.620 41.808,351.793 41.561,351.793 41.488 C 351.793 41.414,351.943 41.193,352.127 40.996 C 352.310 40.799,352.460 40.502,352.460 40.336 C 352.460 40.169,352.546 40.033,352.651 40.033 C 352.894 40.033,353.282 39.525,353.289 39.197 C 353.292 39.058,353.482 38.804,353.711 38.632 C 353.941 38.459,354.128 38.213,354.128 38.084 C 354.128 37.955,354.316 37.662,354.545 37.433 C 354.775 37.203,354.962 36.923,354.962 36.810 C 354.962 36.697,355.113 36.496,355.296 36.364 C 355.480 36.231,355.630 36.060,355.630 35.982 C 355.630 35.815,356.491 34.637,356.672 34.557 C 356.741 34.526,356.797 34.399,356.797 34.273 C 356.797 34.148,356.985 33.843,357.214 33.596 C 357.444 33.348,357.631 33.044,357.631 32.920 C 357.631 32.796,357.706 32.694,357.798 32.694 C 357.890 32.694,357.965 32.613,357.965 32.515 C 357.965 32.417,358.059 32.232,358.173 32.104 C 358.668 31.552,358.799 31.363,358.799 31.200 C 358.799 31.104,358.874 31.026,358.966 31.026 C 359.058 31.026,359.133 30.838,359.133 30.609 C 359.133 30.379,359.218 30.192,359.322 30.192 C 359.597 30.192,360.300 29.324,360.300 28.982 C 360.300 28.822,360.381 28.691,360.479 28.691 C 360.666 28.691,361.134 28.283,361.134 28.120 C 361.134 27.970,363.172 26.022,363.329 26.022 C 363.406 26.022,363.470 25.941,363.470 25.843 C 363.470 25.596,363.899 25.189,364.167 25.182 C 364.468 25.175,364.971 24.776,364.971 24.544 C 364.971 24.439,365.158 24.354,365.388 24.354 C 365.617 24.354,365.805 24.293,365.805 24.218 C 365.805 24.143,366.071 23.978,366.397 23.850 C 366.722 23.722,367.069 23.521,367.168 23.402 C 367.266 23.283,367.525 23.186,367.744 23.186 C 367.962 23.186,368.140 23.111,368.140 23.019 C 368.140 22.927,368.328 22.852,368.557 22.852 C 368.786 22.852,368.974 22.777,368.974 22.686 C 368.974 22.594,369.202 22.519,369.480 22.519 C 369.775 22.519,370.025 22.415,370.081 22.269 C 370.147 22.099,370.413 22.018,370.910 22.018 C 371.313 22.018,371.643 21.943,371.643 21.852 C 371.643 21.760,371.976 21.685,372.384 21.685 C 372.791 21.685,373.171 21.610,373.228 21.518 C 373.284 21.426,373.800 21.351,374.373 21.351 C 375.032 21.351,375.535 21.261,375.740 21.106 C 375.989 20.917,376.625 20.860,378.524 20.856 L 380.984 20.851 380.984 18.182 L 380.984 15.513 362.631 15.513 L 344.278 15.513 344.324 18.140 L 344.370 20.767 345.682 20.816 C 346.553 20.849,347.076 20.947,347.237 21.108 C 347.371 21.242,347.737 21.351,348.052 21.351 C 348.366 21.351,348.624 21.426,348.624 21.518 C 348.624 21.610,348.812 21.685,349.041 21.685 C 349.270 21.685,349.458 21.760,349.458 21.852 C 349.458 21.943,349.638 22.018,349.857 22.018 C 350.077 22.018,350.299 22.131,350.352 22.269 C 350.405 22.406,350.563 22.519,350.704 22.519 C 350.844 22.519,350.959 22.594,350.959 22.686 C 350.959 22.777,351.054 22.852,351.170 22.852 C 351.286 22.852,351.530 23.053,351.712 23.299 C 352.130 23.862,352.649 24.354,352.825 24.354 C 352.900 24.354,352.961 24.541,352.961 24.771 C 352.961 25.000,353.036 25.188,353.128 25.188 C 353.219 25.188,353.294 25.375,353.294 25.605 C 353.294 25.864,353.389 26.022,353.545 26.022 C 353.743 26.022,353.795 26.263,353.795 27.189 C 353.795 27.841,353.723 28.357,353.631 28.357 C 353.541 28.357,353.420 28.545,353.363 28.774 C 353.305 29.003,353.191 29.191,353.110 29.191 C 353.028 29.191,352.961 29.341,352.961 29.525 C 352.961 29.708,352.886 29.858,352.794 29.858 C 352.702 29.858,352.627 29.953,352.627 30.068 C 352.627 30.184,352.440 30.481,352.210 30.728 C 351.981 30.976,351.793 31.273,351.793 31.389 C 351.793 31.504,351.624 31.752,351.417 31.938 C 351.210 32.124,350.928 32.498,350.791 32.768 C 350.654 33.039,350.373 33.444,350.167 33.668 C 349.960 33.893,349.791 34.179,349.791 34.303 C 349.791 34.427,349.716 34.529,349.625 34.529 C 349.533 34.529,349.458 34.609,349.458 34.707 C 349.458 34.806,349.364 34.991,349.249 35.119 C 348.754 35.671,348.624 35.859,348.624 36.023 C 348.624 36.119,348.549 36.197,348.457 36.197 C 348.365 36.197,348.290 36.313,348.290 36.455 C 348.290 36.597,348.103 36.887,347.873 37.100 C 347.644 37.312,347.456 37.609,347.456 37.759 C 347.456 37.909,347.381 38.032,347.289 38.032 C 347.198 38.032,347.123 38.136,347.123 38.264 C 347.123 38.392,347.010 38.540,346.872 38.592 C 346.735 38.645,346.622 38.803,346.622 38.944 C 346.622 39.084,346.547 39.199,346.455 39.199 C 346.364 39.199,346.289 39.312,346.289 39.450 C 346.289 39.587,346.214 39.700,346.122 39.700 C 346.030 39.700,345.955 39.816,345.955 39.958 C 345.955 40.100,345.767 40.390,345.538 40.603 C 345.309 40.815,345.121 41.112,345.121 41.262 C 345.121 41.412,345.046 41.535,344.954 41.535 C 344.862 41.535,344.787 41.647,344.787 41.785 C 344.787 41.922,344.675 42.035,344.537 42.035 C 344.398 42.035,344.287 42.183,344.287 42.369 C 344.287 42.552,344.212 42.702,344.120 42.702 C 344.028 42.702,343.953 42.815,343.953 42.952 C 343.953 43.090,343.878 43.203,343.786 43.203 C 343.695 43.203,343.620 43.283,343.620 43.381 C 343.620 43.480,343.526 43.665,343.411 43.793 C 342.916 44.345,342.786 44.533,342.786 44.697 C 342.786 44.792,342.711 44.871,342.619 44.871 C 342.527 44.871,342.452 45.021,342.452 45.204 C 342.452 45.390,342.341 45.538,342.202 45.538 C 342.064 45.538,341.952 45.651,341.952 45.788 C 341.952 45.926,341.877 46.038,341.785 46.038 C 341.693 46.038,341.618 46.154,341.618 46.296 C 341.618 46.437,341.430 46.756,341.201 47.003 C 340.972 47.250,340.784 47.513,340.784 47.587 C 340.784 47.660,340.634 47.882,340.450 48.078 C 340.267 48.275,340.117 48.573,340.117 48.739 C 340.117 48.905,340.031 49.041,339.927 49.041 C 339.683 49.041,339.295 49.549,339.288 49.877 C 339.285 50.016,339.095 50.270,338.866 50.442 C 338.636 50.615,338.449 50.879,338.449 51.029 C 338.449 51.179,338.299 51.411,338.115 51.543 C 337.932 51.675,337.781 51.876,337.781 51.989 C 337.781 52.102,337.594 52.383,337.364 52.612 C 337.135 52.841,336.947 53.116,336.947 53.223 C 336.947 53.330,336.722 53.674,336.447 53.987 C 336.172 54.301,335.947 54.630,335.947 54.718 C 335.947 54.807,335.796 54.879,335.613 54.879 C 335.391 54.879,335.279 54.768,335.279 54.545 C 335.279 54.362,335.204 54.212,335.113 54.212 C 335.021 54.212,334.946 54.131,334.946 54.033 C 334.946 53.935,334.852 53.750,334.737 53.622 C 334.242 53.070,334.112 52.881,334.112 52.718 C 334.112 52.622,334.037 52.544,333.945 52.544 C 333.853 52.544,333.778 52.394,333.778 52.210 C 333.778 52.027,333.703 51.877,333.611 51.877 C 333.520 51.877,333.445 51.764,333.445 51.626 C 333.445 51.489,333.332 51.376,333.194 51.376 C 333.055 51.376,332.944 51.228,332.944 51.043 C 332.944 50.859,332.869 50.709,332.777 50.709 C 332.686 50.709,332.611 50.628,332.611 50.530 C 332.611 50.432,332.517 50.247,332.402 50.119 C 331.907 49.567,331.776 49.378,331.776 49.215 C 331.776 49.119,331.701 49.041,331.610 49.041 C 331.518 49.041,331.443 48.891,331.443 48.707 C 331.443 48.524,331.368 48.374,331.276 48.374 C 331.184 48.374,331.109 48.261,331.109 48.123 C 331.109 47.986,330.997 47.873,330.859 47.873 C 330.721 47.873,330.609 47.737,330.609 47.571 C 330.609 47.405,330.474 47.123,330.309 46.946 C 330.143 46.768,329.865 46.378,329.689 46.080 C 329.513 45.782,329.310 45.538,329.238 45.538 C 329.166 45.538,329.105 45.407,329.102 45.246 C 329.096 44.886,328.720 44.370,328.464 44.370 C 328.359 44.370,328.274 44.234,328.274 44.068 C 328.274 43.902,328.138 43.620,327.973 43.443 C 327.808 43.265,327.529 42.875,327.354 42.577 C 327.178 42.279,326.975 42.035,326.903 42.035 C 326.831 42.035,326.770 41.904,326.767 41.743 C 326.760 41.383,326.385 40.867,326.128 40.867 C 326.024 40.867,325.938 40.736,325.938 40.575 C 325.938 40.415,325.750 40.065,325.521 39.799 C 325.292 39.532,325.104 39.230,325.104 39.127 C 325.104 39.024,324.954 38.831,324.771 38.699 C 324.587 38.567,324.435 38.344,324.432 38.203 C 324.425 37.873,324.038 37.364,323.793 37.364 C 323.689 37.364,323.601 37.233,323.598 37.073 C 323.591 36.712,323.215 36.197,322.959 36.197 C 322.855 36.197,322.769 36.026,322.769 35.817 C 322.769 35.608,322.619 35.328,322.435 35.196 C 322.252 35.064,322.102 34.833,322.102 34.682 C 322.102 34.532,321.914 34.268,321.685 34.096 C 321.455 33.923,321.268 33.645,321.268 33.476 C 321.268 33.140,320.894 32.694,320.612 32.694 C 320.514 32.694,320.434 32.523,320.434 32.314 C 320.434 32.105,320.284 31.825,320.100 31.693 C 319.917 31.561,319.766 31.330,319.766 31.179 C 319.766 31.029,319.579 30.765,319.349 30.593 C 319.120 30.420,318.932 30.127,318.932 29.942 C 318.932 29.756,318.745 29.463,318.515 29.291 C 318.286 29.118,318.098 28.838,318.098 28.667 C 318.098 28.497,318.035 28.357,317.958 28.357 C 317.881 28.357,317.676 28.094,317.503 27.773 C 317.330 27.452,317.131 27.189,317.060 27.189 C 316.989 27.189,316.931 27.077,316.931 26.939 C 316.931 26.802,316.856 26.689,316.764 26.689 C 316.672 26.689,316.597 26.539,316.597 26.355 C 316.597 26.172,316.522 26.022,316.430 26.022 C 316.339 26.022,316.264 25.869,316.264 25.683 C 316.264 25.496,316.151 25.301,316.013 25.248 C 315.876 25.195,315.763 24.972,315.763 24.753 C 315.763 24.509,315.861 24.354,316.013 24.354 C 316.151 24.354,316.264 24.259,316.264 24.144 C 316.264 23.906,317.357 22.852,317.604 22.852 C 317.692 22.852,317.765 22.777,317.765 22.686 C 317.765 22.594,317.917 22.519,318.104 22.519 C 318.290 22.519,318.486 22.406,318.539 22.269 C 318.591 22.131,318.777 22.018,318.950 22.018 C 319.124 22.018,319.266 21.943,319.266 21.852 C 319.266 21.760,319.529 21.685,319.850 21.685 C 320.171 21.685,320.434 21.610,320.434 21.518 C 320.434 21.426,320.755 21.351,321.147 21.351 C 321.540 21.351,322.017 21.242,322.208 21.108 C 322.433 20.950,323.079 20.847,324.038 20.816 L 325.521 20.767 325.521 18.182 L 325.521 15.596 324.395 15.547 C 323.692 15.516,323.269 15.563,323.269 15.672 C 323.269 15.910,286.969 15.917,286.822 15.680 C 286.765 15.587,285.987 15.513,285.061 15.513 L 283.403 15.513 283.403 18.182 M86.906 28.274 C 86.906 28.503,86.981 28.691,87.073 28.691 C 87.164 28.691,87.239 28.873,87.239 29.096 C 87.239 29.318,87.352 29.613,87.490 29.751 C 87.627 29.889,87.740 30.157,87.740 30.347 C 87.740 30.537,87.815 30.692,87.907 30.692 C 87.998 30.692,88.073 30.913,88.073 31.183 C 88.073 31.453,88.148 31.720,88.240 31.776 C 88.332 31.833,88.407 32.028,88.407 32.209 C 88.407 32.390,88.520 32.581,88.657 32.634 C 88.800 32.688,88.907 32.937,88.907 33.212 C 88.907 33.478,88.982 33.695,89.074 33.695 C 89.166 33.695,89.241 33.878,89.241 34.102 C 89.241 34.326,89.316 34.555,89.408 34.612 C 89.500 34.669,89.575 34.856,89.575 35.027 C 89.575 35.199,89.675 35.439,89.798 35.562 C 90.008 35.773,90.138 36.163,90.354 37.239 C 90.405 37.492,90.513 37.698,90.594 37.698 C 90.676 37.698,90.742 37.834,90.742 38.000 C 90.742 38.166,90.852 38.447,90.987 38.625 C 91.122 38.803,91.234 39.118,91.237 39.324 C 91.240 39.531,91.318 39.700,91.410 39.700 C 91.501 39.700,91.576 39.917,91.576 40.182 C 91.576 40.457,91.684 40.706,91.827 40.761 C 91.964 40.814,92.077 41.009,92.077 41.196 C 92.077 41.382,92.152 41.535,92.244 41.535 C 92.335 41.535,92.410 41.797,92.410 42.118 C 92.410 42.440,92.485 42.702,92.577 42.702 C 92.669 42.702,92.744 42.890,92.744 43.119 C 92.744 43.379,92.838 43.536,92.994 43.536 C 93.169 43.536,93.244 43.712,93.244 44.120 C 93.244 44.441,93.319 44.704,93.411 44.704 C 93.503 44.704,93.578 44.892,93.578 45.121 C 93.578 45.350,93.653 45.538,93.745 45.538 C 93.837 45.538,93.912 45.765,93.912 46.044 C 93.912 46.339,94.016 46.589,94.162 46.645 C 94.299 46.698,94.412 46.921,94.412 47.140 C 94.412 47.360,94.487 47.540,94.579 47.540 C 94.671 47.540,94.746 47.760,94.746 48.030 C 94.746 48.300,94.821 48.567,94.912 48.624 C 95.004 48.681,95.079 48.867,95.079 49.039 C 95.079 49.210,95.192 49.463,95.329 49.601 C 95.467 49.738,95.580 50.007,95.580 50.197 C 95.580 50.387,95.655 50.542,95.746 50.542 C 95.838 50.542,95.913 50.805,95.913 51.126 C 95.913 51.447,95.988 51.710,96.080 51.710 C 96.172 51.710,96.247 51.897,96.247 52.127 C 96.247 52.386,96.341 52.544,96.497 52.544 C 96.672 52.544,96.747 52.720,96.747 53.128 C 96.747 53.449,96.822 53.711,96.914 53.711 C 97.006 53.711,97.081 53.899,97.081 54.128 C 97.081 54.358,97.156 54.545,97.248 54.545 C 97.339 54.545,97.415 54.773,97.415 55.051 C 97.415 55.347,97.518 55.597,97.665 55.653 C 97.802 55.706,97.915 55.891,97.915 56.065 C 97.915 56.238,97.990 56.380,98.082 56.380 C 98.173 56.380,98.249 56.643,98.249 56.964 C 98.249 57.285,98.324 57.548,98.415 57.548 C 98.507 57.548,98.582 57.728,98.582 57.947 C 98.582 58.167,98.695 58.389,98.832 58.442 C 98.979 58.498,99.083 58.748,99.083 59.044 C 99.083 59.322,99.158 59.550,99.249 59.550 C 99.341 59.550,99.416 59.625,99.416 59.716 C 99.416 59.826,95.079 59.883,86.739 59.883 C 74.944 59.883,73.625 59.839,74.229 59.466 C 74.320 59.410,74.395 59.142,74.395 58.873 C 74.395 58.603,74.470 58.382,74.562 58.382 C 74.654 58.382,74.729 58.154,74.729 57.876 C 74.729 57.581,74.833 57.331,74.979 57.275 C 75.117 57.222,75.229 56.999,75.229 56.779 C 75.229 56.560,75.304 56.380,75.396 56.380 C 75.488 56.380,75.563 56.118,75.563 55.796 C 75.563 55.475,75.638 55.213,75.730 55.213 C 75.822 55.213,75.897 55.071,75.897 54.897 C 75.897 54.723,76.009 54.538,76.147 54.485 C 76.293 54.429,76.397 54.179,76.397 53.883 C 76.397 53.605,76.472 53.378,76.564 53.378 C 76.656 53.378,76.731 53.190,76.731 52.961 C 76.731 52.731,76.802 52.544,76.890 52.544 C 76.977 52.544,77.098 52.281,77.159 51.960 C 77.219 51.639,77.335 51.376,77.416 51.376 C 77.498 51.376,77.565 51.188,77.565 50.959 C 77.565 50.730,77.640 50.542,77.731 50.542 C 77.823 50.542,77.898 50.287,77.898 49.976 C 77.898 49.627,77.994 49.373,78.148 49.314 C 78.286 49.261,78.399 49.070,78.399 48.889 C 78.399 48.708,78.474 48.514,78.565 48.457 C 78.657 48.400,78.732 48.175,78.732 47.957 C 78.732 47.738,78.807 47.513,78.899 47.456 C 78.991 47.400,79.066 47.202,79.066 47.017 C 79.066 46.833,79.178 46.569,79.316 46.432 C 79.454 46.294,79.566 46.037,79.566 45.860 C 79.566 45.683,79.641 45.538,79.733 45.538 C 79.825 45.538,79.900 45.317,79.900 45.047 C 79.900 44.778,79.975 44.510,80.067 44.454 C 80.158 44.397,80.234 44.200,80.234 44.015 C 80.234 43.830,80.346 43.567,80.484 43.429 C 80.621 43.291,80.734 42.997,80.734 42.774 C 80.734 42.551,80.809 42.369,80.901 42.369 C 80.992 42.369,81.068 42.181,81.068 41.952 C 81.068 41.722,81.143 41.535,81.234 41.535 C 81.326 41.535,81.401 41.272,81.401 40.951 C 81.401 40.543,81.477 40.367,81.651 40.367 C 81.807 40.367,81.902 40.209,81.902 39.950 C 81.902 39.721,81.977 39.533,82.068 39.533 C 82.160 39.533,82.235 39.308,82.235 39.033 C 82.235 38.757,82.310 38.532,82.402 38.532 C 82.494 38.532,82.569 38.377,82.569 38.187 C 82.569 37.997,82.681 37.728,82.819 37.591 C 82.957 37.453,83.069 37.158,83.069 36.936 C 83.069 36.713,83.144 36.530,83.236 36.530 C 83.328 36.530,83.403 36.347,83.403 36.123 C 83.403 35.899,83.478 35.670,83.570 35.613 C 83.661 35.556,83.736 35.289,83.736 35.019 C 83.736 34.694,83.821 34.529,83.987 34.529 C 84.143 34.529,84.237 34.371,84.237 34.109 C 84.237 33.706,84.289 33.554,84.711 32.738 C 84.817 32.533,84.904 32.184,84.904 31.963 C 84.904 31.743,85.017 31.519,85.154 31.466 C 85.292 31.413,85.405 31.222,85.405 31.041 C 85.405 30.860,85.480 30.666,85.571 30.609 C 85.663 30.552,85.738 30.285,85.738 30.015 C 85.738 29.745,85.813 29.525,85.905 29.525 C 85.997 29.525,86.072 29.345,86.072 29.125 C 86.072 28.906,86.184 28.683,86.322 28.630 C 86.460 28.577,86.572 28.382,86.572 28.195 C 86.572 28.009,86.647 27.857,86.739 27.857 C 86.831 27.857,86.906 28.044,86.906 28.274 " stroke="none" fill="#040404" fill-rule="evenodd"></path><path id="path1" d="" stroke="none" fill="#080404" fill-rule="evenodd"></path><path id="path2" d="" stroke="none" fill="#080404" fill-rule="evenodd"></path><path id="path3" d="" stroke="none" fill="#080404" fill-rule="evenodd"></path><path id="path4" d="" stroke="none" fill="#080404" fill-rule="evenodd"></path></g></svg>