<svg id="svg" version="1.1" xmlns="http://www.w3.org/2000/svg" xmlns:xlink="http://www.w3.org/1999/xlink" width="400" height="373.61111111111114" viewBox="0, 0, 400,373.61111111111114"><g id="svgg"><path id="path0" d="M249.463 38.004 C 248.365 38.236,244.046 42.866,242.052 45.948 C 238.012 52.193,234.429 60.035,228.029 76.636 C 225.266 83.805,222.558 90.619,221.048 94.206 C 220.139 96.364,219.149 98.720,218.847 99.439 C 218.545 100.159,218.050 101.224,217.747 101.806 C 217.444 102.388,217.196 103.014,217.196 103.197 C 217.196 103.380,216.766 104.502,216.240 105.690 C 215.715 106.878,215.141 108.187,214.966 108.598 C 214.443 109.824,213.134 112.787,212.365 114.486 C 211.969 115.360,211.204 117.168,210.664 118.505 C 210.124 119.841,209.451 121.439,209.169 122.056 C 208.887 122.673,208.078 124.439,207.371 125.981 C 206.665 127.523,205.291 130.636,204.318 132.897 C 203.346 135.159,202.206 137.766,201.785 138.692 C 201.364 139.617,200.526 141.467,199.921 142.804 C 199.316 144.140,198.245 146.443,197.542 147.921 C 196.838 149.399,196.262 150.709,196.262 150.833 C 196.262 151.294,191.163 161.457,188.849 165.607 C 187.531 167.972,185.860 171.000,185.135 172.336 C 184.410 173.673,182.168 177.647,180.153 181.168 C 178.138 184.688,176.167 188.137,175.773 188.831 C 173.026 193.673,163.638 208.311,159.372 214.403 C 157.494 217.085,155.357 219.995,155.126 220.187 C 155.002 220.290,154.184 221.353,153.307 222.550 C 146.199 232.253,131.259 247.938,123.153 254.206 C 121.171 255.738,120.811 258.318,122.579 258.318 C 123.747 258.318,130.327 263.833,132.155 266.345 C 132.563 266.906,133.419 268.063,134.056 268.916 C 134.693 269.769,135.494 270.972,135.836 271.589 C 136.532 272.844,137.232 273.968,137.686 274.559 C 138.337 275.407,139.632 277.673,140.689 279.813 C 142.669 283.821,145.300 287.969,147.009 289.776 C 147.369 290.156,147.664 290.579,147.664 290.716 C 147.664 290.853,147.921 291.232,148.236 291.557 C 149.511 292.876,150.653 294.417,150.654 294.819 C 150.655 295.691,152.490 295.681,155.207 294.794 C 157.721 293.973,165.569 291.811,167.850 291.311 C 168.364 291.198,169.117 290.878,169.522 290.600 C 169.928 290.321,170.721 290.093,171.285 290.093 C 171.850 290.093,172.864 289.861,173.539 289.578 C 174.214 289.294,176.785 288.437,179.252 287.672 C 181.720 286.907,184.327 286.064,185.047 285.799 C 185.766 285.533,187.407 285.003,188.692 284.621 C 189.977 284.238,191.028 283.811,191.028 283.672 C 191.028 283.532,191.953 283.303,193.084 283.161 C 194.215 283.020,195.140 282.756,195.140 282.574 C 195.140 282.392,195.369 282.243,195.649 282.243 C 195.929 282.243,197.271 281.738,198.632 281.121 C 199.992 280.505,201.357 280.000,201.664 280.000 C 202.445 280.000,208.015 277.152,208.590 276.458 C 208.851 276.144,209.359 275.888,209.720 275.888 C 210.080 275.888,210.607 275.608,210.889 275.266 C 211.171 274.925,212.085 274.342,212.920 273.972 C 213.756 273.601,214.749 272.956,215.128 272.537 C 215.507 272.118,216.188 271.776,216.642 271.776 C 217.168 271.776,218.097 271.064,219.204 269.813 C 220.159 268.734,221.359 267.424,221.872 266.902 C 222.384 266.380,222.804 265.665,222.804 265.313 C 222.804 264.891,223.102 264.673,223.680 264.673 C 224.919 264.673,225.794 263.539,225.794 261.933 C 225.794 260.962,225.959 260.561,226.355 260.561 C 226.664 260.561,226.916 260.250,226.916 259.871 C 226.916 259.492,227.252 258.877,227.664 258.505 C 228.075 258.133,228.411 257.544,228.411 257.196 C 228.411 256.849,228.769 256.244,229.207 255.852 C 230.205 254.959,231.230 252.620,231.575 250.449 C 231.945 248.111,232.519 246.014,233.205 244.486 C 233.875 242.996,234.364 240.250,234.637 236.449 C 234.740 235.009,234.980 233.672,235.169 233.477 C 235.359 233.281,235.518 232.440,235.523 231.607 C 235.528 230.775,235.702 229.421,235.909 228.598 C 236.117 227.776,236.441 225.505,236.629 223.551 C 236.818 221.598,237.154 218.907,237.376 217.570 C 238.357 211.650,239.436 196.432,240.000 180.560 C 240.194 175.111,240.525 169.055,240.736 167.102 C 240.947 165.149,241.292 159.093,241.503 153.645 C 241.947 142.126,242.426 133.824,242.978 128.037 C 243.194 125.776,243.539 121.065,243.744 117.570 C 243.949 114.075,244.280 108.944,244.480 106.168 C 244.680 103.393,245.018 98.093,245.231 94.393 C 246.350 74.966,247.777 65.447,250.547 58.937 C 253.925 50.999,258.632 50.987,262.292 58.907 C 265.580 66.023,270.019 81.787,272.706 95.888 C 272.980 97.327,273.728 101.196,274.369 104.486 C 275.571 110.657,277.127 119.734,279.431 134.019 C 282.294 151.770,283.017 156.648,283.266 159.918 C 283.381 161.416,283.618 162.729,283.793 162.838 C 283.969 162.946,284.115 163.572,284.120 164.228 C 284.124 164.884,284.386 166.766,284.703 168.411 C 285.240 171.199,285.815 174.582,286.673 180.000 C 286.868 181.234,287.382 183.654,287.813 185.378 C 288.245 187.103,288.598 189.053,288.598 189.712 C 288.598 190.372,288.935 191.889,289.346 193.084 C 289.757 194.279,290.093 195.609,290.092 196.040 C 290.091 196.470,290.329 197.579,290.622 198.505 C 290.915 199.430,291.429 201.449,291.763 202.991 C 292.098 204.533,292.715 207.056,293.135 208.598 C 293.555 210.140,294.047 211.991,294.229 212.710 C 295.056 215.982,295.810 218.558,296.115 219.154 C 296.299 219.511,296.449 220.110,296.449 220.485 C 296.449 220.861,296.785 221.864,297.196 222.715 C 297.607 223.567,297.944 224.867,297.944 225.605 C 297.944 226.407,298.230 227.254,298.654 227.710 C 299.045 228.129,299.457 229.005,299.571 229.657 C 300.094 232.657,300.325 233.509,300.799 234.195 C 301.079 234.601,301.308 235.293,301.308 235.732 C 301.308 236.172,301.813 237.645,302.430 239.006 C 303.047 240.366,303.551 242.071,303.551 242.796 C 303.551 243.637,303.730 244.112,304.045 244.112 C 304.316 244.112,305.228 244.702,306.071 245.424 C 306.914 246.145,308.136 246.842,308.787 246.972 C 309.438 247.103,310.058 247.438,310.166 247.717 C 310.273 247.996,310.763 248.224,311.255 248.224 C 311.747 248.224,312.486 248.561,312.897 248.972 C 313.308 249.383,313.722 249.720,313.815 249.720 C 314.045 249.720,316.756 251.568,317.001 251.892 C 317.108 252.033,317.471 252.318,317.807 252.523 C 319.575 253.605,322.726 255.882,323.912 256.935 C 324.653 257.593,325.694 258.467,326.226 258.879 C 326.757 259.290,327.508 259.921,327.895 260.280 C 328.282 260.640,328.673 260.935,328.764 260.935 C 328.856 260.935,329.561 261.512,330.332 262.218 C 331.103 262.925,332.163 263.701,332.689 263.945 C 333.215 264.188,334.003 264.577,334.440 264.810 C 335.362 265.301,338.570 268.074,341.634 271.028 C 342.807 272.159,344.349 273.567,345.061 274.158 C 348.304 276.848,358.377 286.605,358.652 287.322 C 358.774 287.639,359.043 287.793,359.250 287.665 C 359.803 287.324,359.708 285.683,359.071 284.544 C 358.765 283.998,358.260 282.836,357.949 281.963 C 357.638 281.089,357.129 279.659,356.817 278.785 C 356.506 277.911,356.001 276.750,355.696 276.204 C 355.390 275.658,355.140 275.020,355.140 274.787 C 355.140 274.553,354.646 273.305,354.043 272.014 C 353.439 270.722,352.823 269.173,352.675 268.571 C 352.527 267.969,352.192 267.140,351.931 266.729 C 351.670 266.318,351.343 265.356,351.204 264.593 C 351.064 263.829,350.715 263.009,350.428 262.771 C 350.141 262.533,349.906 261.980,349.904 261.543 C 349.903 261.106,349.636 260.243,349.311 259.626 C 348.770 258.599,348.202 257.166,345.535 250.093 C 345.031 248.757,344.444 247.076,344.229 246.357 C 344.015 245.639,343.607 244.718,343.322 244.311 C 343.037 243.905,342.804 243.264,342.804 242.888 C 342.804 242.512,342.480 241.582,342.085 240.822 C 341.690 240.061,341.086 238.682,340.742 237.757 C 340.399 236.832,339.893 235.570,339.617 234.953 C 339.342 234.336,339.008 233.411,338.874 232.897 C 338.564 231.699,337.272 228.287,336.388 226.331 C 336.010 225.495,335.701 224.611,335.701 224.367 C 335.701 224.122,335.364 223.295,334.953 222.528 C 334.542 221.760,334.206 220.931,334.206 220.686 C 334.206 220.440,333.827 220.185,333.364 220.119 C 332.744 220.031,332.373 219.559,331.950 218.318 C 331.634 217.393,331.171 216.268,330.922 215.819 C 330.672 215.370,330.466 214.697,330.465 214.324 C 330.464 213.950,330.227 213.194,329.939 212.642 C 329.652 212.090,329.294 211.081,329.144 210.399 C 328.995 209.717,328.558 208.573,328.174 207.856 C 327.791 207.139,327.477 206.250,327.477 205.878 C 327.477 205.507,327.157 204.578,326.767 203.812 C 326.376 203.047,325.678 201.173,325.215 199.649 C 324.752 198.124,324.147 196.444,323.871 195.915 C 323.595 195.386,323.367 194.701,323.364 194.393 C 323.362 194.084,323.124 193.380,322.837 192.829 C 322.549 192.277,322.197 191.268,322.055 190.586 C 321.912 189.904,321.582 189.007,321.321 188.593 C 321.059 188.178,320.725 187.290,320.578 186.619 C 320.430 185.948,319.891 184.352,319.379 183.073 C 318.868 181.794,318.228 179.991,317.958 179.065 C 317.433 177.263,316.914 175.761,315.892 173.084 C 315.539 172.159,314.964 170.561,314.615 169.533 C 312.629 163.686,310.578 157.847,310.282 157.196 C 310.095 156.785,309.774 155.860,309.568 155.140 C 309.362 154.421,308.671 152.402,308.031 150.654 C 307.391 148.907,306.455 146.215,305.950 144.673 C 305.445 143.131,304.882 141.533,304.699 141.121 C 304.516 140.710,303.906 138.944,303.344 137.196 C 302.782 135.449,302.113 133.598,301.858 133.084 C 301.603 132.570,301.272 131.561,301.121 130.841 C 300.971 130.121,300.725 129.364,300.575 129.159 C 300.424 128.953,299.915 127.607,299.443 126.168 C 298.417 123.041,297.463 120.329,296.449 117.656 C 296.037 116.573,295.700 115.437,295.699 115.133 C 295.697 114.829,295.431 114.075,295.107 113.458 C 294.782 112.841,294.092 110.991,293.573 109.346 C 293.054 107.701,292.488 106.180,292.316 105.967 C 292.143 105.753,291.836 104.912,291.634 104.097 C 291.196 102.339,290.185 99.322,289.508 97.757 C 289.242 97.140,288.911 96.215,288.774 95.701 C 288.212 93.599,283.502 82.212,282.588 80.748 C 282.396 80.439,282.139 79.935,282.017 79.626 C 281.489 78.287,275.919 67.149,274.072 63.738 C 272.958 61.682,271.414 58.804,270.641 57.343 C 263.759 44.344,255.435 36.744,249.463 38.004 M181.776 120.033 C 181.313 120.207,180.935 120.523,180.935 120.736 C 180.935 120.948,180.749 121.121,180.521 121.121 C 180.154 121.121,178.864 122.021,177.192 123.444 C 176.881 123.709,175.792 124.346,174.771 124.860 C 173.751 125.374,172.690 126.005,172.413 126.262 C 172.136 126.519,171.538 126.729,171.085 126.729 C 170.631 126.729,169.928 126.957,169.522 127.237 C 169.117 127.516,168.130 127.865,167.329 128.012 C 166.527 128.158,165.518 128.500,165.086 128.770 C 164.653 129.041,163.675 129.371,162.913 129.505 C 159.844 130.042,152.523 133.754,152.523 134.772 C 152.523 135.043,152.313 135.362,152.056 135.481 C 151.799 135.600,152.766 135.599,154.206 135.479 C 162.400 134.794,170.351 131.254,177.826 124.964 C 182.411 121.106,183.915 119.229,181.776 120.033 M188.972 146.349 C 188.561 146.571,187.299 147.355,186.168 148.091 C 181.774 150.953,174.754 153.723,169.622 154.618 C 167.997 154.902,166.530 155.219,166.362 155.323 C 166.058 155.511,160.044 156.277,157.196 156.491 C 156.374 156.553,150.260 156.782,143.611 157.001 C 129.117 157.479,129.831 157.202,123.278 164.860 C 119.746 168.987,118.010 167.143,139.990 182.617 C 146.735 187.365,153.683 192.295,157.882 195.310 C 161.788 198.116,161.888 198.050,167.294 189.159 C 168.481 187.206,169.995 184.766,170.657 183.738 C 171.732 182.069,176.096 174.663,178.035 171.215 C 178.440 170.495,178.897 169.738,179.050 169.533 C 179.203 169.327,180.306 167.308,181.500 165.047 C 188.592 151.617,191.170 145.165,188.972 146.349 M288.972 245.991 C 285.644 246.552,279.952 248.851,276.048 251.212 C 273.164 252.955,269.707 255.266,268.966 255.945 C 268.552 256.325,267.206 257.465,265.975 258.478 C 262.492 261.347,255.791 268.146,249.736 274.953 C 248.684 276.136,239.911 286.573,236.032 291.258 C 231.854 296.302,229.146 299.813,229.435 299.811 C 229.835 299.807,233.163 296.313,235.307 293.645 C 236.298 292.411,237.826 290.561,238.702 289.533 C 239.579 288.505,241.508 286.234,242.989 284.486 C 244.470 282.738,246.128 280.787,246.673 280.149 C 248.323 278.219,250.987 275.096,251.702 274.253 C 256.609 268.470,265.149 259.847,268.411 257.384 C 269.748 256.375,270.925 255.457,271.028 255.345 C 271.476 254.855,273.645 253.458,273.958 253.458 C 274.147 253.458,274.521 253.192,274.791 252.868 C 276.231 251.132,285.580 247.593,291.337 246.603 C 292.741 246.361,293.764 246.039,293.611 245.886 C 293.280 245.554,291.296 245.599,288.972 245.991 M104.512 256.257 C 103.087 256.979,101.573 257.590,101.147 257.614 C 99.987 257.681,102.312 258.219,103.992 258.274 C 104.748 258.298,105.619 258.570,105.928 258.879 C 106.236 259.187,107.053 259.439,107.743 259.439 C 108.433 259.439,109.917 259.760,111.041 260.153 C 115.183 261.599,118.950 261.442,117.975 259.863 C 117.669 259.368,118.135 258.276,118.544 258.529 C 118.887 258.741,119.029 258.191,118.887 257.196 C 118.777 256.424,119.110 256.516,114.178 255.882 C 111.726 255.566,109.131 255.226,108.411 255.126 C 107.416 254.988,106.482 255.259,104.512 256.257 M320.353 269.956 C 320.086 270.600,319.462 271.610,318.966 272.199 L 318.064 273.271 319.254 273.271 C 319.908 273.271,320.871 273.607,321.393 274.019 C 321.916 274.430,322.644 274.766,323.010 274.766 C 323.376 274.766,324.786 275.355,326.143 276.075 C 327.499 276.794,328.836 277.383,329.114 277.383 C 329.392 277.383,330.047 277.720,330.569 278.131 C 331.094 278.544,332.086 278.879,332.784 278.879 C 333.479 278.879,334.707 279.215,335.514 279.626 C 336.321 280.037,337.213 280.374,337.498 280.374 C 337.783 280.374,338.462 280.620,339.008 280.921 C 339.553 281.221,341.262 281.988,342.804 282.624 C 344.346 283.261,345.767 283.940,345.963 284.134 C 346.158 284.327,346.663 284.487,347.084 284.487 C 347.506 284.488,348.401 284.825,349.074 285.235 C 350.355 286.016,352.523 286.250,352.523 285.607 C 352.523 285.402,352.197 285.234,351.798 285.234 C 351.399 285.234,350.958 285.048,350.818 284.822 C 350.678 284.595,350.037 284.168,349.394 283.873 C 347.952 283.211,344.271 280.915,343.964 280.487 C 343.840 280.313,343.318 279.958,342.804 279.697 C 342.290 279.436,341.533 279.017,341.121 278.765 C 336.160 275.728,333.662 274.393,332.944 274.393 C 332.468 274.393,331.774 274.056,331.402 273.645 C 331.030 273.234,330.423 272.897,330.054 272.897 C 329.685 272.897,329.248 272.672,329.084 272.398 C 328.920 272.123,327.664 271.373,326.293 270.731 C 324.923 270.089,323.693 269.388,323.561 269.174 C 322.976 268.228,320.855 268.745,320.353 269.956 " stroke="none" fill="#a74937" fill-rule="evenodd"></path><path id="path1" d="M257.635 40.490 C 262.064 43.880,266.679 49.860,270.641 57.343 C 271.414 58.804,272.958 61.682,274.072 63.738 C 275.185 65.794,277.412 70.168,279.020 73.458 C 280.628 76.748,282.097 79.692,282.283 80.000 C 282.469 80.308,282.725 80.813,282.851 81.121 C 282.977 81.430,283.381 82.355,283.748 83.178 C 285.805 87.790,288.363 94.165,288.774 95.701 C 288.911 96.215,289.242 97.140,289.508 97.757 C 290.185 99.322,291.196 102.339,291.634 104.097 C 291.836 104.912,292.143 105.753,292.316 105.967 C 292.488 106.180,293.054 107.701,293.573 109.346 C 294.092 110.991,294.782 112.841,295.107 113.458 C 295.431 114.075,295.697 114.829,295.699 115.133 C 295.700 115.437,296.037 116.573,296.449 117.656 C 297.463 120.329,298.417 123.041,299.443 126.168 C 299.915 127.607,300.424 128.953,300.575 129.159 C 300.725 129.364,300.971 130.121,301.121 130.841 C 301.272 131.561,301.603 132.570,301.858 133.084 C 302.113 133.598,302.782 135.449,303.344 137.196 C 303.906 138.944,304.516 140.710,304.699 141.121 C 304.882 141.533,305.445 143.131,305.950 144.673 C 306.455 146.215,307.391 148.907,308.031 150.654 C 308.671 152.402,309.362 154.421,309.568 155.140 C 309.774 155.860,310.095 156.785,310.282 157.196 C 310.578 157.847,312.629 163.686,314.615 169.533 C 314.964 170.561,315.539 172.159,315.892 173.084 C 316.914 175.761,317.433 177.263,317.958 179.065 C 318.228 179.991,318.868 181.794,319.379 183.073 C 319.891 184.352,320.430 185.948,320.578 186.619 C 320.725 187.290,321.059 188.178,321.321 188.593 C 321.582 189.007,321.912 189.904,322.055 190.586 C 322.197 191.268,322.549 192.277,322.837 192.829 C 323.124 193.380,323.362 194.084,323.364 194.393 C 323.367 194.701,323.595 195.386,323.871 195.915 C 324.147 196.444,324.752 198.124,325.215 199.649 C 325.678 201.173,326.376 203.047,326.767 203.812 C 327.157 204.578,327.477 205.507,327.477 205.878 C 327.477 206.250,327.791 207.139,328.174 207.856 C 328.558 208.573,328.995 209.717,329.144 210.399 C 329.294 211.081,329.652 212.090,329.939 212.642 C 330.227 213.194,330.464 213.950,330.465 214.324 C 330.466 214.697,330.672 215.370,330.922 215.819 C 331.171 216.268,331.634 217.393,331.950 218.318 C 332.373 219.559,332.744 220.031,333.364 220.119 C 333.827 220.185,334.206 220.440,334.206 220.686 C 334.206 220.931,334.542 221.760,334.953 222.528 C 335.364 223.295,335.701 224.122,335.701 224.367 C 335.701 224.611,336.010 225.495,336.388 226.331 C 337.272 228.287,338.564 231.699,338.874 232.897 C 339.008 233.411,339.342 234.336,339.617 234.953 C 339.893 235.570,340.399 236.832,340.742 237.757 C 341.086 238.682,341.690 240.061,342.085 240.822 C 342.480 241.582,342.804 242.512,342.804 242.888 C 342.804 243.264,343.037 243.905,343.322 244.311 C 343.607 244.718,344.015 245.639,344.229 246.357 C 344.444 247.076,345.031 248.757,345.535 250.093 C 348.202 257.166,348.770 258.599,349.311 259.626 C 349.636 260.243,349.903 261.106,349.904 261.543 C 349.906 261.980,350.141 262.533,350.428 262.771 C 350.715 263.009,351.064 263.829,351.204 264.593 C 351.343 265.356,351.670 266.318,351.931 266.729 C 352.192 267.140,352.527 267.969,352.675 268.571 C 352.823 269.173,353.439 270.722,354.043 272.014 C 354.646 273.305,355.140 274.553,355.140 274.787 C 355.140 275.020,355.390 275.658,355.696 276.204 C 356.001 276.750,356.506 277.911,356.817 278.785 C 357.129 279.659,357.638 281.089,357.949 281.963 C 358.260 282.836,358.765 283.998,359.071 284.544 C 359.708 285.683,359.803 287.324,359.250 287.665 C 359.043 287.793,358.774 287.639,358.652 287.322 C 358.377 286.605,348.304 276.848,345.061 274.158 C 344.349 273.567,342.807 272.159,341.634 271.028 C 338.570 268.074,335.362 265.301,334.440 264.810 C 334.003 264.577,333.215 264.188,332.689 263.945 C 332.163 263.701,331.103 262.925,330.332 262.218 C 329.561 261.512,328.856 260.935,328.764 260.935 C 328.673 260.935,328.282 260.640,327.895 260.280 C 327.508 259.921,326.757 259.290,326.226 258.879 C 325.694 258.467,324.653 257.593,323.912 256.935 C 322.726 255.882,319.575 253.605,317.807 252.523 C 317.471 252.318,317.108 252.033,317.001 251.892 C 316.756 251.568,314.045 249.720,313.815 249.720 C 313.722 249.720,313.308 249.383,312.897 248.972 C 312.486 248.561,311.747 248.224,311.255 248.224 C 310.763 248.224,310.273 247.996,310.166 247.717 C 310.058 247.438,309.438 247.103,308.787 246.972 C 308.136 246.842,306.914 246.145,306.071 245.424 C 305.228 244.702,304.316 244.112,304.045 244.112 C 303.730 244.112,303.551 243.637,303.551 242.796 C 303.551 242.071,303.047 240.366,302.430 239.006 C 301.813 237.645,301.308 236.172,301.308 235.732 C 301.308 235.293,301.079 234.601,300.799 234.195 C 300.325 233.509,300.094 232.657,299.571 229.657 C 299.457 229.005,299.045 228.129,298.654 227.710 C 298.230 227.254,297.944 226.407,297.944 225.605 C 297.944 224.867,297.607 223.567,297.196 222.715 C 296.785 221.864,296.449 220.861,296.449 220.485 C 296.449 220.110,296.299 219.511,296.115 219.154 C 295.810 218.558,295.056 215.982,294.229 212.710 C 294.047 211.991,293.555 210.140,293.135 208.598 C 292.715 207.056,292.098 204.533,291.763 202.991 C 291.429 201.449,290.915 199.430,290.622 198.505 C 290.329 197.579,290.091 196.470,290.092 196.040 C 290.093 195.609,289.757 194.279,289.346 193.084 C 288.935 191.889,288.598 190.372,288.598 189.712 C 288.598 189.053,288.245 187.103,287.813 185.378 C 287.382 183.654,286.868 181.234,286.673 180.000 C 285.815 174.582,285.240 171.199,284.703 168.411 C 284.386 166.766,284.124 164.884,284.120 164.228 C 284.115 163.572,283.969 162.946,283.793 162.838 C 283.618 162.729,283.381 161.416,283.266 159.918 C 283.017 156.648,282.294 151.770,279.431 134.019 C 277.127 119.734,275.571 110.657,274.369 104.486 C 273.728 101.196,272.980 97.327,272.706 95.888 C 270.019 81.787,265.580 66.023,262.292 58.907 C 258.632 50.987,253.925 50.999,250.547 58.937 C 247.777 65.447,246.350 74.966,245.231 94.393 C 245.018 98.093,244.680 103.393,244.480 106.168 C 244.280 108.944,243.949 114.075,243.744 117.570 C 243.539 121.065,243.194 125.776,242.978 128.037 C 242.426 133.824,241.947 142.126,241.503 153.645 C 241.292 159.093,240.947 165.149,240.736 167.102 C 240.525 169.055,240.194 175.111,240.000 180.560 C 239.436 196.432,238.357 211.650,237.376 217.570 C 237.154 218.907,236.818 221.598,236.629 223.551 C 236.441 225.505,236.117 227.776,235.909 228.598 C 235.702 229.421,235.528 230.775,235.523 231.607 C 235.518 232.440,235.359 233.281,235.169 233.477 C 234.980 233.672,234.740 235.009,234.637 236.449 C 234.364 240.250,233.875 242.996,233.205 244.486 C 232.519 246.014,231.945 248.111,231.575 250.449 C 231.230 252.620,230.205 254.959,229.207 255.852 C 228.769 256.244,228.411 256.849,228.411 257.196 C 228.411 257.544,228.075 258.133,227.664 258.505 C 227.252 258.877,226.916 259.492,226.916 259.871 C 226.916 260.250,226.664 260.561,226.355 260.561 C 225.954 260.561,225.794 260.970,225.794 261.998 C 225.794 263.605,224.924 264.673,223.615 264.673 C 223.098 264.673,222.804 264.905,222.804 265.313 C 222.804 265.665,222.384 266.380,221.872 266.902 C 221.359 267.424,220.159 268.734,219.204 269.813 C 218.097 271.064,217.168 271.776,216.642 271.776 C 216.188 271.776,215.507 272.118,215.128 272.537 C 214.749 272.956,213.756 273.601,212.920 273.972 C 212.085 274.342,211.171 274.925,210.889 275.266 C 210.607 275.608,210.080 275.888,209.720 275.888 C 209.359 275.888,208.851 276.144,208.590 276.458 C 208.015 277.152,202.445 280.000,201.664 280.000 C 201.357 280.000,199.992 280.505,198.632 281.121 C 197.271 281.738,195.929 282.243,195.649 282.243 C 195.369 282.243,195.140 282.392,195.140 282.574 C 195.140 282.756,194.215 283.020,193.084 283.161 C 191.953 283.303,191.028 283.532,191.028 283.672 C 191.028 283.811,189.977 284.238,188.692 284.621 C 187.407 285.003,185.766 285.533,185.047 285.799 C 184.327 286.064,181.720 286.907,179.252 287.672 C 176.785 288.437,174.214 289.294,173.539 289.578 C 172.864 289.861,171.850 290.093,171.285 290.093 C 170.721 290.093,169.928 290.321,169.522 290.600 C 169.117 290.878,168.364 291.198,167.850 291.311 C 165.569 291.811,157.721 293.973,155.207 294.794 C 152.490 295.681,150.655 295.691,150.654 294.819 C 150.653 294.417,149.511 292.876,148.236 291.557 C 147.921 291.232,147.664 290.853,147.664 290.716 C 147.664 290.579,147.369 290.166,147.009 289.797 C 146.650 289.428,146.060 288.713,145.700 288.208 C 144.090 285.952,143.977 285.956,145.192 288.224 C 147.794 293.083,151.438 300.693,154.589 307.850 C 155.766 310.523,157.149 313.636,157.661 314.766 C 158.173 315.897,158.924 317.579,159.329 318.505 C 159.734 319.430,160.296 320.692,160.578 321.308 C 160.859 321.925,161.703 323.860,162.452 325.607 C 163.201 327.355,164.110 329.458,164.471 330.280 C 164.832 331.103,165.589 332.869,166.153 334.206 C 166.717 335.542,167.498 337.319,167.888 338.155 C 168.279 338.991,168.598 339.848,168.598 340.060 C 168.598 342.405,173.388 341.782,180.935 338.455 C 189.809 334.544,199.873 328.494,206.355 323.175 C 210.934 319.418,229.648 300.720,229.444 300.107 C 229.293 299.656,231.218 297.071,236.032 291.258 C 239.911 286.573,248.684 276.136,249.736 274.953 C 255.791 268.146,262.492 261.347,265.975 258.478 C 267.206 257.465,268.552 256.325,268.966 255.945 C 269.707 255.266,273.164 252.955,276.048 251.212 C 282.181 247.504,292.652 244.375,293.630 245.957 C 293.816 246.258,294.672 246.323,296.389 246.165 C 301.457 245.698,310.249 248.785,316.642 253.274 C 321.167 256.452,325.802 259.981,329.168 262.812 C 331.120 264.452,333.056 265.794,333.471 265.794 C 333.886 265.794,334.768 266.275,335.431 266.863 C 336.093 267.450,337.645 268.820,338.879 269.905 C 344.387 274.753,348.230 278.328,353.484 283.491 C 359.393 289.298,359.865 289.705,360.702 289.714 C 361.547 289.723,360.997 286.490,359.675 283.678 C 359.031 282.308,358.505 281.004,358.505 280.779 C 358.505 280.555,358.168 279.743,357.757 278.976 C 357.346 278.209,357.009 277.404,357.009 277.188 C 357.009 276.971,356.411 275.371,355.679 273.631 C 354.947 271.891,353.934 269.387,353.428 268.067 C 352.923 266.747,352.363 265.485,352.185 265.263 C 352.008 265.041,351.749 264.330,351.610 263.681 C 351.472 263.033,351.032 261.862,350.633 261.079 C 350.233 260.296,349.907 259.388,349.907 259.061 C 349.907 258.735,349.754 258.307,349.567 258.112 C 349.381 257.917,349.061 257.168,348.856 256.449 C 348.490 255.160,346.568 250.230,345.578 248.037 C 345.299 247.421,344.799 246.159,344.466 245.234 C 343.162 241.610,342.752 240.519,342.289 239.439 C 342.024 238.822,341.170 236.636,340.391 234.579 C 339.612 232.523,338.743 230.395,338.459 229.849 C 338.176 229.303,337.944 228.641,337.944 228.378 C 337.944 228.115,337.629 227.216,337.245 226.380 C 336.860 225.544,335.989 223.388,335.308 221.589 C 334.434 219.281,333.886 218.318,333.447 218.318 C 333.066 218.318,332.569 217.700,332.168 216.729 C 331.145 214.249,329.707 210.394,329.344 209.159 C 328.796 207.289,327.499 203.598,327.112 202.804 C 326.912 202.393,326.306 200.710,325.767 199.065 C 325.227 197.421,324.659 195.907,324.504 195.701 C 324.349 195.495,324.040 194.654,323.817 193.832 C 323.595 193.009,322.964 191.159,322.416 189.720 C 321.867 188.280,321.191 186.346,320.913 185.421 C 320.636 184.495,320.156 183.065,319.846 182.243 C 317.908 177.095,317.296 175.350,316.966 174.033 C 316.763 173.219,316.458 172.378,316.288 172.164 C 316.119 171.951,315.718 170.935,315.398 169.907 C 314.671 167.574,312.957 162.669,311.412 158.505 C 310.763 156.757,310.102 154.818,309.941 154.197 C 309.781 153.575,309.461 152.714,309.230 152.283 C 308.999 151.851,308.647 150.846,308.447 150.048 C 308.247 149.251,307.390 146.748,306.544 144.486 C 305.697 142.224,304.771 139.617,304.486 138.692 C 304.202 137.766,303.526 135.832,302.984 134.393 C 302.443 132.953,301.764 131.019,301.476 130.093 C 300.594 127.257,298.481 121.314,298.184 120.833 C 298.029 120.583,297.677 119.579,297.401 118.601 C 297.124 117.623,296.113 114.636,295.153 111.963 C 294.193 109.290,292.988 105.841,292.476 104.299 C 291.964 102.757,291.302 100.965,291.006 100.317 C 290.710 99.669,290.462 98.912,290.455 98.635 C 290.448 98.358,290.117 97.458,289.720 96.636 C 289.322 95.813,288.992 94.799,288.985 94.382 C 288.978 93.965,288.745 93.292,288.467 92.887 C 288.189 92.481,287.840 91.645,287.691 91.028 C 287.542 90.411,286.911 88.813,286.289 87.477 C 285.667 86.140,284.820 84.290,284.408 83.364 C 283.214 80.686,279.283 72.392,278.916 71.776 C 278.732 71.467,277.774 69.617,276.788 67.664 C 275.801 65.710,274.251 62.766,273.344 61.121 C 272.436 59.477,271.098 57.037,270.371 55.701 C 267.871 51.108,263.386 44.958,260.935 42.761 C 259.210 41.216,256.638 39.260,256.327 39.256 C 256.157 39.254,256.745 39.809,257.635 40.490 " stroke="none" fill="#eb9a38" fill-rule="evenodd"></path><path id="path2" d="M0.000 186.916 L 0.000 373.832 200.000 373.832 L 400.000 373.832 400.000 186.916 L 400.000 0.000 200.000 0.000 L 0.000 0.000 0.000 186.916 M255.533 38.597 C 257.319 39.511,258.595 40.464,260.912 42.617 C 263.391 44.921,267.931 51.197,270.375 55.701 C 271.100 57.037,272.436 59.477,273.344 61.121 C 274.251 62.766,275.801 65.710,276.788 67.664 C 277.774 69.617,278.732 71.467,278.916 71.776 C 279.283 72.392,283.214 80.686,284.408 83.364 C 284.820 84.290,285.667 86.140,286.289 87.477 C 286.911 88.813,287.542 90.411,287.691 91.028 C 287.840 91.645,288.189 92.481,288.467 92.887 C 288.745 93.292,288.978 93.965,288.985 94.382 C 288.992 94.799,289.322 95.813,289.720 96.636 C 290.117 97.458,290.448 98.358,290.455 98.635 C 290.462 98.912,290.710 99.669,291.006 100.317 C 291.302 100.965,291.964 102.757,292.476 104.299 C 292.988 105.841,294.193 109.290,295.153 111.963 C 296.113 114.636,297.124 117.623,297.401 118.601 C 297.677 119.579,298.029 120.583,298.184 120.833 C 298.481 121.314,300.594 127.257,301.476 130.093 C 301.764 131.019,302.443 132.953,302.984 134.393 C 303.526 135.832,304.202 137.766,304.486 138.692 C 304.771 139.617,305.697 142.224,306.544 144.486 C 307.390 146.748,308.247 149.251,308.447 150.048 C 308.647 150.846,308.999 151.851,309.230 152.283 C 309.461 152.714,309.781 153.575,309.941 154.197 C 310.102 154.818,310.763 156.757,311.412 158.505 C 312.957 162.669,314.671 167.574,315.398 169.907 C 315.718 170.935,316.119 171.951,316.288 172.164 C 316.458 172.378,316.763 173.219,316.966 174.033 C 317.296 175.350,317.908 177.095,319.846 182.243 C 320.156 183.065,320.636 184.495,320.913 185.421 C 321.191 186.346,321.867 188.280,322.416 189.720 C 322.964 191.159,323.595 193.009,323.817 193.832 C 324.040 194.654,324.349 195.495,324.504 195.701 C 324.659 195.907,325.227 197.421,325.767 199.065 C 326.306 200.710,326.912 202.393,327.112 202.804 C 327.499 203.598,328.796 207.289,329.344 209.159 C 329.707 210.394,331.145 214.249,332.168 216.729 C 332.569 217.700,333.066 218.318,333.447 218.318 C 333.886 218.318,334.434 219.281,335.308 221.589 C 335.989 223.388,336.860 225.544,337.245 226.380 C 337.629 227.216,337.944 228.115,337.944 228.378 C 337.944 228.641,338.176 229.303,338.459 229.849 C 338.743 230.395,339.612 232.523,340.391 234.579 C 341.170 236.636,342.024 238.822,342.289 239.439 C 342.554 240.056,343.045 241.318,343.380 242.243 C 343.715 243.168,344.233 244.598,344.530 245.421 C 344.828 246.243,345.299 247.421,345.578 248.037 C 346.568 250.230,348.490 255.160,348.856 256.449 C 349.061 257.168,349.381 257.917,349.567 258.112 C 349.754 258.307,349.907 258.735,349.907 259.061 C 349.907 259.388,350.233 260.296,350.633 261.079 C 351.032 261.862,351.472 263.033,351.610 263.681 C 351.749 264.330,352.008 265.041,352.185 265.263 C 352.363 265.485,352.923 266.747,353.428 268.067 C 353.934 269.387,354.947 271.891,355.679 273.631 C 356.411 275.371,357.009 276.971,357.009 277.188 C 357.009 277.404,357.346 278.209,357.757 278.976 C 358.168 279.743,358.505 280.555,358.505 280.779 C 358.505 281.004,359.031 282.308,359.675 283.678 C 361.366 287.276,361.572 289.720,360.184 289.720 C 358.492 289.720,352.338 288.018,351.225 287.243 C 350.820 286.960,350.242 286.729,349.941 286.729 C 349.641 286.729,348.711 286.422,347.875 286.048 C 347.039 285.673,345.766 285.153,345.047 284.892 C 343.367 284.282,341.192 283.421,337.056 281.730 C 335.231 280.984,333.465 280.371,333.131 280.368 C 332.441 280.362,329.711 279.478,328.037 278.719 C 325.439 277.541,314.811 274.019,313.854 274.019 C 313.548 274.019,312.576 273.775,311.695 273.477 C 300.656 269.747,281.030 271.439,268.224 277.224 C 262.844 279.655,259.588 281.237,257.374 282.495 C 255.940 283.311,254.346 284.216,253.832 284.505 C 243.476 290.345,227.832 302.466,217.757 312.455 C 206.290 323.826,201.633 327.473,191.262 333.206 C 177.464 340.834,168.598 343.515,168.598 340.060 C 168.598 339.848,168.279 338.991,167.888 338.155 C 167.498 337.319,166.717 335.542,166.153 334.206 C 165.589 332.869,164.832 331.103,164.471 330.280 C 164.110 329.458,163.201 327.355,162.452 325.607 C 161.703 323.860,160.859 321.925,160.578 321.308 C 160.296 320.692,159.734 319.430,159.329 318.505 C 158.924 317.579,158.173 315.897,157.661 314.766 C 157.149 313.636,155.766 310.523,154.589 307.850 C 153.412 305.178,151.813 301.645,151.035 300.000 C 150.256 298.355,148.983 295.664,148.204 294.019 C 143.818 284.752,125.950 267.302,119.083 265.578 C 118.576 265.451,117.966 265.111,117.727 264.823 C 117.487 264.535,117.129 264.299,116.931 264.299 C 116.732 264.299,115.533 263.820,114.266 263.235 C 112.999 262.650,111.290 261.955,110.467 261.691 C 109.645 261.427,108.804 261.080,108.598 260.920 C 108.393 260.761,107.299 260.459,106.168 260.250 C 105.037 260.041,103.681 259.705,103.154 259.503 C 102.627 259.302,100.528 258.927,98.490 258.671 C 94.484 258.166,95.070 258.454,88.598 253.818 C 87.056 252.713,84.280 250.715,82.430 249.377 C 80.579 248.039,78.140 246.316,77.009 245.547 C 75.879 244.779,72.850 242.642,70.280 240.798 C 67.710 238.954,64.850 236.915,63.925 236.265 C 63.000 235.616,58.626 232.502,54.206 229.346 C 49.785 226.189,45.361 223.048,44.374 222.364 C 43.387 221.681,40.948 219.943,38.953 218.502 C 35.129 215.739,33.553 214.633,32.564 214.019 C 32.233 213.813,31.879 213.547,31.776 213.427 C 31.673 213.308,30.238 212.268,28.586 211.117 C 24.092 207.984,23.988 207.819,25.905 206.847 C 28.183 205.693,31.814 204.112,32.187 204.112 C 32.363 204.112,33.765 203.523,35.302 202.804 C 36.839 202.084,38.288 201.495,38.523 201.495 C 38.758 201.495,39.397 201.259,39.942 200.971 C 40.488 200.683,42.280 199.932,43.925 199.303 C 49.308 197.245,56.241 194.396,57.254 193.828 C 57.800 193.522,58.473 193.270,58.749 193.269 C 59.026 193.267,59.757 193.001,60.374 192.678 C 60.991 192.354,62.084 191.873,62.804 191.609 C 63.523 191.346,66.467 190.163,69.346 188.980 C 72.224 187.798,75.336 186.534,76.262 186.172 C 77.187 185.809,79.626 184.805,81.682 183.939 C 83.738 183.074,85.961 182.206,86.622 182.010 C 87.283 181.815,87.924 181.493,88.046 181.295 C 88.168 181.097,88.559 180.935,88.915 180.935 C 89.271 180.935,90.180 180.619,90.936 180.234 C 91.691 179.849,92.610 179.445,92.977 179.337 C 93.344 179.228,95.495 178.359,97.757 177.404 C 100.019 176.449,104.210 174.736,107.070 173.596 C 116.420 169.870,120.164 168.036,120.688 166.924 C 121.015 166.231,130.610 154.074,131.169 153.645 C 131.303 153.542,132.163 152.533,133.080 151.402 C 138.468 144.762,144.049 139.105,148.483 135.791 C 152.126 133.067,158.566 129.755,161.682 129.002 C 163.614 128.535,166.612 127.561,168.037 126.937 C 172.692 124.899,176.045 123.032,178.474 121.124 C 180.026 119.905,182.633 117.545,182.916 117.103 C 183.080 116.846,183.445 116.636,183.726 116.636 C 184.007 116.636,184.293 116.485,184.361 116.302 C 184.430 116.118,186.443 113.889,188.835 111.349 C 194.182 105.670,201.062 97.767,203.574 94.421 C 204.203 93.583,205.727 91.551,206.961 89.907 C 209.369 86.695,214.367 79.178,217.524 74.019 C 218.593 72.271,219.623 70.589,219.811 70.280 C 220.000 69.972,222.254 66.094,224.820 61.662 C 230.765 51.393,231.554 50.210,235.054 46.323 C 242.269 38.311,249.585 35.550,255.533 38.597 M295.782 246.297 C 295.259 246.629,300.077 250.553,306.683 255.174 C 308.714 256.595,310.985 258.186,311.730 258.710 C 313.154 259.712,323.184 266.461,324.202 267.103 C 324.529 267.308,326.198 268.421,327.912 269.575 C 331.590 272.051,332.450 272.523,333.282 272.523 C 333.623 272.523,335.022 273.256,336.390 274.151 C 342.513 278.155,345.300 279.931,346.168 280.382 C 346.682 280.649,348.335 281.681,349.840 282.676 C 351.345 283.671,352.973 284.585,353.458 284.706 C 353.942 284.828,354.429 285.164,354.541 285.454 C 354.652 285.744,355.041 285.981,355.405 285.981 C 356.322 285.981,348.505 278.378,338.879 269.905 C 337.645 268.820,336.093 267.450,335.431 266.863 C 334.768 266.275,333.886 265.794,333.471 265.794 C 333.056 265.794,331.120 264.452,329.168 262.812 C 325.802 259.981,321.167 256.452,316.642 253.274 C 310.006 248.614,298.301 244.699,295.782 246.297 M369.056 277.382 C 370.599 278.322,371.078 278.323,371.323 277.383 C 371.730 275.828,374.930 277.255,374.947 278.999 C 374.950 279.373,375.206 279.932,375.514 280.240 C 375.822 280.549,376.075 281.215,376.075 281.721 C 376.075 282.226,375.822 282.737,375.514 282.855 C 375.206 282.974,374.953 283.473,374.953 283.965 C 374.953 285.053,373.732 286.355,372.710 286.355 C 372.295 286.355,371.963 286.604,371.963 286.916 C 371.963 287.338,371.509 287.477,370.120 287.477 C 368.981 287.477,368.064 287.263,367.717 286.916 C 367.409 286.607,366.898 286.355,366.582 286.355 C 366.266 286.355,365.809 285.977,365.566 285.514 C 365.323 285.051,364.897 284.538,364.618 284.374 C 363.518 283.724,363.969 279.584,365.311 278.027 C 366.677 276.441,367.329 276.329,369.056 277.382 M366.426 279.197 C 365.209 280.118,365.333 283.859,366.587 284.038 C 367.481 284.166,367.854 283.284,367.819 281.121 C 367.783 278.874,367.455 278.421,366.426 279.197 M372.093 278.769 C 372.634 278.909,372.730 279.164,372.538 279.941 C 371.928 282.399,371.916 282.860,372.450 283.303 C 372.878 283.659,373.217 283.662,373.977 283.316 C 375.226 282.747,375.399 280.566,374.225 280.193 C 373.824 280.066,373.392 279.634,373.265 279.233 C 373.122 278.782,372.723 278.521,372.218 278.548 C 371.532 278.585,371.512 278.620,372.093 278.769 M369.869 279.402 C 369.732 279.758,369.805 280.235,370.032 280.461 C 370.331 280.761,370.511 280.696,370.692 280.224 C 370.828 279.868,370.755 279.391,370.529 279.165 C 370.230 278.866,370.050 278.930,369.869 279.402 M369.061 284.839 C 367.589 286.067,367.797 286.355,370.156 286.355 C 372.175 286.355,372.349 286.062,371.119 284.735 L 370.275 283.825 369.061 284.839 " stroke="none" fill="#fbfbfb" fill-rule="evenodd"></path><path id="path3" d="M245.273 38.475 C 237.830 41.808,233.419 46.809,224.820 61.662 C 222.254 66.094,220.000 69.972,219.811 70.280 C 219.623 70.589,218.593 72.271,217.524 74.019 C 214.367 79.178,209.369 86.695,206.961 89.907 C 205.727 91.551,204.203 93.583,203.574 94.421 C 201.062 97.767,194.182 105.670,188.835 111.349 C 186.443 113.889,184.430 116.118,184.361 116.302 C 184.293 116.485,184.007 116.636,183.726 116.636 C 183.445 116.636,183.080 116.846,182.916 117.103 C 182.633 117.545,180.026 119.905,178.474 121.124 C 176.760 122.470,173.840 124.238,171.589 125.293 C 170.252 125.920,168.712 126.667,168.167 126.954 C 167.621 127.242,166.864 127.490,166.484 127.506 C 166.105 127.522,166.001 127.619,166.253 127.721 C 166.803 127.944,172.408 125.758,173.571 124.868 C 174.023 124.522,174.645 124.148,174.953 124.035 C 177.880 122.971,197.757 104.119,197.757 102.408 C 197.757 102.214,197.998 102.056,198.293 102.056 C 198.587 102.056,198.929 101.738,199.052 101.350 C 199.223 100.813,201.121 99.924,201.121 100.380 C 201.121 100.629,199.869 103.160,199.144 104.376 C 198.689 105.137,197.699 106.820,196.942 108.114 C 185.308 128.010,169.393 139.585,152.485 140.448 C 146.375 140.760,145.000 140.234,146.916 138.318 C 147.327 137.907,147.664 137.402,147.664 137.196 C 147.664 136.991,147.825 136.822,148.023 136.822 C 148.220 136.822,148.683 136.517,149.051 136.144 C 150.053 135.128,154.720 132.217,156.636 131.414 C 157.561 131.026,158.991 130.420,159.813 130.067 C 160.636 129.714,161.561 129.345,161.869 129.247 C 162.178 129.149,161.925 129.131,161.308 129.208 C 160.026 129.369,159.219 129.706,154.649 131.995 C 147.939 135.355,141.129 141.483,133.080 151.402 C 132.163 152.533,131.303 153.542,131.169 153.645 C 130.610 154.074,121.015 166.231,120.688 166.924 C 120.164 168.036,116.420 169.870,107.070 173.596 C 104.210 174.736,100.019 176.449,97.757 177.404 C 95.495 178.359,93.344 179.228,92.977 179.337 C 92.610 179.445,91.691 179.849,90.936 180.234 C 90.180 180.619,89.271 180.935,88.915 180.935 C 88.559 180.935,88.168 181.097,88.046 181.295 C 87.924 181.493,87.283 181.815,86.622 182.010 C 85.961 182.206,83.738 183.074,81.682 183.939 C 79.626 184.805,77.187 185.809,76.262 186.172 C 75.336 186.534,72.224 187.798,69.346 188.980 C 66.467 190.163,63.523 191.346,62.804 191.609 C 62.084 191.873,60.991 192.354,60.374 192.678 C 59.757 193.001,59.026 193.267,58.749 193.269 C 58.473 193.270,57.800 193.522,57.254 193.828 C 56.241 194.396,49.308 197.245,43.925 199.303 C 42.280 199.932,40.488 200.683,39.942 200.971 C 39.397 201.259,38.758 201.495,38.523 201.495 C 38.288 201.495,36.839 202.084,35.302 202.804 C 33.765 203.523,32.363 204.112,32.187 204.112 C 31.814 204.112,28.183 205.693,25.905 206.847 C 23.988 207.819,24.092 207.984,28.586 211.117 C 30.238 212.268,31.673 213.308,31.776 213.427 C 31.879 213.547,32.233 213.813,32.564 214.019 C 33.553 214.633,35.129 215.739,38.953 218.502 C 40.948 219.943,43.387 221.681,44.374 222.364 C 45.361 223.048,49.785 226.189,54.206 229.346 C 58.626 232.502,63.000 235.616,63.925 236.265 C 64.850 236.915,67.710 238.954,70.280 240.798 C 72.850 242.642,75.879 244.779,77.009 245.547 C 78.140 246.316,80.579 248.039,82.430 249.377 C 84.280 250.715,87.056 252.713,88.598 253.818 C 95.070 258.454,94.484 258.166,98.490 258.671 C 100.528 258.927,102.627 259.302,103.154 259.503 C 103.681 259.705,105.037 260.041,106.168 260.250 C 107.299 260.459,108.393 260.761,108.598 260.920 C 108.804 261.080,109.645 261.427,110.467 261.691 C 111.290 261.955,112.999 262.650,114.266 263.235 C 115.533 263.820,116.732 264.299,116.931 264.299 C 117.129 264.299,117.487 264.535,117.727 264.823 C 117.966 265.111,118.576 265.451,119.083 265.578 C 123.780 266.757,137.529 278.701,144.029 287.250 C 145.757 289.522,145.830 289.202,144.175 286.618 C 140.253 280.492,129.742 270.503,124.486 267.905 C 124.178 267.753,123.252 267.225,122.430 266.732 C 115.852 262.794,107.539 259.681,100.374 258.474 C 97.894 258.056,97.666 257.792,98.843 256.701 C 99.409 256.177,100.346 255.643,100.925 255.516 C 102.366 255.200,107.781 252.360,108.149 251.728 C 108.314 251.446,108.626 251.215,108.843 251.215 C 109.184 251.215,109.906 250.707,112.040 248.966 C 112.289 248.764,112.602 248.598,112.736 248.598 C 112.870 248.598,113.784 247.925,114.766 247.103 C 115.749 246.280,116.733 245.607,116.955 245.607 C 117.176 245.607,117.537 245.271,117.757 244.860 C 117.977 244.449,118.404 244.112,118.705 244.112 C 119.006 244.112,119.253 243.986,119.254 243.832 C 119.254 243.678,120.302 242.710,121.581 241.682 C 122.861 240.654,125.136 238.593,126.637 237.103 C 128.139 235.612,129.439 234.393,129.526 234.393 C 129.724 234.393,131.589 232.543,131.589 232.347 C 131.589 232.269,132.430 231.355,133.458 230.316 C 134.486 229.277,135.327 228.344,135.327 228.243 C 135.327 227.886,139.220 223.178,139.515 223.178 C 139.679 223.178,139.813 221.579,139.813 219.626 C 139.813 216.324,139.761 216.075,139.065 216.075 C 138.356 216.075,138.318 215.826,138.318 211.215 C 138.318 206.604,138.279 206.355,137.570 206.355 C 136.868 206.355,136.822 206.106,136.822 202.243 C 136.822 198.380,136.777 198.131,136.075 198.131 C 135.394 198.131,135.327 197.882,135.327 195.327 C 135.327 193.084,135.215 192.523,134.766 192.523 C 134.318 192.523,134.206 191.963,134.206 189.720 C 134.206 187.165,134.139 186.916,133.458 186.916 C 132.854 186.916,132.710 186.667,132.710 185.619 C 132.710 184.389,131.415 181.309,130.897 181.308 C 130.676 181.308,129.275 180.230,127.850 178.965 C 127.542 178.691,125.331 176.912,122.936 175.011 C 117.971 171.070,117.724 170.642,119.408 168.900 C 120.065 168.220,121.175 166.907,121.874 165.981 C 125.407 161.301,131.169 154.529,134.078 151.637 C 138.359 147.382,138.805 147.139,143.364 146.560 C 176.710 142.326,185.772 136.586,202.407 109.157 C 203.766 106.917,207.396 101.762,210.627 97.484 C 211.362 96.511,211.963 95.458,211.963 95.144 C 211.963 94.829,212.299 94.284,212.710 93.932 C 213.121 93.580,213.458 92.946,213.458 92.523 C 213.458 92.101,213.691 91.423,213.975 91.017 C 214.259 90.611,214.949 89.186,215.507 87.850 C 216.066 86.514,216.759 85.155,217.047 84.830 C 217.335 84.506,217.571 83.833,217.571 83.335 C 217.572 82.837,217.909 81.879,218.319 81.206 C 218.730 80.533,219.065 79.601,219.065 79.135 C 219.065 78.670,219.402 77.629,219.813 76.822 C 220.224 76.016,220.559 75.097,220.558 74.781 C 220.553 73.948,224.458 64.911,226.603 60.791 C 227.150 59.739,228.132 57.827,228.784 56.542 C 229.435 55.257,230.105 54.206,230.271 54.206 C 230.437 54.206,230.680 53.781,230.810 53.261 C 231.045 52.325,233.805 49.346,234.438 49.346 C 235.156 49.346,233.854 53.054,232.936 53.621 C 232.709 53.761,232.523 54.218,232.523 54.636 C 232.523 55.054,232.187 55.824,231.776 56.347 C 231.364 56.869,231.028 57.571,231.028 57.906 C 231.028 58.242,230.692 59.143,230.280 59.911 C 229.869 60.678,229.533 61.559,229.533 61.869 C 229.533 62.179,229.196 63.060,228.785 63.828 C 228.374 64.595,228.037 65.451,228.037 65.731 C 228.037 66.011,227.811 66.686,227.533 67.232 C 226.588 69.093,225.851 70.840,225.422 72.238 C 225.185 73.006,224.855 73.719,224.688 73.822 C 224.521 73.926,224.268 74.643,224.127 75.416 C 223.986 76.190,223.658 77.159,223.398 77.570 C 223.139 77.981,222.718 79.157,222.464 80.182 C 222.209 81.207,221.872 82.217,221.715 82.425 C 221.559 82.633,221.039 83.897,220.562 85.234 C 220.084 86.570,219.489 87.916,219.240 88.224 C 218.990 88.533,218.674 89.410,218.537 90.175 C 218.400 90.939,218.071 91.782,217.806 92.047 C 217.541 92.313,217.218 93.180,217.089 93.975 C 216.960 94.770,216.618 95.693,216.329 96.028 C 216.040 96.362,215.705 97.160,215.584 97.802 C 215.464 98.443,214.852 99.838,214.225 100.902 C 213.597 101.966,213.084 103.143,213.084 103.517 C 213.084 103.892,212.748 104.626,212.336 105.149 C 211.925 105.672,211.589 106.328,211.589 106.607 C 211.589 106.886,211.252 107.742,210.841 108.509 C 210.430 109.276,210.093 110.166,210.093 110.485 C 210.093 110.805,209.777 111.689,209.390 112.449 C 207.449 116.261,205.963 119.483,205.972 119.861 C 205.977 120.093,205.733 120.488,205.430 120.739 C 205.127 120.991,204.773 121.763,204.644 122.454 C 204.514 123.146,204.173 123.906,203.886 124.145 C 203.599 124.383,203.364 124.840,203.364 125.161 C 203.364 125.483,203.043 126.429,202.650 127.265 C 202.257 128.101,201.500 129.710,200.969 130.841 C 200.437 131.972,199.848 133.150,199.658 133.458 C 199.469 133.766,199.112 134.565,198.864 135.234 C 198.616 135.902,198.266 136.449,198.085 136.449 C 197.905 136.449,197.757 136.725,197.757 137.062 C 197.757 137.741,197.402 138.540,193.374 146.916 C 188.295 157.476,186.199 161.495,185.771 161.495 C 185.611 161.495,185.372 161.988,185.239 162.591 C 185.107 163.194,184.757 163.887,184.462 164.132 C 184.167 164.377,183.925 164.871,183.925 165.229 C 183.925 165.587,183.628 166.282,183.265 166.772 C 182.902 167.262,182.201 168.421,181.707 169.346 C 181.213 170.271,180.501 171.429,180.124 171.920 C 179.747 172.410,179.439 173.023,179.439 173.281 C 179.439 173.540,179.187 173.849,178.879 173.967 C 178.570 174.085,178.318 174.501,178.318 174.891 C 178.318 175.281,177.981 176.028,177.570 176.551 C 177.159 177.073,176.822 177.647,176.822 177.824 C 176.822 178.002,176.276 178.985,175.607 180.009 C 174.939 181.032,174.180 182.290,173.921 182.804 C 173.662 183.318,173.119 184.243,172.716 184.860 C 171.753 186.330,170.638 188.302,169.916 189.813 C 169.597 190.481,169.170 191.028,168.967 191.028 C 168.764 191.028,168.598 191.254,168.598 191.531 C 168.598 191.807,168.262 192.338,167.850 192.710 C 167.439 193.082,167.103 193.531,167.103 193.707 C 167.103 193.882,166.514 194.864,165.794 195.888 C 165.075 196.912,164.486 197.885,164.486 198.051 C 164.486 198.217,164.233 198.681,163.923 199.083 C 163.613 199.484,162.478 201.060,161.400 202.585 C 160.321 204.109,158.977 206.007,158.411 206.803 C 157.846 207.599,157.383 208.343,157.383 208.456 C 157.383 208.844,153.908 213.084,153.590 213.084 C 153.414 213.084,153.271 213.328,153.271 213.626 C 153.271 213.924,153.041 214.303,152.761 214.467 C 152.480 214.632,151.980 215.297,151.649 215.945 C 151.317 216.593,150.285 217.918,149.355 218.889 C 148.425 219.860,147.664 220.717,147.664 220.794 C 147.664 220.872,147.369 221.248,147.009 221.631 C 146.650 222.015,145.682 223.146,144.860 224.145 C 144.037 225.144,142.439 226.948,141.308 228.154 C 140.178 229.361,139.196 230.501,139.128 230.688 C 139.059 230.875,138.765 231.028,138.474 231.028 C 138.182 231.028,137.944 231.199,137.944 231.408 C 137.944 231.711,134.906 234.772,129.577 239.837 C 128.715 240.656,125.279 243.579,124.330 244.299 C 123.789 244.710,123.097 245.270,122.792 245.543 C 122.018 246.237,116.515 250.551,115.659 251.136 C 115.271 251.401,114.701 251.779,114.393 251.977 C 113.894 252.297,113.894 252.377,114.393 252.705 C 115.506 253.436,118.277 252.824,118.991 251.690 C 119.155 251.429,119.525 251.215,119.813 251.215 C 120.101 251.215,120.471 250.978,120.636 250.689 C 120.800 250.400,122.617 248.831,124.673 247.204 C 129.895 243.069,145.831 227.117,148.301 223.551 C 149.070 222.441,150.951 220.295,151.869 219.480 C 152.229 219.161,152.523 218.693,152.523 218.440 C 152.523 218.188,152.734 217.847,152.991 217.682 C 153.248 217.518,153.626 217.111,153.832 216.779 C 154.218 216.154,158.542 210.425,158.877 210.093 C 159.309 209.666,162.243 205.283,162.243 205.065 C 162.243 204.838,165.186 200.762,165.630 200.374 C 165.748 200.271,166.412 199.178,167.105 197.944 C 167.799 196.710,168.503 195.645,168.670 195.576 C 168.836 195.508,168.972 195.294,168.972 195.101 C 168.972 194.711,170.763 191.867,171.495 191.095 C 171.752 190.823,171.963 190.459,171.963 190.286 C 171.963 190.113,172.551 189.078,173.271 187.985 C 173.991 186.892,174.581 185.826,174.582 185.616 C 174.584 185.285,177.373 180.677,178.208 179.626 C 178.371 179.421,179.002 178.243,179.610 177.009 C 180.218 175.776,180.836 174.681,180.982 174.576 C 181.129 174.471,181.363 173.931,181.502 173.376 C 181.642 172.821,181.991 172.171,182.280 171.932 C 182.568 171.693,182.804 171.292,182.804 171.040 C 182.804 170.789,183.140 170.279,183.551 169.907 C 183.963 169.534,184.299 169.016,184.299 168.754 C 184.299 168.492,184.529 168.048,184.810 167.766 C 185.092 167.485,185.449 166.842,185.604 166.338 C 185.759 165.833,186.019 165.252,186.182 165.047 C 186.344 164.841,187.188 163.327,188.056 161.682 C 191.456 155.243,191.829 154.568,192.170 154.224 C 192.364 154.029,192.523 153.589,192.523 153.247 C 192.523 152.904,192.860 152.196,193.271 151.674 C 193.682 151.151,194.019 150.474,194.019 150.169 C 194.019 149.450,197.231 142.942,197.741 142.627 C 197.955 142.494,198.131 142.051,198.131 141.641 C 198.131 141.231,198.465 140.274,198.874 139.513 C 199.858 137.683,200.964 135.014,201.266 133.738 C 201.400 133.173,201.675 132.710,201.876 132.710 C 202.078 132.710,202.243 132.532,202.243 132.313 C 202.243 131.718,204.192 127.682,204.550 127.539 C 204.720 127.470,204.865 127.134,204.872 126.791 C 204.878 126.449,205.297 125.327,205.803 124.299 C 206.308 123.271,206.724 122.156,206.726 121.821 C 206.727 121.487,206.981 121.004,207.290 120.748 C 207.598 120.492,207.850 119.987,207.850 119.625 C 207.850 119.264,208.436 117.813,209.152 116.400 C 209.868 114.988,210.456 113.644,210.460 113.415 C 210.464 113.186,210.790 112.588,211.184 112.087 C 211.579 111.585,212.020 110.540,212.166 109.763 C 212.312 108.987,212.662 108.263,212.944 108.154 C 213.227 108.046,213.458 107.486,213.458 106.910 C 213.458 106.335,213.863 105.049,214.357 104.053 C 214.852 103.058,215.639 101.360,216.106 100.280 C 216.573 99.201,217.094 98.318,217.263 98.318 C 217.432 98.318,217.571 97.939,217.573 97.477 C 217.574 97.014,217.909 96.131,218.318 95.514 C 218.726 94.897,219.062 94.051,219.063 93.635 C 219.064 93.218,219.296 92.545,219.578 92.139 C 219.861 91.734,220.214 90.813,220.363 90.093 C 220.512 89.374,220.870 88.412,221.158 87.957 C 221.446 87.502,221.682 86.906,221.682 86.634 C 221.682 86.362,222.019 85.479,222.430 84.673 C 222.841 83.866,223.178 83.002,223.178 82.751 C 223.178 82.501,223.409 82.065,223.693 81.781 C 223.976 81.498,224.332 80.687,224.484 79.979 C 224.635 79.271,224.987 78.271,225.266 77.757 C 225.545 77.243,225.950 76.115,226.168 75.249 C 226.385 74.384,226.726 73.575,226.926 73.452 C 227.126 73.328,227.290 72.895,227.290 72.490 C 227.290 71.852,228.449 68.694,229.542 66.355 C 229.734 65.944,230.059 65.145,230.263 64.579 C 230.468 64.014,230.793 63.551,230.986 63.551 C 231.179 63.551,231.447 62.894,231.583 62.091 C 231.719 61.287,232.065 60.320,232.352 59.941 C 232.639 59.562,232.879 59.013,232.885 58.720 C 232.899 58.105,235.836 52.111,237.204 49.907 C 237.714 49.084,238.388 47.907,238.702 47.290 C 239.468 45.783,240.093 44.758,240.645 44.098 C 244.200 39.858,246.944 38.045,250.273 37.736 L 252.897 37.493 250.280 37.448 C 248.145 37.412,247.224 37.601,245.273 38.475 M253.832 38.286 C 255.474 39.163,256.827 39.387,255.327 38.533 C 254.607 38.124,253.766 37.788,253.458 37.788 C 253.147 37.787,253.313 38.009,253.832 38.286 M163.738 128.411 C 163.198 128.720,163.040 128.945,163.364 128.945 C 163.673 128.945,164.346 128.705,164.860 128.411 C 165.400 128.102,165.558 127.877,165.234 127.877 C 164.925 127.877,164.252 128.117,163.738 128.411 M294.443 246.648 C 294.293 246.890,296.977 249.161,299.724 251.116 C 305.954 255.549,307.466 256.602,309.678 258.044 C 310.067 258.297,310.824 258.853,311.360 259.279 C 312.247 259.983,322.044 266.479,329.533 271.330 C 331.178 272.396,332.812 273.268,333.164 273.269 C 333.878 273.271,341.035 277.480,342.695 278.873 C 342.943 279.082,343.246 279.252,343.368 279.252 C 343.491 279.252,344.970 280.156,346.655 281.261 C 348.341 282.366,350.645 283.803,351.776 284.455 C 352.907 285.108,354.084 285.790,354.393 285.971 C 354.701 286.153,355.248 286.392,355.607 286.503 C 355.967 286.615,356.262 286.963,356.262 287.278 C 356.262 288.090,354.059 288.023,352.066 287.150 C 351.187 286.764,349.963 286.280,349.346 286.074 C 348.729 285.868,347.902 285.566,347.509 285.403 C 347.007 285.195,346.873 285.236,347.061 285.539 C 347.208 285.777,348.241 286.237,349.358 286.562 C 350.474 286.886,351.467 287.280,351.564 287.437 C 351.661 287.593,352.715 287.990,353.907 288.318 C 359.836 289.952,360.674 290.071,359.242 289.079 C 358.734 288.726,357.995 288.033,357.601 287.538 C 357.206 287.043,356.323 286.404,355.638 286.118 C 354.953 285.832,354.393 285.450,354.393 285.269 C 354.393 285.089,353.984 284.838,353.485 284.713 C 352.986 284.588,351.345 283.671,349.840 282.676 C 348.335 281.681,346.682 280.649,346.168 280.382 C 345.300 279.931,342.513 278.155,336.390 274.151 C 335.022 273.256,333.623 272.523,333.282 272.523 C 332.450 272.523,331.590 272.051,327.912 269.575 C 326.198 268.421,324.529 267.308,324.202 267.103 C 323.184 266.461,313.154 259.712,311.730 258.710 C 310.985 258.186,308.714 256.596,306.683 255.176 C 304.652 253.757,301.196 251.192,299.003 249.475 C 294.871 246.242,294.743 246.163,294.443 246.648 M286.201 271.208 C 285.397 271.495,283.631 271.845,282.276 271.986 C 280.921 272.127,279.477 272.418,279.065 272.634 C 278.654 272.850,277.393 273.238,276.262 273.496 C 273.767 274.066,268.229 276.050,267.136 276.766 C 266.701 277.052,265.789 277.407,265.109 277.556 C 264.430 277.705,263.790 278.047,263.687 278.316 C 263.584 278.585,262.939 278.910,262.255 279.039 C 261.570 279.167,260.804 279.520,260.553 279.823 C 260.301 280.126,259.818 280.374,259.478 280.374 C 259.139 280.374,258.009 280.921,256.967 281.589 C 254.571 283.125,253.523 283.748,252.282 284.376 C 251.739 284.650,251.087 285.124,250.835 285.428 C 250.582 285.732,250.205 285.981,249.996 285.981 C 249.788 285.981,248.441 286.780,247.003 287.757 C 245.565 288.734,243.990 289.752,243.503 290.020 C 243.016 290.289,242.617 290.640,242.617 290.802 C 242.617 290.963,242.190 291.289,241.668 291.527 C 241.146 291.765,240.516 292.137,240.266 292.354 C 240.017 292.572,238.950 293.371,237.895 294.132 C 234.362 296.677,228.527 301.524,227.267 302.959 C 226.559 303.766,228.921 302.121,232.729 299.156 C 238.865 294.378,250.581 286.193,253.280 284.798 C 253.892 284.481,255.650 283.500,257.187 282.618 C 259.562 281.254,262.714 279.714,268.224 277.224 C 281.030 271.439,300.656 269.747,311.695 273.477 C 312.576 273.775,313.548 274.019,313.854 274.019 C 314.848 274.019,325.021 277.407,328.411 278.867 C 329.234 279.221,330.664 279.716,331.589 279.968 C 332.514 280.219,333.860 280.601,334.579 280.816 C 335.951 281.227,341.113 283.288,343.842 284.515 C 344.721 284.910,345.730 285.230,346.085 285.225 C 347.381 285.209,336.241 280.657,332.748 279.776 C 331.597 279.486,330.234 279.045,329.720 278.796 C 325.851 276.926,312.029 272.634,307.290 271.830 C 305.953 271.604,304.103 271.254,303.178 271.053 C 300.506 270.472,287.945 270.587,286.201 271.208 M365.311 278.027 C 363.969 279.584,363.518 283.724,364.618 284.374 C 364.897 284.538,365.323 285.051,365.566 285.514 C 365.809 285.977,366.266 286.355,366.582 286.355 C 366.898 286.355,367.409 286.607,367.717 286.916 C 368.064 287.263,368.981 287.477,370.120 287.477 C 371.509 287.477,371.963 287.338,371.963 286.916 C 371.963 286.604,372.295 286.355,372.710 286.355 C 373.732 286.355,374.953 285.053,374.953 283.965 C 374.953 283.473,375.206 282.974,375.514 282.855 C 375.822 282.737,376.075 282.226,376.075 281.721 C 376.075 281.215,375.822 280.549,375.514 280.240 C 375.206 279.932,374.950 279.373,374.947 278.999 C 374.930 277.255,371.730 275.828,371.323 277.383 C 371.078 278.323,370.599 278.322,369.056 277.382 C 367.329 276.329,366.677 276.441,365.311 278.027 M367.819 281.121 C 367.854 283.284,367.481 284.166,366.587 284.038 C 365.333 283.859,365.209 280.118,366.426 279.197 C 367.455 278.421,367.783 278.874,367.819 281.121 M373.265 279.233 C 373.392 279.634,373.824 280.066,374.225 280.193 C 375.399 280.566,375.226 282.747,373.977 283.316 C 373.217 283.662,372.878 283.659,372.450 283.303 C 371.916 282.860,371.928 282.399,372.538 279.941 C 372.730 279.164,372.634 278.909,372.093 278.769 C 371.512 278.620,371.532 278.585,372.218 278.548 C 372.723 278.521,373.122 278.782,373.265 279.233 M370.692 280.224 C 370.511 280.696,370.331 280.761,370.032 280.461 C 369.805 280.235,369.732 279.758,369.869 279.402 C 370.050 278.930,370.230 278.866,370.529 279.165 C 370.755 279.391,370.828 279.868,370.692 280.224 M371.963 286.001 C 371.963 286.400,368.487 286.493,368.098 286.104 C 367.959 285.966,368.393 285.396,369.061 284.839 L 370.275 283.825 371.119 284.735 C 371.583 285.236,371.963 285.806,371.963 286.001 " stroke="none" fill="#5292c2" fill-rule="evenodd"></path><path id="path4" d="M247.850 38.034 C 246.845 38.424,243.203 41.204,242.141 42.392 C 240.132 44.639,239.836 45.060,238.702 47.290 C 238.388 47.907,237.714 49.084,237.204 49.907 C 235.836 52.111,232.899 58.105,232.885 58.720 C 232.879 59.013,232.639 59.562,232.352 59.941 C 232.065 60.320,231.719 61.287,231.583 62.091 C 231.447 62.894,231.179 63.551,230.986 63.551 C 230.793 63.551,230.468 64.014,230.263 64.579 C 230.059 65.145,229.734 65.944,229.542 66.355 C 228.449 68.694,227.290 71.852,227.290 72.490 C 227.290 72.895,227.126 73.328,226.926 73.452 C 226.726 73.575,226.385 74.384,226.168 75.249 C 225.950 76.115,225.545 77.243,225.266 77.757 C 224.987 78.271,224.635 79.271,224.484 79.979 C 224.332 80.687,223.976 81.498,223.693 81.781 C 223.409 82.065,223.178 82.501,223.178 82.751 C 223.178 83.002,222.841 83.866,222.430 84.673 C 222.019 85.479,221.682 86.362,221.682 86.634 C 221.682 86.906,221.446 87.502,221.158 87.957 C 220.870 88.412,220.512 89.374,220.363 90.093 C 220.214 90.813,219.861 91.734,219.578 92.139 C 219.296 92.545,219.064 93.218,219.063 93.635 C 219.062 94.051,218.726 94.897,218.318 95.514 C 217.909 96.131,217.574 97.014,217.573 97.477 C 217.571 97.939,217.432 98.318,217.263 98.318 C 217.094 98.318,216.573 99.201,216.106 100.280 C 215.639 101.360,214.852 103.058,214.357 104.053 C 213.863 105.049,213.458 106.335,213.458 106.910 C 213.458 107.486,213.227 108.046,212.944 108.154 C 212.662 108.263,212.312 108.987,212.166 109.763 C 212.020 110.540,211.579 111.585,211.184 112.087 C 210.790 112.588,210.464 113.186,210.460 113.415 C 210.456 113.644,209.868 114.988,209.152 116.400 C 208.436 117.813,207.850 119.264,207.850 119.625 C 207.850 119.987,207.598 120.492,207.290 120.748 C 206.981 121.004,206.727 121.487,206.726 121.821 C 206.724 122.156,206.308 123.271,205.803 124.299 C 205.297 125.327,204.878 126.449,204.872 126.791 C 204.865 127.134,204.720 127.470,204.550 127.539 C 204.192 127.682,202.243 131.718,202.243 132.313 C 202.243 132.532,202.078 132.710,201.876 132.710 C 201.675 132.710,201.400 133.173,201.266 133.738 C 200.964 135.014,199.858 137.683,198.874 139.513 C 198.465 140.274,198.131 141.231,198.131 141.641 C 198.131 142.051,197.955 142.494,197.741 142.627 C 197.231 142.942,194.019 149.450,194.019 150.169 C 194.019 150.474,193.682 151.151,193.271 151.674 C 192.860 152.196,192.523 152.904,192.523 153.247 C 192.523 153.589,192.364 154.029,192.170 154.224 C 191.829 154.568,191.456 155.243,188.056 161.682 C 187.188 163.327,186.344 164.841,186.182 165.047 C 186.019 165.252,185.759 165.833,185.604 166.338 C 185.449 166.842,185.092 167.485,184.810 167.766 C 184.529 168.048,184.299 168.492,184.299 168.754 C 184.299 169.016,183.963 169.534,183.551 169.907 C 183.140 170.279,182.804 170.789,182.804 171.040 C 182.804 171.292,182.568 171.693,182.280 171.932 C 181.991 172.171,181.642 172.821,181.502 173.376 C 181.363 173.931,181.129 174.471,180.982 174.576 C 180.836 174.681,180.218 175.776,179.610 177.009 C 179.002 178.243,178.371 179.421,178.208 179.626 C 177.373 180.677,174.584 185.285,174.582 185.616 C 174.581 185.826,173.991 186.892,173.271 187.985 C 172.551 189.078,171.963 190.113,171.963 190.286 C 171.963 190.459,171.752 190.823,171.495 191.095 C 170.763 191.867,168.972 194.711,168.972 195.101 C 168.972 195.294,168.836 195.508,168.670 195.576 C 168.503 195.645,167.799 196.710,167.105 197.944 C 166.412 199.178,165.748 200.271,165.630 200.374 C 165.186 200.762,162.243 204.838,162.243 205.065 C 162.243 205.283,159.309 209.666,158.877 210.093 C 158.542 210.425,154.218 216.154,153.832 216.779 C 153.626 217.111,153.248 217.518,152.991 217.682 C 152.734 217.847,152.523 218.188,152.523 218.440 C 152.523 218.693,152.229 219.161,151.869 219.480 C 150.951 220.295,149.070 222.441,148.301 223.551 C 145.831 227.117,129.895 243.069,124.673 247.204 C 122.617 248.831,120.800 250.400,120.636 250.689 C 120.471 250.978,120.101 251.215,119.813 251.215 C 119.525 251.215,119.155 251.429,118.991 251.690 C 118.277 252.824,115.506 253.436,114.393 252.705 C 113.894 252.377,113.894 252.297,114.393 251.977 C 114.701 251.779,115.271 251.401,115.659 251.136 C 116.515 250.551,122.018 246.237,122.792 245.543 C 123.097 245.270,123.789 244.710,124.330 244.299 C 125.279 243.579,128.715 240.656,129.577 239.837 C 134.906 234.772,137.944 231.711,137.944 231.408 C 137.944 231.199,138.182 231.028,138.474 231.028 C 138.765 231.028,139.059 230.875,139.128 230.688 C 139.196 230.501,140.178 229.361,141.308 228.154 C 142.439 226.948,144.037 225.144,144.860 224.145 C 145.682 223.146,146.650 222.015,147.009 221.631 C 147.369 221.248,147.664 220.872,147.664 220.794 C 147.664 220.717,148.425 219.860,149.355 218.889 C 150.285 217.918,151.317 216.593,151.649 215.945 C 151.980 215.297,152.480 214.632,152.761 214.467 C 153.041 214.303,153.271 213.924,153.271 213.626 C 153.271 213.328,153.414 213.084,153.590 213.084 C 153.908 213.084,157.383 208.844,157.383 208.456 C 157.383 208.343,157.846 207.599,158.411 206.803 C 158.977 206.007,160.321 204.109,161.400 202.585 C 162.478 201.060,163.613 199.484,163.923 199.083 C 164.233 198.681,164.486 198.217,164.486 198.051 C 164.486 197.885,165.075 196.912,165.794 195.888 C 166.514 194.864,167.103 193.882,167.103 193.707 C 167.103 193.531,167.439 193.082,167.850 192.710 C 168.262 192.338,168.598 191.807,168.598 191.531 C 168.598 191.254,168.764 191.028,168.967 191.028 C 169.170 191.028,169.597 190.481,169.916 189.813 C 170.638 188.302,171.753 186.330,172.716 184.860 C 173.119 184.243,173.662 183.318,173.921 182.804 C 174.180 182.290,174.939 181.032,175.607 180.009 C 176.276 178.985,176.822 178.002,176.822 177.824 C 176.822 177.647,177.159 177.073,177.570 176.551 C 177.981 176.028,178.318 175.281,178.318 174.891 C 178.318 174.501,178.570 174.085,178.879 173.967 C 179.187 173.849,179.439 173.540,179.439 173.281 C 179.439 173.023,179.747 172.410,180.124 171.920 C 180.501 171.429,181.213 170.271,181.707 169.346 C 182.201 168.421,182.902 167.262,183.265 166.772 C 183.628 166.282,183.925 165.587,183.925 165.229 C 183.925 164.871,184.167 164.377,184.462 164.132 C 184.757 163.887,185.107 163.194,185.239 162.591 C 185.372 161.988,185.611 161.495,185.771 161.495 C 186.199 161.495,188.295 157.476,193.374 146.916 C 197.402 138.540,197.757 137.741,197.757 137.062 C 197.757 136.725,197.905 136.449,198.085 136.449 C 198.266 136.449,198.616 135.902,198.864 135.234 C 199.112 134.565,199.469 133.766,199.658 133.458 C 199.848 133.150,200.437 131.972,200.969 130.841 C 201.500 129.710,202.257 128.101,202.650 127.265 C 203.043 126.429,203.364 125.483,203.364 125.161 C 203.364 124.840,203.599 124.383,203.886 124.145 C 204.173 123.906,204.514 123.146,204.644 122.454 C 204.773 121.763,205.127 120.991,205.430 120.739 C 205.733 120.488,205.977 120.093,205.972 119.861 C 205.963 119.483,207.449 116.261,209.390 112.449 C 209.777 111.689,210.093 110.805,210.093 110.485 C 210.093 110.166,210.430 109.276,210.841 108.509 C 211.252 107.742,211.589 106.886,211.589 106.607 C 211.589 106.328,211.925 105.672,212.336 105.149 C 212.748 104.626,213.084 103.892,213.084 103.517 C 213.084 103.143,213.597 101.966,214.225 100.902 C 214.852 99.838,215.464 98.443,215.584 97.802 C 215.705 97.160,216.040 96.362,216.329 96.028 C 216.618 95.693,216.960 94.770,217.089 93.975 C 217.218 93.180,217.541 92.313,217.806 92.047 C 218.071 91.782,218.400 90.939,218.537 90.175 C 218.674 89.410,218.990 88.533,219.240 88.224 C 219.489 87.916,220.084 86.570,220.562 85.234 C 221.039 83.897,221.559 82.633,221.715 82.425 C 221.872 82.217,222.209 81.207,222.464 80.182 C 222.718 79.157,223.139 77.981,223.398 77.570 C 223.658 77.159,223.986 76.190,224.127 75.416 C 224.268 74.643,224.521 73.926,224.688 73.822 C 224.855 73.719,225.185 73.006,225.422 72.238 C 225.851 70.840,226.588 69.093,227.533 67.232 C 227.811 66.686,228.037 66.011,228.037 65.731 C 228.037 65.451,228.374 64.595,228.785 63.828 C 229.196 63.060,229.533 62.179,229.533 61.869 C 229.533 61.559,229.869 60.678,230.280 59.911 C 230.692 59.143,231.028 58.242,231.028 57.906 C 231.028 57.571,231.364 56.869,231.776 56.347 C 232.187 55.824,232.523 55.054,232.523 54.636 C 232.523 54.218,232.709 53.761,232.936 53.621 C 233.854 53.054,235.156 49.346,234.438 49.346 C 233.805 49.346,231.045 52.325,230.810 53.261 C 230.680 53.781,230.437 54.206,230.271 54.206 C 230.105 54.206,229.435 55.257,228.784 56.542 C 228.132 57.827,227.150 59.739,226.603 60.791 C 224.458 64.911,220.553 73.948,220.558 74.781 C 220.559 75.097,220.224 76.016,219.813 76.822 C 219.402 77.629,219.065 78.670,219.065 79.135 C 219.065 79.601,218.730 80.533,218.319 81.206 C 217.909 81.879,217.572 82.837,217.571 83.335 C 217.571 83.833,217.335 84.506,217.047 84.830 C 216.759 85.155,216.066 86.514,215.507 87.850 C 214.949 89.186,214.259 90.611,213.975 91.017 C 213.691 91.423,213.458 92.101,213.458 92.523 C 213.458 92.946,213.121 93.580,212.710 93.932 C 212.299 94.284,211.963 94.829,211.963 95.144 C 211.963 95.458,211.362 96.511,210.627 97.484 C 207.396 101.762,203.766 106.917,202.407 109.157 C 185.772 136.586,176.710 142.326,143.364 146.560 C 138.805 147.139,138.359 147.382,134.078 151.637 C 131.169 154.529,125.407 161.301,121.874 165.981 C 121.175 166.907,120.065 168.220,119.408 168.900 C 117.724 170.642,117.971 171.070,122.936 175.011 C 125.331 176.912,127.542 178.691,127.850 178.965 C 129.275 180.230,130.676 181.308,130.897 181.308 C 131.415 181.309,132.710 184.389,132.710 185.619 C 132.710 186.667,132.854 186.916,133.458 186.916 C 134.139 186.916,134.206 187.165,134.206 189.720 C 134.206 191.963,134.318 192.523,134.766 192.523 C 135.215 192.523,135.327 193.084,135.327 195.327 C 135.327 197.882,135.394 198.131,136.075 198.131 C 136.777 198.131,136.822 198.380,136.822 202.243 C 136.822 206.106,136.868 206.355,137.570 206.355 C 138.279 206.355,138.318 206.604,138.318 211.215 C 138.318 215.826,138.356 216.075,139.065 216.075 C 139.761 216.075,139.813 216.324,139.813 219.626 C 139.813 221.579,139.679 223.178,139.515 223.178 C 139.220 223.178,135.327 227.886,135.327 228.243 C 135.327 228.344,134.486 229.277,133.458 230.316 C 132.430 231.355,131.589 232.269,131.589 232.347 C 131.589 232.543,129.724 234.393,129.526 234.393 C 129.439 234.393,128.139 235.612,126.637 237.103 C 125.136 238.593,122.861 240.654,121.581 241.682 C 120.302 242.710,119.254 243.678,119.254 243.832 C 119.253 243.986,119.006 244.112,118.705 244.112 C 118.404 244.112,117.977 244.449,117.757 244.860 C 117.537 245.271,117.176 245.607,116.955 245.607 C 116.733 245.607,115.749 246.280,114.766 247.103 C 113.784 247.925,112.870 248.598,112.736 248.598 C 112.602 248.598,112.289 248.764,112.040 248.966 C 109.906 250.707,109.184 251.215,108.843 251.215 C 108.626 251.215,108.314 251.446,108.149 251.728 C 107.781 252.360,102.366 255.200,100.925 255.516 C 100.346 255.643,99.409 256.177,98.843 256.701 C 97.666 257.792,97.894 258.056,100.374 258.474 C 107.539 259.681,115.852 262.794,122.430 266.732 C 123.252 267.225,124.178 267.753,124.486 267.905 C 128.507 269.892,136.991 277.412,141.466 282.955 C 142.819 284.630,143.925 285.862,143.925 285.692 C 143.925 285.522,143.770 285.223,143.580 285.028 C 143.390 284.833,142.406 283.075,141.394 281.121 C 139.602 277.663,138.300 275.360,137.686 274.559 C 137.232 273.968,136.532 272.844,135.836 271.589 C 135.494 270.972,134.693 269.769,134.056 268.916 C 133.419 268.063,132.563 266.906,132.155 266.345 C 130.327 263.833,123.747 258.318,122.579 258.318 C 120.811 258.318,121.171 255.738,123.153 254.206 C 131.259 247.938,146.199 232.253,153.307 222.550 C 154.184 221.353,155.002 220.290,155.126 220.187 C 155.357 219.995,157.494 217.085,159.372 214.403 C 163.638 208.311,173.026 193.673,175.773 188.831 C 176.167 188.137,178.138 184.688,180.153 181.168 C 182.168 177.647,184.410 173.673,185.135 172.336 C 185.860 171.000,187.531 167.972,188.849 165.607 C 191.163 161.457,196.262 151.294,196.262 150.833 C 196.262 150.709,196.838 149.399,197.542 147.921 C 198.245 146.443,199.316 144.140,199.921 142.804 C 200.526 141.467,201.364 139.617,201.785 138.692 C 202.206 137.766,203.346 135.159,204.318 132.897 C 205.291 130.636,206.665 127.523,207.371 125.981 C 208.078 124.439,208.887 122.673,209.169 122.056 C 209.451 121.439,210.124 119.841,210.664 118.505 C 211.204 117.168,211.969 115.360,212.365 114.486 C 213.134 112.787,214.443 109.824,214.966 108.598 C 215.141 108.187,215.715 106.878,216.240 105.690 C 216.766 104.502,217.196 103.380,217.196 103.197 C 217.196 103.014,217.444 102.388,217.747 101.806 C 218.050 101.224,218.545 100.159,218.847 99.439 C 219.149 98.720,220.139 96.364,221.048 94.206 C 222.558 90.619,225.266 83.805,228.029 76.636 C 234.429 60.035,238.012 52.193,242.052 45.948 C 244.058 42.846,248.373 38.230,249.463 38.018 C 250.188 37.877,250.175 37.856,249.346 37.837 C 248.832 37.826,248.159 37.914,247.850 38.034 M200.111 100.476 C 199.658 100.549,199.184 100.934,199.058 101.332 C 198.932 101.730,198.587 102.056,198.293 102.056 C 197.998 102.056,197.757 102.214,197.757 102.408 C 197.757 104.119,177.880 122.971,174.953 124.035 C 174.645 124.148,174.006 124.535,173.534 124.897 C 173.062 125.259,171.464 126.023,169.983 126.595 C 168.482 127.174,167.576 127.694,167.937 127.768 C 168.293 127.842,168.961 127.639,169.422 127.316 C 169.883 126.993,170.631 126.729,171.085 126.729 C 171.538 126.729,172.136 126.519,172.413 126.262 C 172.690 126.005,173.751 125.374,174.771 124.860 C 175.792 124.346,176.881 123.709,177.192 123.444 C 178.816 122.062,180.149 121.121,180.481 121.121 C 180.687 121.121,180.942 120.893,181.050 120.613 C 181.272 120.033,182.804 119.522,182.804 120.028 C 182.804 122.233,170.697 130.709,163.883 133.274 C 160.236 134.646,149.554 136.640,152.056 135.481 C 152.313 135.362,152.523 135.043,152.523 134.772 C 152.523 133.754,159.844 130.042,162.913 129.505 C 163.675 129.371,164.643 129.048,165.062 128.785 C 165.482 128.523,166.155 128.225,166.558 128.123 C 167.198 127.960,167.205 127.932,166.617 127.894 C 166.247 127.870,165.490 128.083,164.935 128.366 C 164.379 128.650,163.336 129.005,162.617 129.156 C 161.897 129.307,160.636 129.718,159.813 130.070 C 158.991 130.421,157.561 131.026,156.636 131.414 C 154.720 132.217,150.053 135.128,149.051 136.144 C 148.683 136.517,148.220 136.822,148.023 136.822 C 147.825 136.822,147.664 136.991,147.664 137.196 C 147.664 137.402,147.327 137.907,146.916 138.318 C 145.000 140.234,146.375 140.760,152.485 140.448 C 169.393 139.585,185.308 128.010,196.942 108.114 C 197.699 106.820,198.689 105.137,199.144 104.376 C 200.066 102.828,201.184 100.473,201.033 100.395 C 200.979 100.367,200.564 100.403,200.111 100.476 M188.351 150.967 C 187.459 153.159,186.041 156.299,185.200 157.944 C 182.854 162.533,179.361 169.115,179.050 169.533 C 178.897 169.738,178.440 170.495,178.035 171.215 C 176.096 174.663,171.732 182.069,170.657 183.738 C 169.995 184.766,168.481 187.206,167.294 189.159 C 161.888 198.050,161.788 198.116,157.882 195.310 C 153.683 192.295,146.735 187.365,139.990 182.617 C 118.010 167.143,119.746 168.987,123.278 164.860 C 129.831 157.202,129.117 157.479,143.611 157.001 C 150.260 156.782,156.374 156.553,157.196 156.491 C 160.044 156.277,166.058 155.511,166.362 155.323 C 166.530 155.219,167.997 154.902,169.622 154.618 C 174.754 153.723,181.774 150.953,186.168 148.091 C 190.548 145.239,190.636 145.354,188.351 150.967 M290.093 246.747 C 287.156 247.435,285.316 247.967,283.364 248.695 C 280.031 249.938,275.319 252.231,274.791 252.868 C 274.521 253.192,274.147 253.458,273.958 253.458 C 273.645 253.458,271.476 254.855,271.028 255.345 C 270.925 255.457,269.748 256.375,268.411 257.384 C 265.149 259.847,256.609 268.470,251.702 274.253 C 250.987 275.096,248.323 278.219,246.673 280.149 C 246.128 280.787,244.470 282.738,242.989 284.486 C 241.508 286.234,239.579 288.505,238.702 289.533 C 237.826 290.561,236.301 292.411,235.313 293.645 C 234.325 294.879,232.774 296.640,231.865 297.559 C 227.290 302.189,228.310 301.886,234.393 296.808 C 235.523 295.863,237.287 294.513,238.313 293.807 C 239.338 293.101,240.390 292.324,240.651 292.081 C 240.912 291.837,241.461 291.531,241.871 291.401 C 242.281 291.271,242.617 291.017,242.617 290.836 C 242.617 290.656,243.016 290.289,243.503 290.020 C 243.990 289.752,245.565 288.734,247.003 287.757 C 248.441 286.780,249.788 285.981,249.996 285.981 C 250.205 285.981,250.582 285.732,250.835 285.428 C 251.087 285.124,251.739 284.650,252.282 284.376 C 253.523 283.748,254.571 283.125,256.967 281.589 C 258.009 280.921,259.139 280.374,259.478 280.374 C 259.818 280.374,260.301 280.126,260.553 279.823 C 260.804 279.520,261.570 279.167,262.255 279.039 C 262.939 278.910,263.584 278.585,263.687 278.316 C 263.790 278.047,264.430 277.705,265.109 277.556 C 265.789 277.407,266.701 277.052,267.136 276.766 C 268.229 276.050,273.767 274.066,276.262 273.496 C 277.393 273.238,278.654 272.851,279.065 272.637 C 279.477 272.423,280.907 272.131,282.243 271.988 C 283.579 271.846,285.394 271.487,286.275 271.192 C 288.163 270.558,300.439 270.457,303.178 271.053 C 304.103 271.254,305.953 271.604,307.290 271.830 C 312.029 272.634,325.851 276.926,329.720 278.796 C 330.234 279.045,331.597 279.486,332.748 279.776 C 334.757 280.283,339.793 282.202,346.528 285.028 C 348.268 285.758,349.915 286.355,350.188 286.355 C 350.461 286.355,351.343 286.692,352.150 287.103 C 353.939 288.016,356.262 288.115,356.262 287.278 C 356.262 286.963,355.967 286.615,355.607 286.503 C 355.248 286.392,354.701 286.153,354.393 285.971 C 354.084 285.790,352.907 285.108,351.776 284.455 C 350.645 283.803,348.341 282.366,346.655 281.261 C 344.970 280.156,343.491 279.252,343.368 279.252 C 343.246 279.252,342.943 279.082,342.695 278.873 C 341.035 277.480,333.878 273.271,333.164 273.269 C 332.812 273.268,331.178 272.396,329.533 271.330 C 322.044 266.479,312.247 259.983,311.360 259.279 C 310.824 258.853,310.067 258.297,309.678 258.044 C 307.888 256.877,306.127 255.664,303.364 253.696 C 301.720 252.524,300.063 251.360,299.683 251.110 C 297.888 249.926,294.403 246.948,294.486 246.668 C 294.601 246.283,291.869 246.332,290.093 246.747 M114.178 255.882 C 119.110 256.516,118.777 256.424,118.887 257.196 C 119.029 258.191,118.887 258.741,118.544 258.529 C 118.135 258.276,117.669 259.368,117.975 259.863 C 118.950 261.442,115.183 261.599,111.041 260.153 C 109.917 259.760,108.433 259.439,107.743 259.439 C 107.053 259.439,106.236 259.187,105.928 258.879 C 105.619 258.570,104.748 258.298,103.992 258.274 C 102.312 258.219,99.987 257.681,101.147 257.614 C 101.573 257.590,103.087 256.979,104.512 256.257 C 106.482 255.259,107.416 254.988,108.411 255.126 C 109.131 255.226,111.726 255.566,114.178 255.882 M323.561 269.174 C 323.693 269.388,324.923 270.089,326.293 270.731 C 327.664 271.373,328.920 272.123,329.084 272.398 C 329.248 272.672,329.685 272.897,330.054 272.897 C 330.423 272.897,331.030 273.234,331.402 273.645 C 331.774 274.056,332.468 274.393,332.944 274.393 C 333.662 274.393,336.160 275.728,341.121 278.765 C 341.533 279.017,342.290 279.436,342.804 279.697 C 343.318 279.958,343.840 280.313,343.964 280.487 C 344.271 280.915,347.952 283.211,349.394 283.873 C 350.037 284.168,350.678 284.595,350.818 284.822 C 350.958 285.048,351.399 285.234,351.798 285.234 C 352.197 285.234,352.523 285.402,352.523 285.607 C 352.523 286.250,350.355 286.016,349.074 285.235 C 348.401 284.825,347.506 284.488,347.084 284.487 C 346.663 284.487,346.158 284.327,345.963 284.134 C 345.767 283.940,344.346 283.261,342.804 282.624 C 341.262 281.988,339.553 281.221,339.008 280.921 C 338.462 280.620,337.783 280.374,337.498 280.374 C 337.213 280.374,336.321 280.037,335.514 279.626 C 334.707 279.215,333.479 278.879,332.784 278.879 C 332.086 278.879,331.094 278.544,330.569 278.131 C 330.047 277.720,329.392 277.383,329.114 277.383 C 328.836 277.383,327.499 276.794,326.143 276.075 C 324.786 275.355,323.376 274.766,323.010 274.766 C 322.644 274.766,321.916 274.430,321.393 274.019 C 320.871 273.607,319.908 273.271,319.254 273.271 L 318.064 273.271 318.966 272.199 C 319.462 271.610,320.086 270.600,320.353 269.956 C 320.855 268.745,322.976 268.228,323.561 269.174 " stroke="none" fill="#4878a4" fill-rule="evenodd"></path></g></svg>