<svg id="svg" version="1.1" xmlns="http://www.w3.org/2000/svg" xmlns:xlink="http://www.w3.org/1999/xlink" width="400" height="324.9278152069297" viewBox="0, 0, 400,324.9278152069297"><g id="svgg"><path id="path0" d="M200.975 46.474 C 190.125 47.416,181.663 48.901,175.884 50.876 C 166.688 54.020,160.120 58.576,156.946 64.013 C 154.769 67.743,154.833 67.109,154.833 84.647 L 154.833 100.569 184.078 100.737 C 200.162 100.830,213.505 101.021,213.729 101.162 C 214.173 101.444,214.288 105.372,213.928 107.997 L 213.722 109.504 172.417 109.520 C 127.096 109.538,123.710 109.630,119.740 110.955 C 100.637 117.329,91.318 136.185,91.312 168.481 C 91.305 201.290,101.206 221.931,119.550 227.351 C 121.172 227.831,146.078 228.482,146.269 228.050 C 146.295 227.992,146.422 219.976,146.552 210.236 L 146.788 192.526 147.810 188.790 C 151.716 174.501,161.884 165.659,175.467 164.740 C 177.701 164.589,193.615 164.376,210.830 164.267 C 246.249 164.043,247.052 163.993,253.354 161.621 C 262.863 158.042,268.694 151.738,271.562 141.935 L 272.446 138.911 272.546 106.093 L 272.645 73.274 271.634 70.589 C 267.109 58.580,256.017 51.446,236.393 47.925 C 228.705 46.545,209.304 45.750,200.975 46.474 M184.418 65.772 C 194.835 70.500,191.422 86.109,179.970 86.109 C 169.459 86.109,165.333 72.579,174.022 66.601 C 176.966 64.575,181.061 64.248,184.418 65.772 " stroke="none" fill="#3573a3" fill-rule="evenodd"></path><path id="path1" d="M281.348 108.269 C 281.321 108.323,281.118 116.409,280.897 126.239 C 280.573 140.648,280.395 144.473,279.978 145.980 C 279.693 147.009,279.265 148.617,279.027 149.555 C 277.045 157.358,269.910 165.622,262.279 168.951 C 255.809 171.774,254.857 171.837,215.272 172.060 C 180.079 172.258,181.941 172.172,176.604 173.834 C 166.341 177.030,160.131 182.621,156.742 191.714 C 154.914 196.618,154.882 197.334,154.945 231.632 L 155.002 262.939 155.804 265.395 C 157.290 269.944,160.505 274.341,164.832 277.745 C 166.650 279.175,167.616 279.780,171.568 281.963 C 186.171 290.029,221.621 292.241,245.811 286.597 C 259.937 283.301,270.166 275.810,272.136 267.317 C 272.665 265.033,272.870 236.803,272.363 236.031 C 271.897 235.322,269.862 235.269,242.167 235.253 C 214.643 235.236,213.812 235.218,213.491 234.617 C 213.000 233.700,213.062 227.291,213.566 226.885 C 213.831 226.672,229.099 226.487,257.514 226.352 C 281.462 226.239,302.080 226.012,303.331 225.847 C 313.803 224.469,323.563 216.634,328.956 205.278 C 331.568 199.777,332.247 197.788,333.974 190.577 L 334.831 187.002 334.840 168.156 C 334.850 148.150,334.833 147.861,333.193 141.229 C 331.593 134.759,329.395 129.112,326.538 124.134 C 322.826 117.667,316.235 112.030,309.180 109.290 L 306.905 108.406 294.151 108.288 C 287.136 108.223,281.375 108.214,281.348 108.269 M251.503 250.560 C 261.859 254.754,259.383 270.295,248.209 271.231 C 238.188 272.072,232.578 260.300,239.465 252.884 C 240.004 252.303,240.535 251.828,240.644 251.828 C 240.753 251.828,241.230 251.552,241.705 251.216 C 244.229 249.425,248.066 249.168,251.503 250.560 " stroke="none" fill="#fbd344" fill-rule="evenodd"></path><path id="path2" d="M0.000 162.470 L 0.000 324.939 200.000 324.939 L 400.000 324.939 400.000 162.470 L 400.000 0.000 200.000 0.000 L 0.000 0.000 0.000 162.470 M227.590 46.478 C 252.071 48.522,268.851 58.080,272.435 72.021 C 273.008 74.246,273.178 123.740,272.652 135.012 C 271.983 149.372,264.792 158.470,250.690 162.798 C 245.946 164.255,243.035 164.372,207.311 164.547 C 173.713 164.712,174.163 164.692,168.489 166.278 C 159.517 168.785,152.054 176.496,148.710 186.712 C 147.159 191.451,147.114 192.042,146.908 210.561 L 146.710 228.270 134.037 228.270 C 119.815 228.270,119.999 228.295,114.388 225.565 C 99.265 218.208,90.984 198.093,90.957 168.643 C 90.926 135.441,100.952 116.039,121.129 110.253 L 124.289 109.346 168.887 109.252 L 213.485 109.158 213.485 105.269 L 213.485 101.381 209.667 101.334 C 207.567 101.308,194.297 101.198,180.179 101.090 L 154.509 100.894 154.419 86.109 C 154.307 67.506,154.429 66.694,158.067 61.770 C 166.913 49.795,194.540 43.718,227.590 46.478 M177.655 65.325 C 165.453 68.364,167.885 86.289,180.424 85.727 C 193.383 85.146,193.713 66.317,180.784 65.187 C 179.736 65.095,178.328 65.157,177.655 65.325 M309.504 108.756 C 316.828 111.641,320.909 114.925,325.781 121.852 C 328.540 125.776,331.906 133.251,333.021 137.937 C 333.192 138.652,333.551 140.041,333.819 141.024 C 335.410 146.841,335.500 148.275,335.499 167.831 C 335.498 186.002,335.484 186.420,334.739 189.927 C 333.094 197.678,329.728 206.535,327.160 209.873 C 326.832 210.299,326.564 210.772,326.564 210.924 C 326.564 212.642,319.486 219.507,314.744 222.388 C 307.212 226.965,310.060 226.744,255.402 226.996 C 232.794 227.100,214.182 227.296,214.041 227.431 C 213.900 227.567,213.827 229.116,213.879 230.875 L 213.972 234.073 214.898 234.320 C 215.407 234.456,228.539 234.595,244.081 234.629 C 267.501 234.681,272.415 234.768,272.783 235.137 C 273.336 235.689,273.492 262.298,272.964 266.019 C 271.786 274.323,264.132 281.418,251.958 285.492 C 231.961 292.184,193.940 291.799,176.459 284.728 C 174.930 284.110,173.156 283.409,172.516 283.171 C 165.126 280.421,157.474 272.589,155.032 265.275 C 154.384 263.335,154.368 262.561,154.316 232.132 C 154.253 195.045,154.268 194.839,157.337 188.525 C 160.960 181.070,166.997 176.163,176.117 173.259 C 181.374 171.585,181.589 171.570,199.772 171.536 C 248.406 171.447,254.383 171.186,260.764 168.867 C 266.042 166.948,271.598 162.398,274.307 157.774 C 275.079 156.456,275.999 154.890,276.351 154.293 C 279.668 148.675,280.380 142.835,280.407 121.024 C 280.419 111.324,280.518 108.238,280.829 107.926 C 281.145 107.608,284.078 107.541,294.070 107.625 L 306.905 107.732 309.504 108.756 M244.517 250.678 C 233.386 254.373,235.545 270.614,247.181 270.729 C 253.731 270.794,259.509 263.380,257.121 257.976 C 256.772 257.186,256.395 256.174,256.283 255.727 C 255.412 252.266,248.574 249.331,244.517 250.678 " stroke="none" fill="#fbfbfb" fill-rule="evenodd"></path><path id="path3" d="M210.154 46.058 C 211.629 46.118,214.041 46.118,215.516 46.058 C 216.990 45.998,215.784 45.949,212.835 45.949 C 209.886 45.949,208.680 45.998,210.154 46.058 M198.700 46.330 C 198.343 46.385,196.326 46.603,194.218 46.814 C 192.111 47.024,190.456 47.266,190.540 47.350 C 190.625 47.435,193.153 47.269,196.159 46.982 C 199.165 46.695,202.210 46.413,202.924 46.356 C 203.639 46.298,203.128 46.246,201.787 46.240 C 200.447 46.235,199.058 46.275,198.700 46.330 M221.933 46.365 C 222.738 46.425,225.787 46.701,228.709 46.979 C 231.631 47.256,234.087 47.419,234.166 47.339 C 234.469 47.037,225.003 46.139,222.258 46.209 C 220.582 46.252,220.562 46.262,221.933 46.365 M182.325 48.761 C 179.643 49.366,178.116 49.980,180.341 49.558 C 182.683 49.114,186.328 48.158,185.703 48.152 C 185.345 48.149,183.825 48.423,182.325 48.761 M238.541 48.235 C 238.762 48.456,244.775 49.729,244.918 49.585 C 244.988 49.515,243.709 49.151,242.075 48.775 C 239.110 48.092,238.270 47.964,238.541 48.235 M175.191 50.742 C 174.055 51.095,173.205 51.462,173.301 51.558 C 173.483 51.739,177.742 50.415,177.742 50.177 C 177.742 49.975,177.457 50.038,175.191 50.742 M246.629 50.177 C 246.629 50.290,249.815 51.417,251.503 51.900 C 252.918 52.305,250.790 51.331,248.931 50.723 C 246.678 49.985,246.629 49.974,246.629 50.177 M170.765 52.498 C 169.698 52.941,168.674 53.460,168.490 53.652 C 168.306 53.843,168.704 53.767,169.374 53.483 C 172.335 52.225,172.868 51.972,172.868 51.823 C 172.868 51.615,172.979 51.579,170.765 52.498 M253.212 52.668 C 254.181 53.232,256.052 53.958,256.052 53.770 C 256.052 53.583,253.232 52.308,252.857 52.325 C 252.738 52.331,252.897 52.485,253.212 52.668 M164.744 55.732 C 160.880 58.377,157.279 62.041,156.525 64.094 C 156.168 65.065,156.523 64.723,157.369 63.282 C 158.481 61.385,162.001 57.996,164.830 56.100 C 167.500 54.309,167.561 54.261,167.154 54.275 C 166.990 54.281,165.906 54.936,164.744 55.732 M257.462 54.660 C 257.791 54.889,259.175 55.808,260.538 56.702 C 263.000 58.316,266.509 61.510,268.213 63.688 C 268.702 64.314,268.939 64.496,268.739 64.093 C 267.639 61.875,261.883 56.810,258.489 55.073 C 257.595 54.616,257.133 54.430,257.462 54.660 M177.139 65.157 C 174.785 65.813,171.994 67.787,171.178 69.374 C 170.994 69.732,171.555 69.309,172.424 68.434 C 177.393 63.436,184.317 64.102,188.975 70.024 C 189.321 70.465,189.295 70.324,188.894 69.586 C 186.960 66.032,181.451 63.956,177.139 65.157 M269.699 66.288 C 270.064 67.002,270.436 67.587,270.525 67.587 C 270.614 67.587,270.389 67.002,270.024 66.288 C 269.660 65.573,269.288 64.988,269.199 64.988 C 269.109 64.988,269.335 65.573,269.699 66.288 M155.341 66.250 C 154.523 67.778,154.334 71.861,154.419 86.109 L 154.509 100.894 180.179 101.090 C 194.297 101.198,207.567 101.308,209.667 101.334 L 213.485 101.381 213.485 105.268 L 213.485 109.156 168.725 109.249 C 133.177 109.323,123.797 109.427,123.152 109.757 L 122.340 110.173 123.152 109.943 C 123.599 109.817,144.161 109.657,168.846 109.589 L 213.727 109.465 213.931 107.977 C 214.288 105.370,214.172 101.443,213.729 101.162 C 213.505 101.021,200.162 100.830,184.078 100.737 L 154.833 100.569 154.842 84.484 C 154.850 70.202,154.912 68.245,155.396 67.019 C 155.956 65.601,155.925 65.159,155.341 66.250 M270.866 68.400 C 271.556 70.623,272.104 71.909,272.217 71.569 C 272.289 71.353,271.970 70.405,271.507 69.463 C 271.044 68.521,270.756 68.042,270.866 68.400 M170.020 71.405 C 169.334 72.955,169.265 77.695,169.906 79.214 C 170.523 80.679,170.668 80.367,170.105 78.785 C 169.471 77.004,169.526 73.927,170.229 71.893 C 170.914 69.909,170.800 69.644,170.020 71.405 M189.619 71.324 C 190.248 73.178,190.457 74.780,190.318 76.686 C 190.202 78.272,190.242 78.595,190.480 77.985 C 190.947 76.789,190.619 72.793,189.960 71.649 C 189.651 71.113,189.497 70.967,189.619 71.324 M272.779 102.356 C 272.779 118.351,272.819 124.894,272.868 116.897 C 272.916 108.899,272.916 95.812,272.868 87.815 C 272.819 79.817,272.779 86.361,272.779 102.356 M189.193 80.381 C 188.611 81.658,186.842 83.481,185.318 84.374 C 183.880 85.216,183.540 85.857,184.924 85.116 C 186.741 84.143,190.187 80.249,189.679 79.741 C 189.605 79.667,189.386 79.956,189.193 80.381 M171.522 82.119 C 172.368 83.338,173.115 83.929,172.605 82.976 C 172.425 82.640,171.944 82.074,171.536 81.719 L 170.795 81.072 171.522 82.119 M173.942 84.292 C 174.443 84.755,175.016 85.134,175.214 85.134 C 175.635 85.134,175.648 85.146,174.167 84.187 L 173.030 83.450 173.942 84.292 M180.016 85.784 L 177.254 85.988 179.854 86.025 C 181.284 86.046,182.746 85.938,183.103 85.784 C 183.461 85.630,183.534 85.522,183.266 85.542 C 182.998 85.563,181.535 85.672,180.016 85.784 M118.765 110.933 C 118.050 111.158,117.027 111.596,116.491 111.906 C 115.478 112.492,115.637 112.453,118.603 111.387 C 121.220 110.446,121.336 110.122,118.765 110.933 M112.571 113.779 C 108.393 116.280,104.372 120.060,101.733 123.964 C 98.847 128.235,99.165 128.153,102.216 123.839 C 104.737 120.275,109.030 116.266,112.608 114.135 C 114.183 113.197,115.327 112.429,115.149 112.429 C 114.971 112.429,113.811 113.036,112.571 113.779 M97.752 130.808 C 96.851 132.695,96.171 134.297,96.242 134.369 C 96.314 134.440,97.121 132.896,98.037 130.937 C 98.952 128.979,99.632 127.376,99.547 127.376 C 99.461 127.376,98.654 128.920,97.752 130.808 M94.731 138.272 C 94.032 140.675,94.269 140.912,95.012 138.554 C 95.326 137.558,95.512 136.671,95.425 136.584 C 95.338 136.497,95.026 137.257,94.731 138.272 M272.293 138.180 C 272.290 138.582,272.004 140.003,271.658 141.336 C 270.936 144.119,271.030 144.855,271.783 142.317 C 272.371 140.337,272.798 137.449,272.503 137.449 C 272.391 137.449,272.296 137.778,272.293 138.180 M92.974 144.978 C 92.279 148.509,91.958 150.589,91.983 151.400 C 91.997 151.859,92.350 150.260,92.768 147.847 C 93.508 143.578,93.656 141.508,92.974 144.978 M269.477 147.545 C 268.913 148.783,268.521 149.797,268.605 149.797 C 268.824 149.797,270.776 145.566,270.626 145.416 C 270.558 145.348,270.041 146.306,269.477 147.545 M267.143 151.503 C 265.277 154.178,260.961 157.904,257.514 159.815 C 257.157 160.013,257.024 160.180,257.220 160.185 C 259.002 160.235,266.227 153.880,268.199 150.528 C 268.775 149.549,268.018 150.247,267.143 151.503 M91.708 153.371 C 91.708 153.997,91.775 154.253,91.857 153.940 C 91.939 153.627,91.939 153.115,91.857 152.803 C 91.775 152.490,91.708 152.746,91.708 153.371 M91.396 157.271 C 91.396 158.075,91.460 158.404,91.537 158.002 C 91.615 157.600,91.615 156.942,91.537 156.539 C 91.460 156.137,91.396 156.466,91.396 157.271 M90.936 163.851 C 90.873 166.576,90.901 170.926,91.000 173.517 C 91.141 177.199,91.194 176.115,91.244 168.562 C 91.279 163.245,91.250 158.895,91.180 158.895 C 91.110 158.895,91.000 161.125,90.936 163.851 M254.475 161.118 C 253.340 161.581,252.554 162.008,252.729 162.066 C 253.092 162.187,256.702 160.651,256.702 160.375 C 256.702 160.276,256.665 160.213,256.621 160.235 C 256.576 160.257,255.610 160.655,254.475 161.118 M248.253 163.141 C 247.807 163.304,246.418 163.578,245.167 163.751 L 242.892 164.066 245.167 163.922 C 247.267 163.789,251.187 162.867,249.716 162.852 C 249.358 162.849,248.700 162.979,248.253 163.141 M224.289 164.337 C 227.461 164.391,232.652 164.391,235.825 164.337 C 238.997 164.284,236.401 164.241,230.057 164.241 C 223.712 164.241,221.117 164.284,224.289 164.337 M180.422 164.661 C 182.165 164.720,185.016 164.720,186.759 164.661 C 188.501 164.603,187.076 164.555,183.591 164.555 C 180.106 164.555,178.680 164.603,180.422 164.661 M172.055 164.969 C 168.004 165.900,168.015 166.255,172.069 165.412 C 173.716 165.069,174.486 164.809,173.842 164.813 C 173.217 164.817,172.413 164.887,172.055 164.969 M164.451 167.517 C 160.329 169.436,154.465 174.480,152.622 177.693 C 151.678 179.338,152.184 178.882,153.975 176.473 C 156.642 172.887,160.705 169.564,164.608 167.777 C 165.577 167.334,166.369 166.909,166.369 166.832 C 166.369 166.627,166.349 166.633,164.451 167.517 M91.390 179.529 C 91.393 180.244,91.460 180.498,91.538 180.094 C 91.615 179.689,91.612 179.105,91.531 178.794 C 91.450 178.483,91.386 178.814,91.390 179.529 M150.496 181.560 C 149.150 184.256,148.000 187.426,148.272 187.697 C 148.363 187.788,148.682 187.021,148.981 185.992 C 149.280 184.963,150.100 182.978,150.802 181.581 C 151.504 180.184,152.006 179.041,151.916 179.041 C 151.827 179.041,151.188 180.175,150.496 181.560 M91.986 185.540 C 91.929 186.727,93.227 193.802,93.459 193.571 C 93.538 193.491,93.299 191.688,92.927 189.564 C 92.227 185.568,92.026 184.707,91.986 185.540 M147.044 191.633 C 146.918 192.124,146.702 200.496,146.565 210.236 C 146.428 219.976,146.295 227.992,146.269 228.050 C 146.122 228.384,121.230 227.850,120.116 227.489 C 119.429 227.267,118.793 227.159,118.702 227.250 C 117.959 227.993,122.090 228.267,134.037 228.269 L 146.710 228.270 146.907 210.561 C 147.015 200.820,147.217 192.376,147.354 191.795 C 147.656 190.518,147.369 190.367,147.044 191.633 M94.096 196.426 C 94.405 198.119,95.303 200.989,95.418 200.650 C 95.479 200.471,95.166 199.228,94.723 197.888 C 94.280 196.548,93.998 195.890,94.096 196.426 M96.205 203.162 C 96.168 203.546,97.226 206.050,97.367 205.910 C 97.437 205.839,97.210 205.138,96.862 204.353 C 96.513 203.567,96.218 203.031,96.205 203.162 M97.482 206.453 C 97.482 206.806,99.745 211.210,99.927 211.210 C 100.016 211.210,99.559 210.150,98.910 208.855 C 97.693 206.424,97.482 206.069,97.482 206.453 M100.444 212.266 C 102.709 216.559,108.483 222.494,112.348 224.501 C 113.648 225.176,113.123 224.616,111.535 223.634 C 107.890 221.379,104.105 217.491,101.417 213.241 C 100.325 211.514,99.736 210.924,100.444 212.266 M113.404 225.042 C 113.404 225.321,117.039 226.855,117.235 226.659 C 117.332 226.562,117.332 226.483,117.235 226.483 C 117.138 226.483,116.237 226.119,115.231 225.674 C 114.226 225.230,113.404 224.945,113.404 225.042 " stroke="none" fill="#a4becf" fill-rule="evenodd"></path><path id="path4" d="M280.829 107.926 C 280.518 108.238,280.419 111.324,280.407 121.024 C 280.380 142.835,279.668 148.675,276.351 154.293 C 275.999 154.890,275.079 156.456,274.307 157.774 C 271.598 162.398,266.042 166.948,260.764 168.867 C 254.383 171.186,248.406 171.447,199.772 171.536 C 181.589 171.570,181.374 171.585,176.117 173.259 C 166.997 176.163,160.960 181.070,157.337 188.525 C 154.268 194.839,154.253 195.045,154.316 232.132 C 154.368 262.561,154.384 263.335,155.032 265.275 C 157.266 271.965,161.691 276.952,169.591 281.683 C 170.559 282.263,171.875 282.932,172.516 283.171 C 173.156 283.409,174.930 284.110,176.459 284.728 C 193.940 291.799,231.961 292.184,251.958 285.492 C 264.132 281.418,271.786 274.323,272.964 266.019 C 273.492 262.298,273.336 235.689,272.783 235.137 C 272.415 234.768,267.501 234.681,244.081 234.629 C 228.539 234.595,215.407 234.456,214.898 234.320 L 213.972 234.073 213.879 230.875 C 213.827 229.116,213.900 227.567,214.041 227.431 C 214.182 227.296,232.794 227.100,255.402 226.996 C 310.060 226.744,307.212 226.965,314.744 222.388 C 319.486 219.507,326.564 212.642,326.564 210.924 C 326.564 210.772,326.832 210.299,327.160 209.873 C 329.728 206.535,333.094 197.678,334.739 189.927 C 335.484 186.420,335.498 186.002,335.499 167.831 C 335.500 148.275,335.410 146.841,333.819 141.024 C 333.551 140.041,333.192 138.652,333.021 137.937 C 331.906 133.251,328.540 125.776,325.781 121.852 C 320.909 114.925,316.828 111.641,309.504 108.756 L 306.905 107.732 294.070 107.625 C 284.078 107.541,281.145 107.608,280.829 107.926 M309.180 109.290 C 316.235 112.030,322.826 117.667,326.538 124.134 C 329.395 129.112,331.593 134.759,333.193 141.229 C 334.833 147.861,334.850 148.150,334.840 168.156 L 334.831 187.002 333.974 190.577 C 332.247 197.788,331.568 199.777,328.956 205.278 C 323.563 216.634,313.803 224.469,303.331 225.847 C 302.080 226.012,281.462 226.239,257.514 226.352 C 229.099 226.487,213.831 226.672,213.566 226.885 C 213.062 227.291,213.000 233.700,213.491 234.617 C 213.812 235.218,214.643 235.236,242.167 235.253 C 269.862 235.269,271.897 235.322,272.363 236.031 C 272.870 236.803,272.665 265.033,272.136 267.317 C 270.166 275.810,259.937 283.301,245.811 286.597 C 221.621 292.241,186.171 290.029,171.568 281.963 C 167.616 279.780,166.650 279.175,164.832 277.745 C 160.505 274.341,157.290 269.944,155.804 265.395 L 155.002 262.939 154.945 231.632 C 154.882 197.334,154.914 196.618,156.742 191.714 C 160.131 182.621,166.341 177.030,176.604 173.834 C 181.941 172.172,180.079 172.258,215.272 172.060 C 254.857 171.837,255.809 171.774,262.279 168.951 C 269.910 165.622,277.045 157.358,279.027 149.555 C 279.265 148.617,279.693 147.009,279.978 145.980 C 280.395 144.473,280.573 140.648,280.897 126.239 C 281.118 116.409,281.321 108.323,281.348 108.269 C 281.375 108.214,287.136 108.223,294.151 108.288 L 306.905 108.406 309.180 109.290 M244.029 250.073 C 243.225 250.365,242.179 250.879,241.705 251.216 C 241.230 251.552,240.753 251.828,240.644 251.828 C 238.862 251.828,236.459 257.267,236.634 260.906 C 237.236 273.449,254.271 275.331,257.804 263.245 C 260.072 255.487,251.552 247.341,244.029 250.073 M250.505 250.902 C 252.860 251.673,255.902 254.214,256.283 255.727 C 256.395 256.174,256.772 257.186,257.121 257.976 C 260.341 265.263,250.770 273.233,243.065 269.682 C 231.466 264.336,238.364 246.927,250.505 250.902 " stroke="none" fill="#f9eba5" fill-rule="evenodd"></path></g></svg>