<svg id="svg" version="1.1" xmlns="http://www.w3.org/2000/svg" xmlns:xlink="http://www.w3.org/1999/xlink" width="400" height="369.5652173913044" viewBox="0, 0, 400,369.5652173913044"><g id="svgg"><path id="path0" d="M164.233 117.794 C 163.865 117.951,163.771 133.008,163.771 191.319 C 163.771 231.944,163.627 265.029,163.449 265.503 C 162.782 267.281,162.548 301.672,163.191 303.466 C 163.690 304.858,163.772 307.825,163.776 324.723 C 163.780 335.525,163.916 344.573,164.079 344.830 C 164.512 345.512,223.394 345.598,224.213 344.918 C 224.695 344.518,224.769 341.860,224.769 324.954 C 224.769 308.454,224.854 305.246,225.323 304.124 C 226.137 302.176,226.127 276.700,225.312 275.623 C 224.282 274.262,224.535 258.389,225.602 257.387 C 227.432 255.667,241.112 255.864,245.964 257.680 C 251.909 259.904,259.872 268.951,259.885 273.495 C 259.887 274.167,260.410 275.664,261.046 276.822 C 262.776 279.970,263.012 280.437,265.046 284.750 C 266.077 286.936,267.072 288.725,267.257 288.725 C 267.442 288.725,267.711 289.259,267.854 289.911 C 268.188 291.431,269.470 293.900,269.926 293.900 C 270.565 293.900,272.161 295.908,273.010 297.782 C 273.471 298.799,274.959 301.959,276.316 304.806 C 278.552 309.497,279.537 311.548,282.615 317.930 C 283.155 319.048,283.747 320.213,283.932 320.518 C 284.116 320.823,284.999 322.652,285.895 324.584 C 286.790 326.516,288.272 329.677,289.188 331.608 C 291.184 335.814,293.161 340.324,293.161 340.669 C 293.161 340.806,293.494 341.341,293.900 341.858 C 294.307 342.375,294.640 343.186,294.640 343.660 C 294.640 344.145,294.965 344.695,295.386 344.921 C 296.487 345.510,366.535 345.538,367.244 344.949 C 367.675 344.592,367.452 343.984,365.905 341.299 C 364.885 339.527,363.476 336.996,362.775 335.675 C 362.074 334.353,360.764 331.941,359.864 330.314 C 358.963 328.688,357.965 326.858,357.646 326.248 C 357.327 325.638,356.668 324.473,356.182 323.660 C 355.696 322.847,354.985 321.599,354.601 320.887 C 354.218 320.176,352.775 317.597,351.395 315.157 C 350.014 312.717,348.344 309.723,347.684 308.503 C 347.023 307.283,345.922 305.249,345.238 303.982 C 344.553 302.716,343.660 301.109,343.253 300.411 C 338.852 292.854,334.857 285.779,333.419 282.994 C 332.999 282.181,332.295 280.900,331.854 280.148 C 326.789 271.494,325.732 269.471,325.366 267.727 C 325.139 266.650,324.372 264.859,323.660 263.746 C 322.948 262.633,322.366 261.638,322.366 261.534 C 322.366 259.986,317.781 254.911,315.917 254.397 C 315.264 254.216,313.902 253.487,312.889 252.775 C 311.877 252.064,310.642 251.357,310.145 251.205 C 309.649 251.053,308.980 250.700,308.659 250.419 C 308.339 250.139,307.301 249.764,306.353 249.587 C 305.405 249.410,304.411 249.084,304.144 248.863 C 303.878 248.642,302.920 248.348,302.015 248.209 C 301.110 248.070,299.954 247.749,299.445 247.495 C 298.937 247.242,297.560 246.836,296.386 246.594 C 292.011 245.693,292.184 243.893,296.758 242.731 C 298.135 242.381,300.259 241.783,301.479 241.402 C 302.699 241.021,304.362 240.595,305.176 240.454 C 305.989 240.314,306.821 240.077,307.024 239.927 C 307.227 239.777,308.265 239.370,309.330 239.022 C 310.395 238.675,311.362 238.237,311.478 238.049 C 311.594 237.862,311.937 237.708,312.241 237.708 C 313.142 237.708,322.118 233.170,322.914 232.312 C 323.121 232.090,323.872 231.517,324.584 231.039 C 330.090 227.341,334.346 223.113,337.610 218.100 C 338.741 216.363,340.200 213.868,340.852 212.554 C 341.505 211.241,342.182 209.887,342.356 209.545 C 343.553 207.199,345.595 199.406,346.228 194.764 C 346.497 192.799,346.893 190.231,347.110 189.058 C 347.623 186.283,347.620 173.689,347.105 171.123 C 346.886 170.027,346.480 167.634,346.203 165.804 C 345.610 161.885,344.686 158.263,343.744 156.168 C 343.372 155.341,343.068 154.480,343.068 154.254 C 343.068 154.027,342.110 151.959,340.939 149.657 C 334.607 137.211,324.041 127.499,311.460 122.559 C 310.037 122.000,308.706 121.411,308.503 121.250 C 308.299 121.088,307.301 120.834,306.285 120.684 C 305.268 120.535,303.839 120.203,303.108 119.947 C 302.378 119.692,300.465 119.361,298.857 119.212 C 297.249 119.063,295.185 118.682,294.270 118.365 C 292.620 117.793,165.543 117.236,164.233 117.794 M268.461 164.686 C 278.100 166.360,286.419 179.724,283.886 189.464 C 283.675 190.277,283.345 191.680,283.154 192.581 C 282.963 193.482,282.584 194.563,282.312 194.984 C 282.040 195.404,281.708 196.194,281.574 196.739 C 281.440 197.284,281.122 197.950,280.868 198.218 C 280.614 198.487,279.934 199.402,279.357 200.252 C 277.668 202.741,275.487 204.675,272.679 206.176 L 270.055 207.579 248.293 207.685 C 229.074 207.779,226.428 207.724,225.650 207.214 L 224.769 206.637 224.769 186.123 L 224.769 165.608 225.970 164.866 C 227.466 163.942,263.302 163.791,268.461 164.686 " stroke="none" fill="#2b67b1" fill-rule="evenodd"></path><path id="path1" d="M327.788 81.577 C 327.363 82.003,327.519 82.440,328.096 82.440 C 328.401 82.440,328.651 82.190,328.651 81.885 C 328.651 81.308,328.213 81.152,327.788 81.577 M333.457 82.409 C 333.457 82.799,333.665 83.202,333.919 83.304 C 334.173 83.407,334.006 83.504,333.549 83.520 C 332.973 83.540,332.717 83.777,332.717 84.288 C 332.717 84.904,332.471 85.028,331.238 85.028 C 330.006 85.028,329.760 85.151,329.760 85.767 C 329.760 86.260,329.513 86.506,329.020 86.506 C 328.610 86.506,328.281 86.753,328.281 87.061 C 328.281 87.366,327.974 87.616,327.599 87.616 C 327.224 87.616,326.616 87.948,326.248 88.355 C 325.880 88.762,325.188 89.094,324.712 89.094 C 324.235 89.094,323.845 89.261,323.845 89.464 C 323.845 89.667,323.355 89.834,322.757 89.834 C 322.160 89.834,321.567 90.001,321.440 90.206 C 321.300 90.433,320.966 90.335,320.586 89.955 C 320.004 89.372,319.955 89.372,319.844 89.952 C 319.756 90.408,319.337 90.573,318.272 90.573 C 317.067 90.573,316.821 90.699,316.821 91.312 C 316.821 91.929,316.574 92.052,315.342 92.052 C 314.110 92.052,313.863 92.175,313.863 92.791 C 313.863 93.284,313.617 93.530,313.124 93.530 C 312.631 93.530,312.384 93.777,312.384 94.270 C 312.384 94.763,312.138 95.009,311.645 95.009 C 311.152 95.009,310.906 95.256,310.906 95.749 C 310.906 96.354,310.659 96.488,309.549 96.488 C 306.433 96.488,306.354 99.096,309.454 99.592 C 310.268 99.722,311.023 100.060,311.131 100.342 C 311.240 100.625,311.816 101.058,312.411 101.305 C 313.006 101.552,313.494 101.880,313.494 102.035 C 313.494 102.190,313.826 102.404,314.233 102.510 C 314.640 102.616,314.972 102.969,314.972 103.293 C 314.972 103.674,315.297 103.882,315.893 103.882 C 316.414 103.882,317.015 104.203,317.276 104.621 C 317.530 105.028,318.104 105.360,318.551 105.360 C 318.999 105.360,319.478 105.544,319.617 105.768 C 319.755 105.992,320.430 106.410,321.117 106.697 C 321.804 106.984,322.366 107.370,322.366 107.555 C 322.366 107.740,322.948 108.083,323.660 108.318 C 324.372 108.553,324.954 108.904,324.954 109.098 C 324.954 109.292,325.245 109.556,325.601 109.686 C 325.957 109.816,326.747 110.317,327.357 110.799 C 327.967 111.282,328.858 111.961,329.337 112.308 C 329.816 112.655,330.882 113.563,331.706 114.325 C 332.530 115.088,333.344 115.712,333.515 115.712 C 333.686 115.712,333.826 115.961,333.826 116.266 C 333.826 116.571,333.994 116.821,334.200 116.821 C 335.043 116.821,344.153 125.858,344.169 126.710 C 344.174 126.964,344.349 127.172,344.559 127.172 C 344.768 127.172,345.047 127.463,345.177 127.819 C 345.308 128.175,345.728 128.799,346.111 129.205 C 348.697 131.950,352.780 138.267,354.711 142.514 C 355.266 143.734,356.034 145.408,356.418 146.235 C 356.802 147.062,357.116 147.922,357.116 148.146 C 357.116 148.370,357.357 149.025,357.651 149.600 C 358.358 150.983,359.294 153.903,359.760 156.178 C 359.967 157.187,360.360 158.445,360.633 158.974 C 360.907 159.503,361.243 161.007,361.380 162.316 C 361.517 163.624,361.901 165.610,362.233 166.728 C 363.126 169.737,363.115 187.071,362.217 190.018 C 361.877 191.137,361.485 193.133,361.347 194.455 C 361.208 195.776,360.876 197.357,360.609 197.967 C 360.341 198.577,359.873 199.991,359.569 201.109 C 358.445 205.238,357.914 206.866,357.340 207.948 C 357.016 208.558,356.750 209.192,356.749 209.357 C 356.740 210.484,350.902 221.257,348.494 224.589 C 341.339 234.489,329.420 246.210,323.129 249.532 C 322.633 249.794,322.051 250.161,321.835 250.349 C 320.875 251.182,316.340 253.974,315.946 253.974 C 315.706 253.974,314.682 253.431,313.670 252.767 C 311.067 251.059,307.622 249.372,307.331 249.662 C 307.196 249.797,307.343 249.908,307.657 249.908 C 307.971 249.908,308.421 250.141,308.658 250.426 C 308.894 250.711,309.506 251.049,310.018 251.178 C 310.530 251.306,311.799 252.009,312.839 252.740 C 313.879 253.471,315.264 254.216,315.917 254.397 C 317.781 254.911,322.366 259.986,322.366 261.534 C 322.366 261.638,322.948 262.633,323.660 263.746 C 324.372 264.859,325.139 266.650,325.366 267.727 C 325.621 268.943,326.778 271.406,328.415 274.220 C 329.866 276.714,331.340 279.321,331.690 280.014 C 332.040 280.707,332.495 281.378,332.701 281.505 C 333.071 281.734,331.920 279.431,330.376 276.850 C 325.515 268.730,325.427 268.290,328.270 266.310 C 336.514 260.569,348.864 249.325,353.999 242.884 C 354.566 242.172,355.602 240.981,356.301 240.237 C 358.298 238.109,362.062 232.699,366.933 224.954 C 368.636 222.245,372.643 214.278,372.643 213.600 C 372.643 213.318,372.793 212.929,372.975 212.736 C 373.313 212.379,374.509 209.380,375.916 205.360 C 376.992 202.288,379.298 193.918,379.298 193.084 C 379.298 192.706,379.548 191.488,379.853 190.376 C 381.849 183.113,381.905 163.113,379.954 154.159 C 377.983 145.112,375.541 136.501,374.277 134.139 C 373.989 133.599,373.752 132.952,373.752 132.701 C 373.752 131.549,368.008 120.222,365.468 116.365 C 364.331 114.639,363.401 113.129,363.401 113.009 C 363.401 112.889,362.860 112.020,362.200 111.077 C 361.539 110.133,360.832 109.079,360.628 108.734 C 360.425 108.389,360.053 107.863,359.802 107.565 C 358.251 105.726,357.486 104.650,357.486 104.303 C 357.486 104.086,357.153 103.730,356.747 103.512 C 356.340 103.294,356.007 102.978,356.007 102.809 C 356.007 102.640,354.881 101.332,353.503 99.902 C 352.126 98.472,350.088 96.133,348.975 94.705 C 347.861 93.277,346.659 92.029,346.303 91.930 C 345.947 91.832,345.656 91.486,345.656 91.162 C 345.656 90.838,345.497 90.573,345.303 90.573 C 345.109 90.573,344.556 90.199,344.074 89.741 C 342.661 88.400,341.607 87.616,341.219 87.616 C 341.020 87.616,340.649 87.283,340.395 86.876 C 340.141 86.470,339.765 86.136,339.560 86.135 C 339.355 86.134,338.362 85.386,337.354 84.472 C 336.346 83.558,335.324 82.810,335.083 82.810 C 334.842 82.810,334.549 82.560,334.432 82.255 C 334.128 81.463,333.457 81.569,333.457 82.409 M163.648 117.807 C 163.512 117.942,163.401 151.044,163.401 191.365 L 163.401 264.678 162.481 265.281 C 161.618 265.846,161.470 265.835,160.067 265.104 C 159.245 264.676,158.244 264.325,157.843 264.325 C 157.442 264.325,156.493 263.993,155.734 263.586 C 154.976 263.179,154.103 262.845,153.795 262.844 C 153.487 262.843,152.736 262.511,152.126 262.107 C 151.516 261.703,150.730 261.372,150.380 261.370 C 150.029 261.369,148.948 261.015,147.977 260.585 C 147.005 260.154,145.712 259.589,145.102 259.329 C 143.817 258.782,137.279 255.562,133.936 253.829 C 132.674 253.176,131.344 252.378,130.978 252.057 C 130.613 251.736,129.940 251.360,129.482 251.220 C 129.025 251.081,128.651 250.814,128.651 250.627 C 128.651 250.440,128.110 250.036,127.449 249.728 C 126.788 249.421,125.749 248.836,125.139 248.429 C 124.529 248.021,123.498 247.440,122.848 247.138 C 122.199 246.835,121.533 246.378,121.370 246.122 C 121.206 245.866,120.323 245.256,119.409 244.768 C 118.023 244.028,113.684 240.806,112.159 239.384 C 111.933 239.174,111.120 238.503,110.353 237.893 C 109.586 237.283,108.694 236.493,108.371 236.137 C 108.048 235.781,107.613 235.490,107.404 235.489 C 107.056 235.489,106.346 234.958,103.943 232.901 C 102.846 231.963,101.971 231.963,101.294 232.902 C 100.981 233.336,100.337 233.641,99.734 233.641 C 98.884 233.641,98.706 233.801,98.706 234.566 C 98.706 235.074,98.540 235.490,98.336 235.490 C 98.133 235.490,97.967 235.823,97.967 236.229 C 97.967 236.722,97.720 236.969,97.227 236.969 C 96.734 236.969,96.488 237.215,96.488 237.708 C 96.488 238.365,96.242 238.447,94.270 238.447 C 92.298 238.447,92.052 238.529,92.052 239.187 C 92.052 239.803,91.805 239.926,90.573 239.926 C 89.341 239.926,89.094 240.049,89.094 240.665 C 89.094 241.158,88.848 241.405,88.355 241.405 C 87.862 241.405,87.616 241.651,87.616 242.144 C 87.616 242.686,87.369 242.884,86.691 242.884 C 86.130 242.884,85.767 243.094,85.767 243.421 C 85.767 245.460,83.502 246.580,79.379 246.580 C 78.419 246.580,77.634 246.747,77.634 246.950 C 77.634 247.153,77.301 247.320,76.895 247.320 C 76.402 247.320,76.155 247.566,76.155 248.059 C 76.155 248.669,75.909 248.799,74.753 248.799 C 73.246 248.799,72.458 250.323,72.458 253.240 C 72.458 253.847,72.292 254.344,72.089 254.344 C 71.885 254.344,71.719 254.677,71.719 255.083 C 71.719 255.699,71.473 255.823,70.240 255.823 C 69.008 255.823,68.762 255.946,68.762 256.562 C 68.762 257.249,68.515 257.301,65.250 257.301 C 61.984 257.301,61.738 257.353,61.738 258.041 C 61.738 258.534,61.491 258.780,60.998 258.780 C 60.517 258.780,60.259 259.026,60.259 259.485 C 60.259 260.009,60.068 260.140,59.514 259.995 C 58.941 259.845,58.822 259.938,58.999 260.399 C 59.125 260.729,59.461 260.998,59.744 260.998 C 60.027 260.998,60.259 261.165,60.259 261.368 C 60.259 261.571,60.508 261.738,60.813 261.738 C 61.121 261.738,61.368 262.066,61.368 262.477 C 61.368 263.026,61.614 263.216,62.327 263.216 C 62.932 263.216,63.348 263.457,63.456 263.868 C 63.614 264.472,65.107 265.587,66.636 266.242 C 66.992 266.395,67.283 266.700,67.283 266.920 C 67.283 267.140,67.865 267.564,68.577 267.861 C 69.288 268.159,69.871 268.566,69.871 268.767 C 69.871 268.967,70.119 269.131,70.422 269.131 C 70.725 269.131,71.181 269.464,71.435 269.871 C 71.689 270.277,72.075 270.610,72.293 270.610 C 72.511 270.610,73.011 270.902,73.405 271.260 C 74.552 272.300,77.151 273.969,78.975 274.838 C 79.612 275.141,80.222 275.623,80.332 275.909 C 80.442 276.195,80.933 276.531,81.424 276.654 C 81.915 276.777,83.051 277.304,83.949 277.825 C 86.503 279.307,86.636 279.379,87.616 279.810 C 88.124 280.034,88.789 280.369,89.094 280.556 C 89.399 280.743,91.937 282.009,94.735 283.371 C 97.532 284.732,99.912 285.995,100.024 286.176 C 100.137 286.358,100.612 286.506,101.081 286.506 C 101.550 286.506,102.330 286.815,102.815 287.192 C 103.300 287.569,104.304 287.990,105.046 288.126 C 105.788 288.263,106.584 288.602,106.815 288.881 C 107.046 289.159,107.853 289.501,108.608 289.641 C 109.364 289.782,110.231 290.111,110.536 290.373 C 110.841 290.635,111.756 290.969,112.569 291.115 C 113.383 291.261,114.464 291.590,114.972 291.845 C 116.895 292.813,128.670 296.457,134.381 297.851 C 135.601 298.149,137.152 298.633,137.829 298.927 C 138.506 299.221,140.336 299.638,141.896 299.855 C 143.456 300.072,144.898 300.385,145.102 300.550 C 145.305 300.716,146.927 301.028,148.705 301.244 C 150.484 301.460,152.265 301.811,152.664 302.025 C 153.063 302.238,155.185 302.591,157.379 302.808 C 160.878 303.155,161.493 303.322,162.384 304.166 L 163.401 305.129 163.401 324.966 C 163.401 343.714,163.438 344.836,164.077 345.414 C 165.189 346.420,223.626 346.345,224.539 345.336 C 225.108 344.707,225.161 342.947,225.145 325.245 C 225.124 301.539,224.220 303.768,234.196 302.927 C 235.619 302.807,237.616 302.483,238.632 302.206 C 239.649 301.930,241.856 301.532,243.537 301.323 C 245.218 301.114,246.881 300.796,247.234 300.615 C 247.586 300.435,248.706 300.184,249.723 300.058 C 250.739 299.932,252.902 299.476,254.529 299.045 C 263.239 296.739,267.185 295.652,267.947 295.348 C 270.586 294.296,270.950 294.698,275.281 303.426 C 277.171 307.235,278.723 310.224,278.730 310.068 C 278.737 309.913,277.642 307.501,276.296 304.708 C 274.950 301.915,273.471 298.799,273.010 297.782 C 272.161 295.908,270.565 293.900,269.926 293.900 C 269.470 293.900,268.188 291.431,267.854 289.911 C 267.711 289.259,267.442 288.725,267.257 288.725 C 267.072 288.725,266.077 286.936,265.046 284.750 C 263.012 280.437,262.776 279.970,261.046 276.822 C 260.410 275.664,259.887 274.167,259.885 273.495 C 259.880 271.485,256.753 266.070,254.293 263.809 C 253.539 263.116,253.513 263.112,254.049 263.771 C 256.668 266.990,259.150 271.215,259.150 272.455 C 259.150 273.521,258.136 273.812,252.833 274.266 C 250.309 274.482,247.353 274.828,246.264 275.035 C 245.174 275.242,240.253 275.522,235.327 275.656 L 226.370 275.900 225.754 275.021 C 224.995 273.937,224.830 259.861,225.558 258.263 C 226.125 257.020,226.080 257.030,232.760 256.730 C 241.740 256.328,247.321 257.703,251.443 261.332 C 252.389 262.165,253.276 262.847,253.414 262.847 C 253.967 262.847,249.612 259.400,248.043 258.596 C 243.223 256.127,227.877 255.250,225.676 257.317 L 224.769 258.170 224.769 266.537 C 224.769 273.322,224.872 275.041,225.312 275.623 C 226.127 276.700,226.137 302.176,225.323 304.124 C 224.854 305.246,224.769 308.454,224.769 324.954 C 224.769 341.860,224.695 344.518,224.213 344.918 C 223.394 345.598,164.512 345.512,164.079 344.830 C 163.916 344.573,163.780 335.525,163.776 324.723 C 163.772 307.825,163.690 304.858,163.191 303.466 C 162.548 301.672,162.782 267.281,163.449 265.503 C 163.627 265.029,163.771 231.944,163.771 191.319 C 163.771 133.003,163.865 117.953,164.233 117.805 C 164.491 117.701,164.518 117.606,164.295 117.589 C 164.074 117.573,163.783 117.671,163.648 117.807 M286.980 117.832 C 287.952 117.909,289.449 117.908,290.307 117.830 C 291.165 117.753,290.370 117.690,288.540 117.691 C 286.710 117.692,286.008 117.756,286.980 117.832 M294.455 118.495 C 295.268 118.763,296.516 118.984,297.227 118.985 C 298.437 118.989,298.400 118.955,296.673 118.476 C 294.200 117.789,292.362 117.805,294.455 118.495 M299.727 119.300 C 300.187 119.389,300.852 119.385,301.206 119.293 C 301.559 119.200,301.183 119.128,300.370 119.132 C 299.556 119.136,299.267 119.212,299.727 119.300 M303.142 119.963 C 304.952 120.660,306.281 120.647,304.671 119.949 C 303.987 119.652,303.072 119.421,302.638 119.437 C 302.052 119.457,302.182 119.593,303.142 119.963 M308.503 121.165 C 308.706 121.377,310.037 122.007,311.460 122.563 C 325.165 127.923,339.152 141.899,343.078 154.159 C 343.294 154.832,343.383 154.898,343.406 154.400 C 343.483 152.740,338.214 143.334,335.194 139.741 C 332.208 136.188,326.380 130.580,324.110 129.075 C 323.605 128.740,322.049 127.702,320.653 126.768 C 318.053 125.030,313.724 122.818,311.091 121.882 C 310.277 121.593,309.279 121.226,308.872 121.067 C 308.362 120.868,308.248 120.898,308.503 121.165 M343.438 155.473 C 343.438 155.677,343.665 156.171,343.942 156.572 C 344.219 156.973,344.561 158.050,344.703 158.965 C 344.844 159.880,345.202 161.128,345.497 161.738 C 345.946 162.666,345.997 162.696,345.809 161.922 C 345.685 161.414,345.369 160.054,345.106 158.900 C 344.685 157.052,343.438 154.490,343.438 155.473 M346.112 164.510 C 346.112 165.222,346.188 165.513,346.281 165.157 C 346.374 164.801,346.374 164.219,346.281 163.863 C 346.188 163.507,346.112 163.799,346.112 164.510 M225.970 164.866 L 224.769 165.608 224.769 186.110 L 224.769 206.612 225.591 207.188 C 226.315 207.695,228.936 207.753,247.679 207.677 L 268.946 207.590 247.443 207.400 C 235.616 207.295,225.801 207.070,225.631 206.901 C 224.997 206.267,225.056 166.725,225.692 165.753 L 226.265 164.880 247.606 164.834 C 259.343 164.808,268.198 164.662,267.283 164.510 C 262.906 163.779,227.231 164.087,225.970 164.866 M269.882 165.228 C 272.208 165.934,276.192 168.647,278.185 170.882 C 279.140 171.952,279.698 172.477,279.425 172.049 C 277.342 168.783,271.910 164.812,269.661 164.912 C 269.114 164.936,269.166 165.010,269.882 165.228 M346.451 167.098 C 346.447 167.606,346.668 169.020,346.943 170.240 C 347.269 171.689,347.448 172.073,347.458 171.349 C 347.466 170.739,347.245 169.325,346.966 168.207 C 346.687 167.089,346.455 166.590,346.451 167.098 M279.852 173.288 C 279.852 173.493,280.093 173.862,280.388 174.106 C 280.682 174.351,281.120 175.161,281.360 175.908 C 281.600 176.654,281.934 177.438,282.101 177.650 C 282.268 177.863,282.763 179.693,283.202 181.717 C 283.967 185.247,283.989 186.444,283.358 190.018 C 283.171 191.083,283.205 191.194,283.554 190.644 C 284.916 188.502,284.069 180.735,281.995 176.340 C 281.137 174.522,279.852 172.692,279.852 173.288 M347.659 180.037 C 347.659 184.002,347.714 185.624,347.780 183.641 C 347.847 181.659,347.847 178.415,347.780 176.433 C 347.714 174.450,347.659 176.072,347.659 180.037 M346.804 190.871 C 346.534 192.661,346.382 194.195,346.467 194.280 C 346.713 194.526,347.597 189.105,347.439 188.323 C 347.360 187.934,347.074 189.080,346.804 190.871 M282.810 192.187 C 282.810 192.634,282.561 193.618,282.257 194.374 C 281.772 195.579,281.772 195.661,282.252 195.037 C 282.867 194.239,283.391 191.955,283.039 191.603 C 282.913 191.477,282.810 191.740,282.810 192.187 M346.127 196.303 C 346.127 197.218,346.199 197.592,346.287 197.135 C 346.375 196.677,346.375 195.929,346.287 195.471 C 346.199 195.014,346.127 195.388,346.127 196.303 M281.331 196.377 C 281.331 196.688,280.998 197.366,280.591 197.883 C 279.636 199.098,279.627 199.633,280.581 198.534 C 281.402 197.587,281.878 196.357,281.549 196.029 C 281.429 195.909,281.331 196.065,281.331 196.377 M277.264 202.179 C 275.504 204.016,274.120 205.049,272.089 206.039 C 270.564 206.782,269.541 207.391,269.817 207.392 C 271.568 207.398,276.240 204.170,278.510 201.385 C 280.471 198.981,280.105 199.214,277.264 202.179 M344.590 202.820 C 344.566 203.253,344.288 204.227,343.971 204.986 C 343.654 205.744,343.470 206.440,343.562 206.532 C 343.869 206.839,344.989 203.418,344.810 202.720 C 344.656 202.125,344.627 202.138,344.590 202.820 M343.111 207.589 C 343.088 208.001,342.841 208.666,342.564 209.067 C 342.286 209.469,341.931 210.213,341.775 210.721 C 341.490 211.647,339.035 215.976,337.318 218.577 C 335.833 220.828,336.606 220.159,338.407 217.636 C 340.417 214.820,343.549 208.336,343.319 207.466 C 343.188 206.969,343.145 206.994,343.111 207.589 M334.744 222.064 C 333.616 223.354,331.912 225.701,332.780 224.769 C 335.358 222.002,336.496 220.661,336.371 220.536 C 336.286 220.451,335.554 221.139,334.744 222.064 M331.719 225.245 C 331.338 225.858,326.348 229.886,324.307 231.228 C 323.443 231.796,322.736 232.405,322.736 232.581 C 322.736 232.758,322.518 232.902,322.253 232.902 C 321.987 232.902,321.207 233.318,320.518 233.826 C 319.829 234.335,319.441 234.750,319.657 234.750 C 319.872 234.750,320.447 234.459,320.934 234.104 C 321.421 233.748,322.084 233.290,322.407 233.087 C 327.161 230.095,333.419 224.769,332.181 224.769 C 332.089 224.769,331.882 224.983,331.719 225.245 M100.350 229.607 C 100.213 229.828,100.287 230.194,100.513 230.420 C 100.815 230.722,100.924 230.616,100.924 230.018 C 100.924 229.126,100.732 228.988,100.350 229.607 M315.712 236.261 C 314.187 237.045,312.766 237.691,312.555 237.697 C 312.026 237.712,309.173 239.187,309.672 239.187 C 310.436 239.187,319.039 235.236,319.039 234.885 C 319.039 234.613,318.425 234.868,315.712 236.261 M302.403 241.097 C 301.895 241.309,299.923 241.884,298.022 242.374 C 294.397 243.310,293.161 243.809,293.161 244.334 C 293.161 245.106,294.566 246.224,295.749 246.395 C 296.967 246.570,296.981 246.561,295.991 246.234 C 295.018 245.912,293.940 244.902,293.912 244.286 C 293.901 244.040,296.463 243.228,300.739 242.122 C 303.203 241.484,305.063 240.691,304.067 240.703 C 303.660 240.708,302.911 240.885,302.403 241.097 M298.521 247.150 C 299.335 247.480,300.416 247.826,300.924 247.919 C 301.433 248.013,301.183 247.819,300.370 247.490 C 299.556 247.160,298.475 246.814,297.967 246.720 C 297.458 246.627,297.708 246.820,298.521 247.150 M304.414 248.995 C 304.809 249.294,305.391 249.532,305.708 249.525 C 306.078 249.516,305.953 249.322,305.360 248.983 C 304.151 248.292,303.495 248.300,304.414 248.995 M333.088 282.286 C 333.088 282.472,333.694 283.623,334.433 284.843 C 335.172 286.063,335.962 287.478,336.188 287.989 C 336.858 289.501,342.376 299.061,342.691 299.256 C 343.092 299.503,340.283 294.146,338.766 291.767 C 338.082 290.696,337.523 289.761,337.523 289.689 C 337.523 289.529,333.450 282.316,333.238 282.101 C 333.155 282.016,333.087 282.100,333.088 282.286 M343.070 300.010 C 343.069 300.219,343.340 300.778,343.672 301.252 C 344.005 301.727,344.775 303.053,345.383 304.200 C 347.607 308.390,348.937 310.813,351.395 315.157 C 352.775 317.597,354.218 320.176,354.601 320.887 C 354.985 321.599,355.696 322.847,356.182 323.660 C 356.668 324.473,357.327 325.638,357.646 326.248 C 357.965 326.858,358.963 328.688,359.864 330.314 C 360.764 331.941,362.074 334.353,362.775 335.675 C 363.476 336.996,364.885 339.527,365.905 341.299 C 367.452 343.984,367.675 344.592,367.244 344.949 C 366.522 345.548,296.517 345.509,295.293 344.909 C 294.525 344.532,294.533 344.561,295.379 345.253 C 296.666 346.306,366.592 346.479,367.639 345.432 C 368.265 344.806,368.125 343.706,367.291 342.699 C 366.717 342.005,364.417 337.999,362.092 333.641 C 361.115 331.811,359.935 329.649,359.468 328.835 C 359.002 328.022,358.310 326.774,357.930 326.063 C 356.438 323.262,354.717 320.170,352.684 316.636 C 351.515 314.603,350.115 312.107,349.575 311.091 C 349.035 310.074,348.211 308.577,347.745 307.763 C 347.279 306.950,346.398 305.370,345.787 304.251 C 344.166 301.285,343.071 299.576,343.070 300.010 M278.767 310.721 C 278.767 310.924,279.011 311.413,279.309 311.808 C 279.608 312.203,279.852 312.359,279.852 312.156 C 279.852 311.953,279.608 311.463,279.309 311.069 C 279.011 310.674,278.767 310.518,278.767 310.721 M279.854 312.827 C 279.853 312.969,280.268 313.867,280.776 314.823 C 281.285 315.779,281.695 316.328,281.689 316.044 C 281.678 315.528,279.858 312.338,279.854 312.827 M281.762 317.098 C 281.830 317.250,283.029 319.704,284.427 322.551 C 286.739 327.258,289.755 333.623,290.558 335.490 C 291.644 338.014,292.526 339.760,292.652 339.634 C 292.806 339.480,291.501 336.470,289.013 331.238 C 288.191 329.510,286.787 326.516,285.893 324.584 C 284.999 322.652,284.111 320.823,283.919 320.518 C 283.728 320.213,283.243 319.256,282.842 318.392 C 282.440 317.528,282.005 316.821,281.875 316.821 C 281.745 316.821,281.694 316.945,281.762 317.098 M293.173 341.475 C 293.166 341.718,293.339 342.026,293.556 342.160 C 293.774 342.295,294.096 342.762,294.272 343.199 C 294.502 343.768,294.599 343.821,294.616 343.387 C 294.629 343.053,294.312 342.388,293.912 341.908 C 293.513 341.428,293.180 341.233,293.173 341.475 " stroke="none" fill="#9b9aa0" fill-rule="evenodd"></path><path id="path2" d="M0.000 184.843 L 0.000 369.686 200.000 369.686 L 400.000 369.686 400.000 184.843 L 400.000 0.000 200.000 0.000 L 0.000 0.000 0.000 184.843 M218.484 34.324 C 223.059 34.735,227.551 35.234,228.466 35.432 C 229.381 35.631,231.211 35.898,232.532 36.026 C 235.049 36.270,242.382 37.508,244.917 38.116 C 245.730 38.311,247.477 38.653,248.799 38.875 C 250.120 39.097,252.190 39.591,253.399 39.972 C 254.608 40.353,255.913 40.665,256.299 40.665 C 258.376 40.665,279.468 47.455,284.473 49.735 C 285.083 50.012,286.664 50.667,287.985 51.189 C 289.307 51.712,291.054 52.452,291.867 52.834 C 292.680 53.216,294.344 53.985,295.564 54.543 C 304.655 58.699,317.038 65.756,323.845 70.661 C 327.491 73.288,329.672 74.937,331.720 76.616 C 332.899 77.582,333.981 78.374,334.123 78.375 C 334.265 78.376,334.954 78.917,335.655 79.577 C 336.356 80.236,337.520 81.246,338.243 81.821 C 347.992 89.571,363.058 107.879,368.808 118.964 C 369.716 120.714,370.605 122.322,370.782 122.536 C 370.960 122.750,371.218 123.374,371.356 123.924 C 371.494 124.474,371.840 125.117,372.125 125.354 C 372.410 125.590,372.643 126.038,372.643 126.348 C 372.643 126.840,373.466 128.763,375.052 131.978 C 375.518 132.923,377.531 138.762,378.875 143.068 C 379.287 144.390,379.811 146.527,380.038 147.818 C 380.266 149.108,380.608 150.575,380.799 151.077 C 381.244 152.247,382.205 160.366,382.623 166.488 C 383.074 173.082,381.923 189.405,380.799 192.361 C 380.608 192.863,380.267 194.330,380.040 195.620 C 379.813 196.911,379.398 198.632,379.116 199.445 C 378.835 200.259,378.242 202.172,377.798 203.697 C 377.009 206.412,376.585 207.551,375.257 210.536 C 372.532 216.661,372.328 217.106,371.953 217.745 C 371.774 218.050,371.066 219.440,370.379 220.834 C 368.124 225.415,367.773 226.022,364.926 230.269 C 360.995 236.134,361.061 236.040,360.444 236.693 C 360.139 237.015,359.595 237.667,359.235 238.140 C 352.844 246.560,344.418 255.012,334.658 262.791 C 330.744 265.911,327.542 268.703,327.542 268.994 C 327.542 269.644,328.354 271.410,329.560 273.383 C 330.057 274.196,330.567 275.111,330.693 275.416 C 330.819 275.721,331.080 276.220,331.273 276.525 C 331.465 276.830,331.867 277.609,332.164 278.256 C 332.462 278.903,332.877 279.538,333.087 279.667 C 333.296 279.797,333.721 280.432,334.031 281.079 C 334.704 282.484,335.177 283.328,338.078 288.296 C 339.298 290.385,340.961 293.334,341.774 294.849 C 342.588 296.365,343.711 298.450,344.270 299.483 C 344.829 300.517,345.287 301.571,345.287 301.825 C 345.287 302.080,345.619 302.589,346.026 302.957 C 346.433 303.326,346.765 303.838,346.765 304.097 C 346.765 304.356,346.975 304.788,347.232 305.057 C 347.936 305.793,352.425 313.651,356.239 320.822 C 356.923 322.108,357.733 323.518,358.039 323.954 C 358.345 324.391,358.595 325.044,358.595 325.406 C 358.595 325.767,358.751 326.063,358.941 326.063 C 359.131 326.063,359.497 326.645,359.755 327.357 C 360.012 328.068,360.335 328.651,360.473 328.651 C 360.611 328.651,360.937 329.191,361.198 329.852 C 361.459 330.513,361.970 331.388,362.334 331.798 C 362.698 332.207,363.350 333.288,363.784 334.201 C 364.218 335.113,364.963 336.525,365.441 337.338 C 369.198 343.737,369.953 346.172,368.368 346.774 C 366.995 347.296,296.308 347.262,295.330 346.739 C 294.924 346.522,294.271 345.648,293.881 344.798 C 293.490 343.949,293.017 343.004,292.830 342.699 C 292.064 341.450,284.570 325.568,283.411 322.736 C 283.286 322.431,283.028 321.932,282.838 321.627 C 282.340 320.828,281.076 317.903,280.761 316.821 C 280.613 316.312,280.376 315.813,280.234 315.712 C 280.093 315.610,278.181 311.867,275.987 307.394 C 273.792 302.921,271.644 298.554,271.212 297.689 C 270.356 295.978,269.852 295.817,267.942 296.645 C 266.715 297.177,263.459 298.055,260.074 298.769 C 259.057 298.983,257.560 299.379,256.747 299.649 C 255.933 299.919,254.275 300.257,253.061 300.400 C 251.848 300.543,250.319 300.884,249.665 301.157 C 249.011 301.430,247.176 301.817,245.587 302.017 C 243.999 302.216,241.789 302.634,240.677 302.946 C 239.566 303.257,237.954 303.512,237.096 303.512 C 236.238 303.512,234.154 303.844,232.463 304.249 C 230.773 304.654,228.766 304.987,228.004 304.988 C 227.241 304.990,226.582 305.032,226.539 305.083 C 226.496 305.134,226.371 314.404,226.262 325.682 L 226.063 346.189 225.139 346.657 C 224.417 347.022,217.677 347.125,194.344 347.129 C 161.936 347.135,162.315 347.158,162.276 345.185 C 162.267 344.732,162.273 336.044,162.288 325.878 C 162.304 315.712,162.211 306.873,162.082 306.236 C 161.806 304.875,159.282 304.022,153.945 303.487 C 152.303 303.322,150.307 302.941,149.509 302.640 C 148.712 302.339,147.004 301.986,145.714 301.856 C 144.424 301.726,142.927 301.447,142.387 301.236 C 141.847 301.025,140.157 300.629,138.632 300.355 C 135.662 299.821,134.307 299.487,129.390 298.074 C 122.393 296.063,120.964 295.628,118.484 294.750 C 117.061 294.246,115.315 293.663,114.605 293.455 C 113.894 293.247,112.984 292.846,112.582 292.564 C 112.179 292.282,111.590 292.052,111.271 292.052 C 110.953 292.052,110.059 291.729,109.284 291.334 C 108.510 290.939,107.352 290.504,106.711 290.367 C 106.070 290.230,105.129 289.900,104.621 289.635 C 103.405 288.999,100.934 287.903,97.967 286.685 C 95.098 285.506,84.707 280.352,83.919 279.716 C 83.614 279.470,82.782 278.980,82.070 278.628 C 81.359 278.276,80.111 277.584,79.298 277.089 C 78.484 276.595,77.569 276.070,77.264 275.923 C 75.353 275.000,61.882 265.947,60.505 264.661 C 60.199 264.375,59.561 263.846,59.087 263.487 C 54.422 259.945,51.312 257.300,47.874 253.949 C 45.638 251.769,43.142 249.341,42.329 248.554 C 39.793 246.099,35.811 241.629,33.272 238.389 C 26.511 229.762,21.170 221.142,18.076 213.863 C 17.471 212.440,16.835 211.015,16.661 210.698 C 14.669 207.043,11.178 195.543,10.160 189.279 C 9.879 187.551,9.475 185.139,9.263 183.919 C 8.793 181.219,8.775 163.114,9.239 159.519 C 10.525 149.549,13.010 140.046,16.489 131.793 C 17.432 129.556,18.421 127.144,18.686 126.433 C 19.959 123.017,26.242 112.258,29.651 107.654 C 30.811 106.088,32.142 104.253,32.609 103.577 C 33.075 102.901,33.717 102.070,34.035 101.729 C 34.353 101.388,35.667 99.802,36.955 98.205 C 39.467 95.091,46.819 87.507,50.484 84.247 C 54.626 80.565,55.243 80.047,59.023 77.079 C 65.192 72.237,72.583 67.084,76.250 65.070 C 76.811 64.762,79.306 63.324,81.796 61.874 C 88.160 58.168,100.252 52.126,101.305 52.126 C 101.541 52.126,102.176 51.886,102.716 51.592 C 105.134 50.278,111.169 47.980,118.669 45.519 C 121.821 44.485,124.898 43.452,125.508 43.224 C 127.291 42.557,136.825 40.126,140.481 39.406 C 141.802 39.145,144.048 38.660,145.471 38.327 C 149.486 37.388,155.891 36.229,157.068 36.229 C 157.652 36.229,160.023 35.908,162.337 35.516 C 166.190 34.864,171.069 34.353,180.407 33.625 C 187.065 33.106,209.523 33.518,218.484 34.324 M205.360 85.627 C 204.547 85.711,200.721 86.106,196.858 86.505 C 187.964 87.422,177.332 89.224,172.828 90.577 C 171.608 90.943,169.945 91.355,169.131 91.491 C 167.566 91.754,166.443 92.072,160.813 93.848 C 149.689 97.358,136.274 103.464,127.906 108.826 C 117.013 115.806,109.928 121.774,102.839 129.945 C 101.075 131.978,99.537 133.725,99.420 133.826 C 95.886 136.916,87.380 153.116,85.736 159.889 C 85.538 160.702,85.149 161.953,84.870 162.668 C 84.591 163.384,84.245 164.964,84.101 166.180 C 83.956 167.397,83.609 169.390,83.329 170.610 C 82.754 173.118,82.645 185.049,83.172 187.800 C 83.348 188.715,83.729 190.795,84.019 192.421 C 84.989 197.848,88.724 207.471,91.770 212.384 C 93.699 215.498,97.536 221.360,98.107 222.067 C 101.087 225.755,102.955 227.813,106.772 231.608 C 109.225 234.048,111.526 236.294,111.885 236.599 C 114.980 239.229,123.654 245.644,126.179 247.169 C 127.158 247.760,128.655 248.689,129.506 249.233 C 130.357 249.777,132.052 250.753,133.272 251.402 C 134.492 252.052,135.739 252.776,136.044 253.012 C 136.349 253.249,139.344 254.741,142.699 256.328 C 146.054 257.916,149.414 259.533,150.166 259.922 C 150.918 260.310,151.749 260.629,152.014 260.631 C 152.279 260.632,152.994 260.893,153.604 261.212 C 156.791 262.874,161.357 264.082,161.914 263.411 C 162.157 263.118,162.280 238.126,162.274 190.383 C 162.265 124.839,162.320 117.743,162.846 117.218 C 164.229 115.835,295.137 116.307,298.487 117.707 C 299.180 117.996,300.885 118.350,302.277 118.492 C 303.668 118.635,305.305 118.980,305.915 119.261 C 306.525 119.541,307.773 119.927,308.688 120.119 C 312.399 120.899,319.707 124.271,322.551 126.516 C 322.754 126.677,324.002 127.653,325.323 128.685 C 327.315 130.241,335.628 138.428,336.985 140.170 C 338.642 142.296,340.869 145.787,341.064 146.562 C 341.194 147.080,341.436 147.505,341.601 147.505 C 341.767 147.505,342.105 148.128,342.353 148.891 C 342.601 149.653,343.030 150.605,343.306 151.006 C 343.582 151.408,343.808 151.992,343.808 152.306 C 343.808 152.619,344.140 153.497,344.547 154.256 C 344.954 155.014,345.287 156.096,345.287 156.658 C 345.287 157.221,345.596 158.262,345.974 158.970 C 346.352 159.679,346.782 161.227,346.928 162.411 C 347.075 163.595,347.452 165.175,347.766 165.923 C 349.014 168.894,348.995 191.122,347.740 194.824 C 347.431 195.739,347.061 197.403,346.920 198.521 C 346.778 199.640,346.353 201.351,345.974 202.324 C 345.596 203.298,345.287 204.587,345.287 205.191 C 345.287 205.794,344.954 206.908,344.547 207.667 C 344.140 208.426,343.808 209.273,343.808 209.549 C 343.808 209.826,343.574 210.494,343.288 211.034 C 343.002 211.573,342.296 213.013,341.719 214.233 C 340.517 216.773,338.446 219.928,336.746 221.811 C 332.624 226.379,328.658 230.232,326.957 231.324 C 326.567 231.574,325.000 232.610,323.475 233.626 C 321.950 234.641,320.479 235.476,320.206 235.481 C 319.933 235.486,319.287 235.823,318.770 236.229 C 318.253 236.636,317.591 236.969,317.299 236.969 C 317.007 236.969,316.519 237.218,316.214 237.523 C 315.909 237.827,315.214 238.182,314.669 238.312 C 314.124 238.441,313.429 238.754,313.124 239.008 C 312.819 239.261,312.153 239.587,311.645 239.731 C 311.137 239.876,309.473 240.461,307.948 241.032 C 304.359 242.375,300.751 243.487,298.891 243.823 C 298.078 243.970,297.277 244.168,297.111 244.263 C 296.541 244.590,298.082 245.841,299.055 245.841 C 299.590 245.841,300.681 246.174,301.479 246.580 C 302.276 246.987,303.257 247.320,303.658 247.320 C 304.059 247.320,305.064 247.641,305.891 248.033 C 306.717 248.425,308.101 248.930,308.965 249.156 C 309.829 249.382,310.536 249.726,310.536 249.922 C 310.536 250.117,310.827 250.280,311.183 250.284 C 311.539 250.288,312.579 250.799,313.494 251.420 C 315.416 252.724,316.542 252.675,318.680 251.194 C 319.407 250.690,320.130 250.277,320.287 250.277 C 320.443 250.277,320.792 250.069,321.062 249.815 C 321.333 249.561,322.817 248.438,324.361 247.320 C 325.905 246.201,327.169 245.162,327.170 245.009 C 327.171 244.857,327.413 244.732,327.708 244.732 C 328.003 244.732,328.377 244.521,328.540 244.263 C 328.702 244.004,330.166 242.692,331.793 241.347 C 336.404 237.533,342.563 230.892,346.101 225.919 C 347.057 224.575,347.979 223.309,348.148 223.105 C 348.673 222.476,353.050 214.731,353.050 214.431 C 353.050 214.275,353.361 213.751,353.741 213.266 C 354.121 212.781,354.548 211.855,354.689 211.209 C 354.830 210.562,355.185 209.834,355.477 209.592 C 355.769 209.350,356.007 208.874,356.007 208.536 C 356.007 208.197,356.321 207.304,356.705 206.552 C 357.088 205.799,357.517 204.558,357.656 203.793 C 357.796 203.029,358.127 202.066,358.392 201.655 C 358.656 201.243,358.996 199.995,359.147 198.882 C 359.299 197.769,359.642 196.275,359.911 195.564 C 360.180 194.852,360.587 192.606,360.817 190.573 C 361.046 188.540,361.375 185.878,361.547 184.658 C 362.036 181.195,361.972 175.864,361.394 171.766 C 361.103 169.707,360.754 166.875,360.619 165.474 C 360.484 164.072,360.161 162.322,359.900 161.585 C 359.640 160.847,359.302 159.336,359.150 158.227 C 358.997 157.118,358.662 155.873,358.406 155.462 C 358.149 155.050,357.835 154.122,357.709 153.399 C 357.583 152.676,357.148 151.435,356.743 150.640 C 356.339 149.846,356.007 148.986,356.007 148.729 C 356.007 148.472,355.675 147.717,355.269 147.051 C 354.864 146.386,354.531 145.650,354.530 145.416 C 354.528 144.884,350.369 137.576,348.725 135.216 C 348.054 134.253,347.505 133.304,347.505 133.109 C 347.505 132.914,347.296 132.621,347.041 132.458 C 346.787 132.296,346.125 131.497,345.571 130.684 C 342.671 126.428,333.441 117.463,328.634 114.233 C 328.180 113.928,327.374 113.340,326.843 112.927 C 325.926 112.213,323.152 110.374,318.669 107.507 C 317.551 106.792,314.842 105.326,312.650 104.250 C 310.457 103.174,308.576 102.151,308.469 101.978 C 308.362 101.805,308.011 101.664,307.690 101.664 C 307.368 101.664,306.421 101.348,305.586 100.962 C 302.179 99.387,298.567 97.993,291.128 95.381 C 286.344 93.702,283.898 93.032,278.189 91.839 C 276.765 91.541,274.852 91.062,273.937 90.774 C 273.022 90.485,271.359 90.141,270.240 90.009 C 269.122 89.877,267.375 89.543,266.359 89.267 C 265.342 88.992,263.346 88.660,261.922 88.531 C 260.499 88.402,258.004 88.066,256.377 87.785 C 254.750 87.503,251.091 87.087,248.244 86.860 C 245.397 86.632,241.821 86.286,240.296 86.089 C 237.502 85.730,208.110 85.341,205.360 85.627 M226.481 166.821 C 226.189 167.910,226.190 204.738,226.482 205.829 L 226.707 206.666 247.457 206.556 C 270.702 206.432,269.577 206.556,273.941 203.629 C 276.824 201.695,280.309 197.461,280.816 195.277 C 280.944 194.723,281.310 193.854,281.629 193.346 C 282.348 192.200,282.708 183.215,282.125 180.961 C 281.481 178.473,280.473 175.810,279.990 175.321 C 279.737 175.066,279.423 174.516,279.290 174.099 C 279.011 173.218,275.423 169.517,273.638 168.269 C 270.398 166.002,270.245 165.989,247.490 165.989 L 226.704 165.989 226.481 166.821 M227.911 258.370 L 226.433 258.595 226.322 265.250 C 226.261 268.909,226.313 272.611,226.437 273.475 L 226.663 275.046 229.613 275.046 C 231.236 275.046,234.882 274.791,237.714 274.478 C 240.546 274.166,245.405 273.766,248.511 273.589 C 257.825 273.060,258.843 272.405,256.207 268.643 C 255.386 267.470,254.713 266.379,254.713 266.217 C 254.713 265.484,248.360 259.892,247.522 259.887 C 247.309 259.886,246.649 259.631,246.056 259.322 C 243.907 258.201,232.840 257.621,227.911 258.370 " stroke="none" fill="#fbfbfb" fill-rule="evenodd"></path><path id="path3" d="M261.738 45.471 C 261.738 45.675,261.405 45.841,260.998 45.841 C 260.382 45.841,260.259 46.087,260.259 47.320 L 260.259 48.799 258.041 48.799 C 254.802 48.799,254.880 49.819,258.133 50.004 L 260.444 50.135 258.133 50.206 C 256.357 50.261,255.823 50.406,255.823 50.832 C 255.823 51.140,255.494 51.386,255.083 51.386 C 254.590 51.386,254.344 51.633,254.344 52.126 C 254.344 52.783,254.097 52.865,252.126 52.865 C 250.154 52.865,249.908 52.947,249.908 53.604 C 249.908 54.203,249.661 54.344,248.614 54.344 C 247.566 54.344,247.320 54.485,247.320 55.083 C 247.320 55.699,247.073 55.823,245.841 55.823 C 244.609 55.823,244.362 55.946,244.362 56.562 C 244.362 57.091,244.116 57.301,243.495 57.301 C 242.212 57.301,241.405 58.419,241.405 60.195 L 241.405 61.738 239.187 61.738 C 237.215 61.738,236.969 61.820,236.969 62.477 C 236.969 62.970,236.722 63.216,236.229 63.216 C 235.736 63.216,235.490 63.463,235.490 63.956 C 235.490 64.449,235.243 64.695,234.750 64.695 C 234.258 64.695,234.011 64.941,234.011 65.434 C 234.011 66.033,233.765 66.174,232.717 66.174 C 231.670 66.174,231.423 66.315,231.423 66.913 C 231.423 67.529,231.177 67.652,229.945 67.652 C 228.712 67.652,228.466 67.776,228.466 68.392 C 228.466 69.008,228.219 69.131,226.987 69.131 C 225.919 69.131,225.508 69.285,225.508 69.686 C 225.508 70.086,225.098 70.240,224.030 70.240 C 222.797 70.240,222.551 70.364,222.551 70.980 C 222.551 71.473,222.304 71.719,221.811 71.719 C 221.195 71.719,221.072 71.965,221.072 73.198 L 221.072 74.677 218.115 74.677 L 215.157 74.677 215.157 76.895 L 215.157 79.113 213.124 79.113 C 211.337 79.113,211.091 79.202,211.091 79.852 C 211.091 80.468,210.844 80.591,209.612 80.591 C 208.380 80.591,208.133 80.715,208.133 81.331 C 208.133 81.950,207.877 82.075,206.562 82.098 C 205.698 82.113,204.325 82.433,203.512 82.810 C 202.036 83.493,202.057 83.494,214.233 83.538 C 228.212 83.589,239.441 84.018,241.590 84.584 C 242.403 84.798,245.481 85.156,248.429 85.380 C 251.377 85.604,254.538 85.937,255.453 86.120 C 257.905 86.611,263.397 87.539,266.392 87.968 C 267.834 88.174,269.617 88.595,270.354 88.904 C 271.092 89.212,272.410 89.464,273.284 89.464 C 274.157 89.464,275.452 89.771,276.161 90.147 C 276.869 90.523,278.444 90.945,279.660 91.085 C 280.876 91.224,282.207 91.557,282.617 91.824 C 283.028 92.090,284.264 92.426,285.363 92.570 C 286.462 92.714,287.793 93.050,288.320 93.317 C 288.848 93.583,289.945 93.922,290.758 94.069 C 291.571 94.216,292.425 94.492,292.656 94.682 C 292.887 94.873,293.885 95.259,294.874 95.539 C 297.036 96.153,299.577 97.065,301.165 97.798 C 301.806 98.094,302.450 98.336,302.597 98.336 C 302.937 98.336,314.922 104.343,317.375 105.742 C 318.392 106.323,319.473 106.920,319.778 107.071 C 320.083 107.221,320.749 107.624,321.257 107.966 C 321.765 108.308,323.179 109.227,324.399 110.007 C 328.369 112.547,334.864 117.865,339.036 121.992 C 341.391 124.322,345.144 128.748,347.346 131.793 C 347.640 132.200,348.266 133.031,348.737 133.641 C 350.976 136.542,356.747 147.333,356.747 148.620 C 356.747 148.859,356.986 149.496,357.278 150.035 C 357.756 150.918,358.433 153.077,360.194 159.335 C 360.508 160.453,360.873 162.200,361.005 163.216 C 361.137 164.233,361.509 166.479,361.831 168.207 C 362.566 172.139,362.635 185.046,361.939 188.323 C 361.684 189.525,361.261 191.854,361.000 193.498 C 360.473 196.811,359.038 202.567,358.595 203.142 C 358.439 203.346,358.186 204.094,358.034 204.806 C 357.770 206.036,357.421 206.904,355.401 211.345 C 354.921 212.399,354.529 213.350,354.529 213.457 C 354.529 213.744,349.629 222.154,348.584 223.660 C 341.199 234.304,332.415 242.876,321.312 250.271 C 316.107 253.737,316.298 253.708,312.615 251.609 C 311.046 250.715,309.312 249.824,308.763 249.631 C 308.213 249.437,307.181 249.070,306.470 248.816 C 304.671 248.171,300.792 246.997,298.152 246.298 C 295.110 245.493,294.344 244.272,296.580 243.795 C 305.410 241.910,317.366 236.971,324.584 232.228 C 327.206 230.504,335.160 223.088,336.987 220.663 C 340.667 215.776,343.734 209.365,345.103 203.697 C 347.937 191.960,348.059 190.970,348.059 179.667 C 348.059 171.280,347.952 169.145,347.448 167.468 C 347.112 166.349,346.728 164.519,346.595 163.401 C 346.461 162.283,346.102 160.952,345.796 160.444 L 345.240 159.519 345.479 160.444 C 345.611 160.952,345.877 162.200,346.072 163.216 C 346.266 164.233,346.709 166.479,347.057 168.207 C 347.973 172.758,347.958 187.653,347.033 192.606 C 345.436 201.159,344.633 204.676,344.000 205.901 C 343.691 206.498,343.438 207.262,343.438 207.597 C 343.438 208.682,339.892 215.645,338.128 218.023 C 337.185 219.295,336.413 220.459,336.411 220.611 C 336.405 221.075,330.452 227.095,328.150 228.965 C 326.201 230.548,325.141 231.307,322.030 233.344 C 317.325 236.425,306.193 240.788,297.180 243.084 C 293.321 244.067,292.946 245.405,296.303 246.218 C 297.116 246.415,298.281 246.761,298.891 246.986 C 299.501 247.212,300.983 247.638,302.185 247.934 C 303.386 248.229,304.834 248.711,305.401 249.004 C 305.969 249.298,306.758 249.538,307.156 249.538 C 307.994 249.538,311.017 251.039,313.670 252.772 C 314.682 253.433,315.706 253.974,315.946 253.974 C 316.340 253.974,320.875 251.182,321.835 250.349 C 322.051 250.161,322.633 249.794,323.129 249.532 C 329.420 246.210,341.339 234.489,348.494 224.589 C 351.074 221.019,356.114 211.633,356.933 208.872 C 357.084 208.364,357.357 207.760,357.541 207.529 C 357.861 207.127,358.363 205.540,359.569 201.109 C 359.873 199.991,360.341 198.577,360.609 197.967 C 360.876 197.357,361.208 195.776,361.347 194.455 C 361.485 193.133,361.877 191.137,362.217 190.018 C 363.115 187.071,363.126 169.737,362.233 166.728 C 361.901 165.610,361.517 163.624,361.380 162.316 C 361.243 161.007,360.907 159.503,360.633 158.974 C 360.360 158.445,359.967 157.187,359.760 156.178 C 359.294 153.903,358.358 150.983,357.651 149.600 C 357.357 149.025,357.116 148.370,357.116 148.146 C 357.116 147.922,356.802 147.062,356.418 146.235 C 356.034 145.408,355.266 143.734,354.711 142.514 C 352.780 138.267,348.697 131.950,346.111 129.205 C 345.728 128.799,345.308 128.175,345.177 127.819 C 345.047 127.463,344.768 127.172,344.559 127.172 C 344.349 127.172,344.174 126.964,344.169 126.710 C 344.153 125.858,335.043 116.821,334.200 116.821 C 333.994 116.821,333.826 116.571,333.826 116.266 C 333.826 115.961,333.686 115.712,333.515 115.712 C 333.344 115.712,332.530 115.088,331.706 114.325 C 330.882 113.563,329.816 112.655,329.337 112.308 C 328.858 111.961,327.967 111.282,327.357 110.799 C 326.747 110.317,325.957 109.816,325.601 109.686 C 325.245 109.556,324.954 109.292,324.954 109.098 C 324.954 108.904,324.372 108.553,323.660 108.318 C 322.948 108.083,322.366 107.740,322.366 107.555 C 322.366 107.370,321.804 106.984,321.117 106.697 C 320.430 106.410,319.755 105.992,319.617 105.768 C 319.478 105.544,318.999 105.360,318.551 105.360 C 318.104 105.360,317.530 105.028,317.276 104.621 C 317.022 104.214,316.419 103.882,315.936 103.882 C 315.369 103.882,314.990 103.620,314.865 103.142 C 314.759 102.736,314.407 102.403,314.083 102.403 C 313.759 102.403,313.494 102.257,313.494 102.078 C 313.494 101.899,313.006 101.552,312.411 101.305 C 311.816 101.058,311.240 100.625,311.131 100.342 C 311.023 100.060,310.268 99.722,309.454 99.592 C 306.354 99.096,306.433 96.488,309.549 96.488 C 310.659 96.488,310.906 96.354,310.906 95.749 C 310.906 95.256,311.152 95.009,311.645 95.009 C 312.138 95.009,312.384 94.763,312.384 94.270 C 312.384 93.777,312.631 93.530,313.124 93.530 C 313.617 93.530,313.863 93.284,313.863 92.791 C 313.863 92.175,314.110 92.052,315.342 92.052 C 316.574 92.052,316.821 91.929,316.821 91.312 C 316.821 90.699,317.067 90.573,318.272 90.573 C 319.337 90.573,319.756 90.408,319.844 89.952 C 319.955 89.372,320.004 89.372,320.586 89.955 C 320.966 90.335,321.300 90.433,321.440 90.206 C 321.567 90.001,322.160 89.834,322.757 89.834 C 323.355 89.834,323.845 89.667,323.845 89.464 C 323.845 89.261,324.235 89.094,324.712 89.094 C 325.188 89.094,325.880 88.762,326.248 88.355 C 326.616 87.948,327.224 87.616,327.599 87.616 C 327.974 87.616,328.281 87.366,328.281 87.061 C 328.281 86.753,328.610 86.506,329.020 86.506 C 329.513 86.506,329.760 86.260,329.760 85.767 C 329.760 85.151,330.006 85.028,331.238 85.028 C 332.471 85.028,332.717 84.904,332.717 84.288 C 332.717 83.777,332.973 83.540,333.549 83.520 C 334.006 83.504,334.173 83.407,333.919 83.304 C 333.364 83.080,333.295 81.701,333.838 81.701 C 334.048 81.701,334.315 81.950,334.432 82.255 C 334.549 82.560,334.842 82.810,335.083 82.810 C 335.324 82.810,336.346 83.558,337.354 84.472 C 338.362 85.386,339.355 86.134,339.560 86.135 C 339.765 86.136,340.141 86.470,340.395 86.876 C 340.649 87.283,341.020 87.616,341.219 87.616 C 341.607 87.616,342.661 88.400,344.074 89.741 C 344.556 90.199,345.090 90.573,345.260 90.573 C 345.431 90.573,345.657 90.906,345.763 91.312 C 345.870 91.719,346.180 92.058,346.453 92.066 C 346.727 92.074,347.861 93.255,348.975 94.691 C 350.088 96.127,352.126 98.472,353.503 99.902 C 354.881 101.332,356.007 102.640,356.007 102.809 C 356.007 102.978,356.340 103.294,356.747 103.512 C 357.153 103.730,357.486 104.086,357.486 104.303 C 357.486 104.650,358.251 105.726,359.802 107.565 C 360.053 107.863,360.425 108.389,360.628 108.734 C 360.832 109.079,361.539 110.133,362.200 111.077 C 362.860 112.020,363.401 112.889,363.401 113.009 C 363.401 113.129,364.331 114.639,365.468 116.365 C 368.008 120.222,373.752 131.549,373.752 132.701 C 373.752 132.952,373.989 133.599,374.277 134.139 C 375.541 136.501,377.983 145.112,379.954 154.159 C 381.905 163.113,381.849 183.113,379.853 190.376 C 379.548 191.488,379.298 192.706,379.298 193.084 C 379.298 193.918,376.992 202.288,375.916 205.360 C 374.509 209.380,373.313 212.379,372.975 212.736 C 372.793 212.929,372.648 213.345,372.654 213.660 C 372.718 216.896,378.099 201.067,380.189 191.497 C 382.526 180.792,382.557 160.931,380.249 152.495 C 379.971 151.479,379.629 149.988,379.489 149.182 C 379.234 147.716,376.932 139.715,375.762 136.229 C 375.085 134.212,374.021 131.649,373.180 130.007 C 372.885 129.431,372.643 128.793,372.643 128.588 C 372.643 128.246,369.455 121.669,368.462 119.963 C 367.987 119.148,363.174 111.397,362.292 110.028 C 357.907 103.221,347.907 91.852,340.278 85.002 C 336.421 81.539,333.388 78.940,332.815 78.609 C 332.512 78.433,331.909 77.968,331.474 77.575 C 329.969 76.213,329.572 75.905,329.020 75.665 C 328.715 75.533,327.301 74.579,325.878 73.546 C 324.455 72.513,322.500 71.155,321.534 70.529 C 320.568 69.903,319.778 69.249,319.778 69.076 C 319.778 68.903,319.587 68.762,319.354 68.762 C 319.121 68.762,317.998 68.140,316.859 67.381 C 314.844 66.037,313.747 65.385,311.460 64.170 C 310.850 63.846,309.686 63.185,308.872 62.702 C 307.283 61.758,306.301 61.264,297.782 57.126 C 294.732 55.644,291.696 54.226,291.035 53.973 C 290.374 53.721,289.834 53.387,289.834 53.232 C 289.834 53.076,289.100 52.839,288.203 52.704 C 287.306 52.570,286.483 52.228,286.374 51.944 C 286.265 51.659,285.543 51.316,284.770 51.180 C 283.997 51.045,283.031 50.729,282.625 50.479 C 282.218 50.229,281.241 49.922,280.453 49.797 C 279.666 49.672,278.751 49.334,278.420 49.046 C 278.089 48.758,277.022 48.438,276.048 48.335 C 275.074 48.231,273.979 47.877,273.616 47.548 C 273.218 47.188,272.305 46.949,271.320 46.948 C 270.421 46.947,269.187 46.672,268.577 46.338 C 267.820 45.924,266.674 45.747,264.972 45.783 C 263.533 45.813,262.477 45.680,262.477 45.468 C 262.477 45.267,262.311 45.102,262.107 45.102 C 261.904 45.102,261.738 45.268,261.738 45.471 M328.651 81.885 C 328.651 82.190,328.401 82.440,328.096 82.440 C 327.519 82.440,327.363 82.003,327.788 81.577 C 328.213 81.152,328.651 81.308,328.651 81.885 M163.309 117.584 C 162.696 117.946,162.662 121.827,162.662 190.801 C 162.662 262.869,162.620 265.539,161.501 264.848 C 161.290 264.718,160.342 264.391,159.394 264.122 C 156.485 263.298,153.733 262.269,149.538 260.438 C 143.538 257.819,139.502 255.919,137.338 254.694 C 135.915 253.889,134.186 252.969,133.495 252.650 C 132.805 252.331,132.003 251.834,131.713 251.544 C 131.423 251.254,131.039 251.017,130.859 251.017 C 130.567 251.017,128.322 249.650,127.357 248.886 C 127.153 248.725,126.155 248.112,125.139 247.524 C 122.891 246.224,115.781 241.066,113.494 239.075 C 106.107 232.646,99.815 226.430,99.815 225.560 C 99.815 225.419,99.524 225.048,99.168 224.736 C 98.812 224.424,98.105 223.608,97.597 222.923 C 97.089 222.239,96.088 220.918,95.374 219.989 C 94.232 218.503,92.443 215.859,90.602 212.937 C 89.395 211.021,86.513 204.748,86.495 203.997 C 86.488 203.730,86.246 203.198,85.955 202.815 C 85.665 202.432,85.318 201.390,85.185 200.499 C 85.051 199.608,84.690 198.738,84.381 198.566 C 84.032 198.371,83.748 197.498,83.630 196.261 C 83.526 195.166,83.214 193.923,82.938 193.499 C 81.561 191.389,80.520 168.565,81.699 166.362 C 82.431 164.993,82.168 161.553,81.331 161.553 C 80.838 161.553,80.591 161.799,80.591 162.292 C 80.591 162.785,80.345 163.031,79.852 163.031 C 79.359 163.031,79.113 163.278,79.113 163.771 C 79.113 164.264,78.866 164.510,78.373 164.510 C 77.757 164.510,77.634 164.757,77.634 165.989 C 77.634 167.221,77.511 167.468,76.895 167.468 C 76.402 167.468,76.155 167.714,76.155 168.207 C 76.155 169.003,74.564 169.292,74.122 168.577 C 73.656 167.823,72.804 168.233,72.588 169.316 C 72.466 169.926,72.220 170.425,72.043 170.425 C 71.865 170.425,71.719 171.091,71.719 171.904 L 71.719 173.383 68.946 173.383 C 66.420 173.383,66.174 173.448,66.174 174.122 C 66.174 174.615,65.927 174.861,65.434 174.861 C 64.941 174.861,64.695 175.108,64.695 175.601 C 64.695 176.217,64.449 176.340,63.216 176.340 C 61.984 176.340,61.738 176.463,61.738 177.079 C 61.738 177.696,61.491 177.819,60.259 177.819 C 59.026 177.819,58.780 177.942,58.780 178.558 C 58.780 179.174,58.534 179.298,57.301 179.298 C 56.233 179.298,55.823 179.452,55.823 179.852 C 55.823 180.253,55.412 180.407,54.344 180.407 C 53.039 180.407,52.865 180.509,52.865 181.274 C 52.865 181.750,52.532 182.442,52.126 182.810 C 51.631 183.258,51.386 183.948,51.386 184.900 L 51.386 186.322 49.353 186.322 C 47.566 186.322,47.320 186.411,47.320 187.061 C 47.320 187.554,47.073 187.800,46.580 187.800 C 46.087 187.800,45.841 188.047,45.841 188.540 C 45.841 189.197,45.595 189.279,43.623 189.279 C 41.651 189.279,41.405 189.361,41.405 190.018 C 41.405 190.635,41.158 190.758,39.926 190.758 C 38.694 190.758,38.447 190.881,38.447 191.497 C 38.447 192.113,38.201 192.237,36.969 192.237 C 35.736 192.237,35.490 192.360,35.490 192.976 C 35.490 193.592,35.243 193.715,34.011 193.715 L 32.532 193.715 32.532 195.194 C 32.532 196.638,32.502 196.673,31.238 196.673 C 30.191 196.673,29.945 196.814,29.945 197.412 C 29.945 197.905,29.698 198.152,29.205 198.152 C 28.794 198.152,28.466 198.398,28.466 198.706 C 28.466 199.014,28.137 199.261,27.726 199.261 C 27.234 199.261,26.987 199.507,26.987 200.000 C 26.987 200.493,26.741 200.739,26.248 200.739 C 25.755 200.739,25.508 200.986,25.508 201.479 C 25.508 202.095,25.262 202.218,24.030 202.218 C 22.797 202.218,22.551 202.341,22.551 202.957 C 22.551 203.517,22.303 203.698,21.534 203.700 C 20.472 203.703,19.593 204.925,19.593 206.398 C 19.593 206.953,19.409 207.058,18.732 206.888 C 17.716 206.633,17.693 210.511,18.706 211.315 C 18.989 211.540,19.328 212.289,19.458 212.979 C 19.588 213.669,19.902 214.482,20.155 214.787 C 20.408 215.092,20.737 215.758,20.887 216.266 C 21.037 216.774,21.363 217.440,21.613 217.745 C 21.862 218.050,22.479 219.131,22.983 220.148 C 24.122 222.442,25.456 224.793,25.995 225.455 C 26.461 226.028,27.121 227.123,27.810 228.466 C 28.270 229.364,29.457 231.229,30.044 231.978 C 30.203 232.181,30.864 233.179,31.512 234.196 C 32.160 235.213,32.800 236.128,32.935 236.229 C 33.070 236.331,34.127 237.572,35.284 238.987 C 39.826 244.541,47.137 252.195,51.189 255.638 C 52.386 256.654,53.633 257.736,53.960 258.041 C 56.881 260.764,63.206 265.629,67.652 268.573 C 68.567 269.179,70.163 270.301,71.198 271.067 C 72.233 271.832,73.265 272.458,73.490 272.458 C 73.716 272.458,74.033 272.670,74.196 272.928 C 74.359 273.187,74.908 273.605,75.416 273.858 C 75.924 274.110,77.089 274.784,78.004 275.356 C 81.849 277.756,98.302 286.201,100.531 286.918 C 101.256 287.152,102.040 287.494,102.275 287.679 C 102.509 287.865,103.175 288.162,103.753 288.340 C 104.332 288.519,106.214 289.260,107.934 289.988 C 109.655 290.717,111.293 291.312,111.575 291.312 C 111.857 291.312,112.612 291.559,113.253 291.860 C 114.752 292.565,117.675 293.560,123.660 295.403 C 126.303 296.217,129.464 297.196,130.684 297.580 C 131.904 297.963,133.484 298.386,134.196 298.520 C 134.908 298.653,136.155 299.001,136.969 299.292 C 137.782 299.583,139.445 299.982,140.665 300.178 C 143.592 300.648,148.429 301.594,150.277 302.058 C 151.091 302.261,153.004 302.597,154.529 302.804 C 163.701 304.048,162.662 301.255,162.662 324.660 C 162.662 341.465,162.741 344.368,163.226 345.305 L 163.790 346.396 194.095 346.396 C 223.906 346.396,224.411 346.384,225.139 345.656 C 225.860 344.935,225.878 344.424,225.878 324.976 C 225.878 311.206,226.000 304.959,226.274 304.790 C 226.772 304.482,231.299 303.526,232.532 303.469 C 233.269 303.435,233.311 303.389,232.740 303.244 C 232.346 303.144,230.800 303.271,229.304 303.527 C 224.778 304.301,225.125 302.488,225.145 325.245 C 225.161 342.947,225.108 344.707,224.539 345.336 C 223.576 346.401,164.976 346.414,164.013 345.350 C 163.460 344.738,163.401 342.781,163.401 324.901 L 163.401 305.129 162.384 304.166 C 161.493 303.322,160.878 303.155,157.379 302.808 C 155.185 302.591,153.063 302.238,152.664 302.025 C 152.265 301.811,150.484 301.460,148.705 301.244 C 146.927 301.028,145.305 300.716,145.102 300.550 C 144.898 300.385,143.456 300.072,141.896 299.855 C 140.336 299.638,138.506 299.221,137.829 298.927 C 137.152 298.633,135.601 298.149,134.381 297.851 C 128.670 296.457,116.895 292.813,114.972 291.845 C 114.464 291.590,113.383 291.261,112.569 291.115 C 111.756 290.969,110.841 290.635,110.536 290.373 C 110.231 290.111,109.364 289.782,108.608 289.641 C 107.853 289.501,107.046 289.159,106.815 288.881 C 106.584 288.602,105.788 288.263,105.046 288.126 C 104.304 287.990,103.300 287.569,102.815 287.192 C 102.330 286.815,101.550 286.506,101.081 286.506 C 100.612 286.506,100.137 286.358,100.024 286.176 C 99.912 285.995,97.532 284.732,94.735 283.371 C 91.937 282.009,89.399 280.743,89.094 280.556 C 88.789 280.369,88.124 280.034,87.616 279.810 C 86.636 279.379,86.503 279.307,83.949 277.825 C 83.051 277.304,81.915 276.777,81.424 276.654 C 80.933 276.531,80.442 276.195,80.332 275.909 C 80.222 275.623,79.612 275.141,78.975 274.838 C 77.151 273.969,74.552 272.300,73.405 271.260 C 73.011 270.902,72.511 270.610,72.293 270.610 C 72.075 270.610,71.689 270.277,71.435 269.871 C 71.181 269.464,70.725 269.131,70.422 269.131 C 70.119 269.131,69.871 268.967,69.871 268.767 C 69.871 268.566,69.288 268.159,68.577 267.861 C 67.865 267.564,67.283 267.140,67.283 266.920 C 67.283 266.700,66.992 266.395,66.636 266.242 C 65.107 265.587,63.614 264.472,63.456 263.868 C 63.348 263.457,62.932 263.216,62.327 263.216 C 61.614 263.216,61.368 263.026,61.368 262.477 C 61.368 262.066,61.121 261.738,60.813 261.738 C 60.508 261.738,60.259 261.571,60.259 261.368 C 60.259 261.165,60.027 260.998,59.744 260.998 C 59.461 260.998,59.125 260.729,58.999 260.399 C 58.822 259.938,58.941 259.845,59.514 259.995 C 60.068 260.140,60.259 260.009,60.259 259.485 C 60.259 259.026,60.517 258.780,60.998 258.780 C 61.491 258.780,61.738 258.534,61.738 258.041 C 61.738 257.353,61.984 257.301,65.250 257.301 C 68.515 257.301,68.762 257.249,68.762 256.562 C 68.762 255.946,69.008 255.823,70.240 255.823 C 71.473 255.823,71.719 255.699,71.719 255.083 C 71.719 254.677,71.885 254.344,72.089 254.344 C 72.292 254.344,72.458 253.847,72.458 253.240 C 72.458 250.323,73.246 248.799,74.753 248.799 C 75.909 248.799,76.155 248.669,76.155 248.059 C 76.155 247.566,76.402 247.320,76.895 247.320 C 77.301 247.320,77.634 247.153,77.634 246.950 C 77.634 246.747,78.419 246.580,79.379 246.580 C 83.502 246.580,85.767 245.460,85.767 243.421 C 85.767 243.094,86.130 242.884,86.691 242.884 C 87.369 242.884,87.616 242.686,87.616 242.144 C 87.616 241.651,87.862 241.405,88.355 241.405 C 88.848 241.405,89.094 241.158,89.094 240.665 C 89.094 240.049,89.341 239.926,90.573 239.926 C 91.805 239.926,92.052 239.803,92.052 239.187 C 92.052 238.529,92.298 238.447,94.270 238.447 C 96.242 238.447,96.488 238.365,96.488 237.708 C 96.488 237.215,96.734 236.969,97.227 236.969 C 97.720 236.969,97.967 236.722,97.967 236.229 C 97.967 235.823,98.133 235.490,98.336 235.490 C 98.540 235.490,98.706 235.074,98.706 234.566 C 98.706 233.801,98.884 233.641,99.734 233.641 C 100.337 233.641,100.981 233.336,101.294 232.902 C 101.971 231.963,102.846 231.963,103.943 232.901 C 106.346 234.958,107.056 235.489,107.404 235.489 C 107.613 235.490,108.048 235.781,108.371 236.137 C 108.694 236.493,109.586 237.283,110.353 237.893 C 111.120 238.503,111.933 239.174,112.159 239.384 C 113.684 240.806,118.023 244.028,119.409 244.768 C 120.323 245.256,121.206 245.866,121.370 246.122 C 121.533 246.378,122.199 246.835,122.848 247.138 C 123.498 247.440,124.529 248.021,125.139 248.429 C 125.749 248.836,126.788 249.421,127.449 249.728 C 128.110 250.036,128.651 250.440,128.651 250.627 C 128.651 250.814,129.025 251.081,129.482 251.220 C 129.940 251.360,130.613 251.736,130.978 252.057 C 131.344 252.378,132.674 253.176,133.936 253.829 C 137.279 255.562,143.817 258.782,145.102 259.329 C 145.712 259.589,147.005 260.154,147.977 260.585 C 148.948 261.015,150.029 261.369,150.380 261.370 C 150.730 261.372,151.516 261.703,152.126 262.107 C 152.736 262.511,153.487 262.843,153.795 262.844 C 154.103 262.845,154.976 263.179,155.734 263.586 C 156.493 263.993,157.442 264.325,157.843 264.325 C 158.244 264.325,159.245 264.676,160.067 265.104 C 161.469 265.835,161.618 265.846,162.480 265.281 L 163.399 264.679 163.493 191.212 L 163.586 117.745 229.020 117.745 C 280.031 117.745,294.728 117.846,295.696 118.202 C 296.378 118.453,298.374 118.833,300.132 119.047 C 301.889 119.261,303.993 119.659,304.806 119.932 C 305.619 120.204,306.950 120.599,307.763 120.809 C 311.589 121.796,316.865 124.235,320.653 126.768 C 322.049 127.702,323.605 128.740,324.110 129.075 C 326.380 130.580,332.208 136.188,335.194 139.741 C 338.160 143.269,343.434 152.646,343.441 154.400 C 343.442 154.776,343.773 155.582,344.177 156.192 C 344.601 156.832,344.913 157.062,344.914 156.737 C 344.916 156.426,344.692 155.844,344.417 155.443 C 344.143 155.042,343.802 154.236,343.660 153.652 C 340.646 141.265,322.103 123.937,308.133 120.452 C 307.320 120.249,305.906 119.855,304.991 119.576 C 304.076 119.297,302.079 118.900,300.555 118.693 C 299.030 118.486,297.200 118.108,296.488 117.853 C 294.790 117.243,164.331 116.980,163.309 117.584 M225.700 165.742 C 224.845 167.046,225.016 206.487,225.878 207.032 C 226.211 207.242,235.006 207.385,247.853 207.388 L 269.274 207.394 272.068 206.039 C 274.929 204.651,278.772 201.241,279.980 199.017 C 284.009 191.605,284.825 183.978,282.229 178.004 C 280.335 173.646,280.320 173.620,278.069 170.889 C 276.604 169.111,274.764 167.716,271.349 165.793 C 270.108 165.095,269.159 165.060,248.167 164.961 L 226.279 164.857 225.700 165.742 M270.980 166.159 C 286.810 172.943,287.182 198.293,271.560 205.706 L 268.783 207.024 247.555 207.024 C 228.539 207.024,226.303 206.963,226.102 206.439 C 225.629 205.207,225.853 166.162,226.336 165.679 C 227.202 164.813,268.884 165.261,270.980 166.159 M370.647 218.049 C 368.563 222.184,367.898 223.419,366.933 224.954 C 362.062 232.699,358.298 238.109,356.301 240.237 C 355.602 240.981,354.566 242.172,353.999 242.884 C 348.864 249.325,336.514 260.569,328.270 266.310 C 325.735 268.075,325.693 268.578,327.773 272.281 C 328.764 274.046,329.808 275.931,330.093 276.470 C 330.696 277.608,331.978 279.318,331.978 278.984 C 331.978 278.859,330.737 276.567,329.220 273.891 C 325.949 268.120,325.837 268.703,330.961 264.856 C 336.830 260.452,340.759 257.085,345.897 252.061 C 351.684 246.401,358.090 239.045,361.294 234.381 C 363.592 231.035,366.993 225.777,367.869 224.214 C 369.750 220.862,372.752 214.773,372.600 214.621 C 372.518 214.539,371.639 216.081,370.647 218.049 M100.924 230.018 C 100.924 230.616,100.815 230.722,100.513 230.420 C 100.287 230.194,100.213 229.828,100.350 229.607 C 100.732 228.988,100.924 229.126,100.924 230.018 M229.945 256.820 C 225.035 257.057,225.139 256.844,225.139 266.663 C 225.139 273.043,225.229 274.272,225.754 275.021 L 226.370 275.900 235.327 275.656 C 240.253 275.522,245.174 275.242,246.264 275.035 C 247.353 274.828,250.309 274.482,252.833 274.266 C 259.679 273.680,260.049 273.383,258.222 269.951 C 252.415 259.040,245.971 256.048,229.945 256.820 M242.701 257.845 C 248.072 258.872,251.794 261.372,255.282 266.296 C 259.674 272.495,259.583 273.326,254.471 273.724 C 252.876 273.848,249.325 274.210,246.580 274.529 C 240.988 275.178,228.370 275.658,226.861 275.279 L 225.878 275.032 225.878 266.767 C 225.878 257.730,225.850 257.847,228.098 257.576 C 231.410 257.176,240.037 257.335,242.701 257.845 M331.986 279.528 C 331.982 279.654,333.226 281.963,334.750 284.658 C 336.275 287.353,337.523 289.617,337.523 289.689 C 337.523 289.761,338.080 290.696,338.761 291.767 C 339.442 292.839,340.873 295.379,341.942 297.412 C 343.011 299.445,344.033 301.290,344.213 301.512 C 344.393 301.734,345.070 302.898,345.719 304.100 C 346.367 305.302,347.279 306.950,347.745 307.763 C 348.211 308.577,349.035 310.074,349.575 311.091 C 350.115 312.107,351.515 314.603,352.684 316.636 C 354.717 320.170,356.438 323.262,357.930 326.063 C 358.310 326.774,359.002 328.022,359.468 328.835 C 359.935 329.649,361.115 331.811,362.092 333.641 C 364.417 337.999,366.717 342.005,367.291 342.699 C 368.125 343.706,368.265 344.806,367.639 345.432 C 367.102 345.969,363.660 346.026,331.754 346.026 C 292.933 346.026,294.968 346.147,294.454 343.806 C 294.327 343.225,293.984 342.552,293.692 342.309 C 293.400 342.067,293.161 341.694,293.161 341.481 C 293.161 341.268,292.647 339.999,292.019 338.661 C 291.392 337.324,290.735 335.896,290.559 335.490 C 289.848 333.843,286.652 327.051,284.295 322.181 C 282.918 319.335,281.000 315.342,280.033 313.309 C 271.011 294.333,270.901 294.170,267.947 295.348 C 266.865 295.779,253.238 299.438,250.832 299.944 C 250.250 300.066,250.289 300.106,251.017 300.133 C 251.525 300.152,252.606 299.991,253.420 299.776 C 254.233 299.560,256.146 299.074,257.671 298.696 C 260.531 297.986,264.026 297.032,267.765 295.941 C 268.945 295.597,270.116 295.394,270.369 295.491 C 270.785 295.651,276.304 306.396,279.081 312.452 C 279.704 313.812,280.363 315.016,280.546 315.129 C 280.729 315.242,280.980 315.738,281.104 316.231 C 281.316 317.075,282.870 320.450,287.418 329.945 C 288.490 332.181,289.814 335.009,290.362 336.229 C 290.910 337.449,291.515 338.697,291.707 339.002 C 291.899 339.307,292.151 339.806,292.266 340.111 C 292.994 342.036,294.852 345.543,295.346 345.922 C 296.333 346.679,367.587 346.588,368.217 345.829 C 368.778 345.153,368.187 342.710,367.281 341.958 C 366.977 341.706,366.728 341.360,366.728 341.189 C 366.728 341.019,365.621 338.918,364.268 336.521 C 362.914 334.124,361.498 331.580,361.120 330.869 C 360.742 330.157,360.274 329.325,360.081 329.020 C 359.371 327.904,355.268 320.457,355.268 320.286 C 355.268 320.188,354.291 318.413,353.098 316.339 C 351.904 314.266,350.484 311.738,349.942 310.721 C 349.400 309.704,348.553 308.207,348.059 307.394 C 347.565 306.580,346.903 305.416,346.588 304.806 C 346.273 304.196,345.856 303.447,345.663 303.142 C 344.978 302.064,340.850 294.582,340.850 294.419 C 340.850 294.327,340.060 292.917,339.094 291.285 C 336.653 287.158,335.946 285.911,334.600 283.364 C 333.458 281.202,332.003 279.066,331.986 279.528 M247.246 300.574 C 246.900 300.775,245.236 301.109,243.549 301.315 C 241.861 301.521,239.898 301.878,239.187 302.108 C 238.475 302.339,236.895 302.643,235.675 302.784 C 233.569 303.028,233.542 303.044,235.135 303.092 C 236.058 303.120,237.805 302.883,239.017 302.567 C 240.228 302.251,242.493 301.832,244.050 301.636 C 247.124 301.249,250.483 300.249,248.799 300.222 C 248.290 300.214,247.591 300.372,247.246 300.574 " stroke="none" fill="#b3b7bd" fill-rule="evenodd"></path><path id="path4" d="M180.407 33.625 C 171.069 34.353,166.190 34.864,162.337 35.516 C 160.023 35.908,157.652 36.229,157.068 36.229 C 155.891 36.229,149.486 37.388,145.471 38.327 C 144.048 38.660,141.802 39.145,140.481 39.406 C 136.825 40.126,127.291 42.557,125.508 43.224 C 124.898 43.452,121.821 44.485,118.669 45.519 C 111.169 47.980,105.134 50.278,102.716 51.592 C 102.176 51.886,101.541 52.126,101.305 52.126 C 100.252 52.126,88.160 58.168,81.796 61.874 C 79.306 63.324,76.811 64.762,76.250 65.070 C 72.583 67.084,65.192 72.237,59.023 77.079 C 55.243 80.047,54.626 80.565,50.484 84.247 C 46.819 87.507,39.467 95.091,36.955 98.205 C 35.667 99.802,34.353 101.388,34.035 101.729 C 33.717 102.070,33.075 102.901,32.609 103.577 C 32.142 104.253,30.811 106.088,29.651 107.654 C 26.242 112.258,19.959 123.017,18.686 126.433 C 18.421 127.144,17.432 129.556,16.489 131.793 C 13.010 140.046,10.525 149.549,9.239 159.519 C 8.775 163.114,8.793 181.219,9.263 183.919 C 9.475 185.139,9.879 187.551,10.160 189.279 C 11.178 195.543,14.669 207.043,16.661 210.698 C 16.835 211.015,17.471 212.440,18.076 213.863 C 21.170 221.142,26.511 229.762,33.272 238.389 C 35.811 241.629,39.793 246.099,42.329 248.554 C 43.142 249.341,45.638 251.769,47.874 253.949 C 51.312 257.300,54.422 259.945,59.087 263.487 C 59.561 263.846,60.199 264.375,60.505 264.661 C 61.882 265.947,75.353 275.000,77.264 275.923 C 77.569 276.070,78.484 276.595,79.298 277.089 C 80.111 277.584,81.359 278.276,82.070 278.628 C 82.782 278.980,83.614 279.470,83.919 279.716 C 84.707 280.352,95.098 285.506,97.967 286.685 C 100.934 287.903,103.405 288.999,104.621 289.635 C 105.129 289.900,106.070 290.230,106.711 290.367 C 107.352 290.504,108.510 290.939,109.284 291.334 C 110.059 291.729,110.953 292.052,111.271 292.052 C 111.590 292.052,112.179 292.282,112.582 292.564 C 112.984 292.846,113.894 293.247,114.605 293.455 C 115.315 293.663,117.061 294.246,118.484 294.750 C 120.964 295.628,122.393 296.063,129.390 298.074 C 134.307 299.487,135.662 299.821,138.632 300.355 C 140.157 300.629,141.847 301.025,142.387 301.236 C 142.927 301.447,144.424 301.726,145.714 301.856 C 147.004 301.986,148.712 302.339,149.509 302.640 C 150.307 302.941,152.303 303.322,153.945 303.487 C 159.282 304.022,161.806 304.875,162.082 306.236 C 162.211 306.873,162.304 315.712,162.288 325.878 C 162.273 336.044,162.267 344.732,162.276 345.185 C 162.315 347.158,161.936 347.135,194.344 347.129 C 217.677 347.125,224.417 347.022,225.139 346.657 L 226.063 346.189 226.262 325.682 C 226.371 314.404,226.496 305.134,226.539 305.083 C 226.582 305.032,227.241 304.990,228.004 304.988 C 228.766 304.987,230.773 304.654,232.463 304.249 C 234.154 303.844,236.238 303.512,237.096 303.512 C 237.954 303.512,239.566 303.257,240.677 302.946 C 241.789 302.634,243.999 302.216,245.587 302.017 C 247.176 301.817,249.011 301.430,249.665 301.157 C 250.319 300.884,251.848 300.543,253.061 300.400 C 254.275 300.257,255.933 299.919,256.747 299.649 C 257.560 299.379,259.057 298.983,260.074 298.769 C 263.459 298.055,266.715 297.177,267.942 296.645 C 269.852 295.817,270.356 295.978,271.212 297.689 C 271.644 298.554,273.792 302.921,275.987 307.394 C 278.181 311.867,280.093 315.610,280.234 315.712 C 280.376 315.813,280.613 316.312,280.761 316.821 C 281.076 317.903,282.340 320.828,282.838 321.627 C 283.028 321.932,283.286 322.431,283.411 322.736 C 284.570 325.568,292.064 341.450,292.830 342.699 C 293.017 343.004,293.490 343.949,293.881 344.798 C 294.271 345.648,294.924 346.522,295.330 346.739 C 296.308 347.262,366.995 347.296,368.368 346.774 C 369.953 346.172,369.198 343.737,365.441 337.338 C 364.963 336.525,364.218 335.113,363.784 334.201 C 363.350 333.288,362.698 332.207,362.334 331.798 C 361.970 331.388,361.459 330.513,361.198 329.852 C 360.937 329.191,360.611 328.651,360.473 328.651 C 360.335 328.651,360.012 328.068,359.755 327.357 C 359.497 326.645,359.131 326.063,358.941 326.063 C 358.751 326.063,358.595 325.767,358.595 325.406 C 358.595 325.044,358.345 324.391,358.039 323.954 C 357.733 323.518,356.923 322.108,356.239 320.822 C 352.425 313.651,347.936 305.793,347.232 305.057 C 346.975 304.788,346.765 304.356,346.765 304.097 C 346.765 303.838,346.433 303.326,346.026 302.957 C 345.619 302.589,345.287 302.471,345.287 302.694 C 345.287 302.916,345.455 303.203,345.662 303.331 C 345.868 303.458,346.290 304.092,346.599 304.739 C 346.908 305.386,347.565 306.580,348.059 307.394 C 348.553 308.207,349.400 309.704,349.942 310.721 C 350.484 311.738,351.904 314.266,353.098 316.339 C 354.291 318.413,355.268 320.188,355.268 320.286 C 355.268 320.457,359.371 327.904,360.081 329.020 C 360.274 329.325,360.742 330.157,361.120 330.869 C 361.498 331.580,362.914 334.124,364.268 336.521 C 365.621 338.918,366.728 341.019,366.728 341.189 C 366.728 341.360,366.977 341.706,367.281 341.958 C 368.187 342.710,368.778 345.153,368.217 345.829 C 367.587 346.588,296.333 346.679,295.346 345.922 C 295.024 345.674,294.212 344.307,293.544 342.884 C 292.875 341.460,292.182 340.046,292.003 339.741 C 291.824 339.436,291.574 338.937,291.448 338.632 C 290.960 337.453,289.285 333.841,287.418 329.945 C 282.870 320.450,281.316 317.075,281.104 316.231 C 280.980 315.738,280.729 315.242,280.546 315.129 C 280.363 315.016,279.704 313.812,279.081 312.452 C 276.304 306.396,270.785 295.651,270.369 295.491 C 270.116 295.394,268.945 295.597,267.765 295.941 C 261.271 297.836,255.596 299.292,252.495 299.858 C 251.377 300.062,249.609 300.470,248.566 300.766 C 247.523 301.062,245.315 301.473,243.658 301.681 C 242.002 301.889,240.214 302.223,239.684 302.425 C 239.155 302.626,237.104 302.957,235.125 303.160 C 231.418 303.540,226.971 304.359,226.274 304.790 C 226.000 304.959,225.878 311.206,225.878 324.976 C 225.878 344.424,225.860 344.935,225.139 345.656 C 224.411 346.384,223.906 346.396,194.095 346.396 L 163.790 346.396 163.226 345.305 C 162.741 344.368,162.662 341.465,162.662 324.660 C 162.662 301.255,163.701 304.048,154.529 302.804 C 153.004 302.597,151.091 302.261,150.277 302.058 C 148.429 301.594,143.592 300.648,140.665 300.178 C 139.445 299.982,137.782 299.583,136.969 299.292 C 136.155 299.001,134.908 298.653,134.196 298.520 C 133.484 298.386,131.904 297.963,130.684 297.580 C 129.464 297.196,126.303 296.217,123.660 295.403 C 117.675 293.560,114.752 292.565,113.253 291.860 C 112.612 291.559,111.857 291.312,111.575 291.312 C 111.293 291.312,109.655 290.717,107.934 289.988 C 106.214 289.260,104.332 288.519,103.753 288.340 C 103.175 288.162,102.509 287.865,102.275 287.679 C 102.040 287.494,101.256 287.152,100.531 286.918 C 98.302 286.201,81.849 277.756,78.004 275.356 C 77.089 274.784,75.924 274.110,75.416 273.858 C 74.908 273.605,74.359 273.187,74.196 272.928 C 74.033 272.670,73.716 272.458,73.490 272.458 C 73.265 272.458,72.233 271.832,71.198 271.067 C 70.163 270.301,68.567 269.179,67.652 268.573 C 63.206 265.629,56.881 260.764,53.960 258.041 C 53.633 257.736,52.386 256.654,51.189 255.638 C 47.137 252.195,39.826 244.541,35.284 238.987 C 34.127 237.572,33.070 236.331,32.935 236.229 C 32.800 236.128,32.160 235.213,31.512 234.196 C 30.864 233.179,30.203 232.181,30.044 231.978 C 29.457 231.229,28.270 229.364,27.810 228.466 C 27.121 227.123,26.461 226.028,25.995 225.455 C 25.456 224.793,24.122 222.442,22.983 220.148 C 22.479 219.131,21.862 218.050,21.613 217.745 C 21.363 217.440,21.037 216.774,20.887 216.266 C 20.737 215.758,20.408 215.092,20.155 214.787 C 19.902 214.482,19.588 213.669,19.458 212.979 C 19.328 212.289,18.989 211.540,18.706 211.315 C 17.693 210.511,17.716 206.633,18.732 206.888 C 19.409 207.058,19.593 206.953,19.593 206.398 C 19.593 204.925,20.472 203.703,21.534 203.700 C 22.303 203.698,22.551 203.517,22.551 202.957 C 22.551 202.341,22.797 202.218,24.030 202.218 C 25.262 202.218,25.508 202.095,25.508 201.479 C 25.508 200.986,25.755 200.739,26.248 200.739 C 26.741 200.739,26.987 200.493,26.987 200.000 C 26.987 199.507,27.234 199.261,27.726 199.261 C 28.137 199.261,28.466 199.014,28.466 198.706 C 28.466 198.398,28.794 198.152,29.205 198.152 C 29.698 198.152,29.945 197.905,29.945 197.412 C 29.945 196.814,30.191 196.673,31.238 196.673 C 32.502 196.673,32.532 196.638,32.532 195.194 L 32.532 193.715 34.011 193.715 C 35.243 193.715,35.490 193.592,35.490 192.976 C 35.490 192.360,35.736 192.237,36.969 192.237 C 38.201 192.237,38.447 192.113,38.447 191.497 C 38.447 190.881,38.694 190.758,39.926 190.758 C 41.158 190.758,41.405 190.635,41.405 190.018 C 41.405 189.361,41.651 189.279,43.623 189.279 C 45.595 189.279,45.841 189.197,45.841 188.540 C 45.841 188.047,46.087 187.800,46.580 187.800 C 47.073 187.800,47.320 187.554,47.320 187.061 C 47.320 186.411,47.566 186.322,49.353 186.322 L 51.386 186.322 51.386 184.900 C 51.386 183.948,51.631 183.258,52.126 182.810 C 52.532 182.442,52.865 181.750,52.865 181.274 C 52.865 180.509,53.039 180.407,54.344 180.407 C 55.412 180.407,55.823 180.253,55.823 179.852 C 55.823 179.452,56.233 179.298,57.301 179.298 C 58.534 179.298,58.780 179.174,58.780 178.558 C 58.780 177.942,59.026 177.819,60.259 177.819 C 61.491 177.819,61.738 177.696,61.738 177.079 C 61.738 176.463,61.984 176.340,63.216 176.340 C 64.449 176.340,64.695 176.217,64.695 175.601 C 64.695 175.108,64.941 174.861,65.434 174.861 C 65.927 174.861,66.174 174.615,66.174 174.122 C 66.174 173.448,66.420 173.383,68.946 173.383 L 71.719 173.383 71.719 171.904 C 71.719 171.091,71.865 170.425,72.043 170.425 C 72.220 170.425,72.466 169.926,72.588 169.316 C 72.804 168.233,73.656 167.823,74.122 168.577 C 74.564 169.292,76.155 169.003,76.155 168.207 C 76.155 167.714,76.402 167.468,76.895 167.468 C 77.511 167.468,77.634 167.221,77.634 165.989 C 77.634 164.757,77.757 164.510,78.373 164.510 C 78.866 164.510,79.113 164.264,79.113 163.771 C 79.113 163.278,79.359 163.031,79.852 163.031 C 80.345 163.031,80.591 162.785,80.591 162.292 C 80.591 161.799,80.838 161.553,81.331 161.553 C 82.168 161.553,82.431 164.993,81.699 166.362 C 80.520 168.565,81.561 191.389,82.938 193.499 C 83.214 193.923,83.526 195.166,83.630 196.261 C 83.748 197.498,84.032 198.371,84.381 198.566 C 84.690 198.738,85.051 199.608,85.185 200.499 C 85.318 201.390,85.665 202.432,85.955 202.815 C 86.246 203.198,86.488 203.730,86.495 203.997 C 86.513 204.748,89.395 211.021,90.602 212.937 C 92.443 215.859,94.232 218.503,95.374 219.989 C 96.088 220.918,97.089 222.239,97.597 222.923 C 98.105 223.608,98.812 224.424,99.168 224.736 C 99.524 225.048,99.815 225.419,99.815 225.560 C 99.815 226.430,106.107 232.646,113.494 239.075 C 115.781 241.066,122.891 246.224,125.139 247.524 C 126.155 248.112,127.153 248.725,127.357 248.886 C 128.322 249.650,130.567 251.017,130.859 251.017 C 131.039 251.017,131.423 251.254,131.713 251.544 C 132.003 251.834,132.805 252.331,133.495 252.650 C 134.186 252.969,135.915 253.889,137.338 254.694 C 139.502 255.919,143.538 257.819,149.538 260.438 C 153.733 262.269,156.485 263.298,159.394 264.122 C 160.342 264.391,161.290 264.718,161.501 264.848 C 162.620 265.539,162.662 262.869,162.662 190.795 C 162.662 118.532,162.668 117.953,163.395 117.563 C 164.756 116.835,294.718 117.260,297.227 118.001 C 298.346 118.331,300.259 118.716,301.479 118.856 C 302.699 118.996,304.258 119.344,304.943 119.629 C 305.629 119.915,306.627 120.135,307.162 120.119 C 307.696 120.103,307.884 120.005,307.579 119.901 C 307.274 119.797,306.525 119.496,305.915 119.232 C 305.305 118.967,303.668 118.635,302.277 118.492 C 300.885 118.350,299.180 117.996,298.487 117.707 C 295.137 116.307,164.229 115.835,162.846 117.218 C 162.320 117.743,162.265 124.839,162.274 190.383 C 162.280 238.126,162.157 263.118,161.914 263.411 C 161.357 264.082,156.791 262.874,153.604 261.212 C 152.994 260.893,152.279 260.632,152.014 260.631 C 151.749 260.629,150.918 260.310,150.166 259.922 C 149.414 259.533,146.054 257.916,142.699 256.328 C 139.344 254.741,136.349 253.249,136.044 253.012 C 135.739 252.776,134.492 252.052,133.272 251.402 C 132.052 250.753,130.357 249.777,129.506 249.233 C 128.655 248.689,127.158 247.760,126.179 247.169 C 123.654 245.644,114.980 239.229,111.885 236.599 C 111.526 236.294,109.225 234.048,106.772 231.608 C 102.955 227.813,101.087 225.755,98.107 222.067 C 97.536 221.360,93.699 215.498,91.770 212.384 C 88.724 207.471,84.989 197.848,84.019 192.421 C 83.729 190.795,83.348 188.715,83.172 187.800 C 82.645 185.049,82.754 173.118,83.329 170.610 C 83.609 169.390,83.956 167.397,84.101 166.180 C 84.245 164.964,84.591 163.384,84.870 162.668 C 85.149 161.953,85.538 160.702,85.736 159.889 C 87.380 153.116,95.886 136.916,99.420 133.826 C 99.537 133.725,101.075 131.978,102.839 129.945 C 109.928 121.774,117.013 115.806,127.906 108.826 C 136.274 103.464,149.689 97.358,160.813 93.848 C 166.443 92.072,167.566 91.754,169.131 91.491 C 169.945 91.355,171.608 90.943,172.828 90.577 C 177.040 89.312,187.418 87.512,196.858 86.411 C 206.156 85.326,232.335 85.219,241.959 86.227 C 245.213 86.568,249.122 86.946,250.647 87.068 C 252.172 87.189,254.750 87.515,256.377 87.792 C 258.004 88.069,260.499 88.402,261.922 88.531 C 263.346 88.660,265.342 88.992,266.359 89.267 C 267.375 89.543,269.122 89.877,270.240 90.009 C 271.359 90.141,273.022 90.485,273.937 90.774 C 274.852 91.062,276.765 91.541,278.189 91.839 C 283.898 93.032,286.344 93.702,291.128 95.381 C 298.567 97.993,302.179 99.387,305.586 100.962 C 306.421 101.348,307.368 101.664,307.690 101.664 C 308.011 101.664,308.362 101.805,308.469 101.978 C 308.576 102.151,310.457 103.174,312.650 104.250 C 314.842 105.326,317.551 106.792,318.669 107.507 C 323.152 110.374,325.926 112.213,326.843 112.927 C 327.374 113.340,328.180 113.928,328.634 114.233 C 333.441 117.463,342.671 126.428,345.571 130.684 C 346.125 131.497,346.787 132.296,347.041 132.458 C 347.296 132.621,347.505 132.914,347.505 133.109 C 347.505 133.304,348.054 134.253,348.725 135.216 C 350.369 137.576,354.528 144.884,354.530 145.416 C 354.531 145.650,354.864 146.386,355.269 147.051 C 355.675 147.717,356.007 148.472,356.007 148.729 C 356.007 148.986,356.339 149.846,356.743 150.640 C 357.148 151.435,357.583 152.676,357.709 153.399 C 357.835 154.122,358.149 155.050,358.406 155.462 C 358.662 155.873,358.997 157.118,359.150 158.227 C 359.302 159.336,359.640 160.847,359.900 161.585 C 360.161 162.322,360.484 164.072,360.619 165.474 C 360.754 166.875,361.103 169.707,361.394 171.766 C 361.972 175.864,362.036 181.195,361.547 184.658 C 361.375 185.878,361.046 188.540,360.817 190.573 C 360.587 192.606,360.180 194.852,359.911 195.564 C 359.642 196.275,359.299 197.769,359.147 198.882 C 358.996 199.995,358.656 201.243,358.392 201.655 C 358.127 202.066,357.796 203.029,357.656 203.793 C 357.517 204.558,357.088 205.799,356.705 206.552 C 356.321 207.304,356.007 208.197,356.007 208.536 C 356.007 208.874,355.769 209.350,355.477 209.592 C 355.185 209.834,354.830 210.562,354.689 211.209 C 354.548 211.855,354.121 212.781,353.741 213.266 C 353.361 213.751,353.050 214.275,353.050 214.431 C 353.050 214.731,348.673 222.476,348.148 223.105 C 347.979 223.309,347.057 224.575,346.101 225.919 C 342.563 230.892,336.404 237.533,331.793 241.347 C 330.166 242.692,328.702 244.004,328.540 244.263 C 328.377 244.521,328.003 244.732,327.708 244.732 C 327.413 244.732,327.171 244.857,327.170 245.009 C 327.169 245.162,325.905 246.201,324.361 247.320 C 322.817 248.438,321.333 249.561,321.062 249.815 C 320.792 250.069,320.443 250.277,320.287 250.277 C 320.130 250.277,319.407 250.690,318.680 251.194 C 316.542 252.675,315.416 252.724,313.494 251.420 C 312.579 250.799,311.539 250.288,311.183 250.284 C 310.827 250.280,310.536 250.117,310.536 249.922 C 310.536 249.726,309.829 249.382,308.965 249.156 C 308.101 248.930,306.717 248.425,305.891 248.033 C 305.064 247.641,304.059 247.320,303.658 247.320 C 303.257 247.320,302.276 246.987,301.479 246.580 C 300.681 246.174,299.590 245.841,299.055 245.841 C 298.082 245.841,296.541 244.590,297.111 244.263 C 297.277 244.168,298.078 243.970,298.891 243.823 C 300.751 243.487,304.359 242.375,307.948 241.032 C 309.473 240.461,311.137 239.876,311.645 239.731 C 312.153 239.587,312.819 239.261,313.124 239.008 C 313.429 238.754,314.124 238.441,314.669 238.312 C 315.214 238.182,315.909 237.827,316.214 237.523 C 316.519 237.218,317.007 236.969,317.299 236.969 C 317.591 236.969,318.253 236.636,318.770 236.229 C 319.287 235.823,319.933 235.486,320.206 235.481 C 320.479 235.476,321.950 234.641,323.475 233.626 C 325.000 232.610,326.567 231.574,326.957 231.324 C 328.658 230.232,332.624 226.379,336.746 221.811 C 338.446 219.928,340.517 216.773,341.719 214.233 C 342.296 213.013,343.002 211.573,343.288 211.034 C 343.574 210.494,343.808 209.826,343.808 209.549 C 343.808 209.273,344.140 208.426,344.547 207.667 C 344.954 206.908,345.279 205.746,345.270 205.085 L 345.254 203.882 344.693 205.360 C 344.385 206.174,343.965 207.421,343.759 208.133 C 342.922 211.036,339.580 217.220,336.987 220.663 C 335.160 223.088,327.206 230.504,324.584 232.228 C 317.366 236.971,305.410 241.910,296.580 243.795 C 294.344 244.272,295.110 245.493,298.152 246.298 C 300.792 246.997,304.671 248.171,306.470 248.816 C 307.181 249.070,308.213 249.437,308.763 249.631 C 309.312 249.824,311.046 250.715,312.615 251.609 C 316.298 253.708,316.107 253.737,321.312 250.271 C 332.415 242.876,341.199 234.304,348.584 223.660 C 349.629 222.154,354.529 213.744,354.529 213.457 C 354.529 213.350,354.921 212.399,355.401 211.345 C 357.421 206.904,357.770 206.036,358.034 204.806 C 358.186 204.094,358.439 203.346,358.595 203.142 C 359.038 202.567,360.473 196.811,361.000 193.498 C 361.261 191.854,361.684 189.525,361.939 188.323 C 362.635 185.046,362.566 172.139,361.831 168.207 C 361.509 166.479,361.137 164.233,361.005 163.216 C 360.873 162.200,360.508 160.453,360.194 159.335 C 358.433 153.077,357.756 150.918,357.278 150.035 C 356.986 149.496,356.747 148.859,356.747 148.620 C 356.747 147.333,350.976 136.542,348.737 133.641 C 348.266 133.031,347.640 132.200,347.346 131.793 C 345.144 128.748,341.391 124.322,339.036 121.992 C 334.864 117.865,328.369 112.547,324.399 110.007 C 323.179 109.227,321.765 108.308,321.257 107.966 C 320.749 107.624,320.083 107.221,319.778 107.071 C 319.473 106.920,318.392 106.323,317.375 105.742 C 314.922 104.343,302.937 98.336,302.597 98.336 C 302.450 98.336,301.806 98.094,301.165 97.798 C 299.577 97.065,297.036 96.153,294.874 95.539 C 293.885 95.259,292.887 94.873,292.656 94.682 C 292.425 94.492,291.571 94.216,290.758 94.069 C 289.945 93.922,288.848 93.583,288.320 93.317 C 287.793 93.050,286.462 92.714,285.363 92.570 C 284.264 92.426,283.028 92.090,282.617 91.824 C 282.207 91.557,280.876 91.224,279.660 91.085 C 278.444 90.945,276.869 90.523,276.161 90.147 C 275.452 89.771,274.157 89.464,273.284 89.464 C 272.410 89.464,271.092 89.212,270.354 88.904 C 269.617 88.595,267.834 88.174,266.392 87.968 C 263.397 87.539,257.905 86.611,255.453 86.120 C 254.538 85.937,251.377 85.604,248.429 85.380 C 245.481 85.156,242.403 84.798,241.590 84.584 C 239.441 84.018,228.212 83.589,214.233 83.538 C 202.057 83.494,202.036 83.493,203.512 82.810 C 204.325 82.433,205.698 82.113,206.562 82.098 C 207.877 82.075,208.133 81.950,208.133 81.331 C 208.133 80.715,208.380 80.591,209.612 80.591 C 210.844 80.591,211.091 80.468,211.091 79.852 C 211.091 79.202,211.337 79.113,213.124 79.113 L 215.157 79.113 215.157 76.895 L 215.157 74.677 218.115 74.677 L 221.072 74.677 221.072 73.198 C 221.072 71.965,221.195 71.719,221.811 71.719 C 222.304 71.719,222.551 71.473,222.551 70.980 C 222.551 70.364,222.797 70.240,224.030 70.240 C 225.098 70.240,225.508 70.086,225.508 69.686 C 225.508 69.285,225.919 69.131,226.987 69.131 C 228.219 69.131,228.466 69.008,228.466 68.392 C 228.466 67.776,228.712 67.652,229.945 67.652 C 231.177 67.652,231.423 67.529,231.423 66.913 C 231.423 66.315,231.670 66.174,232.717 66.174 C 233.765 66.174,234.011 66.033,234.011 65.434 C 234.011 64.941,234.258 64.695,234.750 64.695 C 235.243 64.695,235.490 64.449,235.490 63.956 C 235.490 63.463,235.736 63.216,236.229 63.216 C 236.722 63.216,236.969 62.970,236.969 62.477 C 236.969 61.820,237.215 61.738,239.187 61.738 L 241.405 61.738 241.405 60.131 C 241.405 58.352,242.204 57.301,243.560 57.301 C 244.116 57.301,244.362 57.074,244.362 56.562 C 244.362 55.946,244.609 55.823,245.841 55.823 C 247.073 55.823,247.320 55.699,247.320 55.083 C 247.320 54.485,247.566 54.344,248.614 54.344 C 249.661 54.344,249.908 54.203,249.908 53.604 C 249.908 52.947,250.154 52.865,252.126 52.865 C 254.097 52.865,254.344 52.783,254.344 52.126 C 254.344 51.633,254.590 51.386,255.083 51.386 C 255.490 51.386,255.823 51.145,255.823 50.849 C 255.823 50.451,256.420 50.279,258.133 50.181 L 260.444 50.050 258.133 49.979 C 254.843 49.877,254.759 48.799,258.041 48.799 L 260.259 48.799 260.259 47.320 C 260.259 46.109,260.387 45.841,260.967 45.841 C 261.357 45.841,261.760 45.633,261.863 45.379 C 262.011 45.014,262.119 45.013,262.374 45.372 C 262.579 45.661,263.565 45.810,265.082 45.779 C 266.676 45.747,267.836 45.933,268.577 46.338 C 269.187 46.672,270.421 46.947,271.320 46.948 C 272.305 46.949,273.218 47.188,273.616 47.548 C 273.979 47.877,275.074 48.231,276.048 48.335 C 277.022 48.438,278.089 48.758,278.420 49.046 C 278.751 49.334,279.666 49.672,280.453 49.797 C 281.241 49.922,282.218 50.229,282.625 50.479 C 283.031 50.729,283.997 51.045,284.770 51.180 C 285.543 51.316,286.265 51.659,286.374 51.944 C 286.483 52.228,287.306 52.570,288.203 52.704 C 289.100 52.839,289.834 53.076,289.834 53.232 C 289.834 53.387,290.374 53.721,291.035 53.973 C 291.696 54.226,294.732 55.644,297.782 57.126 C 306.301 61.264,307.283 61.758,308.872 62.702 C 309.686 63.185,310.850 63.846,311.460 64.170 C 313.747 65.385,314.844 66.037,316.859 67.381 C 317.998 68.140,319.121 68.762,319.354 68.762 C 319.587 68.762,319.778 68.903,319.778 69.076 C 319.778 69.249,320.568 69.903,321.534 70.529 C 322.500 71.155,324.455 72.513,325.878 73.546 C 327.301 74.579,328.715 75.533,329.020 75.665 C 329.572 75.905,329.969 76.213,331.474 77.575 C 331.909 77.968,332.512 78.433,332.815 78.609 C 333.388 78.940,336.421 81.539,340.278 85.002 C 346.893 90.942,357.112 102.323,361.013 108.096 C 362.248 109.923,367.334 118.026,368.462 119.963 C 369.455 121.669,372.643 128.246,372.643 128.588 C 372.643 128.793,372.885 129.431,373.180 130.007 C 374.021 131.649,375.085 134.212,375.762 136.229 C 376.932 139.715,379.234 147.716,379.489 149.182 C 379.629 149.988,379.971 151.479,380.249 152.495 C 384.541 168.184,381.427 195.143,373.203 213.494 C 369.773 221.149,366.791 226.377,361.294 234.381 C 354.722 243.949,342.629 256.099,330.961 264.856 C 325.837 268.703,325.949 268.120,329.220 273.891 C 330.737 276.567,331.978 278.833,331.978 278.927 C 331.978 279.021,332.575 280.032,333.305 281.173 C 334.035 282.314,334.878 283.772,335.179 284.415 C 335.479 285.057,336.088 286.191,336.532 286.936 C 338.620 290.441,339.949 292.744,340.761 294.270 C 343.172 298.799,345.064 302.009,345.227 301.846 C 345.327 301.747,344.923 300.748,344.331 299.627 C 341.730 294.708,340.151 291.847,338.078 288.296 C 335.177 283.328,334.704 282.484,334.031 281.079 C 333.721 280.432,333.296 279.797,333.087 279.667 C 332.877 279.538,332.462 278.903,332.164 278.256 C 331.867 277.609,331.465 276.830,331.273 276.525 C 331.080 276.220,330.819 275.721,330.693 275.416 C 330.567 275.111,330.057 274.196,329.560 273.383 C 328.354 271.410,327.542 269.644,327.542 268.994 C 327.542 268.703,330.744 265.911,334.658 262.791 C 344.418 255.012,352.844 246.560,359.235 238.140 C 359.595 237.667,360.139 237.015,360.444 236.693 C 361.061 236.040,360.995 236.134,364.926 230.269 C 367.773 226.022,368.124 225.415,370.379 220.834 C 371.066 219.440,371.774 218.050,371.953 217.745 C 372.328 217.106,372.532 216.661,375.257 210.536 C 376.585 207.551,377.009 206.412,377.798 203.697 C 378.242 202.172,378.835 200.259,379.116 199.445 C 379.398 198.632,379.813 196.911,380.040 195.620 C 380.267 194.330,380.608 192.863,380.799 192.361 C 381.923 189.405,383.074 173.082,382.623 166.488 C 382.205 160.366,381.244 152.247,380.799 151.077 C 380.608 150.575,380.266 149.108,380.038 147.818 C 379.811 146.527,379.287 144.390,378.875 143.068 C 377.531 138.762,375.518 132.923,375.052 131.978 C 373.466 128.763,372.643 126.840,372.643 126.348 C 372.643 126.038,372.410 125.590,372.125 125.354 C 371.840 125.117,371.494 124.474,371.356 123.924 C 371.218 123.374,370.960 122.750,370.782 122.536 C 370.605 122.322,369.716 120.714,368.808 118.964 C 363.058 107.879,347.992 89.571,338.243 81.821 C 337.520 81.246,336.356 80.236,335.655 79.577 C 334.954 78.917,334.265 78.376,334.123 78.375 C 333.981 78.374,332.899 77.582,331.720 76.616 C 329.672 74.937,327.491 73.288,323.845 70.661 C 317.038 65.756,304.655 58.699,295.564 54.543 C 294.344 53.985,292.680 53.216,291.867 52.834 C 291.054 52.452,289.307 51.712,287.985 51.189 C 286.664 50.667,285.083 50.012,284.473 49.735 C 279.468 47.455,258.376 40.665,256.299 40.665 C 255.913 40.665,254.608 40.353,253.399 39.972 C 252.190 39.591,250.120 39.097,248.799 38.875 C 247.477 38.653,245.730 38.311,244.917 38.116 C 242.382 37.508,235.049 36.270,232.532 36.026 C 231.211 35.898,229.381 35.631,228.466 35.432 C 221.824 33.994,190.694 32.823,180.407 33.625 M309.745 120.865 C 310.631 121.284,311.541 121.627,311.767 121.627 C 312.706 121.627,320.536 125.863,323.105 127.761 C 332.710 134.856,341.940 146.484,343.656 153.652 C 343.795 154.236,344.065 154.911,344.254 155.152 C 344.443 155.393,344.739 156.059,344.911 156.631 L 345.223 157.671 345.255 156.653 C 345.272 156.093,344.954 155.014,344.547 154.256 C 344.140 153.497,343.808 152.619,343.808 152.306 C 343.808 151.992,343.582 151.408,343.306 151.006 C 343.030 150.605,342.601 149.653,342.353 148.891 C 342.105 148.128,341.767 147.505,341.601 147.505 C 341.436 147.505,341.194 147.080,341.064 146.562 C 340.869 145.787,338.642 142.296,336.985 140.170 C 335.628 138.428,327.315 130.241,325.323 128.685 C 324.002 127.653,322.754 126.677,322.551 126.516 C 319.856 124.389,312.027 120.720,309.242 120.280 C 308.293 120.130,308.366 120.214,309.745 120.865 M345.287 158.527 C 345.287 158.991,345.527 159.836,345.821 160.404 C 346.114 160.972,346.465 162.336,346.599 163.436 C 346.733 164.535,347.117 166.349,347.451 167.468 C 347.951 169.140,348.059 171.303,348.059 179.667 C 348.059 190.123,347.890 191.843,346.137 199.261 C 345.194 203.249,345.115 204.185,345.857 202.588 C 346.187 201.876,346.623 200.213,346.826 198.891 C 347.030 197.569,347.445 195.739,347.750 194.824 C 348.995 191.086,349.007 168.877,347.766 165.923 C 347.452 165.175,347.075 163.595,346.928 162.411 C 346.644 160.117,345.287 156.905,345.287 158.527 M226.336 165.679 C 225.853 166.162,225.629 205.207,226.102 206.439 C 226.303 206.963,228.539 207.024,247.555 207.024 L 268.783 207.024 271.560 205.706 C 287.182 198.293,286.810 172.943,270.980 166.159 C 268.884 165.261,227.202 164.813,226.336 165.679 M270.345 166.701 C 273.471 167.776,278.640 172.052,279.290 174.099 C 279.423 174.516,279.737 175.066,279.990 175.321 C 280.473 175.810,281.481 178.473,282.125 180.961 C 282.708 183.215,282.348 192.200,281.629 193.346 C 281.310 193.854,280.944 194.723,280.816 195.277 C 280.309 197.461,276.824 201.695,273.941 203.629 C 269.577 206.556,270.702 206.432,247.457 206.556 L 226.707 206.666 226.482 205.829 C 226.190 204.738,226.189 167.910,226.481 166.821 L 226.704 165.989 247.490 165.989 C 267.045 165.989,268.399 166.031,270.345 166.701 M228.098 257.576 C 225.850 257.847,225.878 257.730,225.878 266.767 L 225.878 275.032 226.861 275.279 C 228.370 275.658,240.988 275.178,246.580 274.529 C 249.325 274.210,252.876 273.848,254.471 273.724 C 259.583 273.326,259.674 272.495,255.282 266.296 C 249.866 258.652,241.479 255.962,228.098 257.576 M242.544 258.407 C 243.882 258.601,245.463 259.013,246.056 259.322 C 246.649 259.631,247.309 259.886,247.522 259.887 C 248.360 259.892,254.713 265.484,254.713 266.217 C 254.713 266.379,255.386 267.470,256.207 268.643 C 258.843 272.405,257.825 273.060,248.511 273.589 C 245.405 273.766,240.546 274.166,237.714 274.478 C 234.882 274.791,231.236 275.046,229.613 275.046 L 226.663 275.046 226.437 273.475 C 226.313 272.611,226.261 268.909,226.322 265.250 L 226.433 258.595 227.911 258.370 C 230.325 258.003,239.920 258.028,242.544 258.407 " stroke="none" fill="#c9c9cb" fill-rule="evenodd"></path></g></svg>