<svg version="1.1" id="Layer_1" xmlns="http://www.w3.org/2000/svg" xmlns:xlink="http://www.w3.org/1999/xlink" x="0px" y="0px"
	 width="100%" viewBox="0 0 736 853" enable-background="new 0 0 736 853" xml:space="preserve">
<path fill="#FFFFFF" opacity="1.000000" stroke="none" 
	d="
M737.000000,640.000000 
	C737.000000,711.322388 737.000000,782.644714 737.000000,853.983521 
	C491.715332,853.983521 246.430649,853.983521 1.072989,853.983521 
	C1.072989,569.759033 1.072989,285.518036 1.072989,1.138525 
	C246.333282,1.138525 491.666626,1.138525 737.000000,1.138525 
	C737.000000,71.765686 737.000000,142.421585 736.657043,213.446930 
	C720.911194,204.881973 705.521973,195.923828 690.101257,187.020248 
	C676.355591,179.083801 662.544617,171.260056 648.817444,163.291916 
	C631.024841,152.963989 613.325439,142.475266 595.513733,132.180618 
	C579.390320,122.861717 563.134338,113.772118 547.001709,104.468971 
	C528.622437,93.870323 510.349762,83.086868 491.966766,72.494850 
	C473.443054,61.821747 454.794067,51.365795 436.285004,40.667557 
	C414.548798,28.104013 392.914856,15.363579 371.181152,2.795748 
	C370.314270,2.294466 368.638306,2.358178 367.741089,2.867046 
	C350.554474,12.614757 333.396301,22.413752 316.297272,32.314426 
	C293.870941,45.299717 271.536377,58.443630 249.095993,71.404419 
	C230.583664,82.096512 211.930359,92.544556 193.420883,103.241486 
	C173.507446,114.749786 153.736832,126.505333 133.815643,138.000031 
	C112.774261,150.141113 91.592537,162.038818 70.538918,174.158859 
	C49.338551,186.363373 28.254332,198.769882 7.033185,210.937836 
	C3.419116,213.010101 1.869483,215.272537 1.874448,219.743652 
	C2.027873,357.900848 1.999893,496.058258 1.999970,634.215637 
	C1.999970,635.382202 1.716559,636.646729 2.075706,637.689819 
	C2.495290,638.908508 3.219601,640.370361 4.252142,640.977112 
	C16.959126,648.442871 29.733078,655.795288 42.516724,663.129944 
	C61.203167,673.851318 79.949348,684.468994 98.601151,695.250183 
	C123.422707,709.597595 148.156311,724.097107 172.970505,738.457336 
	C186.847855,746.488281 200.847168,754.308350 214.727234,762.334595 
	C230.852066,771.658936 246.871201,781.166138 263.001343,790.481140 
	C279.272461,799.877625 295.662323,809.068481 311.929199,818.472168 
	C331.137573,829.576294 350.269897,840.811951 369.370514,851.952881 
	C382.863739,844.190796 396.197601,836.514282 409.537354,828.847900 
	C429.900940,817.145081 450.291107,805.488159 470.628601,793.740112 
	C493.771423,780.371460 516.848816,766.889404 539.993225,753.523499 
	C553.877930,745.505066 567.872192,737.676147 581.752197,729.649719 
	C597.876953,720.325378 613.895081,710.816711 630.025085,701.501648 
	C646.296082,692.105164 662.669006,682.885193 678.958252,673.520020 
	C698.327209,662.384399 717.654602,651.176514 737.000000,640.000000 
z"/>
<path fill="#A51D21" opacity="1.000000" stroke="none" 
	d="
M737.000000,639.531311 
	C717.654602,651.176514 698.327209,662.384399 678.958252,673.520020 
	C662.669006,682.885193 646.296082,692.105164 630.025085,701.501648 
	C613.895081,710.816711 597.876953,720.325378 581.752197,729.649719 
	C567.872192,737.676147 553.877930,745.505066 539.993225,753.523499 
	C516.848816,766.889404 493.771423,780.371460 470.628601,793.740112 
	C450.291107,805.488159 429.900940,817.145081 409.537354,828.847900 
	C396.197601,836.514282 382.863739,844.190796 369.370514,851.952881 
	C350.269897,840.811951 331.137573,829.576294 311.929199,818.472168 
	C295.662323,809.068481 279.272461,799.877625 263.001343,790.481140 
	C246.871201,781.166138 230.852066,771.658936 214.727234,762.334595 
	C200.847168,754.308350 186.847855,746.488281 172.970505,738.457336 
	C148.156311,724.097107 123.422707,709.597595 98.601151,695.250183 
	C79.949348,684.468994 61.203167,673.851318 42.516724,663.129944 
	C29.733078,655.795288 16.959126,648.442871 4.252142,640.977112 
	C3.219601,640.370361 2.495290,638.908508 2.075706,637.689819 
	C1.716559,636.646729 1.999970,635.382202 1.999970,634.215637 
	C1.999893,496.058258 2.027873,357.900848 1.874448,219.743652 
	C1.869483,215.272537 3.419116,213.010101 7.033185,210.937836 
	C28.254332,198.769882 49.338551,186.363373 70.538918,174.158859 
	C91.592537,162.038818 112.774261,150.141113 133.815643,138.000031 
	C153.736832,126.505333 173.507446,114.749786 193.420883,103.241486 
	C211.930359,92.544556 230.583664,82.096512 249.095993,71.404419 
	C271.536377,58.443630 293.870941,45.299717 316.297272,32.314426 
	C333.396301,22.413752 350.554474,12.614757 367.741089,2.867046 
	C368.638306,2.358178 370.314270,2.294466 371.181152,2.795748 
	C392.914856,15.363579 414.548798,28.104013 436.285004,40.667557 
	C454.794067,51.365795 473.443054,61.821747 491.966766,72.494850 
	C510.349762,83.086868 528.622437,93.870323 547.001709,104.468971 
	C563.134338,113.772118 579.390320,122.861717 595.513733,132.180618 
	C613.325439,142.475266 631.024841,152.963989 648.817444,163.291916 
	C662.544617,171.260056 676.355591,179.083801 690.101257,187.020248 
	C705.521973,195.923828 720.911194,204.881973 736.657043,213.908188 
	C737.000000,355.687561 737.000000,497.375122 737.000000,639.531311 
M202.353775,134.263458 
	C200.028748,135.540176 197.680084,136.775864 195.382355,138.099991 
	C172.703857,151.168976 150.007599,164.207443 127.370590,177.347977 
	C112.201164,186.153656 97.119240,195.110062 81.293106,204.079193 
	C66.159103,212.748947 51.060032,221.480682 35.865265,230.042587 
	C32.299812,232.051636 30.928459,234.496582 30.932774,238.752594 
	C31.060612,364.906097 31.036528,491.059784 31.036762,617.213440 
	C31.036764,618.213318 30.762360,619.323425 31.105139,620.188171 
	C31.664331,621.598877 32.302540,623.406433 33.467686,624.085754 
	C57.442513,638.064331 81.495590,651.908752 105.535706,665.775391 
	C128.135300,678.811096 150.746658,691.826477 173.336716,704.878723 
	C195.638245,717.764282 217.900726,730.717468 240.215271,743.580444 
	C261.093048,755.615234 282.035431,767.537903 302.914764,779.569946 
	C324.367126,791.932190 345.757385,804.402588 367.260712,816.675110 
	C368.447784,817.352661 370.724792,817.198608 371.981567,816.503784 
	C381.434204,811.277954 390.757141,805.817505 400.122406,800.433533 
	C425.047546,786.104492 449.993835,771.812012 474.893524,757.438843 
	C499.646790,743.150269 524.332520,728.744629 549.086548,714.457458 
	C573.986877,700.085999 598.962158,685.844543 623.854370,671.459167 
	C650.182007,656.244141 676.384460,640.810852 702.816284,625.780029 
	C706.720581,623.559814 708.073547,621.347839 708.066101,616.915344 
	C707.926514,533.924133 707.963501,450.932648 707.963501,367.941223 
	C707.963501,324.778992 707.893616,281.616486 708.075989,238.455048 
	C708.093445,234.327347 706.684875,231.964478 703.303955,230.151810 
	C698.910339,227.796219 694.619080,225.250732 690.262207,222.825562 
	C679.537537,216.855774 668.800476,210.908020 657.718628,204.362213 
	C652.597534,201.296875 647.513306,198.167755 642.349060,195.176926 
	C615.761658,179.779022 589.180542,164.369797 562.537842,149.067871 
	C553.483398,143.867569 544.255737,138.968994 534.724731,133.348740 
	C530.889099,131.094421 527.063599,128.822540 523.216125,126.588638 
	C499.251038,112.674202 475.286987,98.757889 451.310974,84.862259 
	C425.289520,69.781158 399.241669,54.745476 373.248047,39.616562 
	C370.670471,38.116333 368.532715,37.988617 365.890350,39.531033 
	C347.808197,50.085999 329.655334,60.519905 311.522034,70.987198 
	C288.932678,84.026703 266.319397,97.024933 243.756866,110.110603 
	C230.133347,118.011887 216.586517,126.045349 202.353775,134.263458 
z"/>
<path fill="#DB1F26" opacity="1.000000" stroke="none" 
	d="
M658.068481,204.951416 
	C668.800476,210.908020 679.537537,216.855774 690.262207,222.825562 
	C694.619080,225.250732 698.910339,227.796219 703.303955,230.151810 
	C706.684875,231.964478 708.093445,234.327347 708.075989,238.455048 
	C707.893616,281.616486 707.963501,324.778992 707.963501,367.941223 
	C707.963501,450.932648 707.926514,533.924133 708.066101,616.915344 
	C708.073547,621.347839 706.720581,623.559814 702.816284,625.780029 
	C676.384460,640.810852 650.182007,656.244141 623.854370,671.459167 
	C598.962158,685.844543 573.986877,700.085999 549.086548,714.457458 
	C524.332520,728.744629 499.646790,743.150269 474.893524,757.438843 
	C449.993835,771.812012 425.047546,786.104492 400.122406,800.433533 
	C390.757141,805.817505 381.434204,811.277954 371.981567,816.503784 
	C370.724792,817.198608 368.447784,817.352661 367.260712,816.675110 
	C345.757385,804.402588 324.367126,791.932190 302.914764,779.569946 
	C282.035431,767.537903 261.093048,755.615234 240.215271,743.580444 
	C217.900726,730.717468 195.638245,717.764282 173.336716,704.878723 
	C150.746658,691.826477 128.135300,678.811096 105.535706,665.775391 
	C81.495590,651.908752 57.442513,638.064331 33.467686,624.085754 
	C32.302540,623.406433 31.664331,621.598877 31.105139,620.188171 
	C30.762360,619.323425 31.036764,618.213318 31.036762,617.213440 
	C31.036528,491.059784 31.060612,364.906097 30.932774,238.752594 
	C30.928459,234.496582 32.299812,232.051636 35.865265,230.042587 
	C51.060032,221.480682 66.159103,212.748947 81.784569,204.356354 
	C85.848915,209.757645 89.421791,214.881790 93.031113,220.354904 
	C97.754265,226.678802 101.922653,233.168549 107.237427,238.519684 
	C117.759178,249.113449 128.570419,259.478821 139.896072,269.199829 
	C153.552719,280.921539 169.164062,289.731720 185.751923,296.699432 
	C188.109283,297.689606 190.926712,297.967621 193.524826,297.941467 
	C216.624985,297.708832 239.722824,297.157166 262.823059,297.042175 
	C295.953674,296.877228 329.085754,296.983154 362.217072,297.043060 
	C364.153381,297.046570 366.088531,297.671692 367.975159,298.358704 
	C358.818634,316.338348 351.683258,334.625336 349.559387,354.710968 
	C352.061005,351.498901 354.562622,348.286835 357.047974,345.482147 
	C356.346405,349.531647 355.661072,353.173767 354.903107,357.158264 
	C350.584839,364.059998 346.178589,370.523224 342.169373,377.223969 
	C340.468536,380.066589 338.462799,380.955200 335.294495,380.895050 
	C326.141846,380.721191 316.983643,380.858368 307.827820,380.827881 
	C293.865234,380.781372 295.231018,379.998474 295.126038,394.019653 
	C295.099640,397.548309 296.255676,399.823334 300.024384,400.582214 
	C300.149933,404.205200 299.062500,407.996582 303.904907,409.437256 
	C303.976776,411.477753 303.976776,413.075897 303.976776,414.361694 
	C303.346283,414.750488 303.206451,414.911774 303.065613,414.912628 
	C296.912445,414.950531 290.757416,414.890747 284.606384,415.020416 
	C276.554779,415.190125 272.144379,418.963501 271.139099,426.825104 
	C269.537720,439.348328 268.156769,451.899780 266.695038,464.440765 
	C266.146790,469.144501 267.361176,473.006470 271.966797,475.594971 
	C272.450684,482.217133 275.124237,484.950775 281.505524,484.961517 
	C321.825348,485.029205 362.145386,485.023956 402.465271,484.970367 
	C408.415161,484.962433 412.468140,481.125092 411.917542,475.305573 
	C410.656586,461.978241 409.055023,448.673370 407.134796,435.425659 
	C406.705414,432.463379 404.397797,429.773376 402.755493,426.653259 
	C400.673889,417.949982 397.067841,415.072205 388.365967,414.994751 
	C383.900452,414.955017 379.435242,414.886169 374.975708,414.409851 
	C375.097412,412.409698 375.213318,410.830170 375.329193,409.250641 
	C375.717316,409.562653 376.105408,409.874695 376.493530,410.186707 
	C378.838165,408.718536 382.947845,407.491058 383.187164,405.735870 
	C383.832458,401.003418 382.940033,396.031830 382.323700,391.197723 
	C382.254120,390.652008 380.049530,390.378510 378.714844,389.576141 
	C378.429565,381.055878 378.225891,380.871246 370.265472,380.824005 
	C367.150208,380.805511 364.035614,380.679474 361.020538,380.240417 
	C362.854065,379.242676 364.542114,378.263489 366.328735,378.025909 
	C379.729767,376.244171 393.314575,375.414825 406.522491,372.721222 
	C422.637543,369.434723 437.705322,362.916077 451.989899,353.489197 
	C448.350769,351.471710 445.118103,349.679596 442.069550,347.607361 
	C443.777710,346.447754 445.301758,345.568268 447.259644,344.438416 
	C442.621796,342.179810 438.521118,340.182800 434.899292,338.121521 
	C442.787994,339.621246 450.342468,340.711975 457.557037,342.915527 
	C462.377197,344.387726 466.039734,343.757019 469.183411,340.224152 
	C476.444427,332.064178 484.015961,324.117004 490.577820,315.416962 
	C496.630890,307.391571 501.531708,298.497040 507.328735,290.149567 
	C509.507721,290.542542 511.297119,290.960968 513.088379,290.969421 
	C525.399658,291.027588 537.780823,290.176300 550.005249,291.208221 
	C565.327820,292.501648 577.248169,285.715240 588.891296,277.559570 
	C607.601929,264.453461 624.142517,248.915619 638.856079,231.495987 
	C643.719543,225.738098 647.647034,219.189621 652.303833,212.849487 
	C654.426270,210.114700 656.247375,207.533066 658.068481,204.951416 
M451.057648,760.671387 
	C449.072845,763.524170 447.401062,762.633728 445.822144,760.252869 
	C444.574768,758.372009 443.292145,756.514526 442.025146,754.646667 
	C441.391663,755.112671 440.758148,755.578674 440.124634,756.044739 
	C442.542023,758.972168 444.778229,762.103088 447.580078,764.598938 
	C447.981598,764.956665 451.115051,762.247498 453.720825,761.036987 
	C454.712616,758.657349 451.388550,752.820679 447.271057,750.771423 
	C448.876404,754.271973 450.186493,757.128662 451.057648,760.671387 
M512.688354,716.551025 
	C514.272949,717.641479 516.033813,718.551331 517.390503,719.875244 
	C518.639954,721.094543 519.454895,722.759033 520.461304,724.227356 
	C520.924744,723.945496 521.388184,723.663635 521.851624,723.381775 
	C520.772583,721.303955 519.402710,719.315247 518.728455,717.113464 
	C518.350403,715.878906 519.123901,714.291687 519.378601,712.863342 
	C520.600891,713.436218 522.149719,713.718323 522.974915,714.644897 
	C524.504089,716.361938 525.610352,718.455688 526.892761,720.392578 
	C527.438843,720.044006 527.984924,719.695496 528.530945,719.346924 
	C526.773804,716.591614 525.143799,713.739868 523.176392,711.143921 
	C522.636230,710.431152 520.725647,709.885803 520.060547,710.286682 
	C516.769653,712.270325 513.685547,714.596802 509.811035,716.979553 
	C509.178711,717.479919 507.937347,718.311829 508.002991,718.432373 
	C509.764435,721.668457 511.660156,724.831482 513.533203,728.006897 
	C514.034058,727.770386 514.534912,727.533936 515.035767,727.297424 
	C514.530518,726.010559 513.922974,724.753113 513.543274,723.430237 
	C512.932800,721.303650 512.472961,719.133850 512.688354,716.551025 
M409.316040,782.414551 
	C410.813354,783.575195 412.310669,784.735840 413.807983,785.896484 
	C414.260010,785.697144 414.712067,785.497803 415.164124,785.298462 
	C414.343567,781.171936 413.522980,777.045410 412.702393,772.918884 
	C412.112946,773.011780 411.523468,773.104675 410.934021,773.197571 
	C411.294067,775.789246 411.654144,778.380920 412.099884,781.589050 
	C409.498627,779.658020 407.367615,778.076111 404.210358,775.732361 
	C404.641479,779.605957 404.930206,782.200195 405.269745,785.250977 
	C402.749969,783.402039 400.680756,781.883728 398.611511,780.365417 
	C398.285919,780.820984 397.960327,781.276489 397.634705,781.732056 
	C400.645416,784.522888 403.656128,787.313660 406.666870,790.104492 
	C407.099518,789.893616 407.532166,789.682678 407.964813,789.471802 
	C407.782715,787.470459 407.600586,785.469177 408.106079,782.826721 
	C408.306152,782.585388 408.506195,782.344116 409.316040,782.414551 
M393.316040,791.414551 
	C394.813416,792.575134 396.310791,793.735718 397.808167,794.896301 
	C398.260132,794.697021 398.712128,794.497742 399.164124,794.298462 
	C398.343536,790.171936 397.522949,786.045410 396.702393,781.918884 
	C396.112885,782.011780 395.523407,782.104675 394.933929,782.197571 
	C395.294006,784.789246 395.654083,787.380920 396.099792,790.588867 
	C393.498657,788.657959 391.367676,787.076050 388.210297,784.732239 
	C388.641449,788.605957 388.930237,791.200195 389.269775,794.250854 
	C386.750061,792.401978 384.680847,790.883606 382.611633,789.365295 
	C382.285950,789.820923 381.960266,790.276550 381.634583,790.732178 
	C384.645294,793.523010 387.656006,796.313843 390.666718,799.104614 
	C391.099731,798.897278 391.532776,798.689941 391.965790,798.482544 
	C391.783356,796.477661 391.600922,794.472778 392.106079,791.826721 
	C392.306152,791.585388 392.506195,791.344116 393.316040,791.414551 
M377.316010,801.414551 
	C378.813324,802.575256 380.310638,803.735901 381.807953,804.896545 
	C382.259979,804.697205 382.712036,804.497803 383.164062,804.298462 
	C382.343506,800.171936 381.522919,796.045410 380.702332,791.918884 
	C380.112915,792.011780 379.523499,792.104675 378.934052,792.197510 
	C379.294098,794.789185 379.654144,797.380920 380.099792,800.588928 
	C377.498627,798.658020 375.367615,797.076111 372.210297,794.732361 
	C372.641479,798.605957 372.930267,801.200195 373.269867,804.251160 
	C370.749908,802.402161 368.680695,800.883850 366.611450,799.365540 
	C366.285919,799.820984 365.960388,800.276428 365.634827,800.731934 
	C368.645477,803.522827 371.656128,806.313660 374.666779,809.104553 
	C375.099792,808.897217 375.532806,808.689880 375.965851,808.482544 
	C375.783386,806.477661 375.600891,804.472778 376.106079,801.826721 
	C376.306152,801.585388 376.506195,801.344116 377.316010,801.414551 
M172.312195,555.529541 
	C168.053986,558.760132 163.795776,561.990723 159.429886,565.302979 
	C155.715042,558.086731 149.671036,553.880188 140.637970,553.912598 
	C131.976364,553.943665 125.907242,558.436890 120.330765,565.286987 
	C120.134216,561.274597 119.990273,558.335938 119.838158,555.230591 
	C116.300514,555.230591 113.053215,555.230591 109.977997,555.230591 
	C109.977997,576.848877 109.977997,598.230225 109.977997,619.699951 
	C114.056114,619.699951 117.609947,619.699951 121.554291,619.699951 
	C121.554291,617.428528 121.543602,615.455688 121.556053,613.482910 
	C121.626472,602.325684 121.182419,591.128113 122.042313,580.031738 
	C122.368736,575.819336 124.842941,571.010986 127.831848,567.917358 
	C135.271362,560.217285 146.920013,563.573303 149.760040,573.888306 
	C150.715546,577.358704 150.899933,581.116455 150.944305,584.748901 
	C151.086105,596.360291 150.996933,607.974487 150.996933,619.715210 
	C155.031631,619.715210 158.587021,619.715210 162.554306,619.715210 
	C162.554306,617.460754 162.543976,615.489563 162.556000,613.518555 
	C162.626114,602.028137 162.390884,590.524658 162.874451,579.051575 
	C163.253876,570.049072 169.791336,563.799866 177.636108,563.885620 
	C185.312729,563.969543 190.631409,569.591919 191.001923,578.974731 
	C191.448517,590.283936 191.327286,601.615662 191.442368,612.937805 
	C191.465408,615.206299 191.445694,617.475159 191.445694,619.640869 
	C195.698212,619.640869 199.264130,619.640869 202.992737,619.640869 
	C202.992737,605.463928 203.332825,591.637878 202.908356,577.835327 
	C202.352753,559.768127 189.946655,550.594727 172.312195,555.529541 
M563.280640,587.217773 
	C566.832886,598.100342 570.385132,608.982849 573.942688,619.881836 
	C577.745667,619.881836 581.224304,619.881836 585.086304,619.881836 
	C592.044800,598.440857 599.008362,576.984009 606.075623,555.207825 
	C601.888916,555.207825 598.114319,555.207825 593.894409,555.207825 
	C589.126221,572.298096 584.334351,589.473450 579.574768,606.532837 
	C574.347961,589.430359 569.113647,572.303345 563.868713,555.141418 
	C560.202881,555.141418 556.900513,555.141418 553.261536,555.141418 
	C547.889099,572.114563 542.527649,589.052979 536.862671,606.950134 
	C532.179321,588.910889 527.780640,571.968140 523.415527,555.155029 
	C519.008484,555.155029 515.198975,555.155029 510.900818,555.155029 
	C517.526123,576.957581 524.064148,598.472839 530.560425,619.850952 
	C534.608093,619.850952 538.085144,619.850952 541.933228,619.850952 
	C547.379517,603.340515 552.816101,586.859619 558.411987,569.895752 
	C560.050354,575.724915 561.557434,581.086792 563.280640,587.217773 
M411.195679,555.012146 
	C395.689148,551.195557 381.466095,558.270142 376.651001,573.413879 
	C374.547577,580.029297 373.813202,587.553345 374.470184,594.473633 
	C375.794464,608.423035 384.430115,618.185913 396.289185,620.475891 
	C407.247742,622.591980 416.568481,619.391357 423.898010,609.497437 
	C424.246063,613.467346 424.513977,616.523438 424.792908,619.704834 
	C428.479675,619.704834 431.873779,619.704834 434.966431,619.704834 
	C434.966431,587.698792 434.966431,555.992676 434.966431,524.331299 
	C430.671783,524.331299 426.945953,524.331299 422.853455,524.331299 
	C422.853455,537.215088 422.853455,549.766479 422.853455,561.926270 
	C419.151367,559.639343 415.565002,557.423889 411.195679,555.012146 
M319.991730,544.500183 
	C319.991730,569.583740 319.991730,594.667236 319.991730,619.743896 
	C324.218323,619.743896 327.809448,619.743896 331.850891,619.743896 
	C331.850891,613.533325 332.265900,607.538879 331.730682,601.630432 
	C331.225983,596.059265 333.772125,592.701782 338.073059,589.576538 
	C344.746216,598.769775 351.237610,607.808228 357.868011,616.743469 
	C358.858032,618.077576 360.419739,619.702515 361.857361,619.853088 
	C365.899200,620.276672 370.014343,620.000977 374.974274,620.000977 
	C365.089691,606.783752 355.765503,594.315735 346.352966,581.729675 
	C354.678955,572.862915 362.766724,564.249817 371.459991,554.991882 
	C367.958221,554.991882 365.599152,555.242371 363.313324,554.939758 
	C358.537201,554.307434 355.378357,556.081787 352.379852,559.921265 
	C346.085175,567.981262 339.193359,575.574829 331.691589,584.361511 
	C331.691589,563.507080 331.691589,543.844177 331.691589,524.292114 
	C327.467621,524.292114 323.873657,524.292114 319.991730,524.292114 
	C319.991730,530.892395 319.991730,537.196350 319.991730,544.500183 
M503.287506,607.707214 
	C503.964722,606.563904 504.709290,605.454773 505.308899,604.272095 
	C512.746765,589.600769 509.159149,569.444885 497.527222,560.440979 
	C485.187134,550.888916 466.011261,551.759155 454.796112,562.380127 
	C443.319916,573.248352 441.589325,594.967773 450.766357,608.455750 
	C462.201355,625.262207 490.463623,625.487610 503.287506,607.707214 
M246.069778,617.765564 
	C248.273438,616.038147 250.477112,614.310730 253.086472,612.265259 
	C253.509628,614.911804 253.888641,617.282349 254.287216,619.775146 
	C257.793549,619.775146 261.222900,619.775146 263.951904,619.775146 
	C263.951904,604.947998 264.347717,590.342896 263.805420,575.772705 
	C263.473083,566.842590 259.720062,559.101135 250.518585,555.874817 
	C239.184433,551.900635 228.345398,553.819580 217.598587,559.622803 
	C218.567978,562.363403 219.425995,564.789124 219.873489,566.054260 
	C227.030746,564.971985 233.501801,563.228699 239.979355,563.204224 
	C248.408707,563.172546 253.234863,570.416443 251.145844,579.003479 
	C248.442673,579.003479 245.606583,578.772095 242.820557,579.047363 
	C234.806870,579.839111 227.017334,581.474670 220.462341,586.602478 
	C213.797073,591.816467 211.232941,600.542725 213.919540,608.571838 
	C216.477249,616.215698 223.209900,621.200745 231.918121,620.863403 
	C236.434387,620.688416 240.893646,619.041992 246.069778,617.765564 
M631.380188,558.800232 
	C629.348022,560.658447 627.315918,562.516663 625.070251,564.570129 
	C624.661621,561.297729 624.281799,558.255737 623.909485,555.273804 
	C620.304321,555.273804 617.041626,555.273804 614.023560,555.273804 
	C614.023560,576.934692 614.023560,598.316284 614.023560,619.672119 
	C618.315552,619.672119 622.041870,619.672119 626.002319,619.672119 
	C626.002319,607.367920 625.942139,595.391724 626.049377,583.417053 
	C626.072937,580.788513 626.336792,578.056213 627.103333,575.560059 
	C629.386108,568.125916 636.532471,563.497314 644.395874,564.015015 
	C651.451721,564.479553 655.724792,568.607239 657.275085,576.971069 
	C657.876038,580.212769 657.943054,583.582947 657.967468,586.896729 
	C658.047913,597.829773 657.997742,608.763794 657.997742,619.674561 
	C662.312500,619.674561 666.038940,619.674561 670.002075,619.674561 
	C670.002075,606.040771 670.154053,592.730774 669.950623,579.426208 
	C669.806152,569.972534 666.999756,561.502380 658.013428,556.790527 
	C649.174805,552.156128 640.356995,553.061218 631.380188,558.800232 
M69.993896,603.498352 
	C69.993896,608.919922 69.993896,614.341553 69.993896,619.744385 
	C74.220352,619.744385 77.807312,619.744385 81.847931,619.744385 
	C81.847931,617.701660 81.840279,615.913574 81.849197,614.125549 
	C81.899796,603.982117 81.725220,593.830505 82.084274,583.697937 
	C82.344528,576.353455 84.995125,569.854858 92.252098,566.737427 
	C95.273842,565.439392 98.854103,565.441528 102.222488,564.844971 
	C102.222488,561.390808 102.222488,557.823425 102.222488,552.834778 
	C97.364189,554.320374 92.729980,554.831848 89.191948,557.073364 
	C85.635201,559.326782 83.169579,563.302429 79.886826,566.894287 
	C79.886826,562.898010 79.886826,559.032959 79.886826,555.334229 
	C76.077103,555.334229 72.835052,555.334229 69.993889,555.334229 
	C69.993889,571.283325 69.993889,586.891052 69.993896,603.498352 
M311.560455,559.412476 
	C311.560455,557.678528 311.560455,555.944580 311.560455,554.297852 
	C300.295593,552.698242 294.145935,558.584595 288.932861,566.719177 
	C288.932861,562.956299 288.932861,559.193420 288.932861,555.218750 
	C285.325470,555.218750 282.085876,555.218750 279.112305,555.218750 
	C279.112305,576.926514 279.112305,598.409241 279.112305,619.664062 
	C283.371246,619.664062 286.960205,619.664062 290.847900,619.664062 
	C290.847900,613.693115 290.842285,608.059204 290.849487,602.425293 
	C290.856720,596.767151 290.713593,591.102966 290.923401,585.452087 
	C291.436310,571.635254 297.528687,565.590271 311.560120,565.162598 
	C311.560120,563.545410 311.560120,561.911743 311.560455,559.412476 
M458.727417,745.119324 
	C457.064850,746.902710 454.215759,748.588379 454.058685,750.495728 
	C453.886353,752.588379 455.670105,755.623596 457.528168,756.947144 
	C462.082977,760.191650 463.954620,754.533325 467.606140,753.538208 
	C464.446960,748.247192 461.533112,743.367065 458.619263,738.486877 
	C458.108459,738.775208 457.597656,739.063477 457.086853,739.351807 
	C457.792175,741.068054 458.497498,742.784363 458.727417,745.119324 
M507.386444,731.770325 
	C507.934052,730.586365 509.243683,729.050781 508.889404,728.282959 
	C507.728973,725.767944 506.413513,722.803833 504.256409,721.470276 
	C503.021515,720.706909 498.827057,722.207275 498.137329,723.695312 
	C497.175507,725.770386 497.449463,729.246521 498.630768,731.294922 
	C500.461090,734.468750 503.753510,734.579163 507.386444,731.770325 
M484.048798,741.541382 
	C483.400818,737.699829 481.499481,734.426331 477.337799,735.216003 
	C475.223938,735.617126 472.563660,738.375000 472.010101,740.542480 
	C471.166382,743.845886 473.387787,746.847717 476.896637,747.530823 
	C480.730469,748.277161 483.157837,746.132996 484.048798,741.541382 
M427.139954,763.616638 
	C424.763519,768.103088 427.005524,769.213257 431.097534,769.215576 
	C432.075806,769.216125 433.053680,769.927917 434.031708,770.312622 
	C433.416260,771.157410 432.886902,772.088806 432.154938,772.816345 
	C431.672760,773.295654 430.898682,773.481201 430.255341,773.798340 
	C430.614319,774.325745 430.973297,774.853210 431.332275,775.380676 
	C433.007721,773.968445 435.859161,772.762695 436.149811,771.107300 
	C437.255554,764.809998 431.045258,768.155579 428.152313,765.975220 
	C429.431366,764.618103 430.474274,763.511597 431.517151,762.405090 
	C431.349304,762.156433 431.181427,761.907715 431.013550,761.659058 
	C429.895660,762.136963 428.777740,762.614868 427.139954,763.616638 
M433.115997,760.991211 
	C434.762726,762.877502 436.506195,764.689148 438.033264,766.667725 
	C440.269287,769.564941 441.026215,769.653931 443.909698,766.920593 
	C438.853088,765.775024 436.599487,761.599365 438.821747,757.544189 
	C437.117554,757.222534 435.406311,756.899536 433.410309,756.522766 
	C433.238251,757.758728 433.067719,758.983459 433.115997,760.991211 
M489.375488,733.128479 
	C490.377106,730.741272 491.378754,728.354065 492.486450,725.714050 
	C489.010590,726.667786 486.138184,728.696228 487.116699,732.477051 
	C487.734467,734.864136 490.212677,737.399109 492.509399,738.479553 
	C493.826935,739.099304 496.449829,736.944214 497.647217,736.411255 
	C494.746002,735.453918 492.253754,734.631531 489.375488,733.128479 
M425.795868,777.627380 
	C424.518860,774.573547 423.241852,771.519653 421.905334,768.323547 
	C421.245361,768.601868 420.008026,769.123718 418.485138,769.765991 
	C420.278900,772.908508 421.824921,775.779419 423.593597,778.505737 
	C423.809418,778.838318 425.221008,778.395203 425.795868,777.627380 
M466.465424,741.050293 
	C466.352966,745.747620 469.670349,748.447876 471.718140,751.887329 
	C472.314819,751.553284 472.911499,751.219177 473.508179,750.885071 
	C471.414551,747.574463 469.320953,744.263794 466.465424,741.050293 
z"/>
<path fill="#DE3036" opacity="1.000000" stroke="none" 
	d="
M657.893555,204.656830 
	C656.247375,207.533066 654.426270,210.114700 651.904968,212.855423 
	C648.334900,213.676300 645.467346,214.902161 642.594849,214.913727 
	C609.164307,215.048355 575.732971,215.037491 542.302307,214.911133 
	C540.185974,214.903137 538.074463,213.618958 535.967896,212.523712 
	C536.661926,208.685135 537.348755,205.251312 538.078003,201.605759 
	C535.649658,200.969727 533.636292,200.442368 531.677246,199.504059 
	C532.223572,196.885773 532.715515,194.678421 533.271912,192.181808 
	C515.579834,189.823059 498.761475,191.941986 482.130676,196.701950 
	C463.658081,201.989075 447.346008,211.453613 431.292725,222.139297 
	C428.412140,221.634430 425.970764,221.034164 423.531036,221.040726 
	C317.184845,221.326843 210.838867,221.687820 104.492592,221.914429 
	C100.661324,221.922592 96.827370,220.670624 92.994667,220.005920 
	C89.421791,214.881790 85.848915,209.757645 82.137100,204.316284 
	C97.119240,195.110062 112.201164,186.153656 127.370590,177.347977 
	C150.007599,164.207443 172.703857,151.168976 195.382355,138.099991 
	C197.680084,136.775864 200.028748,135.540176 202.694122,134.555145 
	C204.768326,135.564545 206.504303,136.914658 208.235687,136.908737 
	C274.306976,136.683365 340.377594,136.261414 406.448853,136.027023 
	C447.082550,135.882889 487.717255,136.033081 528.351135,135.911819 
	C530.605103,135.905106 532.855225,134.621735 535.107178,133.932571 
	C544.255737,138.968994 553.483398,143.867569 562.537842,149.067871 
	C589.180542,164.369797 615.761658,179.779022 642.349060,195.176926 
	C647.513306,198.167755 652.597534,201.296875 657.893555,204.656830 
z"/>
<path fill="#DF383E" opacity="1.000000" stroke="none" 
	d="
M534.915955,133.640656 
	C532.855225,134.621735 530.605103,135.905106 528.351135,135.911819 
	C487.717255,136.033081 447.082550,135.882889 406.448853,136.027023 
	C340.377594,136.261414 274.306976,136.683365 208.235687,136.908737 
	C206.504303,136.914658 204.768326,135.564545 203.019867,134.433121 
	C216.586517,126.045349 230.133347,118.011887 243.756866,110.110603 
	C266.319397,97.024933 288.932678,84.026703 311.522034,70.987198 
	C329.655334,60.519905 347.808197,50.085999 365.890350,39.531033 
	C368.532715,37.988617 370.670471,38.116333 373.248047,39.616562 
	C399.241669,54.745476 425.289520,69.781158 451.310974,84.862259 
	C475.286987,98.757889 499.251038,112.674202 523.216125,126.588638 
	C527.063599,128.822540 530.889099,131.094421 534.915955,133.640656 
z"/>
<path fill="#FFFDFD" opacity="1.000000" stroke="none" 
	d="
M431.732697,222.326950 
	C447.346008,211.453613 463.658081,201.989075 482.130676,196.701950 
	C498.761475,191.941986 515.579834,189.823059 533.271912,192.181808 
	C532.715515,194.678421 532.223572,196.885773 531.462646,199.785309 
	C529.033630,207.946503 526.765198,215.386673 524.766235,222.898514 
	C523.953308,225.953369 522.333679,227.027176 519.226379,227.315933 
	C510.320160,228.143585 501.449280,229.351685 492.564514,230.410233 
	C492.530670,230.607880 492.496857,230.805542 492.463013,231.003204 
	C501.860870,232.086716 511.258759,233.170227 520.744629,234.263901 
	C520.528076,235.388519 520.377258,236.171570 520.069458,237.293518 
	C519.432129,239.042236 518.951782,240.452057 518.284058,242.144043 
	C515.353760,249.372711 512.818665,256.410034 509.830688,263.249542 
	C498.755829,288.599609 484.611176,311.885590 464.239838,331.036560 
	C460.509064,334.543884 457.219055,335.370575 452.253357,333.691925 
	C434.633972,327.735870 416.337463,325.734039 397.221039,325.420258 
	C409.506409,329.652954 421.220428,333.688812 433.212646,337.866516 
	C433.699066,338.012390 433.907227,338.016357 434.161926,338.116516 
	C434.208466,338.212646 434.420441,338.185791 434.420441,338.185791 
	C438.521118,340.182800 442.621796,342.179810 447.259644,344.438416 
	C445.301758,345.568268 443.777710,346.447754 441.721100,347.659576 
	C431.337952,352.342865 421.705017,357.306427 411.585968,360.901642 
	C396.277740,366.340546 380.212616,368.056061 364.001465,368.560059 
	C361.245605,368.645782 357.819794,369.291779 355.969971,371.028168 
	C353.443146,373.400116 352.130249,377.065308 350.045654,380.602417 
	C354.090057,380.602417 357.505402,380.602417 360.920715,380.602417 
	C364.035614,380.679474 367.150208,380.805511 370.265472,380.824005 
	C378.225891,380.871246 378.429565,381.055878 378.590210,389.982300 
	C378.420624,399.337952 378.420624,399.337952 370.195435,400.455597 
	C370.195435,405.267700 370.195435,410.079132 370.195435,415.045135 
	C372.029022,414.962708 373.499451,414.896576 374.969879,414.830475 
	C379.435242,414.886169 383.900452,414.955017 388.365967,414.994751 
	C397.067841,415.072205 400.673889,417.949982 402.709839,427.102356 
	C404.224762,439.253143 405.696808,450.638306 406.914856,462.050568 
	C408.063843,472.815765 405.084503,475.995728 394.284790,475.997589 
	C356.309631,476.004089 318.334442,476.016907 280.359375,475.965729 
	C277.559204,475.961975 274.759705,475.468201 271.959900,475.202209 
	C267.361176,473.006470 266.146790,469.144501 266.695038,464.440765 
	C268.156769,451.899780 269.537720,439.348328 271.139099,426.825104 
	C272.144379,418.963501 276.554779,415.190125 284.606384,415.020416 
	C290.757416,414.890747 296.912445,414.950531 303.065613,414.912628 
	C303.206451,414.911774 303.346283,414.750488 303.976776,414.361694 
	C303.976776,413.075897 303.976776,411.477753 303.977905,408.989441 
	C303.979065,405.546356 303.979065,402.993378 303.979065,400.169525 
	C302.472321,400.169525 301.251221,400.169525 300.030121,400.169525 
	C296.255676,399.823334 295.099640,397.548309 295.126038,394.019653 
	C295.231018,379.998474 293.865234,380.781372 307.827820,380.827881 
	C316.983643,380.858368 326.141846,380.721191 335.294495,380.895050 
	C338.462799,380.955200 340.468536,380.066589 342.169373,377.223969 
	C346.178589,370.523224 350.584839,364.059998 355.176758,356.982178 
	C370.405396,337.329834 384.787201,317.778778 400.297852,299.168518 
	C419.370575,276.284271 441.063568,255.897064 464.068542,236.510742 
	C464.436371,235.985931 464.551422,235.616623 464.666473,235.247284 
	C464.053467,235.436539 463.440460,235.625793 462.499573,235.910889 
	C440.284607,251.897720 420.397186,270.102600 402.470551,290.240936 
	C386.701813,307.955139 372.152222,326.754578 357.064209,345.074768 
	C354.562622,348.286835 352.061005,351.498901 349.559387,354.710968 
	C351.683258,334.625336 358.818634,316.338348 368.247437,298.150421 
	C385.026337,268.644928 404.347870,242.102463 431.732697,222.326950 
M362.979767,389.096954 
	C362.979767,387.489838 362.979767,385.882751 362.979767,384.205750 
	C361.040161,384.205750 359.516510,384.205750 358.053040,384.205750 
	C358.053040,386.364777 358.053040,388.168488 357.869507,390.862671 
	C357.869507,392.778320 357.869507,394.693970 357.869507,396.658081 
	C359.828186,396.658081 361.339111,396.658081 362.836517,396.658081 
	C362.836517,394.205597 362.836517,392.090057 362.979767,389.096954 
M346.747070,427.589417 
	C343.478027,434.003510 337.556885,437.097107 330.223328,439.846680 
	C339.718353,440.005341 347.911530,435.041351 351.354675,427.347870 
	C352.879913,420.034454 350.330078,414.698517 344.735718,414.510559 
	C339.509094,414.334961 334.816254,416.032196 331.368591,420.920410 
	C324.645477,428.045929 319.147522,435.881256 318.374634,445.999969 
	C318.152374,448.910034 319.121216,451.911072 319.543976,454.870392 
	C320.219849,454.847412 320.895721,454.824432 321.571594,454.801422 
	C322.180145,442.589539 326.881500,431.715729 332.707275,420.853424 
	C334.230774,420.212494 335.709198,419.417389 337.285370,418.956604 
	C345.242249,416.630615 347.868988,418.811615 346.747070,427.589417 
M336.195251,447.443512 
	C333.980164,446.213928 331.765045,444.984314 329.549957,443.754730 
	C334.215485,453.685303 347.334564,458.315033 351.969360,451.944458 
	C347.087219,450.626617 341.963684,449.243622 336.195251,447.443512 
z"/>
<path fill="#DC282F" opacity="1.000000" stroke="none" 
	d="
M431.292725,222.139297 
	C404.347870,242.102463 385.026337,268.644928 368.296509,297.799255 
	C366.088531,297.671692 364.153381,297.046570 362.217072,297.043060 
	C329.085754,296.983154 295.953674,296.877228 262.823059,297.042175 
	C239.722824,297.157166 216.624985,297.708832 193.524826,297.941467 
	C190.926712,297.967621 188.109283,297.689606 185.751923,296.699432 
	C169.164062,289.731720 153.552719,280.921539 139.896072,269.199829 
	C128.570419,259.478821 117.759178,249.113449 107.237427,238.519684 
	C101.922653,233.168549 97.754265,226.678802 93.031113,220.354904 
	C96.827370,220.670624 100.661324,221.922592 104.492592,221.914429 
	C210.838867,221.687820 317.184845,221.326843 423.531036,221.040726 
	C425.970764,221.034164 428.412140,221.634430 431.292725,222.139297 
z"/>
<path fill="#DC292F" opacity="1.000000" stroke="none" 
	d="
M518.471436,241.861877 
	C518.951782,240.452057 519.432129,239.042236 520.461426,237.296463 
	C526.554443,236.999313 529.600769,234.617355 530.747620,228.830017 
	C531.823975,223.398453 534.172180,218.218933 535.960693,212.928482 
	C538.074463,213.618958 540.185974,214.903137 542.302307,214.911133 
	C575.732971,215.037491 609.164307,215.048355 642.594849,214.913727 
	C645.467346,214.902161 648.334900,213.676300 651.603638,213.008575 
	C647.647034,219.189621 643.719543,225.738098 638.856079,231.495987 
	C624.142517,248.915619 607.601929,264.453461 588.891296,277.559570 
	C577.248169,285.715240 565.327820,292.501648 550.005249,291.208221 
	C537.780823,290.176300 525.399658,291.027588 513.088379,290.969421 
	C511.297119,290.960968 509.507721,290.542542 507.382141,289.790527 
	C513.545166,274.166351 520.043518,259.065521 526.640015,243.736481 
	C522.964355,242.892960 520.717896,242.377411 518.471436,241.861877 
z"/>
<path fill="#FDF0F0" opacity="1.000000" stroke="none" 
	d="
M172.670227,555.356018 
	C189.946655,550.594727 202.352753,559.768127 202.908356,577.835327 
	C203.332825,591.637878 202.992737,605.463928 202.992737,619.640869 
	C199.264130,619.640869 195.698212,619.640869 191.445694,619.640869 
	C191.445694,617.475159 191.465408,615.206299 191.442368,612.937805 
	C191.327286,601.615662 191.448517,590.283936 191.001923,578.974731 
	C190.631409,569.591919 185.312729,563.969543 177.636108,563.885620 
	C169.791336,563.799866 163.253876,570.049072 162.874451,579.051575 
	C162.390884,590.524658 162.626114,602.028137 162.556000,613.518555 
	C162.543976,615.489563 162.554306,617.460754 162.554306,619.715210 
	C158.587021,619.715210 155.031631,619.715210 150.996933,619.715210 
	C150.996933,607.974487 151.086105,596.360291 150.944305,584.748901 
	C150.899933,581.116455 150.715546,577.358704 149.760040,573.888306 
	C146.920013,563.573303 135.271362,560.217285 127.831848,567.917358 
	C124.842941,571.010986 122.368736,575.819336 122.042313,580.031738 
	C121.182419,591.128113 121.626472,602.325684 121.556053,613.482910 
	C121.543602,615.455688 121.554291,617.428528 121.554291,619.699951 
	C117.609947,619.699951 114.056114,619.699951 109.977997,619.699951 
	C109.977997,598.230225 109.977997,576.848877 109.977997,555.230591 
	C113.053215,555.230591 116.300514,555.230591 119.838158,555.230591 
	C119.990273,558.335938 120.134216,561.274597 120.330765,565.286987 
	C125.907242,558.436890 131.976364,553.943665 140.637970,553.912598 
	C149.671036,553.880188 155.715042,558.086731 159.429886,565.302979 
	C163.795776,561.990723 168.053986,558.760132 172.670227,555.356018 
z"/>
<path fill="#FCEEEE" opacity="1.000000" stroke="none" 
	d="
M563.172546,586.833191 
	C561.557434,581.086792 560.050354,575.724915 558.411987,569.895752 
	C552.816101,586.859619 547.379517,603.340515 541.933228,619.850952 
	C538.085144,619.850952 534.608093,619.850952 530.560425,619.850952 
	C524.064148,598.472839 517.526123,576.957581 510.900818,555.155029 
	C515.198975,555.155029 519.008484,555.155029 523.415527,555.155029 
	C527.780640,571.968140 532.179321,588.910889 536.862671,606.950134 
	C542.527649,589.052979 547.889099,572.114563 553.261536,555.141418 
	C556.900513,555.141418 560.202881,555.141418 563.868713,555.141418 
	C569.113647,572.303345 574.347961,589.430359 579.574768,606.532837 
	C584.334351,589.473450 589.126221,572.298096 593.894409,555.207825 
	C598.114319,555.207825 601.888916,555.207825 606.075623,555.207825 
	C599.008362,576.984009 592.044800,598.440857 585.086304,619.881836 
	C581.224304,619.881836 577.745667,619.881836 573.942688,619.881836 
	C570.385132,608.982849 566.832886,598.100342 563.172546,586.833191 
z"/>
<path fill="#FDF0F0" opacity="1.000000" stroke="none" 
	d="
M411.587158,555.110291 
	C415.565002,557.423889 419.151367,559.639343 422.853455,561.926270 
	C422.853455,549.766479 422.853455,537.215088 422.853455,524.331299 
	C426.945953,524.331299 430.671783,524.331299 434.966431,524.331299 
	C434.966431,555.992676 434.966431,587.698792 434.966431,619.704834 
	C431.873779,619.704834 428.479675,619.704834 424.792908,619.704834 
	C424.513977,616.523438 424.246063,613.467346 423.898010,609.497437 
	C416.568481,619.391357 407.247742,622.591980 396.289185,620.475891 
	C384.430115,618.185913 375.794464,608.423035 374.470184,594.473633 
	C373.813202,587.553345 374.547577,580.029297 376.651001,573.413879 
	C381.466095,558.270142 395.689148,551.195557 411.587158,555.110291 
M422.489197,577.413696 
	C419.965942,568.842834 414.758514,564.176575 406.939606,563.480042 
	C399.214569,562.791870 392.379395,566.745422 388.971954,574.294922 
	C385.014954,583.062012 384.810699,592.012024 388.854187,600.824768 
	C392.567871,608.918701 400.268707,612.677307 408.984497,610.937439 
	C416.619019,609.413391 422.551819,602.485779 422.895233,594.188477 
	C423.114868,588.882812 422.808868,583.555298 422.489197,577.413696 
z"/>
<path fill="#FCEEEE" opacity="1.000000" stroke="none" 
	d="
M319.991730,544.000244 
	C319.991730,537.196350 319.991730,530.892395 319.991730,524.292114 
	C323.873657,524.292114 327.467621,524.292114 331.691589,524.292114 
	C331.691589,543.844177 331.691589,563.507080 331.691589,584.361511 
	C339.193359,575.574829 346.085175,567.981262 352.379852,559.921265 
	C355.378357,556.081787 358.537201,554.307434 363.313324,554.939758 
	C365.599152,555.242371 367.958221,554.991882 371.459991,554.991882 
	C362.766724,564.249817 354.678955,572.862915 346.352966,581.729675 
	C355.765503,594.315735 365.089691,606.783752 374.974274,620.000977 
	C370.014343,620.000977 365.899200,620.276672 361.857361,619.853088 
	C360.419739,619.702515 358.858032,618.077576 357.868011,616.743469 
	C351.237610,607.808228 344.746216,598.769775 338.073059,589.576538 
	C333.772125,592.701782 331.225983,596.059265 331.730682,601.630432 
	C332.265900,607.538879 331.850891,613.533325 331.850891,619.743896 
	C327.809448,619.743896 324.218323,619.743896 319.991730,619.743896 
	C319.991730,594.667236 319.991730,569.583740 319.991730,544.000244 
z"/>
<path fill="#FCEEEE" opacity="1.000000" stroke="none" 
	d="
M503.097778,608.016479 
	C490.463623,625.487610 462.201355,625.262207 450.766357,608.455750 
	C441.589325,594.967773 443.319916,573.248352 454.796112,562.380127 
	C466.011261,551.759155 485.187134,550.888916 497.527222,560.440979 
	C509.159149,569.444885 512.746765,589.600769 505.308899,604.272095 
	C504.709290,605.454773 503.964722,606.563904 503.097778,608.016479 
M462.574036,604.844177 
	C473.549133,616.371216 488.480591,613.579224 494.487946,598.810425 
	C497.500854,591.403320 497.346222,583.855530 494.709137,576.390991 
	C491.754761,568.028320 485.203613,563.088440 477.308655,563.004822 
	C468.872894,562.915466 462.023132,567.889038 459.010986,576.597473 
	C455.665100,586.270630 456.353210,595.577454 462.574036,604.844177 
z"/>
<path fill="#FDEFEF" opacity="1.000000" stroke="none" 
	d="
M245.724213,617.912964 
	C240.893646,619.041992 236.434387,620.688416 231.918121,620.863403 
	C223.209900,621.200745 216.477249,616.215698 213.919540,608.571838 
	C211.232941,600.542725 213.797073,591.816467 220.462341,586.602478 
	C227.017334,581.474670 234.806870,579.839111 242.820557,579.047363 
	C245.606583,578.772095 248.442673,579.003479 251.145844,579.003479 
	C253.234863,570.416443 248.408707,563.172546 239.979355,563.204224 
	C233.501801,563.228699 227.030746,564.971985 219.873489,566.054260 
	C219.425995,564.789124 218.567978,562.363403 217.598587,559.622803 
	C228.345398,553.819580 239.184433,551.900635 250.518585,555.874817 
	C259.720062,559.101135 263.473083,566.842590 263.805420,575.772705 
	C264.347717,590.342896 263.951904,604.947998 263.951904,619.775146 
	C261.222900,619.775146 257.793549,619.775146 254.287216,619.775146 
	C253.888641,617.282349 253.509628,614.911804 253.086472,612.265259 
	C250.477112,614.310730 248.273438,616.038147 245.724213,617.912964 
M252.571320,591.582275 
	C252.486542,590.136047 252.401779,588.689819 252.227463,585.715820 
	C244.781891,587.566895 237.740356,588.660461 231.227264,591.141357 
	C225.864365,593.184143 223.935135,599.239014 225.522446,604.550354 
	C227.081848,609.768250 230.782227,612.183655 236.967957,612.021362 
	C247.070770,611.756226 252.546783,604.898132 252.571320,591.582275 
z"/>
<path fill="#FDF1F1" opacity="1.000000" stroke="none" 
	d="
M631.667908,558.575989 
	C640.356995,553.061218 649.174805,552.156128 658.013428,556.790527 
	C666.999756,561.502380 669.806152,569.972534 669.950623,579.426208 
	C670.154053,592.730774 670.002075,606.040771 670.002075,619.674561 
	C666.038940,619.674561 662.312500,619.674561 657.997742,619.674561 
	C657.997742,608.763794 658.047913,597.829773 657.967468,586.896729 
	C657.943054,583.582947 657.876038,580.212769 657.275085,576.971069 
	C655.724792,568.607239 651.451721,564.479553 644.395874,564.015015 
	C636.532471,563.497314 629.386108,568.125916 627.103333,575.560059 
	C626.336792,578.056213 626.072937,580.788513 626.049377,583.417053 
	C625.942139,595.391724 626.002319,607.367920 626.002319,619.672119 
	C622.041870,619.672119 618.315552,619.672119 614.023560,619.672119 
	C614.023560,598.316284 614.023560,576.934692 614.023560,555.273804 
	C617.041626,555.273804 620.304321,555.273804 623.909485,555.273804 
	C624.281799,558.255737 624.661621,561.297729 625.070251,564.570129 
	C627.315918,562.516663 629.348022,560.658447 631.667908,558.575989 
z"/>
<path fill="#A72226" opacity="1.000000" stroke="none" 
	d="
M518.284058,242.144043 
	C520.717896,242.377411 522.964355,242.892960 526.640015,243.736481 
	C520.043518,259.065521 513.545166,274.166351 506.993408,289.626282 
	C501.531708,298.497040 496.630890,307.391571 490.577820,315.416962 
	C484.015961,324.117004 476.444427,332.064178 469.183411,340.224152 
	C466.039734,343.757019 462.377197,344.387726 457.557037,342.915527 
	C450.342468,340.711975 442.787994,339.621246 434.899292,338.121521 
	C434.420441,338.185791 434.208466,338.212646 434.069672,337.935638 
	C433.598724,337.680634 433.266602,337.702637 432.934448,337.724670 
	C421.220428,333.688812 409.506409,329.652954 397.221039,325.420258 
	C416.337463,325.734039 434.633972,327.735870 452.253357,333.691925 
	C457.219055,335.370575 460.509064,334.543884 464.239838,331.036560 
	C484.611176,311.885590 498.755829,288.599609 509.830688,263.249542 
	C512.818665,256.410034 515.353760,249.372711 518.284058,242.144043 
z"/>
<path fill="#A61E22" opacity="1.000000" stroke="none" 
	d="
M271.966797,475.595001 
	C274.759705,475.468201 277.559204,475.961975 280.359375,475.965729 
	C318.334442,476.016907 356.309631,476.004089 394.284790,475.997589 
	C405.084503,475.995728 408.063843,472.815765 406.914856,462.050568 
	C405.696808,450.638306 404.224762,439.253143 402.909302,427.407074 
	C404.397797,429.773376 406.705414,432.463379 407.134796,435.425659 
	C409.055023,448.673370 410.656586,461.978241 411.917542,475.305573 
	C412.468140,481.125092 408.415161,484.962433 402.465271,484.970367 
	C362.145386,485.023956 321.825348,485.029205 281.505524,484.961517 
	C275.124237,484.950775 272.450684,482.217133 271.966797,475.595001 
z"/>
<path fill="#FCEFEF" opacity="1.000000" stroke="none" 
	d="
M69.993896,602.998535 
	C69.993889,586.891052 69.993889,571.283325 69.993889,555.334229 
	C72.835052,555.334229 76.077103,555.334229 79.886826,555.334229 
	C79.886826,559.032959 79.886826,562.898010 79.886826,566.894287 
	C83.169579,563.302429 85.635201,559.326782 89.191948,557.073364 
	C92.729980,554.831848 97.364189,554.320374 102.222488,552.834778 
	C102.222488,557.823425 102.222488,561.390808 102.222488,564.844971 
	C98.854103,565.441528 95.273842,565.439392 92.252098,566.737427 
	C84.995125,569.854858 82.344528,576.353455 82.084274,583.697937 
	C81.725220,593.830505 81.899796,603.982117 81.849197,614.125549 
	C81.840279,615.913574 81.847931,617.701660 81.847931,619.744385 
	C77.807312,619.744385 74.220352,619.744385 69.993896,619.744385 
	C69.993896,614.341553 69.993896,608.919922 69.993896,602.998535 
z"/>
<path fill="#FCEFEF" opacity="1.000000" stroke="none" 
	d="
M311.560303,559.845276 
	C311.560120,561.911743 311.560120,563.545410 311.560120,565.162598 
	C297.528687,565.590271 291.436310,571.635254 290.923401,585.452087 
	C290.713593,591.102966 290.856720,596.767151 290.849487,602.425293 
	C290.842285,608.059204 290.847900,613.693115 290.847900,619.664062 
	C286.960205,619.664062 283.371246,619.664062 279.112305,619.664062 
	C279.112305,598.409241 279.112305,576.926514 279.112305,555.218750 
	C282.085876,555.218750 285.325470,555.218750 288.932861,555.218750 
	C288.932861,559.193420 288.932861,562.956299 288.932861,566.719177 
	C294.145935,558.584595 300.295593,552.698242 311.560455,554.297852 
	C311.560455,555.944580 311.560455,557.678528 311.560303,559.845276 
z"/>
<path fill="#A82125" opacity="1.000000" stroke="none" 
	d="
M361.020538,380.240417 
	C357.505402,380.602417 354.090057,380.602417 350.045654,380.602417 
	C352.130249,377.065308 353.443146,373.400116 355.969971,371.028168 
	C357.819794,369.291779 361.245605,368.645782 364.001465,368.560059 
	C380.212616,368.056061 396.277740,366.340546 411.585968,360.901642 
	C421.705017,357.306427 431.337952,352.342865 441.536987,347.939697 
	C445.118103,349.679596 448.350769,351.471710 451.989899,353.489197 
	C437.705322,362.916077 422.637543,369.434723 406.522491,372.721222 
	C393.314575,375.414825 379.729767,376.244171 366.328735,378.025909 
	C364.542114,378.263489 362.854065,379.242676 361.020538,380.240417 
z"/>
<path fill="#AA292D" opacity="1.000000" stroke="none" 
	d="
M463.815796,236.666245 
	C441.063568,255.897064 419.370575,276.284271 400.297852,299.168518 
	C384.787201,317.778778 370.405396,337.329834 355.249390,356.639771 
	C355.661072,353.173767 356.346405,349.531647 357.047974,345.482178 
	C372.152222,326.754578 386.701813,307.955139 402.470551,290.240936 
	C420.397186,270.102600 440.284607,251.897720 462.736572,236.135422 
	C463.472900,236.398163 463.644348,236.532196 463.815796,236.666245 
z"/>
<path fill="#A71E22" opacity="1.000000" stroke="none" 
	d="
M374.975708,414.409851 
	C373.499451,414.896576 372.029022,414.962708 370.195435,415.045135 
	C370.195435,410.079132 370.195435,405.267700 370.195435,400.455597 
	C378.420624,399.337952 378.420624,399.337952 378.710297,390.384949 
	C380.049530,390.378510 382.254120,390.652008 382.323700,391.197723 
	C382.940033,396.031830 383.832458,401.003418 383.187164,405.735870 
	C382.947845,407.491058 378.838165,408.718536 376.493530,410.186707 
	C376.105408,409.874695 375.717316,409.562653 375.329193,409.250641 
	C375.213318,410.830170 375.097412,412.409698 374.975708,414.409851 
z"/>
<path fill="#FADEDF" opacity="1.000000" stroke="none" 
	d="
M375.418427,802.467896 
	C375.600891,804.472778 375.783386,806.477661 375.965851,808.482544 
	C375.532806,808.689880 375.099792,808.897217 374.666779,809.104553 
	C371.656128,806.313660 368.645477,803.522827 365.634827,800.731934 
	C365.960388,800.276428 366.285919,799.820984 366.611450,799.365540 
	C368.680695,800.883850 370.749908,802.402161 373.269867,804.251160 
	C372.930267,801.200195 372.641479,798.605957 372.210297,794.732361 
	C375.367615,797.076111 377.498627,798.658020 380.099792,800.588928 
	C379.654144,797.380920 379.294098,794.789185 378.934052,792.197510 
	C379.523499,792.104675 380.112915,792.011780 380.702332,791.918884 
	C381.522919,796.045410 382.343506,800.171936 383.164062,804.298462 
	C382.712036,804.497803 382.259979,804.697205 381.807953,804.896545 
	C380.310638,803.735901 378.813324,802.575256 376.867737,800.979980 
	C376.021423,800.417725 375.623383,800.290100 375.225342,800.162476 
	C375.289703,800.930969 375.354065,801.699402 375.418427,802.467896 
z"/>
<path fill="#FADEDF" opacity="1.000000" stroke="none" 
	d="
M391.418488,792.467896 
	C391.600922,794.472778 391.783356,796.477661 391.965790,798.482544 
	C391.532776,798.689941 391.099731,798.897278 390.666718,799.104614 
	C387.656006,796.313843 384.645294,793.523010 381.634583,790.732178 
	C381.960266,790.276550 382.285950,789.820923 382.611633,789.365295 
	C384.680847,790.883606 386.750061,792.401978 389.269775,794.250854 
	C388.930237,791.200195 388.641449,788.605957 388.210297,784.732239 
	C391.367676,787.076050 393.498657,788.657959 396.099792,790.588867 
	C395.654083,787.380920 395.294006,784.789246 394.933929,782.197571 
	C395.523407,782.104675 396.112885,782.011780 396.702393,781.918884 
	C397.522949,786.045410 398.343536,790.171936 399.164124,794.298462 
	C398.712128,794.497742 398.260132,794.697021 397.808167,794.896301 
	C396.310791,793.735718 394.813416,792.575134 392.867737,790.979980 
	C392.021423,790.417725 391.623383,790.290100 391.225342,790.162476 
	C391.289734,790.930969 391.354095,791.699402 391.418488,792.467896 
z"/>
<path fill="#FADEDF" opacity="1.000000" stroke="none" 
	d="
M407.418457,783.467896 
	C407.600586,785.469177 407.782715,787.470459 407.964813,789.471802 
	C407.532166,789.682678 407.099518,789.893616 406.666870,790.104492 
	C403.656128,787.313660 400.645416,784.522888 397.634705,781.732056 
	C397.960327,781.276489 398.285919,780.820984 398.611511,780.365417 
	C400.680756,781.883728 402.749969,783.402039 405.269745,785.250977 
	C404.930206,782.200195 404.641479,779.605957 404.210358,775.732361 
	C407.367615,778.076111 409.498627,779.658020 412.099884,781.589050 
	C411.654144,778.380920 411.294067,775.789246 410.934021,773.197571 
	C411.523468,773.104675 412.112946,773.011780 412.702393,772.918884 
	C413.522980,777.045410 414.343567,781.171936 415.164124,785.298462 
	C414.712067,785.497803 414.260010,785.697144 413.807983,785.896484 
	C412.310669,784.735840 410.813354,783.575195 408.867737,781.979980 
	C408.021423,781.417725 407.623383,781.290100 407.225342,781.162476 
	C407.289703,781.930969 407.354095,782.699402 407.418457,783.467896 
z"/>
<path fill="#FAE1E2" opacity="1.000000" stroke="none" 
	d="
M458.965149,744.809937 
	C458.497498,742.784363 457.792175,741.068054 457.086853,739.351807 
	C457.597656,739.063477 458.108459,738.775208 458.619263,738.486877 
	C461.533112,743.367065 464.446960,748.247192 467.606140,753.538208 
	C463.954620,754.533325 462.082977,760.191650 457.528168,756.947144 
	C455.670105,755.623596 453.886353,752.588379 454.058685,750.495728 
	C454.215759,748.588379 457.064850,746.902710 458.965149,744.809937 
M463.471863,753.241394 
	C463.055054,751.859375 463.032898,750.050659 462.119354,749.205688 
	C461.033661,748.201599 459.181641,748.026123 457.661682,747.491577 
	C457.227234,749.094055 456.025024,750.995300 456.509583,752.240051 
	C457.719391,755.348145 459.862030,757.483276 463.471863,753.241394 
z"/>
<path fill="#F9DBDC" opacity="1.000000" stroke="none" 
	d="
M510.528564,716.802490 
	C513.685547,714.596802 516.769653,712.270325 520.060547,710.286682 
	C520.725647,709.885803 522.636230,710.431152 523.176392,711.143921 
	C525.143799,713.739868 526.773804,716.591614 528.530945,719.346924 
	C527.984924,719.695496 527.438843,720.044006 526.892761,720.392578 
	C525.610352,718.455688 524.504089,716.361938 522.974915,714.644897 
	C522.149719,713.718323 520.600891,713.436218 519.378601,712.863342 
	C519.123901,714.291687 518.350403,715.878906 518.728455,717.113464 
	C519.402710,719.315247 520.772583,721.303955 521.851624,723.381775 
	C521.388184,723.663635 520.924744,723.945496 520.461304,724.227356 
	C519.454895,722.759033 518.639954,721.094543 517.390503,719.875244 
	C516.033813,718.551331 514.272949,717.641479 511.962494,716.731079 
	C511.000610,716.874939 510.764587,716.838684 510.528564,716.802490 
z"/>
<path fill="#FAE0E1" opacity="1.000000" stroke="none" 
	d="
M507.101868,732.028137 
	C503.753510,734.579163 500.461090,734.468750 498.630768,731.294922 
	C497.449463,729.246521 497.175507,725.770386 498.137329,723.695312 
	C498.827057,722.207275 503.021515,720.706909 504.256409,721.470276 
	C506.413513,722.803833 507.728973,725.767944 508.889404,728.282959 
	C509.243683,729.050781 507.934052,730.586365 507.101868,732.028137 
M506.758820,728.404419 
	C505.975677,726.856323 505.457001,725.054016 504.307251,723.858398 
	C503.650024,723.174988 501.709290,722.997803 500.814850,723.473511 
	C499.905060,723.957458 498.830872,725.825684 499.129608,726.554810 
	C499.871582,728.366089 501.106995,730.231812 502.671143,731.313721 
	C503.237885,731.705627 505.303162,729.930908 506.758820,728.404419 
z"/>
<path fill="#FAE0E1" opacity="1.000000" stroke="none" 
	d="
M484.037659,741.932556 
	C483.157837,746.132996 480.730469,748.277161 476.896637,747.530823 
	C473.387787,746.847717 471.166382,743.845886 472.010101,740.542480 
	C472.563660,738.375000 475.223938,735.617126 477.337799,735.216003 
	C481.499481,734.426331 483.400818,737.699829 484.037659,741.932556 
M477.776306,745.615479 
	C479.103607,744.542297 481.621796,743.318054 481.508850,742.427551 
	C481.277771,740.606201 479.874847,738.701233 478.444366,737.385132 
	C477.913940,736.897034 474.870331,737.876038 474.832703,738.337708 
	C474.677216,740.244080 475.146729,742.229248 475.592346,744.137390 
	C475.704102,744.615723 476.581146,744.915283 477.776306,745.615479 
z"/>
<path fill="#F9D7D9" opacity="1.000000" stroke="none" 
	d="
M427.399902,763.354736 
	C428.777740,762.614868 429.895660,762.136963 431.013550,761.659058 
	C431.181427,761.907715 431.349304,762.156433 431.517151,762.405090 
	C430.474274,763.511597 429.431366,764.618103 428.152313,765.975220 
	C431.045258,768.155579 437.255554,764.809998 436.149811,771.107300 
	C435.859161,772.762695 433.007721,773.968445 431.332275,775.380676 
	C430.973297,774.853210 430.614319,774.325745 430.255341,773.798340 
	C430.898682,773.481201 431.672760,773.295654 432.154938,772.816345 
	C432.886902,772.088806 433.416260,771.157410 434.031708,770.312622 
	C433.053680,769.927917 432.075806,769.216125 431.097534,769.215576 
	C427.005524,769.213257 424.763519,768.103088 427.399902,763.354736 
z"/>
<path fill="#FADEDF" opacity="1.000000" stroke="none" 
	d="
M433.006592,760.599731 
	C433.067719,758.983459 433.238251,757.758728 433.410309,756.522766 
	C435.406311,756.899536 437.117554,757.222534 438.821747,757.544189 
	C436.599487,761.599365 438.853088,765.775024 443.909698,766.920593 
	C441.026215,769.653931 440.269287,769.564941 438.033264,766.667725 
	C436.506195,764.689148 434.762726,762.877502 433.006592,760.599731 
z"/>
<path fill="#F8D6D7" opacity="1.000000" stroke="none" 
	d="
M489.568481,733.468872 
	C492.253754,734.631531 494.746002,735.453918 497.647217,736.411255 
	C496.449829,736.944214 493.826935,739.099304 492.509399,738.479553 
	C490.212677,737.399109 487.734467,734.864136 487.116699,732.477051 
	C486.138184,728.696228 489.010590,726.667786 492.486450,725.714050 
	C491.378754,728.354065 490.377106,730.741272 489.568481,733.468872 
z"/>
<path fill="#F8D6D7" opacity="1.000000" stroke="none" 
	d="
M452.984192,760.957703 
	C451.115051,762.247498 447.981598,764.956665 447.580078,764.598938 
	C444.778229,762.103088 442.542023,758.972168 440.124634,756.044739 
	C440.758148,755.578674 441.391663,755.112671 442.025146,754.646667 
	C443.292145,756.514526 444.574768,758.372009 445.822144,760.252869 
	C447.401062,762.633728 449.072845,763.524170 451.514160,760.356201 
	C452.308502,760.346558 452.646362,760.652161 452.984192,760.957703 
z"/>
<path fill="#F8D2D4" opacity="1.000000" stroke="none" 
	d="
M425.937134,777.969482 
	C425.221008,778.395203 423.809418,778.838318 423.593597,778.505737 
	C421.824921,775.779419 420.278900,772.908508 418.485138,769.765991 
	C420.008026,769.123718 421.245361,768.601868 421.905334,768.323547 
	C423.241852,771.519653 424.518860,774.573547 425.937134,777.969482 
z"/>
<path fill="#F8D6D7" opacity="1.000000" stroke="none" 
	d="
M510.169800,716.890991 
	C510.764587,716.838684 511.000610,716.874939 511.593048,716.946777 
	C512.472961,719.133850 512.932800,721.303650 513.543274,723.430237 
	C513.922974,724.753113 514.530518,726.010559 515.035767,727.297424 
	C514.534912,727.533936 514.034058,727.770386 513.533203,728.006897 
	C511.660156,724.831482 509.764435,721.668457 508.002991,718.432373 
	C507.937347,718.311829 509.178711,717.479919 510.169800,716.890991 
z"/>
<path fill="#A71E22" opacity="1.000000" stroke="none" 
	d="
M300.024384,400.582214 
	C301.251221,400.169525 302.472321,400.169525 303.979065,400.169525 
	C303.979065,402.993378 303.979065,405.546356 303.906036,408.547119 
	C299.062500,407.996582 300.149933,404.205200 300.024384,400.582214 
z"/>
<path fill="#FAE1E2" opacity="1.000000" stroke="none" 
	d="
M453.352509,760.997314 
	C452.646362,760.652161 452.308502,760.346558 451.733643,760.013184 
	C450.186493,757.128662 448.876404,754.271973 447.271057,750.771423 
	C451.388550,752.820679 454.712616,758.657349 453.352509,760.997314 
z"/>
<path fill="#F9DBDC" opacity="1.000000" stroke="none" 
	d="
M466.846375,741.001709 
	C469.320953,744.263794 471.414551,747.574463 473.508179,750.885071 
	C472.911499,751.219177 472.314819,751.553284 471.718140,751.887329 
	C469.670349,748.447876 466.352966,745.747620 466.846375,741.001709 
z"/>
<path fill="#A92529" opacity="1.000000" stroke="none" 
	d="
M535.967896,212.523712 
	C534.172180,218.218933 531.823975,223.398453 530.747620,228.830017 
	C529.600769,234.617355 526.554443,236.999313 520.618408,236.957581 
	C520.377258,236.171570 520.528076,235.388519 520.744629,234.263901 
	C511.258759,233.170227 501.860870,232.086716 492.463013,231.003204 
	C492.496857,230.805542 492.530670,230.607880 492.564514,230.410233 
	C501.449280,229.351685 510.320160,228.143585 519.226379,227.315933 
	C522.333679,227.027176 523.953308,225.953369 524.766235,222.898514 
	C526.765198,215.386673 529.033630,207.946503 531.408203,200.196259 
	C533.636292,200.442368 535.649658,200.969727 538.078003,201.605759 
	C537.348755,205.251312 536.661926,208.685135 535.967896,212.523712 
z"/>
<path fill="#AD3134" opacity="1.000000" stroke="none" 
	d="
M331.961639,420.965729 
	C326.881500,431.715729 322.180145,442.589539 321.571594,454.801422 
	C320.895721,454.824432 320.219849,454.847412 319.543976,454.870392 
	C319.121216,451.911072 318.152374,448.910034 318.374634,445.999969 
	C319.147522,435.881256 324.645477,428.045929 331.689972,420.963196 
	C332.011353,421.005951 331.961639,420.965729 331.961639,420.965729 
z"/>
<path fill="#B63034" opacity="1.000000" stroke="none" 
	d="
M347.121216,427.016785 
	C347.868988,418.811615 345.242249,416.630615 337.285370,418.956604 
	C335.709198,419.417389 334.230774,420.212494 332.334473,420.909576 
	C331.961639,420.965729 332.011353,421.005951 332.034485,421.028198 
	C334.816254,416.032196 339.509094,414.334961 344.735718,414.510559 
	C350.330078,414.698517 352.879913,420.034454 350.813782,427.644592 
	C349.222351,427.633118 348.171783,427.324951 347.121216,427.016785 
z"/>
<path fill="#B02E32" opacity="1.000000" stroke="none" 
	d="
M336.517700,447.652039 
	C341.963684,449.243622 347.087219,450.626617 351.969360,451.944458 
	C347.334564,458.315033 334.215485,453.685303 329.549957,443.754730 
	C331.765045,444.984314 333.980164,446.213928 336.517700,447.652039 
z"/>
<path fill="#AC2B2F" opacity="1.000000" stroke="none" 
	d="
M346.934143,427.303101 
	C348.171783,427.324951 349.222351,427.633118 350.602112,427.979736 
	C347.911530,435.041351 339.718353,440.005341 330.223328,439.846680 
	C337.556885,437.097107 343.478027,434.003510 346.934143,427.303101 
z"/>
<path fill="#A71E22" opacity="1.000000" stroke="none" 
	d="
M362.836517,389.974487 
	C362.836517,392.090057 362.836517,394.205597 362.836517,396.658081 
	C361.339111,396.658081 359.828186,396.658081 357.869507,396.658081 
	C357.869507,394.693970 357.869507,392.778320 358.359924,390.420288 
	C360.179077,389.976746 361.507782,389.975616 362.836517,389.974487 
z"/>
<path fill="#DB1F26" opacity="1.000000" stroke="none" 
	d="
M362.908142,389.535706 
	C361.507782,389.975616 360.179077,389.976746 358.451691,389.975037 
	C358.053040,388.168488 358.053040,386.364777 358.053040,384.205750 
	C359.516510,384.205750 361.040161,384.205750 362.979767,384.205750 
	C362.979767,385.882751 362.979767,387.489838 362.908142,389.535706 
z"/>
<path fill="#AA292D" opacity="1.000000" stroke="none" 
	d="
M463.064453,236.039581 
	C463.440460,235.625793 464.053467,235.436539 464.666473,235.247284 
	C464.551422,235.616623 464.436371,235.985931 464.068542,236.510742 
	C463.644348,236.532196 463.472900,236.398163 463.064453,236.039581 
z"/>
<path fill="#DB1F26" opacity="1.000000" stroke="none" 
	d="
M433.212646,337.866516 
	C433.266602,337.702637 433.598724,337.680634 434.023132,337.839478 
	C433.907227,338.016357 433.699066,338.012390 433.212646,337.866516 
z"/>
<path fill="#DB2229" opacity="1.000000" stroke="none" 
	d="
M422.613831,577.825684 
	C422.808868,583.555298 423.114868,588.882812 422.895233,594.188477 
	C422.551819,602.485779 416.619019,609.413391 408.984497,610.937439 
	C400.268707,612.677307 392.567871,608.918701 388.854187,600.824768 
	C384.810699,592.012024 385.014954,583.062012 388.971954,574.294922 
	C392.379395,566.745422 399.214569,562.791870 406.939606,563.480042 
	C414.758514,564.176575 419.965942,568.842834 422.613831,577.825684 
z"/>
<path fill="#DB2229" opacity="1.000000" stroke="none" 
	d="
M462.349487,604.556030 
	C456.353210,595.577454 455.665100,586.270630 459.010986,576.597473 
	C462.023132,567.889038 468.872894,562.915466 477.308655,563.004822 
	C485.203613,563.088440 491.754761,568.028320 494.709137,576.390991 
	C497.346222,583.855530 497.500854,591.403320 494.487946,598.810425 
	C488.480591,613.579224 473.549133,616.371216 462.349487,604.556030 
z"/>
<path fill="#DC252C" opacity="1.000000" stroke="none" 
	d="
M252.571167,592.031189 
	C252.546783,604.898132 247.070770,611.756226 236.967957,612.021362 
	C230.782227,612.183655 227.081848,609.768250 225.522446,604.550354 
	C223.935135,599.239014 225.864365,593.184143 231.227264,591.141357 
	C237.740356,588.660461 244.781891,587.566895 252.227463,585.715820 
	C252.401779,588.689819 252.486542,590.136047 252.571167,592.031189 
z"/>
<path fill="#DB1F26" opacity="1.000000" stroke="none" 
	d="
M375.762268,802.147339 
	C375.354065,801.699402 375.289703,800.930969 375.225342,800.162476 
	C375.623383,800.290100 376.021423,800.417725 376.562836,800.824097 
	C376.506195,801.344116 376.306152,801.585388 375.762268,802.147339 
z"/>
<path fill="#DB1F26" opacity="1.000000" stroke="none" 
	d="
M391.762268,792.147339 
	C391.354095,791.699402 391.289734,790.930969 391.225342,790.162476 
	C391.623383,790.290100 392.021423,790.417725 392.562836,790.824097 
	C392.506195,791.344116 392.306152,791.585388 391.762268,792.147339 
z"/>
<path fill="#DB1F26" opacity="1.000000" stroke="none" 
	d="
M407.762268,783.147339 
	C407.354095,782.699402 407.289703,781.930969 407.225342,781.162476 
	C407.623383,781.290100 408.021423,781.417725 408.562836,781.824097 
	C408.506195,782.344116 408.306152,782.585388 407.762268,783.147339 
z"/>
<path fill="#DE3339" opacity="1.000000" stroke="none" 
	d="
M463.297058,753.605713 
	C459.862030,757.483276 457.719391,755.348145 456.509583,752.240051 
	C456.025024,750.995300 457.227234,749.094055 457.661713,747.491577 
	C459.181641,748.026123 461.033661,748.201599 462.119354,749.205688 
	C463.032898,750.050659 463.055054,751.859375 463.297058,753.605713 
z"/>
<path fill="#DE2F35" opacity="1.000000" stroke="none" 
	d="
M506.721741,728.774597 
	C505.303162,729.930908 503.237885,731.705627 502.671143,731.313721 
	C501.106995,730.231812 499.871582,728.366089 499.129608,726.554810 
	C498.830872,725.825684 499.905060,723.957458 500.814850,723.473511 
	C501.709290,722.997803 503.650024,723.174988 504.307251,723.858398 
	C505.457001,725.054016 505.975677,726.856323 506.721741,728.774597 
z"/>
<path fill="#DE2F35" opacity="1.000000" stroke="none" 
	d="
M477.441406,745.456299 
	C476.581146,744.915283 475.704102,744.615723 475.592346,744.137390 
	C475.146729,742.229248 474.677216,740.244080 474.832703,738.337708 
	C474.870331,737.876038 477.913940,736.897034 478.444366,737.385132 
	C479.874847,738.701233 481.277771,740.606201 481.508850,742.427551 
	C481.621796,743.318054 479.103607,744.542297 477.441406,745.456299 
z"/>
</svg>