<svg id="svg" version="1.1" xmlns="http://www.w3.org/2000/svg" xmlns:xlink="http://www.w3.org/1999/xlink" width="400" height="400" viewBox="0, 0, 400,400"><g id="svgg"><path id="path0" d="M0.035 95.681 C 0.055 148.305,0.158 189.904,0.265 188.122 C 3.221 138.959,23.730 93.361,58.545 58.545 C 93.361 23.730,138.959 3.221,188.122 0.265 C 189.904 0.158,148.305 0.055,95.681 0.035 L 0.000 0.000 0.035 95.681 M209.838 0.161 C 221.463 0.879,229.903 1.928,239.472 3.847 C 328.940 21.784,395.062 98.457,399.732 189.682 C 399.841 191.814,399.945 150.501,399.964 96.761 L 400.000 0.000 304.319 0.043 C 251.695 0.067,209.178 0.120,209.838 0.161 M63.703 163.274 C 42.862 166.514,38.519 195.105,57.469 204.321 C 61.923 206.487,61.316 206.425,79.424 206.581 L 95.381 206.719 96.513 207.384 C 100.011 209.440,100.518 214.271,97.512 216.909 C 95.613 218.577,97.223 218.469,73.033 218.544 L 51.166 218.611 48.258 226.359 C 46.659 230.621,45.351 234.186,45.351 234.281 C 45.351 234.376,56.878 234.419,70.966 234.378 L 96.581 234.302 98.910 233.664 C 120.551 227.736,120.852 198.217,99.340 191.532 L 97.301 190.898 81.344 190.770 C 65.503 190.643,65.380 190.638,64.404 190.116 C 59.919 187.716,60.142 181.389,64.787 179.268 C 65.531 178.928,68.141 178.870,87.558 178.764 L 109.489 178.644 111.965 172.046 C 113.327 168.416,114.657 164.880,114.921 164.187 L 115.401 162.927 90.514 162.951 C 71.935 162.969,65.139 163.051,63.703 163.274 M117.090 163.467 C 116.961 163.764,115.624 167.301,114.119 171.326 L 111.383 178.644 121.198 178.707 L 131.012 178.770 131.073 206.541 L 131.134 234.313 138.991 234.376 L 146.849 234.440 146.910 206.662 L 146.971 178.884 154.908 178.821 L 162.846 178.758 165.687 171.143 C 167.250 166.954,168.575 163.392,168.633 163.227 C 168.716 162.989,163.492 162.927,143.032 162.927 L 117.326 162.927 117.090 163.467 M167.851 170.536 C 166.286 174.732,164.958 178.299,164.900 178.464 C 164.817 178.703,169.575 178.764,188.173 178.764 C 213.905 178.764,213.003 178.714,214.848 180.240 C 216.539 181.638,216.912 182.875,216.914 187.095 L 216.917 190.746 196.941 190.818 C 174.216 190.899,175.475 190.792,170.966 193.027 C 153.343 201.764,155.370 227.401,174.152 233.323 C 177.506 234.381,178.911 234.429,206.539 234.431 L 232.753 234.433 232.753 208.388 C 232.753 179.799,232.797 180.732,231.297 176.845 C 228.832 170.453,223.328 165.574,216.453 163.687 L 214.157 163.057 192.427 162.983 L 170.697 162.908 167.851 170.536 M238.506 163.467 C 238.376 163.764,237.039 167.301,235.535 171.326 L 232.799 178.644 242.613 178.707 L 252.428 178.770 252.488 206.541 L 252.549 234.313 260.407 234.376 L 268.264 234.440 268.325 206.662 L 268.386 178.884 276.324 178.821 L 284.262 178.758 287.103 171.143 C 288.665 166.954,289.991 163.392,290.049 163.227 C 290.132 162.989,284.908 162.927,264.448 162.927 L 238.742 162.927 238.506 163.467 M289.267 170.536 C 287.702 174.732,286.374 178.299,286.316 178.464 C 286.233 178.703,290.991 178.764,309.589 178.764 C 335.321 178.764,334.419 178.714,336.264 180.240 C 337.955 181.639,338.327 182.874,338.330 187.103 L 338.332 190.762 319.076 190.765 C 297.627 190.769,297.639 190.768,293.627 192.438 C 274.903 200.233,276.183 227.212,295.567 233.323 C 298.922 234.381,300.326 234.429,327.960 234.431 L 354.181 234.433 354.115 207.618 L 354.049 180.804 353.387 178.693 C 351.023 171.156,345.452 165.769,337.869 163.687 L 335.573 163.057 313.843 162.983 L 292.112 162.908 289.267 170.536 M359.217 163.467 C 355.855 165.191,357.108 170.364,360.888 170.364 C 364.721 170.364,365.946 164.962,362.470 163.384 C 361.178 162.797,360.489 162.815,359.217 163.467 M362.494 163.877 C 365.364 165.627,364.221 169.951,360.888 169.951 C 358.301 169.951,356.767 167.102,358.165 164.896 C 358.675 164.091,359.924 163.409,360.888 163.409 C 361.350 163.409,362.073 163.620,362.494 163.877 M359.268 164.866 C 359.599 165.059,359.688 165.437,359.688 166.647 C 359.688 167.856,359.599 168.234,359.268 168.427 C 358.936 168.621,359.064 168.673,359.885 168.679 C 360.828 168.686,360.888 168.652,360.545 168.309 C 360.013 167.777,360.049 166.767,360.600 166.767 C 361.182 166.767,361.608 167.230,361.608 167.865 C 361.608 168.918,362.999 169.249,363.195 168.243 C 363.226 168.084,363.196 168.065,363.129 168.200 C 362.916 168.630,362.328 168.465,362.328 167.976 C 362.328 167.717,362.110 167.303,361.845 167.056 C 361.363 166.607,361.363 166.606,361.965 166.332 C 363.449 165.655,362.504 164.605,360.420 164.614 C 359.235 164.620,358.952 164.682,359.268 164.866 M361.805 165.398 C 361.919 165.997,361.419 166.527,360.738 166.527 C 360.168 166.527,359.886 165.448,360.339 164.996 C 360.665 164.670,361.722 164.960,361.805 165.398 M399.759 208.458 C 399.756 214.380,398.338 227.391,396.753 236.036 C 379.884 328.031,301.454 396.064,207.918 399.838 C 206.995 399.876,249.835 399.927,303.119 399.953 L 400.000 400.000 400.000 303.179 C 400.000 249.928,399.946 206.359,399.880 206.359 C 399.814 206.359,399.760 207.304,399.759 208.458 M216.917 212.606 L 216.917 218.613 198.020 218.545 L 179.124 218.476 177.879 217.820 C 173.463 215.491,173.628 209.275,178.163 207.163 L 179.364 206.603 198.140 206.601 L 216.917 206.599 216.917 212.606 M338.332 212.597 L 338.332 218.596 320.369 218.596 C 310.490 218.596,301.902 218.527,301.286 218.443 C 295.399 217.636,294.185 209.674,299.567 207.168 L 300.780 206.603 319.556 206.601 L 338.332 206.599 338.332 212.597 M0.043 304.319 L 0.000 400.000 96.761 399.964 C 150.501 399.945,191.814 399.841,189.682 399.732 C 98.457 395.062,21.784 328.940,3.847 239.472 C 1.928 229.903,0.879 221.463,0.161 209.838 C 0.120 209.178,0.067 251.695,0.043 304.319 " stroke="none" fill="#fbfbfb" fill-rule="evenodd"></path><path id="path1" d="M190.882 0.239 C 72.489 6.112,-14.330 110.982,2.065 228.314 C 13.999 313.726,80.975 382.595,166.098 396.987 C 178.739 399.124,185.079 399.623,199.760 399.632 C 211.663 399.640,214.077 399.534,221.956 398.660 C 336.336 385.970,416.216 279.834,396.987 166.098 C 380.267 67.200,290.891 -4.723,190.882 0.239 M210.798 125.965 C 233.449 129.444,253.386 142.805,264.606 162.028 L 265.131 162.927 277.736 162.927 C 284.669 162.927,290.341 162.954,290.339 162.987 C 290.337 163.020,288.998 166.611,287.362 170.966 L 284.389 178.884 278.161 178.948 L 271.932 179.012 272.381 180.628 C 276.521 195.515,275.588 212.477,269.816 227.283 C 268.624 230.340,268.506 230.811,268.506 232.537 L 268.506 234.433 267.566 234.433 C 266.633 234.433,266.616 234.450,265.518 236.465 C 249.045 266.684,212.737 281.626,179.219 271.978 C 160.512 266.594,143.575 253.094,134.598 236.413 L 133.533 234.434 132.274 234.433 L 131.014 234.433 131.014 231.732 C 131.014 229.208,130.958 228.890,130.166 226.873 C 124.746 213.075,123.754 196.057,127.524 181.581 C 127.860 180.292,128.134 179.186,128.134 179.121 C 128.134 179.057,124.301 179.004,119.616 179.004 C 114.931 179.004,111.099 178.977,111.101 178.944 C 111.102 178.911,112.442 175.321,114.077 170.966 L 117.051 163.047 126.054 162.927 L 135.057 162.807 136.823 160.045 C 152.757 135.121,182.174 121.568,210.798 125.965 M115.420 163.107 C 115.422 163.206,114.100 166.824,112.482 171.146 L 109.542 179.004 87.852 179.004 C 64.279 179.004,65.002 178.963,63.337 180.388 C 60.207 183.067,60.763 187.969,64.427 190.002 C 65.071 190.360,66.824 190.417,80.984 190.541 C 98.680 190.697,98.571 190.687,102.549 192.525 C 121.100 201.096,119.238 227.512,99.651 233.651 L 97.540 234.312 71.326 234.380 C 56.908 234.417,45.112 234.417,45.114 234.380 C 45.116 234.343,46.455 230.750,48.091 226.395 L 51.064 218.476 73.103 218.356 L 95.141 218.236 96.135 217.705 C 100.374 215.438,100.404 209.766,96.190 207.432 L 94.901 206.719 78.824 206.586 C 60.798 206.438,61.781 206.532,57.618 204.555 C 38.895 195.663,42.217 167.674,62.511 163.326 C 64.331 162.936,115.413 162.725,115.420 163.107 M336.843 163.309 C 344.975 164.984,351.382 171.074,353.735 179.364 L 354.280 181.284 354.353 207.864 L 354.425 234.445 326.283 234.377 L 298.140 234.309 296.336 233.782 C 274.226 227.330,274.918 196.496,297.295 191.053 C 298.643 190.725,301.597 190.660,318.618 190.585 L 338.375 190.499 338.290 186.851 C 338.179 182.115,337.527 180.768,334.733 179.504 C 333.670 179.022,333.278 179.015,309.820 179.009 C 289.767 179.005,286.000 178.952,286.065 178.676 C 286.108 178.495,287.439 174.879,289.022 170.640 L 291.902 162.933 313.447 162.930 C 332.203 162.928,335.233 162.977,336.843 163.309 M362.810 163.467 C 366.670 166.095,363.882 171.906,359.554 170.253 C 355.659 168.766,356.723 162.927,360.888 162.927 C 361.663 162.927,362.265 163.096,362.810 163.467 M358.821 164.435 C 356.725 166.356,358.064 169.884,360.888 169.884 C 363.712 169.884,365.050 166.356,362.955 164.435 C 362.221 163.763,361.917 163.647,360.888 163.647 C 359.858 163.647,359.555 163.763,358.821 164.435 M362.288 164.750 C 362.967 165.226,362.895 166.052,362.141 166.426 C 361.680 166.655,361.648 166.742,361.938 166.982 C 362.126 167.138,362.350 167.545,362.436 167.886 C 362.585 168.479,362.606 168.486,362.946 168.056 C 363.284 167.629,363.298 167.637,363.234 168.206 C 363.119 169.239,361.823 169.056,361.541 167.967 C 361.179 166.571,360.408 166.326,360.408 167.606 C 360.408 168.193,360.516 168.446,360.768 168.446 C 360.966 168.446,361.128 168.554,361.128 168.686 C 361.128 168.818,360.648 168.926,360.062 168.926 C 359.476 168.926,358.930 168.818,358.848 168.686 C 358.767 168.554,358.868 168.446,359.074 168.446 C 359.380 168.446,359.448 168.117,359.448 166.647 C 359.448 165.177,359.380 164.847,359.074 164.847 C 358.868 164.847,358.767 164.739,358.848 164.607 C 359.092 164.212,361.673 164.320,362.288 164.750 M360.408 165.567 C 360.408 166.166,360.504 166.287,360.982 166.287 C 361.644 166.287,361.983 165.659,361.582 165.177 C 361.068 164.557,360.408 164.776,360.408 165.567 M300.978 206.849 C 296.050 207.824,294.512 214.074,298.459 217.085 C 300.139 218.366,299.933 218.354,319.796 218.355 L 338.332 218.356 338.332 212.478 L 338.332 206.599 320.156 206.625 C 310.159 206.639,301.529 206.740,300.978 206.849 " stroke="none" fill="#143d65" fill-rule="evenodd"></path><path id="path2" d="M192.202 125.602 C 168.986 128.314,149.271 140.576,136.823 160.045 L 135.057 162.807 151.955 162.927 L 168.853 163.047 165.860 171.026 L 162.866 179.004 154.978 179.004 L 147.091 179.004 147.091 206.719 L 147.091 234.433 140.372 234.433 C 136.677 234.433,133.653 234.499,133.653 234.580 C 133.653 236.444,142.094 247.943,147.198 253.033 C 182.360 288.100,242.058 279.661,265.620 236.293 L 266.630 234.433 259.530 234.433 L 252.430 234.433 252.430 206.719 L 252.430 179.004 242.591 179.004 C 234.506 179.004,232.753 178.947,232.753 178.681 C 232.753 178.408,233.686 175.867,238.074 164.187 L 238.547 162.927 251.844 162.927 L 265.142 162.927 264.153 161.308 C 249.083 136.610,220.289 122.321,192.202 125.602 M216.437 163.498 C 224.259 165.695,230.028 171.464,232.312 179.371 L 232.864 181.284 232.937 207.865 L 233.009 234.446 204.867 234.380 L 176.725 234.313 174.565 233.639 C 153.024 226.913,153.635 196.943,175.430 191.200 C 177.416 190.677,177.722 190.668,197.202 190.583 L 216.959 190.496 216.874 186.850 C 216.777 182.691,216.513 181.883,214.767 180.388 C 213.096 178.958,213.985 179.004,188.275 179.004 C 175.257 179.004,164.607 178.952,164.607 178.889 C 164.607 178.730,170.371 163.353,170.522 163.109 C 170.803 162.654,214.757 163.026,216.437 163.498 M128.134 179.121 C 128.134 179.186,127.860 180.292,127.524 181.581 C 123.717 196.198,124.944 215.220,130.500 227.714 L 130.980 228.794 130.997 203.899 L 131.014 179.004 129.574 179.004 C 128.782 179.004,128.134 179.057,128.134 179.121 M268.522 204.729 L 268.537 230.474 269.832 227.195 C 275.572 212.661,276.505 195.792,272.403 180.684 L 271.980 179.124 270.243 179.054 L 268.506 178.983 268.522 204.729 M286.371 197.061 L 285.423 198.080 286.443 197.132 C 287.391 196.250,287.573 196.041,287.391 196.041 C 287.352 196.041,286.893 196.500,286.371 197.061 M179.459 206.823 C 173.870 207.914,173.063 215.494,178.284 217.857 C 179.341 218.335,179.770 218.346,198.140 218.351 L 216.917 218.356 216.917 212.478 L 216.917 206.599 198.620 206.626 C 188.557 206.641,179.935 206.730,179.459 206.823 M108.925 228.134 L 108.098 229.034 108.998 228.207 C 109.836 227.438,110.008 227.235,109.825 227.235 C 109.785 227.235,109.380 227.639,108.925 228.134 M341.207 341.392 L 338.692 343.971 341.272 341.456 C 342.690 340.073,343.851 338.912,343.851 338.877 C 343.851 338.703,343.544 338.996,341.207 341.392 " stroke="none" fill="#145c8c" fill-rule="evenodd"></path><path id="path3" d="M191.664 0.170 C 191.963 0.227,192.395 0.225,192.624 0.165 C 192.854 0.105,192.609 0.058,192.082 0.061 C 191.554 0.063,191.366 0.112,191.664 0.170 M207.501 0.170 C 207.800 0.227,208.232 0.225,208.461 0.165 C 208.691 0.105,208.446 0.058,207.918 0.061 C 207.391 0.063,207.203 0.112,207.501 0.170 M60.935 56.089 L 60.108 56.989 61.008 56.162 C 61.503 55.707,61.908 55.302,61.908 55.262 C 61.908 55.079,61.705 55.251,60.935 56.089 M55.896 61.128 L 55.069 62.028 55.969 61.201 C 56.806 60.431,56.979 60.228,56.796 60.228 C 56.756 60.228,56.351 60.633,55.896 61.128 M359.508 164.539 C 359.871 164.594,360.465 164.594,360.828 164.539 C 361.191 164.484,360.894 164.439,360.168 164.439 C 359.442 164.439,359.145 164.484,359.508 164.539 M359.527 166.647 C 359.528 167.570,359.571 167.919,359.623 167.421 C 359.675 166.923,359.674 166.167,359.621 165.741 C 359.568 165.316,359.526 165.723,359.527 166.647 M360.224 165.807 C 360.224 166.269,360.273 166.458,360.333 166.227 C 360.394 165.996,360.394 165.618,360.333 165.387 C 360.273 165.156,360.224 165.345,360.224 165.807 M357.104 166.767 C 357.104 167.229,357.154 167.418,357.214 167.187 C 357.274 166.956,357.274 166.578,357.214 166.347 C 357.154 166.116,357.104 166.305,357.104 166.767 M364.543 166.767 C 364.543 167.229,364.592 167.418,364.653 167.187 C 364.713 166.956,364.713 166.578,364.653 166.347 C 364.592 166.116,364.543 166.305,364.543 166.767 M226.395 169.406 C 227.045 170.066,227.630 170.606,227.696 170.606 C 227.762 170.606,227.285 170.066,226.635 169.406 C 225.985 168.746,225.399 168.206,225.333 168.206 C 225.267 168.206,225.745 168.746,226.395 169.406 M51.458 169.466 L 50.510 170.486 51.530 169.537 C 52.478 168.655,52.660 168.446,52.478 168.446 C 52.439 168.446,51.980 168.905,51.458 169.466 M347.690 169.286 C 348.138 169.748,348.558 170.126,348.624 170.126 C 348.690 170.126,348.378 169.748,347.930 169.286 C 347.483 168.824,347.062 168.446,346.996 168.446 C 346.930 168.446,347.243 168.824,347.690 169.286 M359.388 168.856 C 359.685 168.913,360.171 168.913,360.468 168.856 C 360.765 168.798,360.522 168.752,359.928 168.752 C 359.334 168.752,359.091 168.798,359.388 168.856 M87.822 178.764 L 66.107 178.888 87.748 178.946 C 101.980 178.984,109.441 178.922,109.538 178.764 C 109.620 178.632,109.653 178.550,109.612 178.582 C 109.571 178.614,99.766 178.696,87.822 178.764 M164.607 178.824 C 164.607 178.923,175.270 178.979,188.302 178.947 C 201.335 178.916,208.164 178.862,203.479 178.828 C 181.106 178.663,164.607 178.661,164.607 178.824 M286.228 178.825 C 286.328 178.925,296.985 178.979,309.911 178.945 L 333.413 178.884 309.730 178.764 C 296.704 178.698,286.128 178.726,286.228 178.825 M116.197 178.944 C 118.935 178.982,123.416 178.982,126.155 178.944 C 128.893 178.905,126.653 178.874,121.176 178.874 C 115.699 178.874,113.458 178.905,116.197 178.944 M146.961 179.064 C 146.898 179.229,146.875 191.728,146.910 206.839 L 146.973 234.313 147.032 206.662 L 147.091 179.011 155.069 178.944 L 163.047 178.878 155.061 178.821 C 148.851 178.777,147.050 178.831,146.961 179.064 M237.612 178.944 C 240.351 178.982,244.832 178.982,247.570 178.944 C 250.309 178.905,248.068 178.874,242.591 178.874 C 237.115 178.874,234.874 178.905,237.612 178.944 M268.377 179.064 C 268.314 179.229,268.291 191.728,268.326 206.839 L 268.388 234.313 268.447 206.662 L 268.506 179.011 276.365 178.944 L 284.223 178.877 276.357 178.821 C 270.243 178.777,268.466 178.831,268.377 179.064 M214.517 180.039 C 214.517 180.080,214.868 180.431,215.297 180.819 L 216.077 181.524 215.372 180.744 C 214.715 180.017,214.517 179.854,214.517 180.039 M45.188 184.763 C 45.188 185.621,45.231 185.972,45.285 185.543 C 45.338 185.114,45.338 184.412,45.285 183.983 C 45.231 183.554,45.188 183.905,45.188 184.763 M232.869 208.998 C 232.869 223.053,232.898 228.803,232.933 221.776 C 232.969 214.748,232.969 203.248,232.933 196.221 C 232.898 189.193,232.869 194.943,232.869 208.998 M354.285 208.878 C 354.285 222.867,354.314 228.626,354.349 221.674 C 354.384 214.723,354.384 203.277,354.349 196.239 C 354.314 189.201,354.285 194.889,354.285 208.878 M0.061 192.082 C 0.063 192.609,0.112 192.797,0.170 192.499 C 0.227 192.200,0.225 191.768,0.165 191.539 C 0.105 191.309,0.058 191.554,0.061 192.082 M399.832 194.601 C 399.832 195.327,399.877 195.624,399.932 195.261 C 399.987 194.898,399.987 194.304,399.932 193.941 C 399.877 193.578,399.832 193.875,399.832 194.601 M399.829 205.279 C 399.830 205.939,399.877 206.180,399.932 205.816 C 399.987 205.451,399.986 204.911,399.929 204.616 C 399.872 204.321,399.827 204.619,399.829 205.279 M0.061 207.918 C 0.063 208.446,0.112 208.634,0.170 208.336 C 0.227 208.037,0.225 207.605,0.165 207.376 C 0.105 207.146,0.058 207.391,0.061 207.918 M158.683 212.478 C 158.684 213.269,158.729 213.564,158.782 213.133 C 158.836 212.702,158.834 212.054,158.780 211.693 C 158.725 211.333,158.681 211.686,158.683 212.478 M280.096 212.597 C 280.096 213.323,280.141 213.620,280.196 213.257 C 280.251 212.894,280.251 212.301,280.196 211.938 C 280.141 211.575,280.096 211.872,280.096 212.597 M99.401 212.478 C 99.403 213.005,99.452 213.193,99.510 212.895 C 99.567 212.596,99.565 212.164,99.505 211.935 C 99.445 211.705,99.398 211.950,99.401 212.478 M61.728 218.536 C 67.633 218.572,77.298 218.572,83.203 218.536 C 89.109 218.500,84.277 218.471,72.466 218.471 C 60.654 218.471,55.822 218.500,61.728 218.536 M189.400 218.536 C 194.524 218.572,202.838 218.572,207.876 218.536 C 212.914 218.500,208.722 218.470,198.560 218.470 C 188.398 218.470,184.276 218.500,189.400 218.536 M310.816 218.536 C 315.939 218.572,324.254 218.572,329.292 218.536 C 334.330 218.500,330.138 218.470,319.976 218.470 C 309.814 218.470,305.692 218.500,310.816 218.536 M164.967 227.954 C 165.482 228.482,165.958 228.914,166.024 228.914 C 166.090 228.914,165.722 228.482,165.207 227.954 C 164.691 227.427,164.216 226.995,164.150 226.995 C 164.084 226.995,164.452 227.427,164.967 227.954 M193.941 399.932 C 194.304 399.987,194.898 399.987,195.261 399.932 C 195.624 399.877,195.327 399.832,194.601 399.832 C 193.875 399.832,193.578 399.877,193.941 399.932 M204.742 399.932 C 205.107 399.987,205.647 399.986,205.942 399.929 C 206.237 399.872,205.939 399.827,205.279 399.829 C 204.619 399.830,204.378 399.877,204.742 399.932 " stroke="none" fill="#8c94ac" fill-rule="evenodd"></path><path id="path4" d="M193.341 0.169 C 193.638 0.227,194.124 0.227,194.421 0.169 C 194.718 0.112,194.475 0.065,193.881 0.065 C 193.287 0.065,193.044 0.112,193.341 0.169 M205.462 0.172 C 205.827 0.227,206.367 0.226,206.662 0.169 C 206.957 0.112,206.659 0.067,205.999 0.069 C 205.339 0.070,205.097 0.117,205.462 0.172 M58.422 58.608 L 56.749 60.348 58.488 58.675 C 60.104 57.121,60.338 56.869,60.162 56.869 C 60.125 56.869,59.342 57.651,58.422 58.608 M73.502 190.702 C 77.438 190.739,83.809 190.739,87.660 190.702 C 91.510 190.665,88.290 190.634,80.504 190.634 C 72.717 190.634,69.567 190.665,73.502 190.702 M188.782 190.702 C 193.962 190.738,202.439 190.738,207.618 190.702 C 212.798 190.666,208.560 190.636,198.200 190.636 C 187.840 190.636,183.602 190.666,188.782 190.702 M310.198 190.702 C 315.378 190.738,323.854 190.738,329.034 190.702 C 334.214 190.666,329.976 190.636,319.616 190.636 C 309.256 190.636,305.018 190.666,310.198 190.702 M0.065 193.881 C 0.065 194.475,0.112 194.718,0.169 194.421 C 0.227 194.124,0.227 193.638,0.169 193.341 C 0.112 193.044,0.065 193.287,0.065 193.881 M399.859 200.000 C 399.859 202.376,399.895 203.315,399.939 202.087 C 399.983 200.860,399.982 198.916,399.939 197.768 C 399.895 196.620,399.859 197.624,399.859 200.000 M108.938 197.121 C 109.386 197.582,109.806 197.960,109.872 197.960 C 109.938 197.960,109.626 197.582,109.178 197.121 C 108.730 196.659,108.310 196.281,108.244 196.281 C 108.178 196.281,108.491 196.659,108.938 197.121 M0.069 205.999 C 0.070 206.659,0.117 206.900,0.172 206.535 C 0.227 206.171,0.226 205.631,0.169 205.336 C 0.112 205.041,0.067 205.339,0.069 205.999 M197.768 399.939 C 198.916 399.982,200.860 399.983,202.087 399.939 C 203.315 399.895,202.376 399.859,200.000 399.859 C 197.624 399.859,196.620 399.895,197.768 399.939 " stroke="none" fill="#6a7e97" fill-rule="evenodd"></path></g></svg>